<?xml version="1.0" standalone="no"?>
<!DOCTYPE svg PUBLIC "-//W3C//DTD SVG 1.1//EN" "http://www.w3.org/Graphics/SVG/1.1/DTD/svg11.dtd" >
<svg xmlns="http://www.w3.org/2000/svg" xmlns:xlink="http://www.w3.org/1999/xlink" version="1.1">
<metadata>
Created by FontForge 20170731 at Mon Nov 25 20:08:48 2013
 By Aleksey,,,
Copyright (c) 2013 by Chorong Kim &#38; Cadson Demak Team for SCG Group. All rights reserved.
</metadata>
<defs>
<font id="SCG-Italic" horiz-adv-x="0" >
  <font-face 
    font-family="SCG"
    font-weight="400"
    font-style="italic"
    font-stretch="normal"
    units-per-em="1000"
    panose-1="2 0 5 3 0 0 0 2 0 4"
    ascent="800"
    descent="-200"
    x-height="450"
    cap-height="610"
    bbox="-559 -471 1081 1102"
    underline-thickness="20"
    underline-position="-173"
    slope="-6"
    unicode-range="U+0020-FB02"
  />
<missing-glyph horiz-adv-x="555" 
d="M562 0h-555v700h555v-700zM284 395l189 255h-377zM507 95v510l-189 -255zM473 50l-189 255l-188 -255h377zM63 95l188 255l-188 255v-510z" />
    <glyph glyph-name="uni0E5A" unicode="&#xe2f;&#xe2f;" horiz-adv-x="646" 
d="M533 -80h-71l66 627h71zM367 -80h-72l56 535q-54 -110 -168 -110q-59 0 -92.5 29t-33.5 85q0 41 20 88h67q-18 -34 -18 -69q0 -30 15.5 -50.5t48.5 -20.5q106 0 171 140h72z" />
    <glyph glyph-name="uni0E4F.liga" unicode="&#xe4f;&#x22;" horiz-adv-x="551" 
d="M248 532h-50l13 205h68zM398 532h-50l13 205h68zM251 18q-85 0 -145 59t-60 149q0 107 70.5 178.5t167.5 71.5q86 0 146 -58t60 -148q0 -107 -70.5 -179.5t-168.5 -72.5zM256 60q79 0 135 60.5t56 143.5q0 70 -49.5 120t-117.5 50q-78 0 -134.5 -60.5t-56.5 -142.5
q0 -71 49.5 -121t117.5 -50zM257 154q40 0 69.5 30t29.5 72q0 35 -22.5 59.5t-56.5 24.5q-39 0 -68 -30t-29 -72q0 -36 22 -60t55 -24zM260 116q-48 0 -82.5 35t-34.5 85q0 57 39.5 99.5t93.5 42.5q48 0 82.5 -35t34.5 -84q0 -58 -39 -100.5t-94 -42.5z" />
    <glyph glyph-name="uni0E24.liga" unicode="&#xe24;&#xe32;" horiz-adv-x="960" 
d="M833 -223h-72l58 547q10 93 -23 132t-120 39q-82 0 -157 -26q28 -55 19 -145l-57 -547h-72l58 547q10 93 -23 132t-120 39q-89 0 -170 -30v-65l-28 -259q-6 -51 8 -70.5t47 -19.5q49 0 90 27l-8 -65q-32 -24 -104 -24q-53 0 -83.5 34.5t-22.5 109.5l29 271v103
q121 52 243 52q96 0 148 -37q109 37 204 37q237 0 213 -235z" />
    <glyph glyph-name="uni0E26.liga" unicode="&#xe26;&#xe32;" horiz-adv-x="944" 
d="M817 -223h-72l58 547q10 93 -23 132t-120 39q-67 0 -127 -17q30 -55 19 -154l-57 -547h-72l58 547q10 94 -18 132.5t-107 38.5q-78 0 -159 -30v-65l-30 -278q-9 -77 -39 -105t-86 -28q-39 0 -60 12l7 63q20 -13 46 -13q28 0 41.5 16.5t18.5 56.5l30 280v103
q121 52 232 52q79 0 126 -29q96 29 178 29q237 0 213 -235z" />
    <glyph glyph-name="fi" unicode="fi" horiz-adv-x="548" 
d="M119 -215h-72l63 608h-80l6 57h80l2 21q9 94 75 142t176 48q81 0 143 -26l-7 -61q-68 26 -137 26q-83 0 -128 -31t-52 -99l-2 -20h137l-6 -57h-135zM445 0h-72l47 450h72z" />
    <glyph glyph-name="fl" unicode="fl" horiz-adv-x="548" 
d="M445 0h-70l62 594q-44 7 -81 7q-155 0 -168 -131l-2 -20h137l-6 -57h-135l-64 -608h-72l64 608h-80l6 57h80l2 21q9 92 71.5 141t168.5 49q87 0 154 -18z" />
    <glyph glyph-name=".notdef" horiz-adv-x="555" 
d="M562 0h-555v700h555v-700zM284 395l189 255h-377zM507 95v510l-189 -255zM473 50l-189 255l-188 -255h377zM63 95l188 255l-188 255v-510z" />
    <glyph glyph-name=".null" 
 />
    <glyph glyph-name="nonmarkingreturn" horiz-adv-x="333" 
 />
    <glyph glyph-name="space" unicode=" " horiz-adv-x="252" 
 />
    <glyph glyph-name="exclam" unicode="!" horiz-adv-x="232" 
d="M134 215h-56l29 395h80zM84 -8q-22 0 -36.5 15t-14.5 37q0 26 17 43.5t42 17.5q22 0 37 -15t15 -38q0 -26 -17.5 -43t-42.5 -17z" />
    <glyph glyph-name="quotedbl" unicode="&#x22;" horiz-adv-x="327" 
d="M130 410h-53l18 240h69zM269 410h-52l18 240h69z" />
    <glyph glyph-name="numbersign" unicode="#" horiz-adv-x="580" 
d="M326 0h-58l54 179h-150l-54 -179h-58l55 179h-94l6 58h106l53 174h-92l6 59h103l55 178h58l-55 -178h150l55 178h58l-55 -178h94l-6 -59h-105l-53 -174h93l-6 -58h-106zM341 237l53 174h-150l-53 -174h150z" />
    <glyph glyph-name="dollar" unicode="$" horiz-adv-x="580" 
d="M277 -100h-52l10 90q-58 3 -110.5 22.5t-82.5 43.5l34 57q73 -60 184 -60q28 0 54 4.5t51 15.5t40 32.5t15 51.5q0 20 -7.5 35.5t-28 30.5t-32 22t-45.5 23.5t-43 20.5q-83 42 -111 65q-55 46 -55 108q0 76 53.5 115.5t149.5 43.5l10 89h52l-10 -90q95 -6 156 -56
l-33 -55q-65 49 -155 49q-149 0 -149 -94q0 -25 21 -48t40.5 -34t62.5 -32q4 -2 6.5 -3.5t5.5 -2.5q6 -3 32.5 -15.5t37.5 -18.5t33.5 -19.5t33.5 -25.5t24.5 -28.5t19 -36t5.5 -41.5q0 -78 -57 -118.5t-150 -49.5z" />
    <glyph glyph-name="percent" unicode="%" horiz-adv-x="657" 
d="M112 0h-58l490 610h57zM181 329q-56 0 -88.5 36.5t-32.5 92.5q0 72 38.5 117.5t105.5 45.5q57 0 89 -36t32 -94q0 -72 -38 -117t-106 -45zM182 372q44 0 69 32t25 87q0 42 -18.5 64.5t-53.5 22.5q-45 0 -70 -32t-25 -86q0 -42 19 -65t54 -23zM451 -11q-56 0 -88.5 36.5
t-32.5 92.5q0 72 38.5 117.5t105.5 45.5q57 0 89 -36t32 -94q0 -72 -38 -117t-106 -45zM452 32q44 0 69 32t25 87q0 42 -18.5 64.5t-53.5 22.5q-45 0 -70 -32t-25 -86q0 -42 19 -65t54 -23z" />
    <glyph glyph-name="ampersand" unicode="&#x26;" horiz-adv-x="611" 
d="M561 0h-81l-59 67q-44 -40 -90 -59.5t-109 -19.5q-86 0 -141.5 42.5t-55.5 119.5q0 66 38.5 110t114.5 83q-64 71 -64 131q0 65 45.5 106.5t127.5 41.5q81 0 123 -43.5t35 -118.5h-65q11 106 -90 106q-51 0 -79.5 -23t-28.5 -63q0 -45 55 -109l186 -214q53 77 64 178h65
q-13 -128 -89 -225zM382 109l-165 192q-120 -55 -120 -151q0 -54 38.5 -77.5t87.5 -23.5q96 0 159 60z" />
    <glyph glyph-name="quotesingle" unicode="'" horiz-adv-x="195" 
d="M133 410h-52l18 240h69z" />
    <glyph glyph-name="parenleft" unicode="(" horiz-adv-x="266" 
d="M205 -89l-5 -44q-68 49 -111 138.5t-43 197.5q0 154 68 272.5t170 181.5l-5 -43q-74 -62 -119.5 -171.5t-45.5 -240.5q0 -94 24.5 -171t66.5 -120z" />
    <glyph glyph-name="parenright" unicode=")" horiz-adv-x="266" 
d="M-28 -133l4 44q74 62 119.5 171t45.5 240q0 95 -24 172t-66 120l4 43q68 -49 111 -138.5t43 -196.5q0 -156 -67.5 -273t-169.5 -182z" />
    <glyph glyph-name="asterisk" unicode="*" horiz-adv-x="414" 
d="M341 358l-101 83l-7 -137h-55l24 137l-119 -83l-23 43l131 72l-116 73l32 41l101 -81l7 136h55l-24 -136l119 81l22 -41l-129 -73l114 -72z" />
    <glyph glyph-name="plus" unicode="+" horiz-adv-x="496" 
d="M454 279h-178l-21 -196h-64l21 196h-178l7 61h178l20 196h64l-20 -196h178z" />
    <glyph glyph-name="comma" unicode="," horiz-adv-x="217" 
d="M41 -118l-33 13q54 51 59 98q-18 1 -31 15t-13 36q0 26 17 43.5t43 17.5q54 0 54 -56q0 -45 -30 -92.5t-66 -74.5z" />
    <glyph glyph-name="hyphen" unicode="-" horiz-adv-x="310" 
d="M271 272h-243l7 65h243z" />
    <glyph glyph-name="period" unicode="." horiz-adv-x="215" 
d="M74 -8q-22 0 -36.5 15t-14.5 37q0 26 17 43.5t42 17.5q22 0 37 -15t15 -38q0 -26 -17.5 -43t-42.5 -17z" />
    <glyph glyph-name="slash" unicode="/" horiz-adv-x="443" 
d="M40 -40h-66l426 690h65z" />
    <glyph glyph-name="zero" unicode="0" horiz-adv-x="580" 
d="M263 -12q-99 0 -158.5 71t-59.5 197q0 173 73.5 269.5t200.5 96.5q101 0 158 -70t57 -198q0 -175 -70 -270.5t-201 -95.5zM317 559q-98 0 -148.5 -82.5t-50.5 -221.5q0 -204 145 -204q98 0 148.5 82.5t50.5 221.5q0 204 -145 204z" />
    <glyph glyph-name="one" unicode="1" horiz-adv-x="344" 
d="M221 0h-72l57 531q-59 -73 -161 -68l7 63q102 -4 170 84h64z" />
    <glyph glyph-name="two" unicode="2" horiz-adv-x="487" 
d="M403 0h-394l6 57q183 114 267.5 205t84.5 182q0 115 -127 115q-83 0 -165 -38l8 68q73 33 160 33q104 0 151 -51t47 -129q0 -56 -25 -109.5t-73 -101.5t-99 -86.5t-119 -80.5h284z" />
    <glyph glyph-name="three" unicode="3" horiz-adv-x="472" 
d="M295 319l-1 -2q48 -11 79.5 -45t31.5 -89q0 -97 -61.5 -146t-162.5 -49q-100 0 -176 52l6 66q81 -55 166 -55q157 0 157 131q0 109 -186 104l6 61q194 -5 194 127q0 85 -121 85q-80 0 -160 -37l7 65q76 35 162 35q80 0 132 -35.5t52 -107.5q0 -63 -36 -103.5t-89 -56.5z
" />
    <glyph glyph-name="four" unicode="4" horiz-adv-x="513" 
d="M364 0h-70l14 127h-308l6 56l349 427h74l-44 -421h89l-7 -62h-89zM315 189l33 322l-257 -322h224z" />
    <glyph glyph-name="five" unicode="5" horiz-adv-x="499" 
d="M15 36l7 66q76 -51 169 -51q172 0 172 150q0 113 -148 113q-85 0 -160 -15l46 311h344l-7 -64h-278l-27 -178q61 8 91 8q102 0 156.5 -44t54.5 -124q0 -105 -64 -162.5t-177 -57.5q-115 0 -179 48z" />
    <glyph glyph-name="six" unicode="6" horiz-adv-x="530" 
d="M452 594l-7 -63q-48 29 -110 29q-89 0 -147 -65t-72 -185q29 36 80.5 60.5t103.5 24.5q88 0 133 -50t45 -129q0 -102 -62.5 -165t-154.5 -63q-105 0 -161.5 64t-56.5 192q0 180 82.5 279t209.5 99q63 0 117 -28zM107 240v-12q0 -81 39 -129.5t113 -48.5q60 0 105 41
t45 125q0 53 -28 86.5t-92 33.5q-51 0 -99.5 -25.5t-82.5 -70.5z" />
    <glyph glyph-name="seven" unicode="7" horiz-adv-x="450" 
d="M155 0h-76l281 546h-312l7 64h392l-6 -55z" />
    <glyph glyph-name="eight" unicode="8" horiz-adv-x="522" 
d="M327 311l-1 -2q65 -12 99.5 -49.5t34.5 -92.5q0 -85 -60 -132t-172 -47q-90 0 -144.5 39.5t-54.5 107.5q0 134 171 172q0 1 -1 2q-123 28 -123 141q0 77 57.5 124.5t152.5 47.5q89 0 139.5 -39.5t50.5 -105.5q0 -114 -149 -166zM249 278q-150 -38 -150 -136q0 -48 35 -72
t99 -24q61 0 110 29.5t49 92.5q0 88 -143 110zM278 340q59 21 93.5 52t34.5 82q0 41 -31.5 66t-89.5 25q-64 0 -103 -31.5t-39 -81.5q0 -48 34 -74t101 -38z" />
    <glyph glyph-name="nine" unicode="9" horiz-adv-x="530" 
d="M77 16l7 63q48 -30 109 -30q88 0 144.5 65t70.5 185q-32 -37 -80 -60.5t-104 -23.5q-88 0 -131 49t-43 124q0 106 64.5 170t165.5 64q96 0 150.5 -65t54.5 -192q0 -179 -83 -278t-209 -99q-62 0 -116 28zM417 370q2 86 -34 138t-108 52q-64 0 -110 -41t-46 -124
q0 -54 28 -87.5t91 -33.5q109 0 179 96z" />
    <glyph glyph-name="colon" unicode=":" horiz-adv-x="251" 
d="M92 -8q-22 0 -36.5 15t-14.5 37q0 26 17 43.5t42 17.5q22 0 37 -15t15 -38q0 -26 -17.5 -43t-42.5 -17zM131 360q-22 0 -36.5 15t-14.5 37q0 26 17 43.5t42 17.5q22 0 37 -15t15 -38q0 -26 -17.5 -43t-42.5 -17z" />
    <glyph glyph-name="semicolon" unicode=";" horiz-adv-x="251" 
d="M131 360q-22 0 -36.5 15t-14.5 37q0 26 17 43.5t42 17.5q22 0 37 -15t15 -38q0 -26 -17.5 -43t-42.5 -17zM57 -118l-33 13q54 51 59 98q-18 1 -31 15t-13 36q0 26 17 43.5t43 17.5q54 0 54 -56q0 -45 -30 -92.5t-66 -74.5z" />
    <glyph glyph-name="less" unicode="&#x3c;" horiz-adv-x="496" 
d="M416 102l-388 212l6 56l434 212l-8 -64l-369 -178l331 -178z" />
    <glyph glyph-name="equal" unicode="=" horiz-adv-x="496" 
d="M451 361h-397l6 58h397zM433 191h-397l6 59h397z" />
    <glyph glyph-name="greater" unicode="&#x3e;" horiz-adv-x="496" 
d="M467 314l-432 -212l8 64l367 178l-330 178l5 60l388 -212z" />
    <glyph glyph-name="question" unicode="?" horiz-adv-x="416" 
d="M203 215h-68q175 152 175 261q0 85 -95 85q-77 0 -155 -40l6 64q68 37 157 37q73 0 116 -35t43 -107q0 -124 -179 -265zM143 -8q-22 0 -36.5 15t-14.5 37q0 26 17 43.5t42 17.5q22 0 37 -15t15 -38q0 -26 -17.5 -43t-42.5 -17z" />
    <glyph glyph-name="at" unicode="@" horiz-adv-x="710" 
d="M603 136h42q-100 -148 -295 -148q-152 0 -230 78.5t-78 205.5q0 75 22 143.5t64 124.5t112 89t159 33q127 0 198 -73.5t71 -182.5q0 -110 -52.5 -189.5t-129.5 -79.5q-34 0 -52 18t-19 46q-21 -28 -52 -46t-64 -18q-59 0 -90.5 36.5t-31.5 100.5q0 92 51.5 163t138.5 71
q41 0 68.5 -21t37.5 -47l21 59h55l-75 -256q-7 -28 -7 -36q0 -27 31 -27q49 0 89.5 66.5t40.5 157.5q0 96 -57.5 159.5t-170.5 63.5q-73 0 -131 -25t-92.5 -63t-57 -87.5t-30.5 -93.5t-8 -86q0 -49 13.5 -91t43.5 -79t84.5 -58t129.5 -21q166 0 251 113zM419 259l36 126
q-6 34 -23.5 55t-57.5 21q-57 0 -94.5 -57t-37.5 -128q0 -44 18.5 -67.5t48.5 -23.5q67 0 110 74z" />
    <glyph glyph-name="A" unicode="A" horiz-adv-x="616" 
d="M567 0h-73l-45 150h-310l-78 -150h-79l318 610h80zM430 213l-59 199l-35 131h-2l-62 -131l-100 -199h258z" />
    <glyph glyph-name="B" unicode="B" horiz-adv-x="565" 
d="M275 0h-236l65 610h240q163 0 163 -140q0 -49 -23.5 -89t-62.5 -64v-2q89 -32 89 -128q0 -52 -18.5 -89.5t-52.5 -58t-74 -30t-90 -9.5zM119 62h163q32 0 56 4.5t48 17t36.5 38.5t12.5 65q0 30 -10 49.5t-29.5 28t-38 11t-46.5 2.5h-169zM148 340h170q115 0 115 128
q0 41 -23 60.5t-78 19.5h-162z" />
    <glyph glyph-name="C" unicode="C" horiz-adv-x="586" 
d="M521 117l-7 -75q-70 -54 -182 -54q-126 0 -207 77.5t-81 208.5q0 162 95 255t246 93q107 0 173 -36l-7 -73q-65 44 -162 44q-120 0 -195 -75.5t-75 -207.5q0 -104 58.5 -162.5t158.5 -58.5t185 64z" />
    <glyph glyph-name="D" unicode="D" horiz-adv-x="620" 
d="M119 65h131q126 0 188.5 69.5t62.5 214.5q0 104 -48.5 150t-147.5 46h-135zM251 0h-212l65 610h204q127 0 197 -66.5t70 -193.5q0 -170 -83.5 -260t-240.5 -90z" />
    <glyph glyph-name="E" unicode="E" horiz-adv-x="489" 
d="M407 0h-368l65 610h368l-7 -65h-295l-22 -202h269l-6 -64h-269l-23 -214h295z" />
    <glyph glyph-name="F" unicode="F" horiz-adv-x="476" 
d="M415 249h-276l-27 -249h-73l65 610h368l-7 -65h-295l-25 -232h276z" />
    <glyph glyph-name="G" unicode="G" horiz-adv-x="636" 
d="M480 96l22 208h72l-26 -248q-92 -68 -221 -68q-125 0 -204 77.5t-79 207.5q0 161 102.5 255t254.5 94q115 0 183 -38l-7 -72q-72 45 -175 45q-125 0 -203.5 -75t-78.5 -209q0 -104 57.5 -161.5t152.5 -57.5q86 0 150 42z" />
    <glyph glyph-name="H" unicode="H" horiz-adv-x="633" 
d="M527 0h-74l30 278h-340l-30 -278h-74l65 610h74l-29 -267h340l29 267h74z" />
    <glyph glyph-name="I" unicode="I" horiz-adv-x="222" 
d="M115 0h-74l65 610h74z" />
    <glyph glyph-name="J" unicode="J" horiz-adv-x="341" 
d="M182 176l46 434h74l-46 -439q-11 -96 -54 -138.5t-119 -42.5q-57 0 -90 16l7 65q26 -17 74 -17q50 0 75 26.5t33 95.5z" />
    <glyph glyph-name="K" unicode="K" horiz-adv-x="513" 
d="M461 0h-83l-234 320l-33 -320h-72l65 610h72l-29 -269l283 269h87l-295 -282z" />
    <glyph glyph-name="L" unicode="L" horiz-adv-x="451" 
d="M392 0h-353l65 610h73l-58 -545h280z" />
    <glyph glyph-name="M" unicode="M" horiz-adv-x="775" 
d="M690 0h-70l7 345l11 176h-2l-72 -166l-171 -355h-71l-95 355l-38 166h-2l-27 -176l-65 -345h-76l122 610h85l108 -402l28 -138h2l55 138l194 402h85z" />
    <glyph glyph-name="N" unicode="N" horiz-adv-x="638" 
d="M533 0h-73l-193 327q-60 98 -105 197h-2q0 -74 -13 -180l-36 -344h-72l65 610h74l193 -327q58 -97 104 -197h2q0 82 12 180l36 344h73z" />
    <glyph glyph-name="O" unicode="O" horiz-adv-x="714" 
d="M329 53q118 0 191 75.5t73 208.5q0 104 -57 162t-154 58q-116 0 -189.5 -76t-73.5 -209q0 -106 56 -162.5t154 -56.5zM330 -12q-123 0 -204.5 77t-81.5 207q0 160 97 255t240 95q124 0 205.5 -76t81.5 -208q0 -164 -95 -257t-243 -93z" />
    <glyph glyph-name="P" unicode="P" horiz-adv-x="542" 
d="M143 291h140q80 0 120 34.5t40 111.5q0 58 -32.5 83.5t-100.5 25.5h-140zM112 0h-73l65 610h205q208 0 208 -173q0 -105 -61 -157.5t-172 -52.5h-148z" />
    <glyph glyph-name="Q" unicode="Q" horiz-adv-x="714" 
d="M623 -65l-8 -73q-51 -25 -113 -25q-137 0 -184 151q-118 4 -196 80.5t-78 203.5q0 160 97 255t240 95q124 0 205.5 -76t81.5 -208q0 -148 -78 -239t-205 -107q29 -93 126 -93q60 0 112 36zM329 53q118 0 191 75.5t73 208.5q0 104 -57 162t-154 58q-116 0 -189.5 -76
t-73.5 -209q0 -106 56 -162.5t154 -56.5z" />
    <glyph glyph-name="R" unicode="R" horiz-adv-x="558" 
d="M512 0h-72q-50 154 -156 259h-145l-27 -259h-73l65 610h209q202 0 202 -155q0 -75 -37 -123t-124 -67v-2q102 -100 158 -263zM146 323h133q83 0 123 30.5t40 100.5q0 52 -33.5 72t-105.5 20h-133z" />
    <glyph glyph-name="S" unicode="S" horiz-adv-x="491" 
d="M16 49l7 66q79 -64 190 -64q141 0 141 107q0 11 -2 20.5t-7.5 19t-9.5 16t-15 15t-16 12.5t-20 12.5t-20 11.5t-23 12.5t-23 11.5q-78 41 -103 63q-49 45 -50 107q0 83 58 123t159 40q86 0 154 -31l-7 -66q-73 34 -149 34q-71 0 -106 -22t-35 -72q0 -22 9.5 -39.5
t31 -33.5t38.5 -26t51 -27q28 -14 36.5 -18.5t34 -19.5t36 -26t26 -29t21.5 -39t6 -45q0 -89 -58.5 -131.5t-160.5 -42.5q-121 0 -194 61z" />
    <glyph glyph-name="T" unicode="T" horiz-adv-x="530" 
d="M269 0h-74l58 546l-204 -1l7 65h482l-7 -65l-204 1z" />
    <glyph glyph-name="U" unicode="U" horiz-adv-x="649" 
d="M502 268l36 342h73l-37 -349q-13 -134 -77.5 -203.5t-196.5 -69.5q-264 0 -235 273l37 349h74l-36 -342q-12 -114 25.5 -164t132.5 -50t143.5 50.5t60.5 163.5z" />
    <glyph glyph-name="V" unicode="V" horiz-adv-x="589" 
d="M299 0h-76l-174 610h74l110 -387l33 -154h1l67 154l190 387h80z" />
    <glyph glyph-name="W" unicode="W" horiz-adv-x="906" 
d="M656 0h-70l-90 417l-18 118h-2l-42 -118l-180 -417h-69l-132 610h73l79 -378l21 -148h2l55 148l163 378h72l83 -378l24 -148h2l53 148l158 378h79z" />
    <glyph glyph-name="X" unicode="X" horiz-adv-x="602" 
d="M545 0h-77l-171 262l-226 -262h-85l273 313l-195 297h78l162 -249l215 249h85l-264 -301z" />
    <glyph glyph-name="Y" unicode="Y" horiz-adv-x="579" 
d="M294 0h-74l25 236l-194 374h73l101 -200l57 -121h4l82 121l144 200h80l-273 -374z" />
    <glyph glyph-name="Z" unicode="Z" horiz-adv-x="532" 
d="M453 0h-443l6 57l391 491l-327 -2l7 64h415l-6 -57l-391 -490l355 1z" />
    <glyph glyph-name="bracketleft" unicode="[" horiz-adv-x="270" 
d="M194 -136h-152l84 798h152l-6 -58h-84l-72 -681h84z" />
    <glyph glyph-name="backslash" unicode="\" horiz-adv-x="443" 
d="M392 -40h-65l-280 690h66z" />
    <glyph glyph-name="bracketright" unicode="]" horiz-adv-x="270" 
d="M133 -136h-152l6 59h85l72 681h-85l6 58h152z" />
    <glyph glyph-name="asciicircum" unicode="^" horiz-adv-x="492" 
d="M442 252h-60l-108 293l-170 -293h-68l211 358h58z" />
    <glyph glyph-name="underscore" unicode="_" horiz-adv-x="342" 
d="M298 -101h-342l5 40h342z" />
    <glyph glyph-name="grave" unicode="`" horiz-adv-x="310" 
d="M241 512h-46l-95 138h79z" />
    <glyph glyph-name="a" unicode="a" horiz-adv-x="526" 
d="M423 0h-57l2 97q-16 -42 -56.5 -75.5t-97.5 -33.5q-83 0 -131 49.5t-48 150.5q0 130 66.5 202t193.5 72q73 0 172 -38zM369 168l23 212q-49 21 -96 21q-96 0 -142 -59t-46 -149q0 -145 116 -145q82 0 145 120z" />
    <glyph glyph-name="b" unicode="b" horiz-adv-x="536" 
d="M42 41l63 609h72l-31 -291q24 47 68.5 75t100.5 28q83 0 125 -53.5t42 -145.5q0 -275 -223 -275q-116 0 -217 53zM139 286l-23 -210q56 -28 147 -28q63 0 104.5 52.5t41.5 155.5q0 146 -107 146q-48 0 -91 -33.5t-72 -82.5z" />
    <glyph glyph-name="c" unicode="c" horiz-adv-x="466" 
d="M401 103l-7 -64q-62 -51 -148 -51q-97 0 -154 60.5t-57 157.5q0 109 70.5 182.5t187.5 73.5q83 0 138 -34l-7 -63q-57 39 -129 39q-83 0 -135 -56t-52 -142q0 -70 38.5 -115t101.5 -45q47 0 82 13.5t71 43.5z" />
    <glyph glyph-name="d" unicode="d" horiz-adv-x="536" 
d="M432 0h-57l2 97q-17 -42 -59 -75.5t-101 -33.5q-83 0 -132.5 50t-49.5 150q0 120 64 197t167 77q79 0 139 -56l24 244h71zM378 168l20 179q-52 54 -132 54q-74 0 -116 -60.5t-42 -147.5q0 -75 32.5 -110t87.5 -35q52 0 86.5 32t63.5 88z" />
    <glyph glyph-name="e" unicode="e" horiz-adv-x="511" 
d="M418 110l-7 -66q-61 -56 -153 -56q-110 0 -166.5 57.5t-56.5 153.5q0 113 71 188t191 75q76 0 119.5 -37t43.5 -95q0 -157 -357 -157q8 -128 157 -128q79 0 158 65zM104 223q52 0 100 5.5t92.5 17t71.5 33.5t27 52q0 71 -100 71q-86 0 -136.5 -50.5t-54.5 -128.5z" />
    <glyph glyph-name="f" unicode="f" horiz-adv-x="345" 
d="M119 -215h-72l63 608h-80l6 57h80l4 45q8 83 52.5 125t120.5 42q44 0 77 -14l-7 -60q-32 13 -66 13q-49 0 -74 -25t-32 -84l-5 -42h146l-6 -57h-144z" />
    <glyph glyph-name="g" unicode="g" horiz-adv-x="526" 
d="M369 168l23 212q-49 21 -96 21q-96 0 -142 -59t-46 -149q0 -145 116 -145q82 0 145 120zM355 -18l13 115q-16 -42 -56.5 -75.5t-97.5 -33.5q-83 0 -131 49.5t-48 150.5q0 130 66.5 202t193.5 72q73 0 172 -38l-45 -447q-11 -101 -59 -146t-145 -45q-105 0 -189 45l7 66
q29 -16 48 -25t53.5 -17.5t73.5 -8.5q69 0 100.5 28.5t43.5 107.5z" />
    <glyph glyph-name="h" unicode="h" horiz-adv-x="549" 
d="M450 0h-73l29 278q2 22 2 27q0 95 -75 95q-61 0 -106 -30.5t-87 -82.5l-31 -287h-72l68 650h72l-30 -293q84 105 193 105q64 0 102.5 -41.5t38.5 -115.5q0 -8 -2 -30z" />
    <glyph glyph-name="i" unicode="i" horiz-adv-x="213" 
d="M109 0h-72l48 450h72zM188 586q0 -25 -15 -40.5t-44 -15.5q-23 0 -35 12t-12 32q0 25 15 41t43 16q48 0 48 -45z" />
    <glyph glyph-name="j" unicode="j" horiz-adv-x="222" 
d="M196 586q0 -25 -15 -40.5t-42 -15.5q-48 0 -48 46q0 25 15.5 40t42.5 15q47 0 47 -45zM-86 -212l5 57q27 -9 45 -9q36 0 52.5 17t21.5 60l56 537h72l-56 -531q-2 -20 -4.5 -34.5t-11.5 -36.5t-22 -36.5t-37 -25t-56 -10.5t-65 12z" />
    <glyph glyph-name="k" unicode="k" horiz-adv-x="458" 
d="M408 0h-78l-196 243l-25 -243h-72l68 650h72l-41 -391l212 191h92l-229 -203z" />
    <glyph glyph-name="l" unicode="l" horiz-adv-x="211" 
d="M108 0h-71l68 650h71z" />
    <glyph glyph-name="m" unicode="m" horiz-adv-x="810" 
d="M711 0h-71l30 283q2 22 2 31q0 45 -17.5 65.5t-56.5 20.5q-89 0 -158 -108l-31 -292h-72l30 283q2 22 2 33q0 43 -15.5 63.5t-50.5 20.5q-89 0 -164 -108l-31 -292h-73l47 450h61v-93q66 105 171 105q100 0 122 -106q71 106 178 106q129 0 129 -139q0 -11 -2 -35z" />
    <glyph glyph-name="n" unicode="n" horiz-adv-x="545" 
d="M446 0h-71l29 275q6 63 -14.5 94t-62.5 31q-104 0 -189 -115l-30 -285h-73l47 450h61l-2 -97q86 109 200 109q71 0 107.5 -45.5t27.5 -132.5z" />
    <glyph glyph-name="o" unicode="o" horiz-adv-x="557" 
d="M248 -12q-98 0 -155.5 58t-57.5 153q0 112 70.5 187.5t184.5 75.5q97 0 155.5 -59t58.5 -150q0 -115 -71 -190t-185 -75zM249 46q79 0 130 57t51 144q0 70 -38.5 113.5t-103.5 43.5q-78 0 -129 -57t-51 -143q0 -70 38 -114t103 -44z" />
    <glyph glyph-name="p" unicode="p" horiz-adv-x="534" 
d="M85 -215h-73l70 665h63l1 -95q67 107 174 107q78 0 118.5 -55.5t40.5 -140.5q0 -131 -62.5 -204.5t-161.5 -73.5q-80 0 -142 65zM138 284l-16 -167q34 -69 130 -69q69 0 112.5 57t43.5 161q0 136 -102 136q-99 0 -168 -118z" />
    <glyph glyph-name="q" unicode="q" horiz-adv-x="526" 
d="M401 -215h-69l36 312q-16 -42 -56.5 -75.5t-97.5 -33.5q-83 0 -131 49.5t-48 150.5q0 130 66.5 202t193.5 72q73 0 172 -38zM369 168l23 212q-49 21 -96 21q-96 0 -142 -59t-46 -149q0 -145 116 -145q82 0 145 120z" />
    <glyph glyph-name="r" unicode="r" horiz-adv-x="359" 
d="M108 0h-73l47 450h59l-1 -120h2q37 64 84 98.5t127 25.5l-9 -74q-77 2 -122 -29.5t-87 -95.5z" />
    <glyph glyph-name="s" unicode="s" horiz-adv-x="401" 
d="M11 34l6 63q70 -51 159 -51q53 0 74.5 16t21.5 52q0 31 -24.5 51t-84.5 41q-119 41 -119 129q0 59 45 93t131 34q70 0 124 -28l-7 -59q-54 30 -113 30q-114 0 -114 -66q0 -30 24.5 -47t75.5 -37q31 -12 46.5 -20.5t38.5 -25t33.5 -40t10.5 -55.5q0 -62 -42.5 -94
t-118.5 -32q-45 0 -93 14t-74 32z" />
    <glyph glyph-name="t" unicode="t" horiz-adv-x="373" 
d="M313 77l-6 -60q-42 -29 -97 -29q-128 0 -128 127q0 10 2 32l26 246h-80l6 57h81l34 142h50l-15 -142h165l-6 -57h-165l-26 -240q-2 -24 -2 -33q0 -40 15.5 -57t52.5 -17q52 0 93 31z" />
    <glyph glyph-name="u" unicode="u" horiz-adv-x="531" 
d="M430 0h-60l1 97h-2q-72 -109 -180 -109q-65 0 -103 36.5t-38 106.5q0 16 1 27l31 292h73l-30 -282q-2 -22 -2 -27q0 -91 75 -91q104 0 178 116l31 284h72z" />
    <glyph glyph-name="v" unicode="v" horiz-adv-x="464" 
d="M234 0h-70l-131 450h72l64 -242l33 -144h2l62 144l116 242h77z" />
    <glyph glyph-name="w" unicode="w" horiz-adv-x="711" 
d="M507 0h-68l-60 281q-4 17 -8.5 51.5t-7.5 51.5h-2q-7 -22 -37 -103l-119 -281h-67l-101 450h68l56 -276l13 -106h2l40 106l118 276h67l60 -276l15 -106h2l38 106l113 276h73z" />
    <glyph glyph-name="x" unicode="x" horiz-adv-x="477" 
d="M428 0h-81l-123 186l-160 -186h-81l208 232l-149 218h79l113 -173l150 173h79l-194 -218z" />
    <glyph glyph-name="y" unicode="y" horiz-adv-x="476" 
d="M128 -93l45 93l-140 450h69l75 -255l34 -128h2l66 143l117 240h75l-284 -555q-19 -36 -28.5 -52.5t-26 -35.5t-35 -26t-44.5 -7q-43 0 -83 17l7 61q36 -20 77 -20q25 0 39.5 16t34.5 59z" />
    <glyph glyph-name="z" unicode="z" horiz-adv-x="437" 
d="M364 0h-361l5 52l298 339l-250 -1l6 60h337l-5 -52l-299 -339l275 1z" />
    <glyph glyph-name="braceleft" unicode="{" horiz-adv-x="270" 
d="M209 -73l-6 -52q-21 -8 -45 -8q-47 0 -70.5 30.5t-18.5 82.5l18 166q9 90 -58 95l5 48q68 5 78 95l18 166q5 52 35 82.5t77 30.5q24 0 43 -8l-5 -52q-20 6 -33 6q-26 0 -38 -15t-17 -58l-17 -157q-9 -87 -82 -114q68 -28 58 -114l-17 -157q-5 -42 4.5 -57.5t35.5 -15.5
q14 0 35 6z" />
    <glyph glyph-name="bar" unicode="|" horiz-adv-x="230" 
d="M90 -215h-62l92 865h62z" />
    <glyph glyph-name="braceright" unicode="}" horiz-adv-x="270" 
d="M-26 -125l5 52q21 -6 34 -6q25 0 37.5 15t17.5 58l17 157q10 87 82 114q-67 27 -58 114l16 157q5 42 -4.5 57.5t-34.5 15.5q-14 0 -35 -6l6 52q19 8 45 8q47 0 70 -30.5t18 -82.5l-18 -166q-10 -90 59 -95l-6 -48q-69 -5 -78 -95l-17 -166q-5 -52 -35 -82.5t-77 -30.5
q-26 0 -44 8z" />
    <glyph glyph-name="asciitilde" unicode="~" horiz-adv-x="437" 
d="M395 359l-8 -71q-56 -45 -99 -45q-34 0 -77 30t-70 30q-42 0 -101 -53l8 71q53 44 99 44q35 0 77 -29t71 -29q48 0 100 52z" />
    <glyph glyph-name="uni007F" horiz-adv-x="427" 
 />
    <glyph glyph-name="nbspace" unicode="&#xa0;" horiz-adv-x="246" 
 />
    <glyph glyph-name="exclamdown" unicode="&#xa1;" horiz-adv-x="232" 
d="M107 -160h-80l54 395h56zM120 346q-22 0 -35.5 14t-13.5 36q0 27 18 44.5t43 17.5q21 0 35 -14t14 -37q0 -26 -18 -43.5t-43 -17.5z" />
    <glyph glyph-name="cent" unicode="&#xa2;" horiz-adv-x="580" 
d="M326 -100h-52l8 90q-93 8 -146.5 67.5t-53.5 148.5q0 105 68.5 175t182.5 80l9 89h52l-9 -88q70 -4 125 -36l-7 -60q-57 39 -141 39q-94 0 -150.5 -56t-56.5 -142q0 -72 45 -116.5t124 -44.5q78 0 155 46l-7 -62q-65 -37 -138 -41z" />
    <glyph glyph-name="sterling" unicode="&#xa3;" horiz-adv-x="580" 
d="M475 0h-424l6 59q52 34 71 67t26 84l12 114h-80l4 49h81l6 55q10 91 71.5 142t153.5 51q73 0 117 -23l-7 -62q-42 23 -104 23q-67 0 -109 -33.5t-50 -98.5l-6 -54h167l-4 -49h-168l-12 -116q-9 -89 -85 -144h341z" />
    <glyph glyph-name="currency" unicode="&#xa4;" horiz-adv-x="560" 
d="M508 125l-41 -40l-62 63q-56 -39 -118 -39t-118 39l-62 -63l-41 40l63 63q-40 53 -40 119q0 65 39 118l-62 62l41 40l62 -62q53 40 118 40t118 -40l62 62l41 -40l-62 -62q39 -52 39 -118t-40 -119zM287 454q-60 0 -102 -43.5t-42 -103.5t42 -103.5t102 -43.5t102 43.5
t42 103.5t-42 103.5t-102 43.5z" />
    <glyph glyph-name="yen" unicode="&#xa5;" horiz-adv-x="581" 
d="M458 151h-147l-16 -151h-74l16 151h-148l5 49h148l7 61h-148l5 49h117l-158 300h74l148 -303h4l211 303h78l-223 -300h118l-5 -49h-147l-7 -61h147z" />
    <glyph glyph-name="brokenbar" unicode="&#xa6;" horiz-adv-x="256" 
d="M169 296h-68v354h68v-354zM169 -215h-68v354h68v-354z" />
    <glyph glyph-name="section" unicode="&#xa7;" horiz-adv-x="580" 
d="M68 -196l8 69q70 -34 148 -34q123 0 123 83q0 33 -29 59t-70.5 46t-83.5 42.5t-71 60t-29 86.5q0 111 135 180q-54 47 -54 113q0 73 56 111t141 38q79 0 148 -27l-8 -65q-69 30 -139 30q-57 0 -93.5 -21t-36.5 -61q0 -24 18.5 -46t39.5 -34.5t58 -30.5q26 -13 31.5 -16
t30 -17.5t33.5 -22t27 -23.5t25 -29.5t13.5 -32.5t6.5 -40q0 -55 -38 -99t-98 -85q54 -46 54 -111q0 -73 -54.5 -111.5t-136.5 -38.5q-97 0 -155 27zM274 87l34 -17q119 78 119 147q0 11 -2.5 21t-8.5 19.5t-11.5 16.5t-16.5 15.5t-17.5 13.5t-21 13t-21 11t-23 11.5
t-21.5 10.5l-33 16q-118 -56 -118 -144q0 -30 23 -56.5t41 -37t64 -33.5q9 -5 13 -7z" />
    <glyph glyph-name="dieresis" unicode="&#xa8;" horiz-adv-x="310" 
d="M73 532q-45 0 -45 42q0 25 14 40t40 15q45 0 45 -42q0 -55 -54 -55zM338 586q0 -24 -14 -39t-41 -15q-45 0 -45 42q0 55 54 55q46 0 46 -43z" />
    <glyph glyph-name="copyright" unicode="&#xa9;" horiz-adv-x="732" 
d="M689 303q0 -132 -90.5 -221t-225.5 -89t-225.5 89t-90.5 221t90.5 221t225.5 89t225.5 -89t90.5 -221zM646 303q0 118 -76.5 194.5t-196.5 76.5q-119 0 -195.5 -76.5t-76.5 -194.5t76 -194t196 -76q119 0 196 76t77 194zM509 191v-52q-46 -28 -120 -28q-89 0 -145 54
t-56 138q0 82 56 136t145 54q67 0 117 -27v-53q-56 33 -114 33q-64 0 -101.5 -39.5t-37.5 -103.5t38.5 -104.5t101.5 -40.5q61 0 116 33z" />
    <glyph glyph-name="ordfeminine" unicode="&#xaa;" horiz-adv-x="407" 
d="M346 280h-54l1 66q-11 -29 -41.5 -52t-72.5 -23q-55 0 -89.5 37.5t-34.5 111.5q0 93 52.5 147t140.5 54q55 0 131 -30zM295 416l15 140q-35 13 -62 13q-65 0 -97 -42t-32 -104q0 -50 19.5 -74t48.5 -24q72 0 108 91z" />
    <glyph glyph-name="guillemotleft" unicode="&#xab;" horiz-adv-x="435" 
d="M198 62h-69l-110 209l155 212h69l-155 -211zM369 62h-70l-109 209l154 212h70l-156 -211z" />
    <glyph glyph-name="logicalnot" unicode="&#xac;" horiz-adv-x="513" 
d="M439 174h-67l22 203h-330l7 61h397z" />
    <glyph glyph-name="hypen" unicode="&#xad;" horiz-adv-x="326" 
d="M298 272h-256v65h256v-65z" />
    <glyph glyph-name="registered" unicode="&#xae;" horiz-adv-x="732" 
d="M689 303q0 -132 -90.5 -221t-225.5 -89t-225.5 89t-90.5 221t90.5 221t225.5 89t225.5 -89t90.5 -221zM646 303q0 118 -76.5 194.5t-196.5 76.5q-119 0 -195.5 -76.5t-76.5 -194.5t76 -194t196 -76q119 0 196 76t77 194zM533 125h-62l-31 102q-9 27 -21.5 37.5
t-46.5 10.5h-69v-150h-59v364h137q66 0 100 -26t34 -75q0 -68 -70 -91v-1q23 -8 34 -21t19 -40zM303 323h40q25 0 37 0.5t29.5 3.5t25.5 9.5t14 19t6 31.5q0 37 -22 46.5t-91 9.5h-39v-120z" />
    <glyph glyph-name="overscore" unicode="&#xaf;" horiz-adv-x="310" 
d="M311 538h-264l6 55h264z" />
    <glyph glyph-name="degree" unicode="&#xb0;" horiz-adv-x="306" 
d="M168 427q-47 0 -77.5 31.5t-30.5 77.5q0 54 36.5 89.5t90.5 35.5q47 0 77.5 -31t30.5 -76q0 -54 -36 -90.5t-91 -36.5zM170 470q35 0 57 23t22 59q0 30 -17 48.5t-47 18.5q-35 0 -57 -23.5t-22 -59.5q0 -30 17 -48t47 -18z" />
    <glyph glyph-name="plusminus" unicode="&#xb1;" horiz-adv-x="496" 
d="M456 289h-178l-21 -197h-64l21 197h-178l6 61h178l21 196h64l-21 -196h178zM425 0h-420l5 52h420z" />
    <glyph glyph-name="twosuperior" unicode="&#xb2;" horiz-adv-x="352" 
d="M292 287h-253l5 43q217 123 217 223q0 62 -77 62q-50 0 -104 -24l4 47q56 22 105 22q125 0 125 -106q0 -114 -183 -220h167z" />
    <glyph glyph-name="threesuperior" unicode="&#xb3;" horiz-adv-x="342" 
d="M39 313l5 49q53 -35 115 -35q88 0 88 71q0 63 -118 58l4 41q60 -1 91 14.5t31 55.5q0 47 -75 47q-58 0 -104 -23l4 46q48 23 106 23q53 0 86.5 -23t33.5 -68q0 -63 -70 -90v-1q29 -9 46.5 -32t17.5 -54q0 -54 -37.5 -82.5t-104.5 -28.5q-77 0 -119 32z" />
    <glyph glyph-name="acute" unicode="&#xb4;" horiz-adv-x="310" 
d="M160 512h-53l90 138h86z" />
    <glyph glyph-name="mu" unicode="&#xb5;" horiz-adv-x="532" 
d="M85 -215h-73l70 665h73l-33 -314q52 -86 143 -86q101 0 113 118l30 282h71l-31 -292q-9 -84 -53 -127t-112 -43q-113 0 -167 87h-2q-2 -14 -4 -41.5t-3 -41.5z" />
    <glyph glyph-name="paragraph" unicode="&#xb6;" horiz-adv-x="525" 
d="M390 -215h-57l84 797h-82l-84 -797h-57l46 438h-2q-82 0 -137 56.5t-55 138.5q0 95 70.5 163.5t166.5 68.5h198z" />
    <glyph glyph-name="middot" unicode="&#xb7;" horiz-adv-x="218" 
d="M103 234q-22 0 -36.5 15t-14.5 37q0 26 17 43.5t42 17.5q22 0 37 -15t15 -38q0 -26 -17.5 -43t-42.5 -17z" />
    <glyph glyph-name="cedilla" unicode="&#xb8;" horiz-adv-x="310" 
d="M51 -193l5 50q27 -9 55 -9q58 0 58 39q0 38 -83 40l24 80l37 -4q-7 -26 -9 -47q86 -6 86 -70q0 -46 -33.5 -66.5t-80.5 -20.5q-29 0 -59 8z" />
    <glyph glyph-name="onesuperior" unicode="&#xb9;" horiz-adv-x="248" 
d="M168 287h-53l31 301q-33 -41 -99 -39l5 50q64 -4 109 54h46z" />
    <glyph glyph-name="ordmasculine" unicode="&#xba;" horiz-adv-x="402" 
d="M200 272q-72 0 -115 45t-43 113q0 81 52 136t136 55q72 0 115 -44.5t43 -112.5q0 -82 -52 -137t-136 -55zM202 320q53 0 87 41t34 102q0 50 -24 80t-70 30q-54 0 -88.5 -40.5t-34.5 -101.5q0 -50 25 -80.5t71 -30.5z" />
    <glyph glyph-name="guillemotright" unicode="&#xbb;" horiz-adv-x="435" 
d="M254 62h-69l155 210l-111 211h69l109 -212zM83 62h-69l154 210l-110 211h69l109 -212z" />
    <glyph glyph-name="onequarter" unicode="&#xbc;" horiz-adv-x="721" 
d="M645 610l-498 -610h-58l500 610h56zM600 0h-53l8 74h-190l4 36l220 256h50l-27 -249h57l-4 -43h-57zM559 117l19 175l-146 -175h127zM202 244h-53l31 301q-33 -41 -99 -39l5 50q64 -4 109 54h46z" />
    <glyph glyph-name="onehalf" unicode="&#xbd;" horiz-adv-x="721" 
d="M616 610l-498 -610h-58l500 610h56zM202 244h-53l31 301q-33 -41 -99 -39l5 50q64 -4 109 54h46zM640 0h-253l5 43q217 123 217 223q0 62 -77 62q-50 0 -104 -24l4 47q56 22 105 22q125 0 125 -106q0 -114 -183 -220h167z" />
    <glyph glyph-name="threequarters" unicode="&#xbe;" horiz-adv-x="721" 
d="M600 0h-53l8 74h-190l4 36l220 256h50l-27 -249h57l-4 -43h-57zM559 117l19 175l-146 -175h127zM34 269l5 49q53 -35 115 -35q88 0 88 71q0 63 -118 58l4 41q60 -1 91 14.5t31 55.5q0 47 -75 47q-58 0 -104 -23l4 46q48 23 106 23q53 0 86.5 -23t33.5 -68q0 -63 -70 -90
v-1q29 -9 46.5 -32t17.5 -54q0 -54 -37.5 -82.5t-104.5 -28.5q-77 0 -119 32zM662 610l-498 -610h-58l500 610h56z" />
    <glyph glyph-name="questiondown" unicode="&#xbf;" horiz-adv-x="409" 
d="M336 -75l-6 -60q-74 -36 -164 -36q-69 0 -110.5 34t-41.5 101q0 40 16 79.5t47.5 76.5t55.5 60t61 55h67q-174 -153 -174 -261q0 -84 94 -84q83 0 155 35zM306 407q0 -26 -19 -43.5t-45 -17.5q-21 0 -35 14.5t-14 36.5q0 26 18.5 43.5t43.5 17.5q22 0 36.5 -14t14.5 -37z
" />
    <glyph glyph-name="Agrave" unicode="&#xc0;" horiz-adv-x="616" 
d="M567 0h-73l-45 150h-310l-78 -150h-79l318 610h80zM430 213l-59 199l-35 131h-2l-62 -131l-100 -199h258zM367 672h-46l-95 138h79z" />
    <glyph glyph-name="Aacute" unicode="&#xc1;" horiz-adv-x="616" 
d="M567 0h-73l-45 150h-310l-78 -150h-79l318 610h80zM430 213l-59 199l-35 131h-2l-62 -131l-100 -199h258zM356 672h-53l90 138h86z" />
    <glyph glyph-name="Acircumflex" unicode="&#xc2;" horiz-adv-x="616" 
d="M567 0h-73l-45 150h-310l-78 -150h-79l318 610h80zM430 213l-59 199l-35 131h-2l-62 -131l-100 -199h258zM482 672h-50l-74 80l-90 -80h-58l123 133h53z" />
    <glyph glyph-name="Atilde" unicode="&#xc3;" horiz-adv-x="616" 
d="M567 0h-73l-45 150h-310l-78 -150h-79l318 610h80zM430 213l-59 199l-35 131h-2l-62 -131l-100 -199h258zM449 781h46q-2 -46 -23 -72.5t-60 -26.5q-28 0 -64 26t-54 26q-35 0 -37 -47h-46q2 47 23.5 73t59.5 26q28 0 63 -26t54 -26q18 0 28 13t10 34z" />
    <glyph glyph-name="Adieresis" unicode="&#xc4;" horiz-adv-x="616" 
d="M567 0h-73l-45 150h-310l-78 -150h-79l318 610h80zM430 213l-59 199l-35 131h-2l-62 -131l-100 -199h258zM242 692q-45 0 -45 42q0 25 14 40t40 15q45 0 45 -42q0 -55 -54 -55zM507 746q0 -24 -14 -39t-41 -15q-45 0 -45 42q0 55 54 55q46 0 46 -43z" />
    <glyph glyph-name="Aring" unicode="&#xc5;" horiz-adv-x="616" 
d="M567 0h-73l-45 150h-310l-78 -150h-79l318 610h80zM430 213l-59 199l-35 131h-2l-62 -131l-100 -199h258zM348 651q-42 0 -67.5 24t-25.5 60q0 43 28.5 71t75.5 28q41 0 67 -23.5t26 -59.5q0 -44 -28.5 -72t-75.5 -28zM359 795q-26 0 -42 -16t-16 -42q0 -21 12.5 -34
t34.5 -13q26 0 42 16t16 42q0 21 -12.5 34t-34.5 13z" />
    <glyph glyph-name="AE" unicode="&#xc6;" horiz-adv-x="832" 
d="M750 0h-360l16 148h-234l-108 -148h-80l449 610h382l-7 -65h-289l-22 -202h263l-7 -64h-263l-22 -214h289zM413 211l34 319l-230 -319h196z" />
    <glyph glyph-name="Ccedilla" unicode="&#xc7;" horiz-adv-x="586" 
d="M521 117l-7 -75q-70 -54 -182 -54q-126 0 -207 77.5t-81 208.5q0 162 95 255t246 93q107 0 173 -36l-7 -73q-65 44 -162 44q-120 0 -195 -75.5t-75 -207.5q0 -104 58.5 -162.5t158.5 -58.5t185 64zM243 -193l5 50q27 -9 55 -9q58 0 58 39q0 38 -83 40l24 80l37 -4
q-7 -26 -9 -47q86 -6 86 -70q0 -46 -33.5 -66.5t-80.5 -20.5q-29 0 -59 8z" />
    <glyph glyph-name="Egrave" unicode="&#xc8;" horiz-adv-x="489" 
d="M407 0h-368l65 610h368l-7 -65h-295l-22 -202h269l-6 -64h-269l-23 -214h295zM342 672h-46l-95 138h79z" />
    <glyph glyph-name="Eacute" unicode="&#xc9;" horiz-adv-x="489" 
d="M407 0h-368l65 610h368l-7 -65h-295l-22 -202h269l-6 -64h-269l-23 -214h295zM254 672h-53l90 138h86z" />
    <glyph glyph-name="Ecircumflex" unicode="&#xca;" horiz-adv-x="489" 
d="M407 0h-368l65 610h368l-7 -65h-295l-22 -202h269l-6 -64h-269l-23 -214h295zM418 672h-50l-74 80l-90 -80h-58l123 133h53z" />
    <glyph glyph-name="Edieresis" unicode="&#xcb;" horiz-adv-x="489" 
d="M407 0h-368l65 610h368l-7 -65h-295l-22 -202h269l-6 -64h-269l-23 -214h295zM179 692q-45 0 -45 42q0 25 14 40t40 15q45 0 45 -42q0 -55 -54 -55zM444 746q0 -24 -14 -39t-41 -15q-45 0 -45 42q0 55 54 55q46 0 46 -43z" />
    <glyph glyph-name="Igrave" unicode="&#xcc;" horiz-adv-x="222" 
d="M115 0h-74l65 610h74zM192 672h-46l-95 138h79z" />
    <glyph glyph-name="Iacute" unicode="&#xcd;" horiz-adv-x="222" 
d="M115 0h-74l65 610h74zM168 672h-53l90 138h86z" />
    <glyph glyph-name="Icircumflex" unicode="&#xce;" horiz-adv-x="222" 
d="M115 0h-74l65 610h74zM287 672h-50l-74 80l-90 -80h-58l123 133h53z" />
    <glyph glyph-name="Idieresis" unicode="&#xcf;" horiz-adv-x="222" 
d="M115 0h-74l65 610h74zM49 692q-45 0 -45 42q0 25 14 40t40 15q45 0 45 -42q0 -55 -54 -55zM314 746q0 -24 -14 -39t-41 -15q-45 0 -45 42q0 55 54 55q46 0 46 -43z" />
    <glyph glyph-name="Eth" unicode="&#xd0;" horiz-adv-x="620" 
d="M251 0h-212l29 279h-58l6 56h58l30 275h204q127 0 197 -66.5t70 -193.5q0 -170 -83.5 -260t-240.5 -90zM119 65h131q126 0 188.5 69.5t62.5 214.5q0 104 -48.5 150t-147.5 46h-135l-23 -210h144l-6 -56h-144z" />
    <glyph glyph-name="Ntilde" unicode="&#xd1;" horiz-adv-x="638" 
d="M533 0h-73l-193 327q-60 98 -105 197h-2q0 -74 -13 -180l-36 -344h-72l65 610h74l193 -327q58 -97 104 -197h2q0 82 12 180l36 344h73zM460 781h46q-2 -46 -23 -72.5t-60 -26.5q-28 0 -64 26t-54 26q-35 0 -37 -47h-46q2 47 23.5 73t59.5 26q28 0 63 -26t54 -26
q18 0 28 13t10 34z" />
    <glyph glyph-name="Ograve" unicode="&#xd2;" horiz-adv-x="714" 
d="M329 53q118 0 191 75.5t73 208.5q0 104 -57 162t-154 58q-116 0 -189.5 -76t-73.5 -209q0 -106 56 -162.5t154 -56.5zM330 -12q-123 0 -204.5 77t-81.5 207q0 160 97 255t240 95q124 0 205.5 -76t81.5 -208q0 -164 -95 -257t-243 -93zM445 672h-46l-95 138h79z" />
    <glyph glyph-name="Oacute" unicode="&#xd3;" horiz-adv-x="714" 
d="M329 53q118 0 191 75.5t73 208.5q0 104 -57 162t-154 58q-116 0 -189.5 -76t-73.5 -209q0 -106 56 -162.5t154 -56.5zM330 -12q-123 0 -204.5 77t-81.5 207q0 160 97 255t240 95q124 0 205.5 -76t81.5 -208q0 -164 -95 -257t-243 -93zM395 672h-53l90 138h86z" />
    <glyph glyph-name="Ocircumflex" unicode="&#xd4;" horiz-adv-x="714" 
d="M329 53q118 0 191 75.5t73 208.5q0 104 -57 162t-154 58q-116 0 -189.5 -76t-73.5 -209q0 -106 56 -162.5t154 -56.5zM330 -12q-123 0 -204.5 77t-81.5 207q0 160 97 255t240 95q124 0 205.5 -76t81.5 -208q0 -164 -95 -257t-243 -93zM531 672h-50l-74 80l-90 -80h-58
l123 133h53z" />
    <glyph glyph-name="Otilde" unicode="&#xd5;" horiz-adv-x="714" 
d="M329 53q118 0 191 75.5t73 208.5q0 104 -57 162t-154 58q-116 0 -189.5 -76t-73.5 -209q0 -106 56 -162.5t154 -56.5zM330 -12q-123 0 -204.5 77t-81.5 207q0 160 97 255t240 95q124 0 205.5 -76t81.5 -208q0 -164 -95 -257t-243 -93zM498 781h46q-2 -46 -23 -72.5
t-60 -26.5q-28 0 -64 26t-54 26q-35 0 -37 -47h-46q2 47 23.5 73t59.5 26q28 0 63 -26t54 -26q18 0 28 13t10 34z" />
    <glyph glyph-name="Odieresis" unicode="&#xd6;" horiz-adv-x="714" 
d="M329 53q118 0 191 75.5t73 208.5q0 104 -57 162t-154 58q-116 0 -189.5 -76t-73.5 -209q0 -106 56 -162.5t154 -56.5zM330 -12q-123 0 -204.5 77t-81.5 207q0 160 97 255t240 95q124 0 205.5 -76t81.5 -208q0 -164 -95 -257t-243 -93zM291 692q-45 0 -45 42q0 25 14 40
t40 15q45 0 45 -42q0 -55 -54 -55zM556 746q0 -24 -14 -39t-41 -15q-45 0 -45 42q0 55 54 55q46 0 46 -43z" />
    <glyph glyph-name="multiply" unicode="&#xd7;" horiz-adv-x="496" 
d="M419 159l-49 -46l-127 151l-160 -151l-37 46l157 150l-126 151l47 46l129 -151l158 151l39 -46l-159 -151z" />
    <glyph glyph-name="Oslash" unicode="&#xd8;" horiz-adv-x="714" 
d="M98 -18h-64l83 92q-73 75 -73 198q0 160 97 255t240 95q107 0 181 -55l53 59h63l-81 -90q71 -77 71 -198q0 -164 -95 -257t-243 -93q-102 0 -178 54l-3 -3zM163 125l353 392q-53 40 -134 40q-116 0 -189.5 -76t-73.5 -209q0 -90 44 -147zM550 484l-354 -393
q53 -38 133 -38q118 0 191 75.5t73 208.5q0 91 -43 147z" />
    <glyph glyph-name="Ugrave" unicode="&#xd9;" horiz-adv-x="657" 
d="M502 268l36 342h73l-37 -349q-13 -134 -77.5 -203.5t-196.5 -69.5q-264 0 -235 273l37 349h74l-36 -342q-12 -114 25.5 -164t132.5 -50t143.5 50.5t60.5 163.5zM407 672h-46l-95 138h79z" />
    <glyph glyph-name="Uacute" unicode="&#xda;" horiz-adv-x="657" 
d="M502 268l36 342h73l-37 -349q-13 -134 -77.5 -203.5t-196.5 -69.5q-264 0 -235 273l37 349h74l-36 -342q-12 -114 25.5 -164t132.5 -50t143.5 50.5t60.5 163.5zM376 672h-53l90 138h86z" />
    <glyph glyph-name="Ucircumflex" unicode="&#xdb;" horiz-adv-x="657" 
d="M502 268l36 342h73l-37 -349q-13 -134 -77.5 -203.5t-196.5 -69.5q-264 0 -235 273l37 349h74l-36 -342q-12 -114 25.5 -164t132.5 -50t143.5 50.5t60.5 163.5zM503 672h-50l-74 80l-90 -80h-58l123 133h53z" />
    <glyph glyph-name="Udieresis" unicode="&#xdc;" horiz-adv-x="657" 
d="M502 268l36 342h73l-37 -349q-13 -134 -77.5 -203.5t-196.5 -69.5q-264 0 -235 273l37 349h74l-36 -342q-12 -114 25.5 -164t132.5 -50t143.5 50.5t60.5 163.5zM263 692q-45 0 -45 42q0 25 14 40t40 15q45 0 45 -42q0 -55 -54 -55zM528 746q0 -24 -14 -39t-41 -15
q-45 0 -45 42q0 55 54 55q46 0 46 -43z" />
    <glyph glyph-name="Yacute" unicode="&#xdd;" horiz-adv-x="579" 
d="M294 0h-74l25 236l-194 374h73l101 -200l57 -121h4l82 121l144 200h80l-273 -374zM338 672h-53l90 138h86z" />
    <glyph glyph-name="Thorn" unicode="&#xde;" horiz-adv-x="543" 
d="M134 205h136q80 0 118.5 31.5t38.5 108.5q0 55 -31.5 78t-99.5 23h-136zM262 141h-135l-15 -141h-73l65 610h73l-11 -100h135q199 0 199 -165q0 -204 -238 -204z" />
    <glyph glyph-name="germandbls" unicode="&#xdf;" horiz-adv-x="578" 
d="M209 33l7 58q67 -44 132 -44q47 0 71.5 24t24.5 64q0 29 -17 50t-41.5 34l-49 26t-41.5 34t-17 49q0 30 17 51.5t41 34.5t47.5 25.5t40.5 34t17 50.5q0 37 -29.5 56.5t-83.5 19.5q-86 0 -125.5 -47t-48.5 -126l-45 -427h-72l47 437q10 101 72 163t175 62
q83 0 131.5 -36.5t48.5 -101.5q0 -38 -17 -66.5t-41 -44t-48 -27.5t-41 -25t-17 -28q0 -16 17.5 -30t42 -26.5t49 -28.5t42 -45t17.5 -67q0 -69 -46 -108t-118 -39q-79 0 -142 44z" />
    <glyph glyph-name="agrave" unicode="&#xe0;" horiz-adv-x="492" 
d="M423 0h-57l2 97q-16 -42 -56.5 -75.5t-97.5 -33.5q-83 0 -131 49.5t-48 150.5q0 130 66.5 202t193.5 72q73 0 172 -38zM369 168l23 212q-49 21 -96 21q-96 0 -142 -59t-46 -149q0 -145 116 -145q82 0 145 120zM345 512h-46l-95 138h79z" />
    <glyph glyph-name="aacute" unicode="&#xe1;" horiz-adv-x="492" 
d="M423 0h-57l2 97q-16 -42 -56.5 -75.5t-97.5 -33.5q-83 0 -131 49.5t-48 150.5q0 130 66.5 202t193.5 72q73 0 172 -38zM369 168l23 212q-49 21 -96 21q-96 0 -142 -59t-46 -149q0 -145 116 -145q82 0 145 120zM296 512h-53l90 138h86z" />
    <glyph glyph-name="acircumflex" unicode="&#xe2;" horiz-adv-x="492" 
d="M423 0h-57l2 97q-16 -42 -56.5 -75.5t-97.5 -33.5q-83 0 -131 49.5t-48 150.5q0 130 66.5 202t193.5 72q73 0 172 -38zM369 168l23 212q-49 21 -96 21q-96 0 -142 -59t-46 -149q0 -145 116 -145q82 0 145 120zM435 512h-50l-74 80l-90 -80h-58l123 133h53z" />
    <glyph glyph-name="atilde" unicode="&#xe3;" horiz-adv-x="492" 
d="M423 0h-57l2 97q-16 -42 -56.5 -75.5t-97.5 -33.5q-83 0 -131 49.5t-48 150.5q0 130 66.5 202t193.5 72q73 0 172 -38zM369 168l23 212q-49 21 -96 21q-96 0 -142 -59t-46 -149q0 -145 116 -145q82 0 145 120zM391 621h46q-2 -46 -23 -72.5t-60 -26.5q-28 0 -64 26
t-54 26q-35 0 -37 -47h-46q2 47 23.5 73t59.5 26q28 0 63 -26t54 -26q18 0 28 13t10 34z" />
    <glyph glyph-name="adieresis" unicode="&#xe4;" horiz-adv-x="492" 
d="M423 0h-57l2 97q-16 -42 -56.5 -75.5t-97.5 -33.5q-83 0 -131 49.5t-48 150.5q0 130 66.5 202t193.5 72q73 0 172 -38zM369 168l23 212q-49 21 -96 21q-96 0 -142 -59t-46 -149q0 -145 116 -145q82 0 145 120zM186 532q-45 0 -45 42q0 25 14 40t40 15q45 0 45 -42
q0 -55 -54 -55zM451 586q0 -24 -14 -39t-41 -15q-45 0 -45 42q0 55 54 55q46 0 46 -43z" />
    <glyph glyph-name="aring" unicode="&#xe5;" horiz-adv-x="492" 
d="M423 0h-57l2 97q-16 -42 -56.5 -75.5t-97.5 -33.5q-83 0 -131 49.5t-48 150.5q0 130 66.5 202t193.5 72q73 0 172 -38zM369 168l23 212q-49 21 -96 21q-96 0 -142 -59t-46 -149q0 -145 116 -145q82 0 145 120zM297 491q-41 0 -67 24t-26 60q0 43 28.5 71t75.5 28
q41 0 67 -23.5t26 -59.5q0 -44 -28.5 -72t-75.5 -28zM308 635q-26 0 -42 -16t-16 -42q0 -21 12.5 -34t34.5 -13q26 0 42 16t16 42q0 21 -12.5 34t-34.5 13z" />
    <glyph glyph-name="ae" unicode="&#xe6;" horiz-adv-x="766" 
d="M673 110l-7 -66q-61 -56 -145 -56q-129 0 -180 83q-22 -35 -66.5 -59t-103.5 -24q-68 0 -109 33.5t-41 92.5q0 79 56 121.5t152 42.5q49 0 90 -9q11 44 34 80q-23 56 -108 56q-80 0 -158 -37l6 60q77 34 158 34q108 0 146 -56l-1 -5q67 61 164 61q75 0 115 -36.5
t40 -95.5q0 -157 -336 -157q4 -67 37 -97.5t107 -30.5q43 0 76.5 15t73.5 50zM380 223q52 0 97 5.5t85.5 17t64 33.5t23.5 52q0 71 -92 71q-81 0 -127.5 -50.5t-50.5 -128.5zM311 199v20q-39 9 -82 9q-140 0 -140 -104q0 -39 26 -59t69 -20q78 0 137 73q-10 34 -10 81z" />
    <glyph glyph-name="ccedilla" unicode="&#xe7;" horiz-adv-x="466" 
d="M401 103l-7 -64q-62 -51 -148 -51q-97 0 -154 60.5t-57 157.5q0 109 70.5 182.5t187.5 73.5q83 0 138 -34l-7 -63q-57 39 -129 39q-83 0 -135 -56t-52 -142q0 -70 38.5 -115t101.5 -45q47 0 82 13.5t71 43.5zM174 -193l5 50q27 -9 55 -9q58 0 58 39q0 38 -83 40l24 80
l37 -4q-7 -26 -9 -47q86 -6 86 -70q0 -46 -33.5 -66.5t-80.5 -20.5q-29 0 -59 8z" />
    <glyph glyph-name="egrave" unicode="&#xe8;" horiz-adv-x="508" 
d="M418 110l-7 -66q-61 -56 -153 -56q-110 0 -166.5 57.5t-56.5 153.5q0 113 71 188t191 75q76 0 119.5 -37t43.5 -95q0 -157 -357 -157q8 -128 157 -128q79 0 158 65zM104 223q52 0 100 5.5t92.5 17t71.5 33.5t27 52q0 71 -100 71q-86 0 -136.5 -50.5t-54.5 -128.5z
M324 512h-46l-95 138h79z" />
    <glyph glyph-name="eacute" unicode="&#xe9;" horiz-adv-x="508" 
d="M418 110l-7 -66q-61 -56 -153 -56q-110 0 -166.5 57.5t-56.5 153.5q0 113 71 188t191 75q76 0 119.5 -37t43.5 -95q0 -157 -357 -157q8 -128 157 -128q79 0 158 65zM104 223q52 0 100 5.5t92.5 17t71.5 33.5t27 52q0 71 -100 71q-86 0 -136.5 -50.5t-54.5 -128.5z
M275 512h-53l90 138h86z" />
    <glyph glyph-name="ecircumflex" unicode="&#xea;" horiz-adv-x="508" 
d="M418 110l-7 -66q-61 -56 -153 -56q-110 0 -166.5 57.5t-56.5 153.5q0 113 71 188t191 75q76 0 119.5 -37t43.5 -95q0 -157 -357 -157q8 -128 157 -128q79 0 158 65zM104 223q52 0 100 5.5t92.5 17t71.5 33.5t27 52q0 71 -100 71q-86 0 -136.5 -50.5t-54.5 -128.5z
M411 512h-50l-74 80l-90 -80h-58l123 133h53z" />
    <glyph glyph-name="edieresis" unicode="&#xeb;" horiz-adv-x="508" 
d="M418 110l-7 -66q-61 -56 -153 -56q-110 0 -166.5 57.5t-56.5 153.5q0 113 71 188t191 75q76 0 119.5 -37t43.5 -95q0 -157 -357 -157q8 -128 157 -128q79 0 158 65zM104 223q52 0 100 5.5t92.5 17t71.5 33.5t27 52q0 71 -100 71q-86 0 -136.5 -50.5t-54.5 -128.5z
M173 532q-45 0 -45 42q0 25 14 40t40 15q45 0 45 -42q0 -55 -54 -55zM438 586q0 -24 -14 -39t-41 -15q-45 0 -45 42q0 55 54 55q46 0 46 -43z" />
    <glyph glyph-name="igrave" unicode="&#xec;" horiz-adv-x="213" 
d="M109 0h-72l47 450h72zM159 512h-46l-95 138h79z" />
    <glyph glyph-name="iacute" unicode="&#xed;" horiz-adv-x="213" 
d="M109 0h-72l47 450h72zM149 512h-53l90 138h86z" />
    <glyph glyph-name="icircumflex" unicode="&#xee;" horiz-adv-x="213" 
d="M109 0h-72l47 450h72zM266 512h-50l-74 80l-90 -80h-58l123 133h53z" />
    <glyph glyph-name="idieresis" unicode="&#xef;" horiz-adv-x="213" 
d="M109 0h-72l47 450h72zM27 532q-45 0 -45 42q0 25 14 40t40 15q45 0 45 -42q0 -55 -54 -55zM292 586q0 -24 -14 -39t-41 -15q-45 0 -45 42q0 55 54 55q46 0 46 -43z" />
    <glyph glyph-name="eth" unicode="&#xf0;" horiz-adv-x="539" 
d="M521 591l-103 -43q71 -86 71 -233q0 -56 -14 -110.5t-43 -104.5t-80.5 -81t-118.5 -31q-88 0 -146 53.5t-58 141.5q0 96 63.5 162t165.5 66q106 0 170 -83q4 51 -17 106.5t-53 87.5l-169 -71l5 52l121 51q-58 37 -151 39l6 55q128 2 211 -66l145 61zM420 256
q-24 45 -68 71t-99 26q-73 0 -113 -48.5t-40 -119.5q0 -67 38 -103t94 -36q145 0 188 210z" />
    <glyph glyph-name="ntilde" unicode="&#xf1;" horiz-adv-x="545" 
d="M446 0h-71l29 275q6 63 -14.5 94t-62.5 31q-104 0 -189 -115l-30 -285h-73l47 450h61l-2 -97q86 109 200 109q71 0 107.5 -45.5t27.5 -132.5zM396 621h46q-2 -46 -23 -72.5t-60 -26.5q-28 0 -64 26t-54 26q-35 0 -37 -47h-46q2 47 23.5 73t59.5 26q28 0 63 -26t54 -26
q18 0 28 13t10 34z" />
    <glyph glyph-name="ograve" unicode="&#xf2;" horiz-adv-x="557" 
d="M248 -12q-98 0 -155.5 58t-57.5 153q0 112 70.5 187.5t184.5 75.5q97 0 155.5 -59t58.5 -150q0 -115 -71 -190t-185 -75zM249 46q79 0 130 57t51 144q0 70 -38.5 113.5t-103.5 43.5q-78 0 -129 -57t-51 -143q0 -70 38 -114t103 -44zM348 512h-46l-95 138h79z" />
    <glyph glyph-name="oacute" unicode="&#xf3;" horiz-adv-x="557" 
d="M248 -12q-98 0 -155.5 58t-57.5 153q0 112 70.5 187.5t184.5 75.5q97 0 155.5 -59t58.5 -150q0 -115 -71 -190t-185 -75zM249 46q79 0 130 57t51 144q0 70 -38.5 113.5t-103.5 43.5q-78 0 -129 -57t-51 -143q0 -70 38 -114t103 -44zM300 512h-53l90 138h86z" />
    <glyph glyph-name="ocircumflex" unicode="&#xf4;" horiz-adv-x="557" 
d="M248 -12q-98 0 -155.5 58t-57.5 153q0 112 70.5 187.5t184.5 75.5q97 0 155.5 -59t58.5 -150q0 -115 -71 -190t-185 -75zM249 46q79 0 130 57t51 144q0 70 -38.5 113.5t-103.5 43.5q-78 0 -129 -57t-51 -143q0 -70 38 -114t103 -44zM435 512h-50l-74 80l-90 -80h-58
l123 133h53z" />
    <glyph glyph-name="otilde" unicode="&#xf5;" horiz-adv-x="557" 
d="M248 -12q-98 0 -155.5 58t-57.5 153q0 112 70.5 187.5t184.5 75.5q97 0 155.5 -59t58.5 -150q0 -115 -71 -190t-185 -75zM249 46q79 0 130 57t51 144q0 70 -38.5 113.5t-103.5 43.5q-78 0 -129 -57t-51 -143q0 -70 38 -114t103 -44zM401 621h46q-2 -46 -23 -72.5
t-60 -26.5q-28 0 -64 26t-54 26q-35 0 -37 -47h-46q2 47 23.5 73t59.5 26q28 0 63 -26t54 -26q18 0 28 13t10 34z" />
    <glyph glyph-name="odieresis" unicode="&#xf6;" horiz-adv-x="557" 
d="M248 -12q-98 0 -155.5 58t-57.5 153q0 112 70.5 187.5t184.5 75.5q97 0 155.5 -59t58.5 -150q0 -115 -71 -190t-185 -75zM249 46q79 0 130 57t51 144q0 70 -38.5 113.5t-103.5 43.5q-78 0 -129 -57t-51 -143q0 -70 38 -114t103 -44zM196 532q-45 0 -45 42q0 25 14 40
t40 15q45 0 45 -42q0 -55 -54 -55zM461 586q0 -24 -14 -39t-41 -15q-45 0 -45 42q0 55 54 55q46 0 46 -43z" />
    <glyph glyph-name="divide" unicode="&#xf7;" horiz-adv-x="496" 
d="M220 85q-21 0 -34 14t-13 37q0 28 17.5 47t41.5 19q22 0 36.5 -13.5t14.5 -36.5q0 -29 -19 -48t-44 -19zM254 414q-21 0 -34 14t-13 37q0 29 17 47.5t42 18.5q22 0 37 -13.5t15 -36.5q0 -29 -18.5 -48t-45.5 -19zM446 279h-404l7 61h404z" />
    <glyph glyph-name="oslash" unicode="&#xf8;" horiz-adv-x="557" 
d="M73 -18h-51l64 70q-51 57 -51 147q0 112 70.5 187.5t184.5 75.5q79 0 132 -41l41 45h53l-64 -71q52 -58 52 -142q0 -115 -71 -190t-185 -75q-79 0 -134 39zM134 105l244 268q-38 31 -90 31q-78 0 -129 -57t-51 -143q0 -58 26 -99zM404 344l-245 -268q36 -30 90 -30
q79 0 130 57t51 144q0 56 -26 97z" />
    <glyph glyph-name="ugrave" unicode="&#xf9;" horiz-adv-x="531" 
d="M430 0h-60l1 97h-2q-72 -109 -180 -109q-65 0 -103 36.5t-38 106.5q0 16 1 27l31 292h73l-30 -282q-2 -22 -2 -27q0 -91 75 -91q104 0 178 116l31 284h72zM335 512h-46l-95 138h79z" />
    <glyph glyph-name="uacute" unicode="&#xfa;" horiz-adv-x="531" 
d="M430 0h-60l1 97h-2q-72 -109 -180 -109q-65 0 -103 36.5t-38 106.5q0 16 1 27l31 292h73l-30 -282q-2 -22 -2 -27q0 -91 75 -91q104 0 178 116l31 284h72zM286 512h-53l90 138h86z" />
    <glyph glyph-name="ucircumflex" unicode="&#xfb;" horiz-adv-x="531" 
d="M430 0h-60l1 97h-2q-72 -109 -180 -109q-65 0 -103 36.5t-38 106.5q0 16 1 27l31 292h73l-30 -282q-2 -22 -2 -27q0 -91 75 -91q104 0 178 116l31 284h72zM422 512h-50l-74 80l-90 -80h-58l123 133h53z" />
    <glyph glyph-name="udieresis" unicode="&#xfc;" horiz-adv-x="531" 
d="M430 0h-60l1 97h-2q-72 -109 -180 -109q-65 0 -103 36.5t-38 106.5q0 16 1 27l31 292h73l-30 -282q-2 -22 -2 -27q0 -91 75 -91q104 0 178 116l31 284h72zM184 532q-45 0 -45 42q0 25 14 40t40 15q45 0 45 -42q0 -55 -54 -55zM449 586q0 -24 -14 -39t-41 -15
q-45 0 -45 42q0 55 54 55q46 0 46 -43z" />
    <glyph glyph-name="yacute" unicode="&#xfd;" horiz-adv-x="476" 
d="M128 -93l45 93l-140 450h69l75 -255l34 -128h2l66 143l117 240h75l-284 -555q-19 -36 -28.5 -52.5t-26 -35.5t-35 -26t-44.5 -7q-43 0 -83 17l7 61q36 -20 77 -20q25 0 39.5 16t34.5 59zM268 512h-53l90 138h86z" />
    <glyph glyph-name="thorn" unicode="&#xfe;" horiz-adv-x="536" 
d="M87 -215h-73l92 865h73l-31 -295q67 107 174 107q78 0 118.5 -55.5t40.5 -140.5q0 -131 -62.5 -204.5t-161.5 -73.5q-80 0 -142 65zM140 284l-16 -167q34 -69 130 -69q69 0 112.5 57t43.5 161q0 136 -102 136q-99 0 -168 -118z" />
    <glyph glyph-name="ydieresis" unicode="&#xff;" horiz-adv-x="476" 
d="M128 -93l45 93l-140 450h69l75 -255l34 -128h2l66 143l117 240h75l-284 -555q-19 -36 -28.5 -52.5t-26 -35.5t-35 -26t-44.5 -7q-43 0 -83 17l7 61q36 -20 77 -20q25 0 39.5 16t34.5 59zM157 532q-45 0 -45 42q0 25 14 40t40 15q45 0 45 -42q0 -55 -54 -55zM422 586
q0 -24 -14 -39t-41 -15q-45 0 -45 42q0 55 54 55q46 0 46 -43z" />
    <glyph glyph-name="dotlessi" unicode="&#x131;" horiz-adv-x="213" 
d="M109 0h-72l47 450h72z" />
    <glyph glyph-name="Lslash" unicode="&#x141;" horiz-adv-x="453" 
d="M394 0h-353l25 234l-58 -31l6 55l58 30l34 322h73l-30 -280l164 87l-6 -55l-164 -86l-21 -211h280z" />
    <glyph glyph-name="lslash" unicode="&#x142;" horiz-adv-x="215" 
d="M110 0h-72l29 268l-66 -35l6 55l66 34l33 318h72l-30 -276l66 34l-6 -55l-65 -34z" />
    <glyph glyph-name="OE" unicode="&#x152;" horiz-adv-x="887" 
d="M805 0h-369q-48 -12 -108 -12q-122 0 -203 78.5t-81 208.5q0 159 98 253t243 94q63 0 115 -12h369l-7 -65h-296l-21 -202h270l-7 -64h-270l-22 -214h296zM443 67l50 474q-39 16 -110 16q-116 0 -189.5 -76t-73.5 -209q0 -106 56 -162.5t154 -56.5q68 0 113 14z" />
    <glyph glyph-name="oe" unicode="&#x153;" horiz-adv-x="869" 
d="M784 110l-7 -66q-61 -56 -153 -56q-151 0 -195 110q-66 -110 -196 -110q-91 0 -144.5 59.5t-53.5 152.5q0 111 70 186.5t179 75.5q125 0 169 -105q66 105 207 105q71 0 114.5 -38.5t43.5 -96.5q0 -44 -25 -75.5t-69 -48.5t-94 -24t-110 -7q-28 0 -43 1q4 -66 39.5 -97
t109.5 -31q79 0 158 65zM239 46q74 0 122.5 57t48.5 145q0 71 -35.5 113.5t-96.5 42.5q-73 0 -121.5 -57t-48.5 -143q0 -70 35.5 -114t95.5 -44zM478 223q52 0 97.5 5t87.5 16t66 32.5t24 51.5q0 74 -95 74q-86 0 -131 -50t-49 -129z" />
    <glyph glyph-name="Scaron" unicode="&#x160;" horiz-adv-x="491" 
d="M16 49l7 66q79 -64 190 -64q141 0 141 107q0 11 -2 20.5t-7.5 19t-9.5 16t-15 15t-16 12.5t-20 12.5t-20 11.5t-23 12.5t-23 11.5q-78 41 -103 63q-49 45 -50 107q0 83 58 123t159 40q86 0 154 -31l-7 -66q-73 34 -149 34q-71 0 -106 -22t-35 -72q0 -22 9.5 -39.5
t31 -33.5t38.5 -26t51 -27q28 -14 36.5 -18.5t34 -19.5t36 -26t26 -29t21.5 -39t6 -45q0 -89 -58.5 -131.5t-160.5 -42.5q-121 0 -194 61zM309 672h-53l-95 133h52l74 -79l90 79h56z" />
    <glyph glyph-name="scaron" unicode="&#x161;" horiz-adv-x="401" 
d="M11 34l6 63q70 -51 159 -51q53 0 74.5 16t21.5 52q0 31 -24.5 51t-84.5 41q-119 41 -119 129q0 59 45 93t131 34q70 0 124 -28l-7 -59q-54 30 -113 30q-114 0 -114 -66q0 -30 24.5 -47t75.5 -37q31 -12 46.5 -20.5t38.5 -25t33.5 -40t10.5 -55.5q0 -62 -42.5 -94
t-118.5 -32q-45 0 -93 14t-74 32zM248 512h-53l-95 133h52l74 -79l90 79h56z" />
    <glyph glyph-name="Ydieresis" unicode="&#x178;" horiz-adv-x="579" 
d="M294 0h-74l25 236l-194 374h73l101 -200l57 -121h4l82 121l144 200h80l-273 -374zM224 692q-45 0 -45 42q0 25 14 40t40 15q45 0 45 -42q0 -55 -54 -55zM489 746q0 -24 -14 -39t-41 -15q-45 0 -45 42q0 55 54 55q46 0 46 -43z" />
    <glyph glyph-name="Zcaron" unicode="&#x17d;" horiz-adv-x="532" 
d="M453 0h-443l6 57l391 491l-327 -2l7 64h415l-6 -57l-391 -490l355 1zM330 672h-53l-95 133h52l74 -79l90 79h56z" />
    <glyph glyph-name="zcaron" unicode="&#x17e;" horiz-adv-x="437" 
d="M364 0h-361l5 52l298 339l-250 -1l6 60h337l-5 -52l-299 -339l275 1zM266 512h-53l-95 133h52l74 -79l90 79h56z" />
    <glyph glyph-name="florin" unicode="&#x192;" horiz-adv-x="580" 
d="M165 -8l90 372h-89l14 58h88q28 100 78 156t146 56q40 0 70 -13l-14 -61q-33 12 -65 12q-53 0 -88.5 -35.5t-55.5 -114.5h148l-15 -58h-147l-95 -392q-41 -162 -179 -162q-41 0 -76 13l15 62q28 -13 63 -13q48 0 70.5 26t41.5 94z" />
    <glyph glyph-name="circumflex" unicode="&#x2c6;" horiz-adv-x="310" 
d="M312 512h-50l-74 80l-90 -80h-58l123 133h53z" />
    <glyph glyph-name="caron" unicode="&#x2c7;" horiz-adv-x="310" 
d="M202 512h-53l-95 133h52l74 -79l90 79h56z" />
    <glyph glyph-name="breve" unicode="&#x2d8;" horiz-adv-x="310" 
d="M275 642h46q-8 -69 -46 -102t-95 -33q-55 0 -88.5 28t-33.5 86q0 14 1 21h45q-1 -7 -1 -17q0 -71 77 -71q85 0 95 88z" />
    <glyph glyph-name="dotaccent" unicode="&#x2d9;" horiz-adv-x="310" 
d="M236 586q0 -25 -15 -40.5t-43 -15.5q-23 0 -35 12t-12 32q0 25 15 41t43 16q47 0 47 -45z" />
    <glyph glyph-name="ring" unicode="&#x2da;" horiz-adv-x="310" 
d="M178 491q-42 0 -67.5 24t-25.5 60q0 43 28.5 71t75.5 28q41 0 67 -23.5t26 -59.5q0 -44 -28.5 -72t-75.5 -28zM189 635q-26 0 -42 -16t-16 -42q0 -21 12.5 -34t34.5 -13q26 0 42 16t16 42q0 21 -12.5 34t-34.5 13z" />
    <glyph glyph-name="ogonek" unicode="&#x2db;" horiz-adv-x="310" 
d="M180 -116l-5 -43q-32 -15 -71 -15q-41 0 -65 17.5t-24 51.5q0 27 15 50t37 36.5t38 20.5t27 10l29 -12q-87 -42 -87 -90q0 -37 45 -37q31 0 61 11z" />
    <glyph glyph-name="tilde" unicode="&#x2dc;" horiz-adv-x="310" 
d="M278 621h46q-2 -46 -23 -72.5t-60 -26.5q-28 0 -64 26t-54 26q-35 0 -37 -47h-46q2 47 23.5 73t59.5 26q28 0 63 -26t54 -26q18 0 28 13t10 34z" />
    <glyph glyph-name="hungarumlaut" unicode="&#x2dd;" horiz-adv-x="310" 
d="M432 650l-138 -138h-55l102 138h91zM249 650l-139 -138h-54l102 138h91z" />
    <glyph glyph-name="uni03A9" unicode="&#x3a9;" horiz-adv-x="648" 
d="M553 0h-216l6 56q194 145 194 320q0 80 -44 131t-143 51q-66 0 -113 -21t-71.5 -56.5t-35 -73.5t-10.5 -82q0 -76 36.5 -147t94.5 -122l-6 -56h-216l6 59h145q-56 41 -95 113t-39 154q0 60 17 112t52 94t95 66t139 24q128 0 194.5 -68.5t66.5 -173.5q0 -102 -54.5 -187.5
t-133.5 -133.5h137z" />
    <glyph glyph-name="pi" unicode="&#x3c0;" horiz-adv-x="570" 
d="M498 54l-6 -56q-23 -7 -56 -7q-55 0 -77 25.5t-22 72.5q0 12 2 36l27 260h-162l-63 -385h-70l62 385l-95 5l6 60h496l-7 -65h-98l-27 -254q-1 -8 -1 -22q0 -61 52 -61q9 0 39 6z" />
    <glyph glyph-name="uni0E00" unicode="&#xe00;" horiz-adv-x="166" 
 />
    <glyph glyph-name="uni0E01" unicode="&#xe01;" horiz-adv-x="604" 
d="M501 0h-72l35 324q10 94 -22.5 132.5t-118.5 38.5q-88 0 -169 -30v-65l-43 -400h-72l43 404v103q121 52 242 52q117 0 170.5 -57t40.5 -178z" />
    <glyph glyph-name="uni0E02" unicode="&#xe02;" horiz-adv-x="558" 
d="M405 222l35 325h72l-35 -325q-27 -234 -238 -234q-96 0 -150 47t-54 129q0 45 16 83.5t39 64t46 48t39 46.5t16 48q0 41 -45 41q-36 0 -71 -13l7 63q30 11 72 11q103 0 103 -98q0 -34 -15.5 -63t-37.5 -51.5t-43.5 -46t-37 -56t-15.5 -70.5q0 -56 32.5 -88t98.5 -32
q73 0 114.5 41.5t51.5 129.5z" />
    <glyph glyph-name="uni0E03" unicode="&#xe03;" horiz-adv-x="563" 
d="M412 222l35 325h72l-35 -325q-24 -234 -238 -234q-96 0 -150 47.5t-54 129.5q0 48 15 86.5t37 64.5t45 49.5t41.5 53t22.5 63.5h-2q-35 -28 -75 -28q-33 0 -64 31l8 70q31 -44 67 -44q34 0 75 36h61l-6 -58q-4 -43 -21.5 -78.5t-39 -61t-42.5 -50t-35 -57t-14 -71.5
q0 -56 32.5 -88t98.5 -32q73 0 114.5 41.5t51.5 129.5z" />
    <glyph glyph-name="uni0E04" unicode="&#xe04;" horiz-adv-x="627" 
d="M524 0h-72l33 314q10 94 -28 137.5t-125 43.5q-86 0 -133 -43.5t-57 -137.5l-13 -126q28 47 71 80.5t96 33.5q32 0 54 -9l-7 -71q-26 12 -56 12q-52 0 -89 -30.5t-76 -88.5l-13 -115h-72l33 317q13 120 81.5 181t182.5 61q115 0 175.5 -63t46.5 -186z" />
    <glyph glyph-name="uni0E05" unicode="&#xe05;" horiz-adv-x="638" 
d="M535 0h-72l39 371q7 66 -5 95t-53 29q-58 0 -80 -77h-66q-7 77 -62 77q-41 0 -61 -29t-27 -95l-19 -183q28 47 71 80.5t96 33.5q32 0 54 -9l-7 -71q-26 12 -56 12q-52 0 -89 -30.5t-76 -88.5l-13 -115h-72l40 374q9 88 48.5 136.5t102.5 48.5q42 0 70.5 -22.5t33.5 -58.5
h2q15 36 49 58.5t75 22.5q66 0 96 -48t21 -137z" />
    <glyph glyph-name="uni0E06" unicode="&#xe06;" horiz-adv-x="603" 
d="M448 190l38 357h72l-38 -361q-12 -102 -62 -150t-129 -48q-137 0 -204 123l-23 -111h-61l22 203q5 45 25.5 84t42 62.5t42 59.5t25.5 76h-1q-39 -31 -76 -31q-32 0 -63 31l8 70q33 -44 67 -44t75 36h62l-6 -58q-4 -44 -23.5 -83t-41 -63.5t-41 -61.5t-23.5 -76l-1 -10
q21 -58 68 -100.5t115 -42.5q60 0 91.5 32.5t39.5 105.5z" />
    <glyph glyph-name="uni0E07" unicode="&#xe07;" horiz-adv-x="560" 
d="M222 0h-51l-108 438q-14 56 -32 109h75l118 -484h3q103 26 159 106t56 176q0 69 -31 109.5t-81 40.5q-47 0 -80 -12l7 64q38 10 71 10q87 0 136.5 -57t49.5 -157q0 -78 -25 -140t-69.5 -101.5t-92 -63.5t-105.5 -38z" />
    <glyph glyph-name="uni0E08" unicode="&#xe08;" horiz-adv-x="553" 
d="M217 0h-59l-66 202q-7 18 -20 49t-14 33h80l71 -224q86 9 154.5 79.5t68.5 183.5q0 172 -178 172q-102 0 -204 -49l7 67q100 46 199 46q128 0 188 -64t60 -172q0 -71 -25 -130t-67 -97.5t-91.5 -62.5t-103.5 -33z" />
    <glyph glyph-name="uni0E09" unicode="&#xe09;" horiz-adv-x="583" 
d="M480 0h-60l1 111q-29 -50 -83 -86.5t-125 -36.5q-87 0 -128 47t-31 138l6 54q4 36 1 73h79l-13 -122q-7 -65 17 -95.5t86 -30.5q117 0 199 138l13 134q10 91 -33 131t-139 40q-100 0 -204 -50l8 68q98 46 203 46q120 0 184 -60.5t52 -177.5z" />
    <glyph glyph-name="uni0E0A" unicode="&#xe0a;" horiz-adv-x="568" 
d="M529 547l-139 -127q112 -45 112 -184q0 -117 -70 -182.5t-185 -65.5q-100 0 -156 47.5t-56 130.5q0 45 16 83.5t39 64t46 47.5t39 45.5t16 47.5q0 41 -45 41q-36 0 -71 -13l7 63q30 11 72 11q103 0 103 -98q0 -41 -23.5 -77t-51 -59.5t-51 -62.5t-23.5 -86
q0 -58 34.5 -89.5t104.5 -31.5q86 0 134 49.5t48 134.5q0 129 -118 163l1 25l130 123h87z" />
    <glyph glyph-name="uni0E0B" unicode="&#xe0b;" horiz-adv-x="575" 
d="M536 547l-139 -127q112 -45 112 -184q0 -117 -70 -182.5t-185 -65.5q-100 0 -156 47.5t-56 130.5q0 48 15 86t37 64t45 49.5t41.5 53t22.5 63.5h-2q-35 -28 -75 -28q-33 0 -64 31l8 70q31 -44 67 -44q34 0 75 36h61l-6 -58q-4 -43 -21.5 -78.5t-39 -60t-42.5 -49t-35 -57
t-14 -71.5q0 -58 34.5 -89.5t104.5 -31.5q86 0 134 49.5t48 134.5q0 129 -118 163l1 25l130 123h87z" />
    <glyph glyph-name="uni0E0C" unicode="&#xe0c;" horiz-adv-x="933" 
d="M776 177l39 370h72l-40 -374q-19 -185 -170 -185q-122 0 -189 123l-23 -111h-61l35 324q10 93 -19.5 132t-108.5 39q-76 0 -157 -30v-65l-28 -259q-6 -51 7.5 -70.5t43.5 -19.5q48 0 86 25l-8 -65q-31 -22 -100 -22q-50 0 -80 34.5t-22 109.5l29 271v103q121 52 230 52
q222 0 198 -235l-13 -129q22 -58 64.5 -100.5t103.5 -42.5q53 0 78.5 30t32.5 95z" />
    <glyph glyph-name="uni0E0D" unicode="&#xe0d;" horiz-adv-x="932" 
d="M791 -32l22 -54q-87 -61 -205 -61q-127 0 -204 61l34 54q62 -53 171 -53q108 0 182 53zM780 219l35 328h72l-34 -331q-10 -91 -70 -144t-159 -53q-102 0 -156 50.5t-42 146.5l12 108q11 93 -18.5 132t-108.5 39q-76 0 -157 -30v-65l-28 -259q-6 -51 7.5 -70.5t43.5 -19.5
q48 0 86 25l-8 -65q-31 -22 -100 -22q-50 0 -80 34.5t-22 109.5l29 271v103q121 52 230 52q221 0 197 -235l-11 -105q-8 -66 25 -101t102 -35q68 0 108 36.5t47 99.5z" />
    <glyph glyph-name="uni0E0E" unicode="&#xe0e;" horiz-adv-x="622" 
d="M494 -233h-63q-115 79 -199 79q-100 0 -107 -78h-62q6 65 50 100t116 35q89 0 199 -73l53 494q10 94 -18 132.5t-107 38.5q-78 0 -159 -30v-65l-30 -278q-9 -77 -39 -105t-86 -28q-39 0 -60 12l7 63q20 -13 46 -13q28 0 41.5 16.5t18.5 56.5l30 280v103q121 52 232 52
q110 0 159 -56.5t36 -178.5z" />
    <glyph glyph-name="uni0E0F" unicode="&#xe0f;" horiz-adv-x="622" 
d="M494 -233h-76q-117 0 -129 77q-16 -35 -51 -57t-81 -22q-56 0 -93 23l7 67q42 -32 89 -32q75 0 103 84h61q13 -79 87 -79h17l53 496q10 94 -18 132.5t-107 38.5q-78 0 -159 -30v-65l-30 -278q-9 -77 -39 -105t-86 -28q-39 0 -60 12l7 63q20 -13 46 -13q28 0 41.5 16.5
t18.5 56.5l30 280v103q121 52 232 52q110 0 159 -56.5t36 -178.5z" />
    <glyph glyph-name="uni0E10" unicode="&#xe10;" horiz-adv-x="553" 
d="M217 0h-59l-66 202q-7 18 -20 49t-14 33h80l71 -224q86 9 154.5 79.5t68.5 183.5q0 172 -178 172q-102 0 -204 -49l7 67q100 46 199 46q81 0 134 -29l66 64h90l-108 -96q66 -60 66 -175q0 -71 -25 -130t-67 -97.5t-91.5 -62.5t-103.5 -33zM408 -233h-63q-64 43 -105 61
t-84 18q-100 0 -107 -78h-62q6 65 50 100t116 35q45 0 88.5 -17.5t102.5 -55.5l12 118h71z" />
    <glyph glyph-name="uni0E11" unicode="&#xe11;" horiz-adv-x="622" 
d="M519 0h-72l39 373q7 64 -11 93.5t-66 29.5q-92 0 -177.5 -97.5t-95.5 -196.5l-21 -202h-72l21 203q5 48 26.5 90.5t44 68.5t42.5 59.5t24 63.5h-2q-35 -31 -72 -31q-38 0 -65 31l8 70q31 -44 68 -44q32 0 73 36h45v-58q78 70 165 70q156 0 137 -188z" />
    <glyph glyph-name="uni0E12" unicode="&#xe12;" horiz-adv-x="1016" 
d="M859 190l38 357h72l-38 -361q-22 -198 -183 -198q-70 0 -120.5 36t-75.5 87l-23 -111h-61l43 393q5 54 -6.5 78t-44.5 24q-47 0 -70 -77h-66q-4 38 -16.5 57.5t-43.5 19.5q-40 0 -71 -28.5t-47 -72t-24 -85t-8 -77.5q0 -87 31.5 -134.5t110.5 -47.5q54 0 92 27l-7 -66
q-36 -22 -95 -22q-56 0 -97.5 19.5t-64 54t-33 75.5t-10.5 90q0 136 65 233.5t158 97.5q82 0 96 -81h2q34 81 118 81q60 0 85 -42t17 -119l-21 -203q22 -58 66 -100.5t109 -42.5q57 0 86 32.5t37 105.5z" />
    <glyph glyph-name="uni0E13" unicode="&#xe13;" horiz-adv-x="934" 
d="M829 0h-60l1 111h-2q-25 -50 -77 -86.5t-120 -36.5q-77 0 -118 45t-32 136l17 155q11 93 -18.5 132t-108.5 39q-76 0 -157 -30v-65l-28 -259q-6 -51 7.5 -70.5t43.5 -19.5q48 0 86 25l-8 -65q-31 -22 -100 -22q-50 0 -80 34.5t-22 109.5l29 271v103q121 52 230 52
q221 0 197 -235l-15 -149q-6 -63 16.5 -93t78.5 -30q58 0 107.5 39.5t81.5 101.5l37 354h72z" />
    <glyph glyph-name="uni0E14" unicode="&#xe14;" horiz-adv-x="620" 
d="M515 0h-72l47 451q-55 44 -143 44q-102 0 -168 -71.5t-66 -199.5q0 -173 149 -173q51 0 87 25l-7 -67q-37 -20 -88 -20q-109 0 -161.5 66t-52.5 166q0 152 89.5 245t221.5 93q124 0 214 -84z" />
    <glyph glyph-name="uni0E15" unicode="&#xe15;" horiz-adv-x="654" 
d="M548 0h-72l41 393q10 102 -47 102q-55 0 -76 -77h-67q-7 77 -63 77q-64 0 -107 -74t-43 -187q0 -83 35 -133t111 -50q51 0 87 25l-7 -67q-37 -20 -88 -20q-109 0 -160 68t-51 172q0 142 63 236t162 94q81 0 96 -80h2q15 36 47 58t71 22q62 0 89 -42t19 -119z" />
    <glyph glyph-name="uni0E16" unicode="&#xe16;" horiz-adv-x="607" 
d="M504 0h-72l35 324q10 93 -23 132t-120 39q-89 0 -170 -30v-65l-28 -259q-6 -51 8 -70.5t47 -19.5q49 0 90 27l-8 -65q-32 -24 -104 -24q-53 0 -83.5 34.5t-22.5 109.5l29 271v103q121 52 243 52q237 0 213 -235z" />
    <glyph glyph-name="uni0E17" unicode="&#xe17;" horiz-adv-x="621" 
d="M518 0h-72l38 357q15 138 -91 138q-134 0 -243 -132l-39 -363h-72l58 547h61v-111q45 52 108.5 87.5t138.5 35.5q172 0 150 -205z" />
    <glyph glyph-name="uni0E18" unicode="&#xe18;" horiz-adv-x="575" 
d="M40 15l24 226h70l-18 -176q52 -13 145 -13q91 0 133 22.5t42 86.5q0 36 -22.5 59.5t-52 33.5t-79.5 19q-51 9 -82.5 17t-66 23.5t-51 40.5t-16.5 61q0 144 248 144q111 0 192 -34l-8 -66q-81 38 -185 38q-175 0 -175 -79q0 -9 2 -17t8 -14t11.5 -11t17 -9.5t19.5 -7.5
t24.5 -7t26.5 -6t30.5 -6t32.5 -7q96 -18 146.5 -54.5t50.5 -114.5q0 -93 -62 -134.5t-183 -41.5q-116 0 -222 27z" />
    <glyph glyph-name="uni0E19" unicode="&#xe19;" horiz-adv-x="601" 
d="M496 0h-61l2 111q-32 -49 -84.5 -86t-122.5 -37q-87 0 -135 48t-39 142l39 369h72l-38 -365q-7 -66 19.5 -98t91.5 -32q62 0 115 40.5t89 99.5l38 355h72z" />
    <glyph glyph-name="uni0E1A" unicode="&#xe1a;" horiz-adv-x="604" 
d="M454 234l33 313h72l-33 -316q-14 -127 -77.5 -185t-177.5 -58q-108 0 -165.5 59t-43.5 184l33 316h72l-33 -313q-11 -97 23 -139.5t117 -42.5t126 42.5t54 139.5z" />
    <glyph glyph-name="uni0E1B" unicode="&#xe1b;" horiz-adv-x="604" 
d="M454 234l58 546h72l-58 -549q-14 -127 -77.5 -185t-177.5 -58q-108 0 -165.5 59t-43.5 184l33 316h72l-33 -313q-11 -97 23 -139.5t117 -42.5t126 42.5t54 139.5z" />
    <glyph glyph-name="uni0E1C" unicode="&#xe1c;" horiz-adv-x="647" 
d="M469 0l-144 295l-208 -295h-79l46 436q1 18 7 36.5t19.5 39t40 33.5t62.5 13q27 0 58 -9l-5 -63q-24 10 -46 10q-32 0 -47 -17.5t-20 -59.5l-20 -195q-10 -89 -23 -147h2q26 47 84 131l104 148h57l71 -147q38 -74 57 -132h2q-1 62 8 147l34 323h71l-58 -547h-73z" />
    <glyph glyph-name="uni0E1D" unicode="&#xe1d;" horiz-adv-x="647" 
d="M469 0l-144 295l-208 -295h-79l46 436q1 18 7 36.5t19.5 39t40 33.5t62.5 13q34 0 58 -7l-5 -63q-24 8 -46 8q-32 0 -47 -17.5t-20 -59.5l-20 -195q-10 -89 -23 -147h2q26 47 84 131l104 148h57l71 -147q38 -74 57 -132h2q-1 62 8 147l59 556h70l-82 -780h-73z" />
    <glyph glyph-name="uni0E1E" unicode="&#xe1e;" horiz-adv-x="705" 
d="M528 0h-74l-67 353q-8 41 -16 127h-2q-18 -70 -41 -127l-142 -353h-76l-42 431q-6 59 -21 116h78l27 -316q4 -49 6 -170h3q22 93 53 170l128 316h67l62 -316q10 -49 17 -170h3q23 109 41 170l94 316h73z" />
    <glyph glyph-name="uni0E1F" unicode="&#xe1f;" horiz-adv-x="705" 
d="M523 0h-74l-70 353q-10 49 -15 127h-2q-19 -68 -42 -127l-140 -353h-75l-43 431q-10 99 -15 116h78l22 -316q2 -32 5 -170h3q24 99 52 170l128 316h66l64 -316q10 -49 17 -170h3q28 126 41 170l149 549h68z" />
    <glyph glyph-name="uni0E20" unicode="&#xe20;" horiz-adv-x="622" 
d="M518 0h-72l35 324q10 94 -18 132.5t-107 38.5q-78 0 -159 -30v-65l-30 -278q-9 -77 -39 -105t-86 -28q-39 0 -60 12l7 63q20 -13 46 -13q28 0 41.5 16.5t18.5 56.5l30 280v103q121 52 232 52q110 0 159 -56.5t36 -178.5z" />
    <glyph glyph-name="uni0E21" unicode="&#xe21;" horiz-adv-x="601" 
d="M446 190l38 357h72l-38 -361q-12 -102 -62 -150t-129 -48q-137 0 -204 123l-23 -111h-61l58 547h72l-37 -352q21 -59 67.5 -101t115.5 -42q60 0 91.5 32.5t39.5 105.5z" />
    <glyph glyph-name="uni0E22" unicode="&#xe22;" horiz-adv-x="595" 
d="M428 106l46 441h72l-50 -477q-61 -42 -114.5 -62t-134.5 -20q-97 0 -154 35.5t-57 111.5q0 103 96 148v2q-30 13 -47.5 43t-17.5 71q0 71 49 115t127 44q42 0 83 -15l-7 -65q-40 18 -77 18q-44 0 -74.5 -25t-30.5 -75q0 -41 26 -56t87 -15h83l-6 -60h-133
q-84 -36 -84 -122q0 -50 33.5 -70.5t104.5 -20.5q106 0 180 54z" />
    <glyph glyph-name="uni0E23" unicode="&#xe23;" horiz-adv-x="509" 
d="M30 48l6 68q87 -67 195 -67q59 0 96.5 22.5t37.5 71.5q0 29 -22.5 52.5t-48 35.5t-71.5 29q-74 27 -117.5 62t-43.5 92q0 69 54.5 107t159.5 38q95 0 169 -39l-6 -64q-84 42 -165 42q-142 0 -142 -83q0 -19 9.5 -33.5t32.5 -28t40.5 -21.5t54.5 -22q84 -32 125.5 -67.5
t41.5 -97.5q0 -80 -56 -118.5t-147 -38.5q-126 0 -203 60z" />
    <glyph glyph-name="uni0E24" unicode="&#xe24;" horiz-adv-x="607" 
d="M481 -223h-72l58 547q10 93 -23 132t-120 39q-89 0 -170 -30v-65l-28 -259q-6 -51 8 -70.5t47 -19.5q49 0 90 27l-8 -65q-32 -24 -104 -24q-53 0 -83.5 34.5t-22.5 109.5l29 271v103q121 52 243 52q237 0 213 -235z" />
    <glyph glyph-name="uni0E25" unicode="&#xe25;" horiz-adv-x="583" 
d="M480 0h-72l29 277q-173 10 -255 -21t-82 -119q0 -86 99 -86q47 0 88 23l-7 -67q-38 -18 -89 -18q-164 0 -164 146q0 231 417 202q11 85 -23.5 122t-115.5 37q-116 0 -214 -51l7 69q96 45 206 45q111 0 167 -53.5t46 -156.5z" />
    <glyph glyph-name="uni0E26" unicode="&#xe26;" horiz-adv-x="622" 
d="M495 -223h-72l58 547q10 94 -18 132.5t-107 38.5q-78 0 -159 -30v-65l-30 -278q-9 -77 -39 -105t-86 -28q-39 0 -60 12l7 63q20 -13 46 -13q28 0 41.5 16.5t18.5 56.5l30 280v103q121 52 232 52q110 0 159 -56.5t36 -178.5z" />
    <glyph glyph-name="uni0E27" unicode="&#xe27;" horiz-adv-x="520" 
d="M21 41l7 69q77 -58 160 -58q96 0 152.5 69.5t56.5 185.5q0 95 -39.5 141.5t-122.5 46.5q-95 0 -186 -52l7 68q88 48 181 48q114 0 173 -64.5t59 -187.5q0 -146 -74 -232.5t-201 -86.5q-107 0 -173 53z" />
    <glyph glyph-name="uni0E28" unicode="&#xe28;" horiz-adv-x="627" 
d="M524 0h-72l33 314q10 94 -28 137.5t-125 43.5q-86 0 -133 -43.5t-57 -137.5l-13 -126q28 47 71 80.5t96 33.5q32 0 54 -9l-7 -71q-26 12 -56 12q-52 0 -89 -30.5t-76 -88.5l-13 -115h-72l33 317q13 120 81.5 181t182.5 61q75 0 124 -28l67 63h89l-110 -97q63 -67 52 -187
z" />
    <glyph glyph-name="uni0E29" unicode="&#xe29;" horiz-adv-x="615" 
d="M601 291h-69l-6 -60q-12 -127 -76.5 -185t-178.5 -58q-108 0 -165.5 59t-43.5 184l33 316h72l-33 -313q-11 -97 23 -139.5t117 -42.5t126 42.5t54 139.5l6 57h-146l6 58h146l21 198h72l-21 -198h69z" />
    <glyph glyph-name="uni0E2A" unicode="&#xe2a;" horiz-adv-x="583" 
d="M480 0h-72l29 277q-173 10 -255 -21t-82 -119q0 -86 99 -86q47 0 88 23l-7 -67q-38 -18 -89 -18q-164 0 -164 146q0 231 417 202q11 85 -23.5 122t-115.5 37q-116 0 -214 -51l7 69q96 45 206 45q69 0 123 -26l63 61h89l-106 -94q54 -56 44 -151z" />
    <glyph glyph-name="uni0E2B" unicode="&#xe2b;" horiz-adv-x="606" 
d="M503 0h-72l23 214q8 80 -18 113.5t-81 33.5q-70 0 -116.5 -21t-97.5 -63l-30 -277h-72l58 547h72l-22 -209q49 55 155.5 114t229.5 98l32 -55q-119 -26 -237 -87q25 4 51 4q46 0 78 -16.5t47.5 -45t20.5 -60t2 -68.5z" />
    <glyph glyph-name="uni0E2C" unicode="&#xe2c;" horiz-adv-x="647" 
d="M542 0h-72l-147 297l-205 -297h-79l58 547h70l-34 -323q-9 -80 -23 -147h2q31 55 84 132l103 147h57l72 -148q37 -73 57 -131h2q-1 60 8 147l20 195q6 51 -10 70t-55 19q-30 0 -68 -10l6 57q30 13 77 13l96 99h81l-113 -110q68 -26 58 -132z" />
    <glyph glyph-name="uni0E2D" unicode="&#xe2d;" horiz-adv-x="595" 
d="M249 52q215 0 215 253q0 190 -185 190q-109 0 -209 -48l7 70q95 42 207 42q120 0 186 -67.5t66 -186.5q0 -162 -77.5 -239.5t-211.5 -77.5q-99 0 -161 45t-62 131q0 76 40 147h155l-7 -62h-100q-18 -41 -18 -83q0 -114 155 -114z" />
    <glyph glyph-name="uni0E2E" unicode="&#xe2e;" horiz-adv-x="597" 
d="M249 52q215 0 215 253q0 190 -185 190q-109 0 -209 -48l7 70q95 42 207 42q70 0 118 -25l64 60h89l-103 -92q84 -63 84 -197q0 -162 -77.5 -239.5t-211.5 -77.5q-99 0 -161 45t-62 131q0 76 40 147h155l-7 -62h-100q-18 -41 -18 -83q0 -114 155 -114z" />
    <glyph glyph-name="uni0E2F" unicode="&#xe2f;" horiz-adv-x="481" 
d="M367 -80h-72l56 535q-54 -110 -168 -110q-59 0 -92.5 29t-33.5 85q0 41 20 88h67q-18 -34 -18 -69q0 -30 15.5 -50.5t48.5 -20.5q106 0 171 140h72z" />
    <glyph glyph-name="uni0E30" unicode="&#xe30;" horiz-adv-x="367" 
d="M316 369h-139q-52 0 -81 20.5t-29 58.5q0 27 18 64h66q-14 -30 -14 -46q0 -21 11 -27.5t35 -6.5h140zM285 74h-139q-52 0 -81 20.5t-29 58.5q0 26 18 64h66q-13 -24 -13 -46q0 -21 10.5 -27.5t33.5 -6.5h140z" />
    <glyph glyph-name="uni0E31" unicode="&#xe31;" 
d="M86 643h-265q-52 0 -80.5 21.5t-28.5 59.5q0 30 16 65h67q-12 -30 -12 -50t9.5 -27t33.5 -7h267z" />
    <glyph glyph-name="uni0E32" unicode="&#xe32;" horiz-adv-x="470" 
d="M363 0h-71l37 350q8 79 -20.5 113t-93.5 34q-92 0 -182 -57l8 71q90 48 180 48t140 -50t39 -159z" />
    <glyph glyph-name="uni0E33" unicode="&#xe33;" horiz-adv-x="471" 
d="M-75 668q27 0 44.5 17.5t17.5 45.5q0 23 -13.5 37t-36.5 14q-27 0 -45 -17.5t-18 -45.5q0 -23 14 -37t37 -14zM43 733q0 -49 -33.5 -82.5t-87.5 -33.5q-47 0 -75 28.5t-28 71.5q0 49 33 82.5t88 33.5q47 0 75 -28.5t28 -71.5zM363 0h-71l37 350q8 79 -20.5 113t-93.5 34
q-92 0 -182 -57l8 71q90 48 180 48t140 -50t39 -159z" />
    <glyph glyph-name="uni0E34" unicode="&#xe34;" 
d="M-36 643h-441l7 62h441z" />
    <glyph glyph-name="uni0E35" unicode="&#xe35;" 
d="M-36 643h-441l7 62h374l8 110h70z" />
    <glyph glyph-name="uni0E36" unicode="&#xe36;" 
d="M-116 643h-361l7 62h273q-5 17 -5 29q0 40 31 69.5t74 29.5q41 0 65.5 -25.5t24.5 -62.5q0 -43 -30.5 -72.5t-78.5 -29.5zM-111 686q24 0 40 16t16 42q0 22 -12.5 34t-32.5 12q-25 0 -40.5 -15.5t-15.5 -42.5q0 -21 12 -33.5t33 -12.5z" />
    <glyph glyph-name="uni0E37" unicode="&#xe37;" 
d="M-36 643h-441l7 62h259l9 110h63l-12 -113h60l9 113h64z" />
    <glyph glyph-name="uni0E38" unicode="&#xe38;" 
d="M-131 -269h-69l10 96q2 22 -5.5 32t-29.5 10q-17 0 -40 -7l6 57q34 9 60 9q90 0 80 -87z" />
    <glyph glyph-name="uni0E39" unicode="&#xe39;" 
d="M-186 -166l9 86h66l-10 -94q-6 -55 -45 -81t-99 -26q-61 0 -99.5 26t-32.5 81l4 44h-57l5 50h124l-9 -86q-4 -32 11.5 -44.5t54.5 -12.5t56.5 12.5t21.5 44.5z" />
    <glyph glyph-name="uni0E3A" unicode="&#xe3a;" 
d="M-159 -183q-22 0 -36 14t-14 37q0 26 18.5 43t43.5 17q21 0 35 -13.5t14 -36.5q0 -26 -18.5 -43.5t-42.5 -17.5z" />
    <glyph glyph-name="uni0E3F" unicode="&#xe3f;" horiz-adv-x="580" 
d="M283 -100h-52l10 100h-202l65 610h202l11 100h52l-11 -100q164 0 164 -132q0 -111 -87 -156v-2q90 -31 90 -133q0 -99 -64 -143t-168 -44zM119 62h177q33 0 57 4.5t48 17t36.5 38.5t12.5 65q0 30 -10 49.5t-29.5 28t-38 11t-46.5 2.5h-184zM148 340h183q117 0 117 128
q0 41 -23.5 60.5t-78.5 19.5h-176z" />
    <glyph glyph-name="uni0E40" unicode="&#xe40;" horiz-adv-x="218" 
d="M111 0h-70l58 547h70z" />
    <glyph glyph-name="uni0E41" unicode="&#xe41;" horiz-adv-x="416" 
d="M111 0h-70l58 547h70zM309 0h-70l58 547h70z" />
    <glyph glyph-name="uni0E42" unicode="&#xe42;" horiz-adv-x="296" 
d="M177 0h-70l62 579q17 151 -122 191l7 62q92 48 203 48q97 0 170 -20l-7 -63q-69 23 -164 23q-79 0 -139 -23q68 -24 98.5 -82.5t22.5 -139.5z" />
    <glyph glyph-name="uni0E43" unicode="&#xe43;" horiz-adv-x="296" 
d="M177 0h-70l54 508q4 31 28 64t50.5 56.5t48.5 56t22 62.5q0 36 -25 54.5t-66 18.5q-89 0 -169 -63l8 68q71 55 163 55q77 0 117 -34.5t40 -91.5q0 -39 -22 -75.5t-49 -60.5t-50.5 -56t-26.5 -62z" />
    <glyph glyph-name="uni0E44" unicode="&#xe44;" horiz-adv-x="296" 
d="M178 0h-70l56 536q19 184 140 274l-1 2q-73 -46 -148 -46q-35 0 -70 13.5t-55 32.5l7 64q67 -49 131 -49q71 0 155 48h56l-8 -73q-70 -51 -98 -109.5t-37 -146.5z" />
    <glyph glyph-name="uni0E45" unicode="&#xe45;" horiz-adv-x="470" 
d="M339 -223h-71l61 573q8 79 -20.5 113t-93.5 34q-92 0 -182 -57l8 71q90 48 180 48t140 -50t39 -159z" />
    <glyph glyph-name="uni0E46" unicode="&#xe46;" horiz-adv-x="579" 
d="M451 -213h-70l60 573q7 60 -4 89.5t-43 39.5l-107 -74l-93 74q-71 -36 -71 -127q0 -88 82 -88q41 0 71 17l-8 -68q-29 -11 -68 -11q-76 0 -111 41.5t-35 107.5q0 75 41.5 124.5t105.5 73.5l91 -78l109 78q64 -20 92 -62.5t20 -126.5z" />
    <glyph glyph-name="uni0E47" unicode="&#xe47;" 
d="M-71 643h-68q-62 0 -79 64q-32 -68 -100 -68q-48 0 -75 30t-27 81q0 67 41.5 100.5t113.5 33.5h220l-6 -56h-217q-90 0 -90 -75q0 -30 14.5 -45t33.5 -15q53 0 67 64h53q6 -57 63 -57h62z" />
    <glyph glyph-name="uni0E48" unicode="&#xe48;" 
d="M-11 869h-69l17 161h69z" />
    <glyph glyph-name="uni0E49" unicode="&#xe49;" 
d="M78 869h-263l4 42q94 23 94 78q0 29 -35 29q-23 0 -45 -9l5 49q25 11 62 11q34 0 53.5 -19.5t19.5 -49.5q0 -47 -47 -79l158 4z" />
    <glyph glyph-name="uni0E4A" unicode="&#xe4a;" 
d="M90 869h-130l5 51q5 48 -20 48q-28 0 -41 -45h-44q-6 45 -32 45q-16 0 -22 -11.5t-9 -36.5l-5 -51h-61l6 56q12 100 86 100q52 0 63 -53q23 53 75 53q41 0 57.5 -28t5.5 -76l72 2z" />
    <glyph glyph-name="uni0E4B" unicode="&#xe4b;" 
d="M80 957l-90 2l-7 -90h-61l11 90l-90 -2l6 56l90 -2l7 91h61l-11 -91l90 2z" />
    <glyph glyph-name="uni0E4C" unicode="&#xe4c;" 
d="M44 860h-129q-27 0 -39 -10t-12 -36q0 -18 5 -34h-65q-8 24 -8 40q0 98 109 98h145z" />
    <glyph glyph-name="uni0E4D" unicode="&#xe4d;" 
d="M-75 668q27 0 44.5 17.5t17.5 45.5q0 23 -13.5 37t-36.5 14q-27 0 -45 -17.5t-18 -45.5q0 -23 14 -37t37 -14zM43 733q0 -49 -33.5 -82.5t-87.5 -33.5q-47 0 -75 28.5t-28 71.5q0 49 33 82.5t88 33.5q47 0 75 -28.5t28 -71.5z" />
    <glyph glyph-name="uni0E4E" unicode="&#xe4e;" horiz-adv-x="1170" 
d="M585 832l485 -277v-555l-485 -276l-485 276v555zM1017 548l-403 231l310 -479zM556 779l-403 -231l93 -248zM129 532v-514l98 251v2zM153 0l403 -230l-310 469zM585 770l-324 -501l324 -492l324 492zM614 -230l404 230l-94 239zM1041 18v514l-98 -263zM415 300
q1 -2 5 -4.5t4 -3.5q0 -5 1 -8q-30 -35 -62 -35q18 12 52 51zM450 199q8 0 10.5 -14t-1.5 -27q-8 -25 -35 -25q-13 1 -22 11.5t-11 20t-4 23.5t-2 15q-1 3 -3 42h1q19 7 39 27q6 -32 -2 -71q-7 -38 7 -44q9 -2 12 11q1 6 -6 17q-1 4 6 9t11 5zM558 212l7 18l1 -42l-15 9
q5 9 7 15zM765 173q1 3 5 8t5 9q2 -8 -2 -20q-7 -18 -7 -44q4 -19 -2 -22q2 6 -1 16q-5 11 -3 30q4 20 5 23zM553 125q2 -2 6 -2t7 1l2 1q0 -3 1.5 -13.5t-0.5 -10.5q-3 12 -13 9q-3 0 -7 -8q-2 8 -8 8q-5 0 -10 -9l-4 6l-6 3q-4 0 -10 -9q-2 7 2 22l-1 32q8 -4 16.5 -10
t15.5 -12.5t9 -7.5zM576 168q2 2 10 2q1 -4 -2 -13q-8 6 -8 11zM568 155q4 3 13 -2l-2 -4q-1 -2 -2.5 -3.5t-1.5 -2.5q-7 5 -7 12zM560 140l2 1q2 1 10 -3q-4 -4 -9 -6q-5 5 -3 8zM558 106q5 2 7 -6q-2 -4 -13 -6q2 12 6 12zM541 105q2 0 6 -11h-6h-8q0 11 8 11zM522 106
l2 -2q4 -4 4 -9q-10 2 -13 4l4.5 6t2.5 1zM748 106q3 1 7 -6q-5 -5 -14 -6q3 12 7 12zM730 105q5 0 7 -11h-6h-8q2 11 7 11zM710 106l3 -1q3 -3 5 -10q-3 1 -8 2t-6 2q1 3 2 4.5t2 2t2 0.5zM798 241q6 -11 6 -24l-5 -26q-1 1 -3 4t-5 15t-2 28q2 50 -7 71q-9 -45 -13 -59
q-5 -15 2 -45q1 -4 -0.5 -8t-5.5 -10t-6 -11q-6 -16 -6 -31q0 -19 6 -33q2 -8 0 -10q-7 9 -12 8q-4 0 -8 -8q-2 8 -9 8q-5 0 -10 -7l-2 6l-7 2q-4 0 -11 -9q-2 4 -1 9q13 56 5 72q-2 5 -14 19t-20.5 30t-9.5 32q-5 -3 0 -21q-38 -5 -86 10q1 8 5 19q-11 -9 -18 -34
q-3 -12 -16 -38q-3 -8 21 -20q11 -2 15 -5q-6 0 -9 -5v-2q0 -3 4 -9q-8 2 -10 -2l-1 -4q0 -5 3 -8h-7l-5 -2q-2 -7 2 -12q-1 1 -3 2t-4.5 2.5t-4.5 3.5q-29 26 -44 29q-16 6 -15 32q13 94 13 95q-4 -2 -8 -13l-16 25q6 4 14 17l10 -15l4 3l2 3l5 7.5t4 7.5q5 12 7 27
q1 6 3 12l3 7q19 43 1 62q-8 8 -19.5 10.5t-18.5 1.5l-7 -2q27 0 39 -14q8 -9 8 -22q0 -4 -9 -34l-3 -7q0 -1 -1.5 -5.5l-2.5 -7.5q-1 -12 -5 -26q-6 -9 -9 -13l-11 18l-3 -5q-8 -16 -16 -21q-18 -8 -21 -11q-7 -7 -9 -16q-1 -3 -3.5 -5.5t-4.5 -3.5l-2 -1q0 3 -1 8v14
l-16 13l-3 -2q-14 -20 -33 -38q0 1 -1 3.5t-1 3.5q-5 -8 -26 -9q10 8 16 14t7 9l1 2v49q-3 29 0 45q2 8 12 39q4 9 10 14t10 5l5 1q16 22 33 24q15 2 36 -0.5t29 -1.5q4 1 21 4t33 5t26 1q92 -13 128 -41q22 -18 32.5 -28t25.5 -35t18 -53zM450 383l9 12q-8 4 -15 -4
q-3 -2 -4 -6.5t0 -8.5l1 -3q6 6 9 10zM521 423q-4 7 -10.5 10t-11.5 2l-5 -1q18 -5 22 -16l1 -27q1 2 3 5t4 11.5t-3 15.5z" />
    <glyph glyph-name="uni0E4F" unicode="&#xe4f;" horiz-adv-x="551" 
d="M251 18q-85 0 -145 59t-60 149q0 107 70.5 178.5t167.5 71.5q86 0 146 -58t60 -148q0 -107 -70.5 -179.5t-168.5 -72.5zM256 60q79 0 135 60.5t56 143.5q0 70 -49.5 120t-117.5 50q-78 0 -134.5 -60.5t-56.5 -142.5q0 -71 49.5 -121t117.5 -50zM257 154q40 0 69.5 30
t29.5 72q0 35 -22.5 59.5t-56.5 24.5q-39 0 -68 -30t-29 -72q0 -36 22 -60t55 -24zM260 116q-48 0 -82.5 35t-34.5 85q0 57 39.5 99.5t93.5 42.5q48 0 82.5 -35t34.5 -84q0 -58 -39 -100.5t-94 -42.5z" />
    <glyph glyph-name="uni0E50" unicode="&#xe50;" horiz-adv-x="585" 
d="M264 -12q-104 0 -169 64t-65 164q0 118 77.5 196t197.5 78q103 0 168 -64t65 -164q0 -119 -76.5 -196.5t-197.5 -77.5zM265 49q93 0 148 59t55 154q0 77 -43 122t-120 45q-92 0 -148 -59t-56 -154q0 -76 43.5 -121.5t120.5 -45.5z" />
    <glyph glyph-name="uni0E51" unicode="&#xe51;" horiz-adv-x="583" 
d="M239 -59h-40l6 59h26q104 0 169 65t65 188q0 87 -44 131.5t-124 44.5q-92 0 -144 -47t-52 -124q0 -54 28 -82t75 -28q48 0 95 26l-7 -61q-36 -25 -97 -25q-73 0 -117.5 44t-44.5 121q0 108 72.5 172.5t190.5 64.5q106 0 172.5 -59t66.5 -172q0 -147 -83 -232.5
t-213 -85.5z" />
    <glyph glyph-name="uni0E52" unicode="&#xe52;" horiz-adv-x="663" 
d="M511 67l28 268q7 73 -39 90l-85 -63l-79 63q-28 -11 -47.5 -41t-19.5 -73q0 -77 76 -77q19 0 41 5l-6 -52q-24 -6 -50 -6q-61 0 -94 31.5t-33 90.5q0 142 139 185l75 -65l87 66q58 -14 83 -54t19 -96l-33 -315q-127 -36 -251 -36q-147 0 -216.5 39t-60.5 130l46 433h69
l-46 -435q-6 -59 46.5 -82.5t162.5 -23.5q101 0 188 18z" />
    <glyph glyph-name="uni0E53" unicode="&#xe53;" horiz-adv-x="617" 
d="M526 0h-69l33 312q7 64 -9 90.5t-57 26.5q-35 0 -57 -29t-27 -78l-12 -113h-59l10 104q12 116 -63 116q-38 0 -59.5 -24t-28.5 -82l-19 -177q-10 -95 64 -95q49 0 90 27l-8 -65q-32 -24 -88 -24q-64 0 -99.5 38t-27.5 115l19 186q8 82 48.5 122t98.5 40q44 0 73.5 -23.5
t35.5 -62.5q19 40 53 63t78 23q59 0 91 -39.5t24 -122.5z" />
    <glyph glyph-name="uni0E54" unicode="&#xe54;" horiz-adv-x="552" 
d="M488 0h-50q-95 0 -137 51q-53 -51 -115 -51h-45q-47 31 -79 86t-32 128q0 121 70.5 194.5t203.5 73.5h72q66 0 90.5 12.5t30.5 58.5l4 37h57q3 -15 3 -35q0 -75 -48 -105t-134 -30h-70q-105 0 -157 -53t-52 -149q0 -50 19.5 -91.5t54.5 -65.5h20q43 0 84 31
q-10 24 -10 53q0 66 41 101t106 35q24 0 46 -5l-6 -52h-31q-42 0 -66.5 -21.5t-24.5 -63.5q0 -81 112 -81h49z" />
    <glyph glyph-name="uni0E55" unicode="&#xe55;" horiz-adv-x="558" 
d="M493 0h-49q-96 0 -138 51q-53 -51 -115 -51h-50q-47 31 -79 86t-32 128q0 105 53.5 175.5t155.5 85.5q-7 18 -7 37q0 40 28 71.5t85 31.5q35 0 61.5 -24t26.5 -62q0 -26 -13 -46q40 1 58.5 15.5t23.5 54.5l4 37h58q2 -22 2 -35q0 -135 -177 -135h-87q-101 0 -151.5 -54.5
t-50.5 -147.5q0 -50 19.5 -91.5t54.5 -65.5h26q43 0 84 31q-10 21 -10 50q0 68 40.5 103.5t106.5 35.5q21 0 46 -5l-6 -52h-32q-90 0 -90 -86q0 -80 112 -80h48zM327 471q23 0 37.5 14.5t14.5 39.5q0 42 -41 42q-22 0 -37 -14.5t-15 -38.5q0 -20 11.5 -31.5t29.5 -11.5z" />
    <glyph glyph-name="uni0E56" unicode="&#xe56;" horiz-adv-x="579" 
d="M58 231h73q-18 -31 -18 -72q0 -49 38 -79.5t108 -30.5q92 0 147 56.5t55 159.5q0 72 -38 118t-106 46q-109 0 -174 -78h-58q-1 32 -7 69t-10.5 56.5t-15.5 62.5t-13 51h75l27 -174q74 74 186 74q89 0 147.5 -62t58.5 -160q0 -133 -74 -206.5t-202 -73.5
q-97 0 -156.5 43.5t-59.5 123.5q0 45 17 76z" />
    <glyph glyph-name="uni0E57" unicode="&#xe57;" horiz-adv-x="733" 
d="M584 137l50 473h70l-50 -467q-17 -154 -152 -154q-65 0 -114 21l35 328q10 91 -48 91q-61 0 -70 -84l-6 -61h-58l6 61q9 84 -50 84q-58 0 -68 -91l-21 -192q-10 -95 64 -95q49 0 90 27l-8 -65q-32 -24 -88 -24q-64 0 -99.5 38t-27.5 115l21 201q8 74 42.5 110.5
t87.5 36.5q34 0 59 -19t34 -50q15 31 43.5 50t63.5 19q52 0 80.5 -36.5t20.5 -110.5l-31 -290q20 -6 42 -6q42 0 59 21t23 69z" />
    <glyph glyph-name="uni0E58" unicode="&#xe58;" horiz-adv-x="617" 
d="M172 0h-36q-45 31 -75.5 86t-30.5 127q0 122 71.5 195.5t204.5 73.5h116q47 0 67 15t24 56l4 37h57q3 -18 3 -37q0 -133 -155 -133h-120q-101 0 -151.5 -54.5t-50.5 -148.5q0 -107 72 -156h10q37 0 65 32t36 83h57q0 -124 83 -124q79 0 79 118q0 77 -63 77q-16 0 -36 -5
l6 56q16 4 43 4q111 0 111 -126q0 -81 -35 -132.5t-106 -51.5q-53 0 -83.5 29t-33.5 81q-41 -102 -133 -102z" />
    <glyph glyph-name="uni0E59" unicode="&#xe59;" horiz-adv-x="591" 
d="M479 0h-68l-134 355q-14 37 -29 54t-44 17q-63 0 -74 -95l-19 -178q-6 -56 13 -80.5t62 -24.5q38 0 71 12l-6 -56q-39 -15 -82 -15q-148 0 -130 161l19 185q8 79 48 117t97 38q73 0 110 -60q45 60 106 60q83 0 74 -104l-4 -36q26 0 36.5 11.5t14.5 44.5l17 164h61
l-17 -160q-6 -59 -34.5 -85t-85.5 -26h-48l7 70q7 64 -34 64q-40 0 -71 -47z" />
    <glyph glyph-name="uni0E5B" unicode="&#xe5b;" horiz-adv-x="1126" 
d="M1081 230l-6 -54q-50 0 -93 31t-52 89l-49 -173h-56l-60 201l-64 -226h-53l-63 228q-10 -50 -33.5 -99.5t-61.5 -95t-95.5 -74t-125.5 -28.5q-95 0 -157 58t-62 169q0 134 66 202.5t160 68.5q68 0 113 -37.5t45 -107.5q0 -79 -47 -125t-132 -46l7 59q43 0 74.5 26.5
t31.5 80.5q0 42 -26 65.5t-72 23.5q-70 0 -111 -50.5t-41 -155.5q0 -84 43 -126.5t115 -42.5q119 0 193.5 105t74.5 244v10h64l69 -254l62 217h55l59 -205l51 177h53v-5q4 -45 17.5 -77t33 -46.5t37 -20.5t36.5 -6z" />
    <glyph glyph-name="endash" unicode="&#x2013;" horiz-adv-x="449" 
d="M412 274h-383l7 61h383z" />
    <glyph glyph-name="emdash" unicode="&#x2014;" horiz-adv-x="747" 
d="M709 274h-680l7 61h680z" />
    <glyph glyph-name="quoteleft" unicode="&#x2018;" horiz-adv-x="215" 
d="M169 657l31 -12q-21 -21 -40 -53.5t-21 -59.5q18 1 30.5 -12.5t12.5 -34.5q0 -24 -15 -40t-40 -16t-39 16t-14 40q0 83 95 172z" />
    <glyph glyph-name="quoteright" unicode="&#x2019;" horiz-adv-x="215" 
d="M94 429l-30 13q21 21 40 53t22 60q-18 -2 -31 12t-13 35q0 24 15 39.5t39 15.5q25 0 40 -16t15 -40q0 -81 -97 -172z" />
    <glyph glyph-name="quotesinglbase" unicode="&#x201a;" horiz-adv-x="215" 
d="M35 -127l-30 13q21 21 40 53t22 60q-18 -2 -31 12t-13 35q0 24 15 40t39 16q25 0 40 -16.5t15 -40.5q0 -81 -97 -172z" />
    <glyph glyph-name="quotedblleft" unicode="&#x201c;" horiz-adv-x="364" 
d="M318 657l31 -12q-20 -20 -39.5 -53t-21.5 -60q18 1 31 -12.5t13 -34.5q0 -24 -15 -40t-40 -16t-39.5 16t-14.5 40q0 83 95 172zM169 657l31 -12q-21 -21 -40 -53.5t-21 -59.5q18 1 30.5 -12.5t12.5 -34.5q0 -24 -14.5 -40t-39.5 -16t-39.5 16t-14.5 40q0 83 95 172z" />
    <glyph glyph-name="quotedblright" unicode="&#x201d;" horiz-adv-x="364" 
d="M93 429l-29 13q21 21 40 53t22 60q-18 -2 -31 12t-13 35q0 25 14 40t40 15q25 0 40 -16t15 -40q0 -82 -98 -172zM243 429l-30 13q21 21 40 53t22 60q-18 -2 -31 12t-13 35q0 25 14 40t40 15q25 0 40 -16t15 -40q0 -81 -97 -172z" />
    <glyph glyph-name="quotedblbase" unicode="&#x201e;" horiz-adv-x="359" 
d="M35 -127l-30 13q21 21 40 53t22 60q-18 -2 -31 12t-13 35q0 24 15 40t39 16q25 0 40 -16.5t15 -40.5q0 -81 -97 -172zM183 -127l-29 13q21 21 40 53t22 60q-18 -2 -31 12t-13 35q0 24 14.5 40t39.5 16q26 0 40.5 -16.5t14.5 -40.5q0 -82 -98 -172z" />
    <glyph glyph-name="dagger" unicode="&#x2020;" horiz-adv-x="465" 
d="M204 -260h-61l67 642h-166l6 60h166l23 208h61l-23 -208h166l-6 -60h-166z" />
    <glyph glyph-name="daggerdbl" unicode="&#x2021;" horiz-adv-x="465" 
d="M204 -260h-61l21 207h-166l7 61h166l39 374h-166l7 60h166l22 208h61l-22 -208h166l-7 -60h-166l-39 -374h166l-7 -61h-166z" />
    <glyph glyph-name="bullet" unicode="&#x2022;" horiz-adv-x="342" 
d="M57 301q0 53 36.5 93t90.5 40q46 0 74 -32t28 -76q0 -52 -37 -91t-90 -39q-46 0 -74 30.5t-28 74.5z" />
    <glyph glyph-name="ellipsis" unicode="&#x2026;" horiz-adv-x="645" 
d="M74 -8q-22 0 -36.5 15t-14.5 37q0 26 17 43.5t42 17.5q22 0 37 -15t15 -38q0 -26 -17.5 -43t-42.5 -17zM289 -8q-22 0 -36.5 15t-14.5 37q0 26 17 43.5t42 17.5q22 0 37 -15t15 -38q0 -26 -17.5 -43t-42.5 -17zM504 -8q-22 0 -36.5 15t-14.5 37q0 26 17 43.5t42 17.5
q22 0 37 -15t15 -38q0 -26 -17.5 -43t-42.5 -17z" />
    <glyph glyph-name="perthousand" unicode="&#x2030;" horiz-adv-x="976" 
d="M112 0h-58l490 610h57zM181 329q-56 0 -88.5 36.5t-32.5 92.5q0 72 38.5 117.5t105.5 45.5q57 0 89 -36t32 -94q0 -72 -38 -117t-106 -45zM182 372q44 0 69 32t25 87q0 42 -18.5 64.5t-53.5 22.5q-45 0 -70 -32t-25 -86q0 -42 19 -65t54 -23zM451 -11q-56 0 -88.5 36.5
t-32.5 92.5q0 72 38.5 117.5t105.5 45.5q57 0 89 -36t32 -94q0 -72 -38 -117t-106 -45zM452 32q44 0 69 32t25 87q0 42 -18.5 64.5t-53.5 22.5q-45 0 -70 -32t-25 -86q0 -42 19 -65t54 -23zM777 -11q-56 0 -88.5 36.5t-32.5 92.5q0 72 38.5 117.5t105.5 45.5q57 0 89 -36
t32 -94q0 -72 -38 -117t-106 -45zM778 32q44 0 69 32t25 87q0 42 -18.5 64.5t-53.5 22.5q-45 0 -70 -32t-25 -86q0 -42 19 -65t54 -23z" />
    <glyph glyph-name="guilsinglleft" unicode="&#x2039;" horiz-adv-x="266" 
d="M199 62h-70l-109 209l154 212h70l-156 -211z" />
    <glyph glyph-name="guilsinglright" unicode="&#x203a;" horiz-adv-x="266" 
d="M84 62h-69l155 210l-111 211h69l109 -212z" />
    <glyph glyph-name="fraction" unicode="&#x2044;" horiz-adv-x="236" 
d="M-102 0h-58l499 610h56z" />
    <glyph glyph-name="Euro" unicode="&#x20ac;" horiz-adv-x="580" 
d="M513 115l5 -70q-68 -60 -155 -60q-97 0 -161.5 61.5t-74.5 168.5h-81l6 49h75q0 47 9 85h-75l5 49h83q33 106 104.5 164.5t164.5 58.5t148 -57l-19 -67q-52 60 -125 60q-69 0 -121 -41t-78 -118h225l-15 -49h-224q-10 -33 -10 -85h214l-16 -49h-195q10 -81 54.5 -123
t115.5 -42q76 0 141 65z" />
    <glyph glyph-name="trademark" unicode="&#x2122;" horiz-adv-x="728" 
d="M684 280h-54l-3 170l4 75l-113 -245h-51l-63 245l-10 -75l-38 -170h-55l74 330h57l65 -261l122 261h60zM182 280h-56l29 280l-100 -1l5 51h256l-5 -51l-100 1z" />
    <glyph glyph-name="Omega" unicode="&#x2126;" horiz-adv-x="648" 
d="M553 0h-216l6 56q194 145 194 320q0 80 -44 131t-143 51q-66 0 -113 -21t-71.5 -56.5t-35 -73.5t-10.5 -82q0 -76 36.5 -147t94.5 -122l-6 -56h-216l6 59h145q-56 41 -95 113t-39 154q0 60 17 112t52 94t95 66t139 24q128 0 194.5 -68.5t66.5 -173.5q0 -102 -54.5 -187.5
t-133.5 -133.5h137z" />
    <glyph glyph-name="estimated" unicode="&#x212e;" horiz-adv-x="856" 
d="M694 130h58q-56 -65 -136.5 -102t-174.5 -37q-165 0 -279.5 105t-114.5 253q0 150 113 254.5t277 104.5t277 -104.5t113 -254.5v-14h-628q-5 0 -5 -4v-185q0 -18 8 -29q85 -96 240 -96q156 0 252 109zM680 365v186q0 24 -11 36q-93 91 -231 91q-141 0 -235 -97
q-9 -9 -9 -29v-187q0 -6 5 -6h476q5 0 5 6z" />
    <glyph glyph-name="partialdiff" unicode="&#x2202;" horiz-adv-x="540" 
d="M211 606l7 59q120 0 196.5 -95t76.5 -247q0 -156 -71.5 -245.5t-189.5 -89.5q-90 0 -145.5 52.5t-55.5 144.5q0 96 60.5 164.5t168.5 68.5q55 0 100.5 -20.5t72.5 -47.5q-4 111 -64 182.5t-156 73.5zM424 284q-27 36 -70 56t-92 20q-79 0 -120 -51.5t-41 -123.5
q0 -65 36.5 -102t92.5 -37q86 0 135.5 67t58.5 171z" />
    <glyph glyph-name="Delta" unicode="&#x2206;" horiz-adv-x="581" 
d="M433 65l-113 505l-220 -505h333zM501 0h-487l5 52l267 598h80l140 -598z" />
    <glyph glyph-name="product" unicode="&#x220f;" horiz-adv-x="614" 
d="M478 -215h-70l85 802h-314l-85 -802h-70l92 865h454z" />
    <glyph glyph-name="summation" unicode="&#x2211;" horiz-adv-x="515" 
d="M416 -215h-434l5 51l278 377l-187 380l6 57h409l-8 -69h-324l181 -356l-1 -28l-253 -342h336z" />
    <glyph glyph-name="minus" unicode="&#x2212;" horiz-adv-x="496" 
d="M446 279h-404l7 61h404z" />
    <glyph glyph-name="uni2219" unicode="&#x2219;" horiz-adv-x="218" 
d="M103 234q-22 0 -36.5 15t-14.5 37q0 26 17 43.5t42 17.5q22 0 37 -15t15 -38q0 -26 -17.5 -43t-42.5 -17z" />
    <glyph glyph-name="radical" unicode="&#x221a;" horiz-adv-x="466" 
d="M250 -64h-80l-73 335h-79l6 60h121l68 -332l199 651h57z" />
    <glyph glyph-name="infinity" unicode="&#x221e;" horiz-adv-x="662" 
d="M332 300q22 49 69.5 86t101.5 37q58 0 94.5 -39.5t36.5 -105.5q0 -87 -50.5 -137t-118.5 -50q-103 0 -145 123q-24 -49 -71.5 -86t-101.5 -37q-58 0 -94 39.5t-36 105.5q0 87 50.5 137t118.5 50q104 0 146 -123zM308 262q-11 43 -43.5 76.5t-75.5 33.5q-59 0 -87 -41.5
t-28 -87.5q0 -41 21.5 -72t67.5 -31q45 0 83 35.5t62 86.5zM345 261q11 -48 42 -83.5t76 -35.5q59 0 87 41.5t28 87.5q0 41 -22.5 72t-68.5 31q-42 0 -81 -33.5t-61 -79.5z" />
    <glyph glyph-name="integral" unicode="&#x222b;" horiz-adv-x="354" 
d="M-17 -217l6 54q39 -3 46 -3q32 0 46 16.5t19 57.5l63 611q17 143 120 143q41 0 70 -10l-6 -54q-45 3 -46 3q-31 0 -44.5 -16.5t-18.5 -57.5l-65 -611q-17 -143 -120 -143q-43 0 -70 10z" />
    <glyph glyph-name="approxequal" unicode="&#x2248;" horiz-adv-x="496" 
d="M428 271l-8 -66q-54 -45 -102 -45q-34 0 -87.5 29.5t-80.5 29.5q-44 0 -102 -52l7 66q56 44 101 44q35 0 88 -29.5t81 -29.5q47 0 103 53zM446 443l-7 -66q-55 -45 -103 -45q-34 0 -87.5 29.5t-80.5 29.5q-44 0 -102 -52l7 66q56 44 102 44q35 0 87.5 -29.5t80.5 -29.5
q47 0 103 53z" />
    <glyph glyph-name="notequal" unicode="&#x2260;" horiz-adv-x="496" 
d="M433 191h-222l-113 -191h-55l112 191h-119l6 59h148l67 111h-203l6 58h230l105 175h56l-105 -175h111l-6 -58h-139l-66 -111h193z" />
    <glyph glyph-name="lessequal" unicode="&#x2264;" horiz-adv-x="496" 
d="M415 92l-388 212l6 56l433 212l-7 -64l-369 -178l331 -178zM406 0h-411l5 52h411z" />
    <glyph glyph-name="greaterequal" unicode="&#x2265;" horiz-adv-x="496" 
d="M466 304l-432 -212l8 64l367 178l-330 178l5 60l388 -212zM434 0h-410l5 52h410z" />
    <glyph glyph-name="lozenge" unicode="&#x25ca;" horiz-adv-x="532" 
d="M240 72l185 256l-129 251l-185 -257zM260 0h-53l-165 325l235 325h52l165 -325z" />
    <glyph glyph-name="uni0E10.alt1" unicode="&#xf700;" horiz-adv-x="553" 
d="M217 0h-59l-66 202q-7 18 -20 49t-14 33h80l71 -224q86 9 154.5 79.5t68.5 183.5q0 172 -178 172q-102 0 -204 -49l7 67q100 46 199 46q81 0 134 -29l66 64h90l-108 -96q66 -60 66 -175q0 -71 -25 -130t-67 -97.5t-91.5 -62.5t-103.5 -33z" />
    <glyph glyph-name="uni0E34.alt1" unicode="&#xf701;" 
d="M-164 643h-395l7 62h395z" />
    <glyph glyph-name="uni0E35.alt1" unicode="&#xf702;" 
d="M-164 643h-395l7 62h329l8 110h69z" />
    <glyph glyph-name="uni0E36.alt1" unicode="&#xf703;" 
d="M-243 643h-316l7 62h227q-4 12 -4 27q0 42 30.5 71.5t74.5 29.5q41 0 65 -25.5t24 -62.5q0 -43 -30 -72.5t-78 -29.5zM-238 686q24 0 40 16t16 42q0 22 -12 34t-33 12q-25 0 -41 -15.5t-16 -42.5q0 -21 12.5 -33.5t33.5 -12.5z" />
    <glyph glyph-name="uni0E37.alt1" unicode="&#xf704;" 
d="M-164 643h-395l7 62h214l9 110h63l-12 -113h60l9 113h63z" />
    <glyph glyph-name="uni0E48.alt1" unicode="&#xf705;" 
d="M-247 643h-70l21 202h70z" />
    <glyph glyph-name="uni0E49.alt1" unicode="&#xf706;" 
d="M-183 643h-283l6 47q41 9 71.5 30.5t30.5 54.5q0 32 -35 32q-27 0 -53 -10l5 53q42 11 69 11q80 0 80 -74q0 -53 -53 -86l169 3z" />
    <glyph glyph-name="uni0E4A.alt1" unicode="&#xf707;" 
d="M-133 643h-143l6 58q3 27 -2 41t-22 14q-31 0 -45 -51h-51q-6 51 -35 51q-33 0 -38 -55l-6 -58h-66l7 63q6 50 30.5 80.5t66.5 30.5q59 0 70 -57q29 57 84 57q45 0 64.5 -32.5t8.5 -85.5l77 3z" />
    <glyph glyph-name="uni0E4B.alt1" unicode="&#xf708;" 
d="M-172 741l-101 3l-8 -101h-68l12 101l-102 -3l6 60l102 -2l9 100h68l-13 -100l101 2z" />
    <glyph glyph-name="uni0E4C.alt1" unicode="&#xf709;" 
d="M-155 723h-127q-29 0 -42.5 -11t-13.5 -40q0 -19 4 -36h-70q-6 22 -6 44q0 52 28 79t92 27h142z" />
    <glyph glyph-name="uni0E48.alt2" unicode="&#xf70a;" 
d="M-36 643h-70l21 202h70z" />
    <glyph glyph-name="uni0E49.alt2" unicode="&#xf70b;" 
d="M24 643h-283l6 47q41 9 71.5 30.5t30.5 54.5q0 32 -35 32q-27 0 -53 -10l5 53q42 11 69 11q80 0 80 -74q0 -53 -53 -86l169 3z" />
    <glyph glyph-name="uni0E4A.alt2" unicode="&#xf70c;" 
d="M22 643h-146l6 58q3 27 -2 41t-22 14q-31 0 -45 -51h-51q-6 51 -35 51q-33 0 -38 -55l-6 -58h-66l7 63q6 50 30.5 80.5t66.5 30.5q59 0 70 -57q29 57 84 57q45 0 64.5 -32.5t8.5 -85.5l80 3z" />
    <glyph glyph-name="uni0E4B.alt2" unicode="&#xf70d;" 
d="M-11 741l-102 3l-8 -101h-67l12 101l-102 -3l6 60l102 -2l9 100h67l-13 -100l102 2z" />
    <glyph glyph-name="uni0E4C.alt2" unicode="&#xf70e;" 
d="M19 723h-129q-29 0 -42.5 -11t-13.5 -40q0 -19 4 -36h-70q-7 21 -7 43q0 53 28.5 80t92.5 27h144z" />
    <glyph glyph-name="uni0E0D.alt1" unicode="&#xf70f;" horiz-adv-x="932" 
d="M776 188l39 359h72l-38 -362q-10 -91 -70 -144t-159 -53q-102 0 -156 50.5t-42 146.5l16 139q11 93 -18.5 132t-108.5 39q-76 0 -157 -30v-65l-28 -259q-6 -51 7.5 -70.5t43.5 -19.5q48 0 86 25l-8 -65q-31 -22 -100 -22q-50 0 -80 34.5t-22 109.5l29 271v103
q121 52 230 52q221 0 197 -235l-15 -136q-8 -66 25 -101t102 -35q68 0 108 36.5t47 99.5z" />
    <glyph glyph-name="uni0E31.alt1" unicode="&#xf710;" 
d="M-145 643h-243q-52 0 -80.5 21.5t-28.5 59.5q0 30 16 65h67q-12 -30 -12 -50t9.5 -27t33.5 -7h245z" />
    <glyph glyph-name="uni0E4D.alt1" unicode="&#xf711;" 
d="M-285 668q27 0 44.5 17.5t17.5 45.5q0 23 -13.5 37t-36.5 14q-27 0 -45 -17.5t-18 -45.5q0 -23 14 -37t37 -14zM-167 733q0 -49 -33.5 -82.5t-87.5 -33.5q-47 0 -75 28.5t-28 71.5q0 49 33 82.5t88 33.5q47 0 75 -28.5t28 -71.5z" />
    <glyph glyph-name="uni0E47.alt1" unicode="&#xf712;" 
d="M-175 643h-68q-62 0 -79 64q-32 -68 -100 -68q-48 0 -75 30t-27 81q0 67 41.5 100.5t113.5 33.5h220l-6 -56h-217q-90 0 -90 -75q0 -30 14.5 -45t33.5 -15q53 0 67 64h53q6 -57 63 -57h62z" />
    <glyph glyph-name="uni0E48.alt3" unicode="&#xf713;" 
d="M-139 869h-69l17 161h69z" />
    <glyph glyph-name="uni0E49.alt3" unicode="&#xf714;" 
d="M-105 869h-263l4 42q94 23 94 78q0 29 -35 29q-23 0 -45 -9l5 49q25 11 62 11q34 0 53.5 -19.5t19.5 -49.5q0 -47 -47 -79l158 4z" />
    <glyph glyph-name="uni0E4A.alt3" unicode="&#xf715;" 
d="M-96 869h-130l5 51q5 48 -20 48q-28 0 -41 -45h-44q-6 45 -32 45q-16 0 -22 -11.5t-9 -36.5l-5 -51h-61l6 56q12 100 86 100q52 0 63 -53q23 53 75 53q41 0 57.5 -28t5.5 -76l72 2z" />
    <glyph glyph-name="uni0E4B.alt3" unicode="&#xf716;" 
d="M-48 957l-90 2l-7 -90h-61l11 90l-90 -2l6 56l90 -2l7 91h61l-11 -91l90 2z" />
    <glyph glyph-name="uni0E4C.alt3" unicode="&#xf717;" 
d="M-84 860h-129q-27 0 -39 -10t-12 -36q0 -18 5 -34h-65q-8 24 -8 40q0 98 109 98h145z" />
    <glyph glyph-name="uni0E38.alt1" unicode="&#xf718;" 
d="M-152 -459h-69l10 96q2 22 -5.5 32t-29.5 10q-17 0 -40 -7l6 57q34 9 60 9q90 0 80 -87z" />
    <glyph glyph-name="uni0E39.alt1" unicode="&#xf719;" 
d="M-207 -356l9 86h66l-10 -94q-6 -55 -45 -81t-99 -26q-61 0 -99.5 26t-32.5 81l4 44h-57l5 50h124l-9 -86q-4 -32 11.5 -44.5t54.5 -12.5t56.5 12.5t21.5 44.5z" />
    <glyph glyph-name="uni0E3A.alt1" unicode="&#xf71a;" 
d="M-179 -373q-22 0 -36 14t-14 37q0 26 18.5 43t43.5 17q21 0 35 -13.5t14 -36.5q0 -26 -18.5 -43.5t-42.5 -17.5z" />
    <glyph glyph-name="uni0E0E.alt1" unicode="&#xf71b;" horiz-adv-x="622" 
d="M496 -213h-63q-115 79 -199 79q-100 0 -107 -78h-62q6 65 50 100t116 35q89 0 199 -73l51 474q10 94 -18 132.5t-107 38.5q-78 0 -159 -30v-65l-30 -278q-9 -77 -39 -105t-86 -28q-39 0 -60 12l7 63q20 -13 46 -13q28 0 41.5 16.5t18.5 56.5l30 280v103q121 52 232 52
q110 0 159 -56.5t36 -178.5z" />
    <glyph glyph-name="uni0E0F.alt1" unicode="&#xf71c;" horiz-adv-x="622" 
d="M496 -213h-76q-117 0 -129 77q-15 -35 -47 -56t-72 -23q-60 -5 -106 23l7 67q42 -32 89 -32q75 0 103 84h61q13 -79 87 -79h17l51 476q10 94 -18 132.5t-107 38.5q-78 0 -159 -30v-65l-30 -278q-9 -77 -39 -105t-86 -28q-39 0 -60 12l7 63q20 -13 46 -13q28 0 41.5 16.5
t18.5 56.5l30 280v103q121 52 232 52q110 0 159 -56.5t36 -178.5z" />
    <glyph glyph-name="uni0E2C.alt1" unicode="&#xf71d;" horiz-adv-x="647" 
d="M543 0h-74l-147 295l-205 -295h-78l58 547h70l-34 -323q-9 -80 -23 -147h2q31 55 84 132l103 147h57l72 -148q37 -73 57 -131h2q-1 68 7 147l15 130q6 51 -10 70t-55 19q-31 0 -69 -10l6 57q30 13 78 13l86 91h81l-104 -102q71 -27 59 -132z" />
    <glyph glyph-name="uniF8FF" unicode="&#xf8ff;" horiz-adv-x="1170" 
d="M585 832l485 -277v-555l-485 -276l-485 276v555zM1017 548l-403 231l310 -479zM556 779l-403 -231l93 -248zM129 532v-514l98 251v2zM153 0l403 -230l-310 469zM585 770l-324 -501l324 -492l324 492zM614 -230l404 230l-94 239zM1041 18v514l-98 -263zM415 300
q1 -2 5 -4.5t4 -3.5q0 -5 1 -8q-30 -35 -62 -35q18 12 52 51zM450 199q8 0 10.5 -14t-1.5 -27q-8 -25 -35 -25q-13 1 -22 11.5t-11 20t-4 23.5t-2 15q-1 3 -3 42h1q19 7 39 27q6 -32 -2 -71q-7 -38 7 -44q9 -2 12 11q1 6 -6 17q-1 4 6 9t11 5zM558 212l7 18l1 -42l-15 9
q5 9 7 15zM765 173q1 3 5 8t5 9q2 -8 -2 -20q-7 -18 -7 -44q4 -19 -2 -22q2 6 -1 16q-5 11 -3 30q4 20 5 23zM553 125q2 -2 6 -2t7 1l2 1q0 -3 1.5 -13.5t-0.5 -10.5q-3 12 -13 9q-3 0 -7 -8q-2 8 -8 8q-5 0 -10 -9l-4 6l-6 3q-4 0 -10 -9q-2 7 2 22l-1 32q8 -4 16.5 -10
t15.5 -12.5t9 -7.5zM576 168q2 2 10 2q1 -4 -2 -13q-8 6 -8 11zM568 155q4 3 13 -2l-2 -4q-1 -2 -2.5 -3.5t-1.5 -2.5q-7 5 -7 12zM560 140l2 1q2 1 10 -3q-4 -4 -9 -6q-5 5 -3 8zM558 106q5 2 7 -6q-2 -4 -13 -6q2 12 6 12zM541 105q2 0 6 -11h-6h-8q0 11 8 11zM522 106
l2 -2q4 -4 4 -9q-10 2 -13 4l4.5 6t2.5 1zM748 106q3 1 7 -6q-5 -5 -14 -6q3 12 7 12zM730 105q5 0 7 -11h-6h-8q2 11 7 11zM710 106l3 -1q3 -3 5 -10q-3 1 -8 2t-6 2q1 3 2 4.5t2 2t2 0.5zM798 241q6 -11 6 -24l-5 -26q-1 1 -3 4t-5 15t-2 28q2 50 -7 71q-9 -45 -13 -59
q-5 -15 2 -45q1 -4 -0.5 -8t-5.5 -10t-6 -11q-6 -16 -6 -31q0 -19 6 -33q2 -8 0 -10q-7 9 -12 8q-4 0 -8 -8q-2 8 -9 8q-5 0 -10 -7l-2 6l-7 2q-4 0 -11 -9q-2 4 -1 9q13 56 5 72q-2 5 -14 19t-20.5 30t-9.5 32q-5 -3 0 -21q-38 -5 -86 10q1 8 5 19q-11 -9 -18 -34
q-3 -12 -16 -38q-3 -8 21 -20q11 -2 15 -5q-6 0 -9 -5v-2q0 -3 4 -9q-8 2 -10 -2l-1 -4q0 -5 3 -8h-7l-5 -2q-2 -7 2 -12q-1 1 -3 2t-4.5 2.5t-4.5 3.5q-29 26 -44 29q-16 6 -15 32q13 94 13 95q-4 -2 -8 -13l-16 25q6 4 14 17l10 -15l4 3l2 3l5 7.5t4 7.5q5 12 7 27
q1 6 3 12l3 7q19 43 1 62q-8 8 -19.5 10.5t-18.5 1.5l-7 -2q27 0 39 -14q8 -9 8 -22q0 -4 -9 -34l-3 -7q0 -1 -1.5 -5.5l-2.5 -7.5q-1 -12 -5 -26q-6 -9 -9 -13l-11 18l-3 -5q-8 -16 -16 -21q-18 -8 -21 -11q-7 -7 -9 -16q-1 -3 -3.5 -5.5t-4.5 -3.5l-2 -1q0 3 -1 8v14
l-16 13l-3 -2q-14 -20 -33 -38q0 1 -1 3.5t-1 3.5q-5 -8 -26 -9q10 8 16 14t7 9l1 2v49q-3 29 0 45q2 8 12 39q4 9 10 14t10 5l5 1q16 22 33 24q15 2 36 -0.5t29 -1.5q4 1 21 4t33 5t26 1q92 -13 128 -41q22 -18 32.5 -28t25.5 -35t18 -53zM450 383l9 12q-8 4 -15 -4
q-3 -2 -4 -6.5t0 -8.5l1 -3q6 6 9 10zM521 423q-4 7 -10.5 10t-11.5 2l-5 -1q18 -5 22 -16l1 -27q1 2 3 5t4 11.5t-3 15.5z" />
    <glyph glyph-name="NULL" 
 />
    <glyph glyph-name="CR" horiz-adv-x="252" 
 />
    <glyph glyph-name="uni0E33.alt1" horiz-adv-x="470" 
d="M-285 668q27 0 44.5 17.5t17.5 45.5q0 23 -13.5 37t-36.5 14q-27 0 -45 -17.5t-18 -45.5q0 -23 14 -37t37 -14zM-167 733q0 -49 -33.5 -82.5t-87.5 -33.5q-47 0 -75 28.5t-28 71.5q0 49 33 82.5t88 33.5q47 0 75 -28.5t28 -71.5zM363 0h-71l37 350q8 79 -20.5 113
t-93.5 34q-92 0 -182 -57l8 71q90 48 180 48t140 -50t39 -159z" />
    <glyph glyph-name="uni0E4E.alt1" 
 />
    <glyph glyph-name="uni0E01.alt" horiz-adv-x="608" 
d="M505 0h-73l36 341q8 86 -27 121t-124 35q-37 0 -73 -6q-49 -44 -71.5 -87t-30.5 -125l-29 -279h-72l29 274q15 129 103 208q-18 -2 -52 -9t-52 -9l5 45q114 50 244 50q122 0 178 -53.5t46 -154.5z" />
    <glyph glyph-name="uni0E2B.alt" horiz-adv-x="604" 
d="M503 0h-72l20 194q8 79 -20 109.5t-84 30.5q-102 0 -207 -57l-29 -277h-72l58 547h72l-22 -209q111 59 213 59q4 0 9 -0.5t8 -0.5l103 151h81l-117 -167q95 -38 80 -178z" />
    <glyph glyph-name="uni0E2D.alt" horiz-adv-x="587" 
d="M530 304q0 -161 -80.5 -238.5t-216.5 -77.5q-129 0 -212 47l28 260h72l-24 -220q46 -23 138 -23q222 0 222 252q0 94 -47.5 142.5t-140.5 48.5q-102 0 -207 -48l8 70q102 42 202 42q122 0 190 -68t68 -187z" />
    <glyph glyph-name="zero.tab" horiz-adv-x="580" 
d="M263 -12q-99 0 -158.5 71t-59.5 197q0 173 73.5 269.5t200.5 96.5q101 0 158 -70t57 -198q0 -175 -70 -270.5t-201 -95.5zM317 559q-98 0 -148.5 -82.5t-50.5 -221.5q0 -204 145 -204q98 0 148.5 82.5t50.5 221.5q0 204 -145 204z" />
    <glyph glyph-name="one.tab" horiz-adv-x="580" 
d="M331 0h-71l57 531q-61 -73 -161 -68l7 63q101 -4 169 84h64z" />
    <glyph glyph-name="two.tab" horiz-adv-x="580" 
d="M449 0h-394l6 57q183 114 267.5 205t84.5 182q0 115 -127 115q-83 0 -165 -38l8 68q73 33 160 33q104 0 151 -51t47 -129q0 -56 -25 -109.5t-73 -101.5t-99 -86.5t-119 -80.5h284z" />
    <glyph glyph-name="three.tab" horiz-adv-x="580" 
d="M354 319l-1 -2q48 -11 79.5 -45t31.5 -89q0 -97 -61.5 -146t-162.5 -49q-100 0 -176 52l6 66q81 -55 166 -55q157 0 157 131q0 109 -186 104l6 61q194 -5 194 127q0 85 -121 85q-80 0 -160 -37l7 65q76 35 162 35q80 0 132 -35.5t52 -107.5q0 -63 -36 -103.5t-89 -56.5z
" />
    <glyph glyph-name="four.tab" horiz-adv-x="580" 
d="M400 0h-70l14 127h-308l6 56l349 427h74l-44 -421h89l-7 -62h-89zM351 189l33 322l-257 -322h224z" />
    <glyph glyph-name="five.tab" horiz-adv-x="580" 
d="M61 36l7 66q76 -51 169 -51q172 0 172 150q0 113 -148 113q-85 0 -160 -15l46 311h344l-7 -64h-278l-27 -178q61 8 91 8q102 0 156.5 -44t54.5 -124q0 -105 -64 -162.5t-177 -57.5q-115 0 -179 48z" />
    <glyph glyph-name="six.tab" horiz-adv-x="580" 
d="M479 594l-7 -63q-48 29 -110 29q-89 0 -147 -65t-72 -185q29 36 80.5 60.5t103.5 24.5q88 0 133 -50t45 -129q0 -102 -62.5 -165t-154.5 -63q-105 0 -161.5 64t-56.5 192q0 180 82.5 279t209.5 99q63 0 117 -28zM134 240q-4 -85 36 -137.5t116 -52.5q60 0 105 41t45 125
q0 53 -28 86.5t-92 33.5q-51 0 -99.5 -25.5t-82.5 -70.5z" />
    <glyph glyph-name="seven.tab" horiz-adv-x="580" 
d="M214 0h-76l281 546h-312l7 64h392l-6 -55z" />
    <glyph glyph-name="eight.tab" horiz-adv-x="580" 
d="M356 311l-1 -2q65 -12 99.5 -49.5t34.5 -92.5q0 -85 -60 -132t-172 -47q-90 0 -144.5 39.5t-54.5 107.5q0 134 171 172q0 1 -1 2q-123 28 -123 141q0 77 57.5 124.5t152.5 47.5q89 0 139.5 -39.5t50.5 -105.5q0 -114 -149 -166zM278 278q-150 -38 -150 -136q0 -48 35 -72
t99 -24q61 0 110 29.5t49 92.5q0 88 -143 110zM307 340q59 21 93.5 52t34.5 82q0 41 -31.5 66t-89.5 25q-64 0 -103 -31.5t-39 -81.5q0 -48 34 -74t101 -38z" />
    <glyph glyph-name="nine.tab" horiz-adv-x="580" 
d="M101 16l7 63q48 -30 109 -30q88 0 144.5 65t70.5 185q-32 -37 -80 -60.5t-104 -23.5q-88 0 -131 49t-43 124q0 106 64.5 170t165.5 64q96 0 150.5 -65t54.5 -192q0 -179 -83 -278t-209 -99q-62 0 -116 28zM441 370q2 86 -34 138t-108 52q-64 0 -110 -41t-46 -124
q0 -54 28 -87.5t91 -33.5q109 0 179 96z" />
    </font>
</defs>
</svg>
