<?xml version="1.0" standalone="no"?>
<!DOCTYPE svg PUBLIC "-//W3C//DTD SVG 1.1//EN" "http://www.w3.org/Graphics/SVG/1.1/DTD/svg11.dtd" >
<svg xmlns="http://www.w3.org/2000/svg" xmlns:xlink="http://www.w3.org/1999/xlink" version="1.1">
<metadata>
Created by FontForge 20170731 at Mon Nov 25 20:08:52 2013
 By Aleksey,,,
Copyright (c) 2013 by Chorong Kim &#38; Cadson Demak Team for SCG Group. All rights reserved.
</metadata>
<defs>
<font id="SCG-Regular" horiz-adv-x="0" >
  <font-face 
    font-family="SCG"
    font-weight="400"
    font-stretch="normal"
    units-per-em="1000"
    panose-1="2 0 5 3 0 0 0 2 0 4"
    ascent="800"
    descent="-200"
    x-height="450"
    cap-height="610"
    bbox="-624 -471 1147 1102"
    underline-thickness="20"
    underline-position="-173"
    unicode-range="U+0020-FB02"
  />
<missing-glyph horiz-adv-x="555" 
d="M555 0h-555v700h555v-700zM277 395l189 255h-377zM500 95v510l-189 -255zM466 50l-189 255l-188 -255h377zM56 95l188 255l-188 255v-510z" />
    <glyph glyph-name="uni0E5A" unicode="&#xe2f;&#xe2f;" horiz-adv-x="680" 
d="M430 -80h-76v535q-62 -110 -174 -110q-137 0 -137 136q0 30 12 66h70q-11 -26 -11 -61q0 -32 18.5 -55.5t57.5 -23.5q109 0 164 140h76v-627zM604 -80h-75v627h75v-627z" />
    <glyph glyph-name="uni0E4F.liga" unicode="&#xe4f;&#x22;" horiz-adv-x="580" 
d="M238 532h-53l-9 205h71zM396 532h-53l-9 205h71zM520 248q0 -97 -67.5 -162t-162.5 -65t-162.5 65t-67.5 162t67.5 161t162.5 64t162.5 -64t67.5 -161zM290 56q80 0 135.5 56t55.5 136q0 78 -56 134t-135 56t-135 -56t-56 -134q0 -80 56 -136t135 -56zM290 156
q38 0 64.5 26.5t26.5 64.5t-26.5 64.5t-64.5 26.5t-64.5 -26.5t-26.5 -64.5t26.5 -64.5t64.5 -26.5zM290 113q-56 0 -95 39.5t-39 95.5q0 54 39 93.5t95 39.5t95 -39.5t39 -93.5q0 -56 -39 -95.5t-95 -39.5z" />
    <glyph glyph-name="uni0E24.liga" unicode="&#xe24;&#xe32;" horiz-adv-x="998" 
d="M924 -223h-76v547q0 93 -38.5 132t-129.5 39q-55 0 -149 -24q34 -53 34 -142v-552h-76v547q0 93 -38.5 132t-129.5 39q-88 0 -169 -22v-332q0 -53 18.5 -71.5t64.5 -18.5q38 0 75 16v-62q-37 -16 -88 -16q-146 0 -146 144v386q128 40 251 40q94 0 149 -34q120 34 210 34
q119 0 178.5 -56t59.5 -174v-552z" />
    <glyph glyph-name="uni0E26.liga" unicode="&#xe26;&#xe32;" horiz-adv-x="998" 
d="M924 -223h-76v547q0 93 -38.5 132t-129.5 39q-65 0 -132 -19q33 -52 33 -138v-561h-76v556q0 88 -34.5 125t-118.5 37q-73 0 -154 -22v-351q0 -133 -116 -133q-38 0 -64 7v63q24 -8 48 -8q56 0 56 73v395q128 40 235 40q83 0 135 -30q105 30 194 30q119 0 178.5 -56
t59.5 -174v-552z" />
    <glyph glyph-name="fi" unicode="fi" horiz-adv-x="577" 
d="M183 0h-76v393h-84v57h84v21q0 94 63.5 142t178.5 48q86 0 154 -26v-61q-75 26 -147 26q-87 0 -131 -31t-44 -99v-20h144v-57h-142v-393zM503 0h-76v450h76v-450z" />
    <glyph glyph-name="fl" unicode="fl" horiz-adv-x="577" 
d="M503 0h-74v594q-49 7 -86 7q-82 0 -122 -31.5t-40 -99.5v-20h144v-57h-142v-393h-76v393h-84v57h84v21q0 92 60 141t171 49q91 0 165 -18v-643z" />
    <glyph glyph-name=".notdef" horiz-adv-x="555" 
d="M555 0h-555v700h555v-700zM277 395l189 255h-377zM500 95v510l-189 -255zM466 50l-189 255l-188 -255h377zM56 95l188 255l-188 255v-510z" />
    <glyph glyph-name=".null" 
 />
    <glyph glyph-name="nonmarkingreturn" horiz-adv-x="333" 
 />
    <glyph glyph-name="space" unicode=" " horiz-adv-x="264" 
 />
    <glyph glyph-name="exclam" unicode="!" horiz-adv-x="244" 
d="M152 215h-59l-13 395h84zM180 48q0 -24 -17 -40t-41 -16t-41 16t-17 40t17 40.5t41 16.5t41 -16.5t17 -40.5z" />
    <glyph glyph-name="quotedbl" unicode="&#x22;" horiz-adv-x="344" 
d="M126 410h-55l-9 240h73zM273 410h-55l-9 240h73z" />
    <glyph glyph-name="numbersign" unicode="#" horiz-adv-x="612" 
d="M378 0h-61l37 179h-158l-37 -179h-61l38 179h-99v58h111l36 174h-97v59h109l38 178h61l-38 -178h158l38 178h61l-38 -178h99v-59h-111l-36 -174h98v-58h-111zM367 237l36 174h-158l-36 -174h158z" />
    <glyph glyph-name="dollar" unicode="$" horiz-adv-x="612" 
d="M337 -100h-55v90q-59 2 -118 22t-92 44l29 57q85 -60 200 -60q29 0 54.5 4t50 14t39 30.5t14.5 48.5q0 15 -5 28.5t-16.5 24.5t-22 19.5t-30 18t-32.5 15.5t-37 16l-36 15q-98 42 -132 69q-62 47 -62 113q0 72 52 110t144 42v89h55v-90q98 -6 170 -56l-29 -55
q-74 49 -169 49q-146 0 -146 -88q0 -13 4 -24.5t14 -22t19 -18t26.5 -16.5t28 -14t33 -14.5t32.5 -14.5q7 -3 33 -14t37.5 -16t35 -17t35.5 -21t29 -24t25.5 -29.5t15 -34t6.5 -40.5q0 -73 -55 -113t-145 -46v-91z" />
    <glyph glyph-name="percent" unicode="%" horiz-adv-x="692" 
d="M153 0h-61l448 610h60zM185 329q-65 0 -101.5 40.5t-36.5 105.5t36.5 105.5t101.5 40.5t101.5 -40.5t36.5 -105.5t-36.5 -105.5t-101.5 -40.5zM185 372q42 0 64.5 27.5t22.5 75.5t-22.5 75.5t-64.5 27.5t-64.5 -27.5t-22.5 -75.5t22.5 -75.5t64.5 -27.5zM507 -11
q-65 0 -101.5 40.5t-36.5 105.5t36.5 105.5t101.5 40.5t101.5 -40.5t36.5 -105.5t-36.5 -105.5t-101.5 -40.5zM507 32q42 0 64.5 27.5t22.5 75.5t-22.5 75.5t-64.5 27.5t-64.5 -27.5t-22.5 -75.5t22.5 -75.5t64.5 -27.5z" />
    <glyph glyph-name="ampersand" unicode="&#x26;" horiz-adv-x="643" 
d="M625 0h-87l-69 67q-82 -79 -204 -79q-96 0 -158 44.5t-62 125.5q0 115 137 185q-80 76 -80 144q0 59 46.5 97t128.5 38q85 0 130 -43t45 -119h-69q0 106 -105 106q-49 0 -77 -20.5t-28 -56.5q0 -22 11.5 -44.5t23.5 -36.5t35 -37l220 -214q43 71 43 178h73
q0 -130 -68 -225zM423 109l-195 192q-108 -50 -108 -141q0 -59 44.5 -85t99.5 -26q99 0 159 60z" />
    <glyph glyph-name="quotesingle" unicode="'" horiz-adv-x="205" 
d="M130 410h-55l-9 240h73z" />
    <glyph glyph-name="parenleft" unicode="(" horiz-adv-x="280" 
d="M260 -89v-44q-88 55 -145 159.5t-57 235.5t57 235.5t145 159.5v-43q-60 -52 -94.5 -144t-34.5 -208t34.5 -207.5t94.5 -143.5z" />
    <glyph glyph-name="parenright" unicode=")" horiz-adv-x="280" 
d="M20 -133v44q60 52 94.5 143.5t34.5 207.5t-34.5 208t-94.5 144v43q88 -55 145 -159.5t57 -235.5t-57 -235.5t-145 -159.5z" />
    <glyph glyph-name="asterisk" unicode="*" horiz-adv-x="436" 
d="M354 358l-116 83l9 -137h-57l8 137l-116 -83l-28 43l129 72l-129 73l28 41l116 -81l-8 136h57l-9 -136l116 81l28 -41l-128 -73l128 -72z" />
    <glyph glyph-name="plus" unicode="+" horiz-adv-x="522" 
d="M295 83h-68v196h-187v61h187v196h68v-196h187v-61h-187v-196z" />
    <glyph glyph-name="comma" unicode="," horiz-adv-x="228" 
d="M92 -118l-36 13q50 57 50 98q-20 1 -35.5 16.5t-15.5 39.5t16 40t43 16q31 0 46 -18.5t15 -42.5q0 -90 -83 -162z" />
    <glyph glyph-name="hyphen" unicode="-" horiz-adv-x="326" 
d="M291 272h-256v65h256v-65z" />
    <glyph glyph-name="period" unicode="." horiz-adv-x="226" 
d="M171 48q0 -24 -17 -40t-41 -16t-41 16t-17 40t17 40.5t41 16.5t41 -16.5t17 -40.5z" />
    <glyph glyph-name="slash" unicode="/" horiz-adv-x="466" 
d="M82 -40h-69l371 690h69z" />
    <glyph glyph-name="zero" unicode="0" horiz-adv-x="612" 
d="M306 -12q-118 0 -185.5 82.5t-67.5 234.5t67.5 234.5t185.5 82.5t185.5 -82.5t67.5 -234.5t-67.5 -234.5t-185.5 -82.5zM306 559q-89 0 -133 -66t-44 -188t44 -188t133 -66t133 66t44 188t-44 188t-133 66z" />
    <glyph glyph-name="one" unicode="1" horiz-adv-x="362" 
d="M267 0h-75v531q-53 -73 -161 -68v63q108 -4 169 84h67v-610z" />
    <glyph glyph-name="two" unicode="2" horiz-adv-x="513" 
d="M459 0h-415v57q169 107 249 196t80 175q0 62 -38.5 96.5t-113.5 34.5q-82 0 -164 -38v68q70 33 169 33q113 0 168 -55t55 -138q0 -179 -299 -365h309v-64z" />
    <glyph glyph-name="three" unicode="3" horiz-adv-x="497" 
d="M36 22v66q83 -37 179 -37q150 0 150 120t-207 115v61q190 -5 190 115q0 97 -136 97q-89 0 -165 -37v65q76 35 175 35q89 0 145 -38.5t56 -117.5q0 -113 -114 -147v-2q58 -9 95 -47.5t37 -102.5q0 -90 -59.5 -134.5t-158.5 -44.5q-117 0 -187 34z" />
    <glyph glyph-name="four" unicode="4" horiz-adv-x="540" 
d="M418 0h-74v127h-324v56l320 427h78v-421h94v-62h-94v-127zM344 189v327l-241 -327h241z" />
    <glyph glyph-name="five" unicode="5" horiz-adv-x="525" 
d="M46 18v66q89 -33 169 -33q93 0 136 32t43 104q0 67 -45 97t-135 30q-79 0 -154 -15l13 311h362v-64h-295l-8 -178q61 8 105 8q114 0 173.5 -50.5t59.5 -137.5q0 -98 -64 -149t-185 -51q-98 0 -175 30z" />
    <glyph glyph-name="six" unicode="6" horiz-adv-x="558" 
d="M444 594v-63q-62 29 -119 29q-93 0 -145 -65t-54 -185q29 37 78 61t107 24q103 0 153 -55.5t50 -141.5q0 -97 -60 -153.5t-157 -56.5q-113 0 -179 77.5t-66 231.5q0 157 73.5 241t192.5 84q58 0 126 -28zM125 240q6 -86 50.5 -138t120.5 -52q62 0 104 36t42 110
q0 61 -32.5 100.5t-107.5 39.5q-110 0 -177 -96z" />
    <glyph glyph-name="seven" unicode="7" horiz-adv-x="474" 
d="M198 0h-78l235 546h-331v64h413v-55z" />
    <glyph glyph-name="eight" unicode="8" horiz-adv-x="550" 
d="M344 311v-2q76 -14 116 -53.5t40 -98.5q0 -80 -59 -124.5t-169 -44.5q-101 0 -162 42t-61 117q0 126 162 160v2q-147 32 -147 156q0 70 56.5 113.5t150.5 43.5q100 0 155.5 -41.5t55.5 -114.5q0 -107 -138 -155zM265 278q-64 -15 -103.5 -47t-39.5 -77q0 -108 153 -108
q60 0 106.5 27t46.5 85q0 53 -42 80t-121 40zM290 340q57 22 88.5 49.5t31.5 76.5q0 44 -36.5 71.5t-101.5 27.5q-64 0 -100.5 -28t-36.5 -72q0 -54 38.5 -83t116.5 -42z" />
    <glyph glyph-name="nine" unicode="9" horiz-adv-x="558" 
d="M115 16v63q54 -30 118 -30q93 0 145 65t54 185q-29 -36 -77.5 -60t-107.5 -24q-104 0 -153.5 55.5t-49.5 140.5q0 98 60 154.5t157 56.5q113 0 179 -78t66 -231q0 -157 -73.5 -241t-192.5 -84q-65 0 -125 28zM433 370q-6 85 -50.5 137.5t-120.5 52.5q-62 0 -104 -36
t-42 -110q0 -62 32.5 -101t107.5 -39q113 0 177 96z" />
    <glyph glyph-name="colon" unicode=":" horiz-adv-x="264" 
d="M190 48q0 -24 -17 -40t-41 -16t-41 16t-17 40t17 40.5t41 16.5t41 -16.5t17 -40.5zM190 417q0 -24 -17 -40t-41 -16t-41 16t-17 40t17 40t41 16t41 -16t17 -40z" />
    <glyph glyph-name="semicolon" unicode=";" horiz-adv-x="264" 
d="M191 417q0 -24 -17 -40t-41 -16t-41 16t-17 40t17 40t41 16t41 -16t17 -40zM109 -118l-36 13q50 57 50 98q-20 1 -35.5 16.5t-15.5 39.5t16 40t43 16q31 0 46 -18.5t15 -42.5q0 -90 -83 -162z" />
    <glyph glyph-name="less" unicode="&#x3c;" horiz-adv-x="522" 
d="M462 102l-432 212v56l432 212v-62l-368 -178l368 -178v-62z" />
    <glyph glyph-name="equal" unicode="=" horiz-adv-x="522" 
d="M470 361h-418v58h418v-58zM470 191h-418v59h418v-59z" />
    <glyph glyph-name="greater" unicode="&#x3e;" horiz-adv-x="522" 
d="M492 314l-432 -212v62l367 178l-367 178v62l432 -212v-56z" />
    <glyph glyph-name="question" unicode="?" horiz-adv-x="438" 
d="M224 215h-71q155 139 155 246q0 100 -110 100q-85 0 -159 -36v60q68 37 170 37q78 0 126 -39t48 -116q0 -37 -14 -73t-42 -70.5t-48.5 -55.5t-54.5 -53zM242 48q0 -24 -17 -40t-41 -16t-41.5 16t-17.5 40t17.5 40.5t41.5 16.5t41 -16.5t17 -40.5z" />
    <glyph glyph-name="at" unicode="@" horiz-adv-x="747" 
d="M655 136h44q-92 -148 -304 -148q-163 0 -255 82.5t-92 237.5q0 69 21.5 131.5t63 113t110.5 80t158 29.5q139 0 216 -81t77 -201q0 -98 -49 -170.5t-122 -72.5q-35 0 -53.5 17.5t-19.5 46.5q-43 -64 -126 -64q-61 0 -97 40.5t-36 111.5q0 89 48 154t137 65q41 0 70 -20.5
t38 -47.5l15 59h58l-51 -256q-2 -15 -3.5 -29t7.5 -24t29 -10q45 0 79 59t34 144q0 46 -14.5 88t-43.5 77.5t-79 57t-115 21.5q-71 0 -127 -22t-89.5 -56t-55.5 -79t-30 -85.5t-8 -80.5q0 -56 14.5 -103t48 -89t96.5 -65.5t150 -23.5q94 0 159 32t97 81zM447 259l24 126
q-17 76 -90 76q-57 0 -90 -49.5t-33 -119.5q0 -51 23 -79t58 -28q72 0 108 74z" />
    <glyph glyph-name="A" unicode="A" horiz-adv-x="648" 
d="M632 0h-80l-65 150h-326l-65 -150h-80l266 610h84zM460 213l-84 199l-51 131h-2l-51 -131l-84 -199h272z" />
    <glyph glyph-name="B" unicode="B" horiz-adv-x="595" 
d="M327 0h-251v610h252q188 0 188 -153q0 -88 -74 -136v-2q109 -33 109 -152q0 -167 -224 -167zM153 62h171q25 0 44.5 2t40 9t34 18.5t22 31.5t8.5 47q0 29 -8.5 49.5t-21 31.5t-33 17.5t-38 8t-41.5 1.5h-178v-216zM153 340h179q17 0 47 -2q59 48 59 113q0 50 -25.5 73.5
t-89.5 23.5h-170v-208z" />
    <glyph glyph-name="C" unicode="C" horiz-adv-x="617" 
d="M568 104v-75q-78 -41 -191 -41q-143 0 -234.5 84.5t-91.5 232.5q0 146 92.5 231.5t236.5 85.5q104 0 178 -36v-73q-74 44 -175 44q-116 0 -184.5 -66t-68.5 -186q0 -119 69.5 -185.5t183.5 -66.5q99 0 185 51z" />
    <glyph glyph-name="D" unicode="D" horiz-adv-x="653" 
d="M153 65h138q118 0 175.5 58.5t57.5 186.5q0 123 -56.5 179t-172.5 56h-142v-480zM293 0h-217v610h221q145 0 225 -77t80 -223q0 -153 -80 -231.5t-229 -78.5z" />
    <glyph glyph-name="E" unicode="E" horiz-adv-x="515" 
d="M463 0h-387v610h387v-65h-310v-202h283v-64h-283v-214h310v-65z" />
    <glyph glyph-name="F" unicode="F" horiz-adv-x="501" 
d="M443 249h-290v-249h-77v610h387v-65h-310v-232h290v-64z" />
    <glyph glyph-name="G" unicode="G" horiz-adv-x="669" 
d="M529 79v225h76v-268q-94 -48 -224 -48q-144 0 -237 84.5t-93 229.5q0 149 96 234.5t248 85.5q112 0 190 -38v-72q-82 45 -188 45q-121 0 -194 -65.5t-73 -187.5q0 -120 70 -185t185 -65q77 0 144 25z" />
    <glyph glyph-name="H" unicode="H" horiz-adv-x="666" 
d="M590 0h-78v278h-358v-278h-78v610h78v-267h358v267h78v-610z" />
    <glyph glyph-name="I" unicode="I" horiz-adv-x="234" 
d="M156 0h-78v610h78v-610z" />
    <glyph glyph-name="J" unicode="J" horiz-adv-x="359" 
d="M207 176v434h78v-439q0 -96 -42 -138.5t-127 -42.5q-47 0 -88 12v65q35 -13 79 -13q51 0 75.5 25.5t24.5 96.5z" />
    <glyph glyph-name="K" unicode="K" horiz-adv-x="540" 
d="M520 0h-91l-277 316v-316h-76v610h76v-273l271 273h88l-279 -282z" />
    <glyph glyph-name="L" unicode="L" horiz-adv-x="475" 
d="M447 0h-371v610h77v-545h294v-65z" />
    <glyph glyph-name="M" unicode="M" horiz-adv-x="816" 
d="M761 0h-77l-30 345l-9 176h-2l-58 -166l-140 -355h-74l-140 355l-58 166h-2l-9 -176l-30 -345h-77l60 610h89l159 -402l44 -138h2l44 138l159 402h89z" />
    <glyph glyph-name="N" unicode="N" horiz-adv-x="672" 
d="M596 0h-80l-239 327q-86 115 -129 187h-2q6 -48 6 -170v-344h-76v610h80l239 -327q86 -115 129 -187h2q-6 48 -6 170v344h76v-610z" />
    <glyph glyph-name="O" unicode="O" horiz-adv-x="752" 
d="M376 53q112 0 179 66t67 186t-67 186t-179 66t-179 -66t-67 -186t67 -186t179 -66zM701 305q0 -146 -92.5 -231.5t-232.5 -85.5t-232.5 85.5t-92.5 231.5t92.5 231.5t232.5 85.5t232.5 -85.5t92.5 -231.5z" />
    <glyph glyph-name="P" unicode="P" horiz-adv-x="571" 
d="M153 291h147q77 0 115 30t38 98q0 67 -38 97t-115 30h-147v-255zM153 0h-77v610h224q229 0 229 -191q0 -192 -229 -192h-147v-227z" />
    <glyph glyph-name="Q" unicode="Q" horiz-adv-x="752" 
d="M679 -85v-70q-31 -5 -70 -5q-158 1 -237 149q-139 2 -230 86.5t-91 229.5q0 146 92.5 231.5t232.5 85.5q141 0 233 -85.5t92 -231.5q0 -126 -72.5 -208t-188.5 -101q55 -88 174 -89q39 0 65 8zM376 54q112 0 178.5 65.5t66.5 185.5q0 121 -66.5 186.5t-178.5 65.5
t-179 -66t-67 -186t67 -185.5t179 -65.5z" />
    <glyph glyph-name="R" unicode="R" horiz-adv-x="587" 
d="M553 0h-80l-52 169q-13 46 -41.5 68t-88.5 22h-138v-259h-77v610h220q230 0 230 -169q0 -64 -34 -103t-90 -51v-2q70 -21 96 -103zM153 323h140q80 0 118.5 26.5t38.5 89.5q0 60 -38 83.5t-119 23.5h-140v-223z" />
    <glyph glyph-name="S" unicode="S" horiz-adv-x="517" 
d="M46 33v66q92 -48 196 -48q149 0 149 99q0 31 -23 56.5t-45.5 37.5t-72.5 34q-5 2 -7 3l-6 3t-7 3q-39 17 -62.5 29t-54 34.5t-45.5 52.5t-15 67q0 77 56 114.5t153 37.5q90 0 166 -31v-66q-84 34 -161 34q-137 0 -137 -88q0 -28 21.5 -52t43 -36t70.5 -34q11 -5 17 -8
q90 -42 121 -65q66 -51 66 -126q0 -80 -61.5 -121t-160.5 -41q-121 0 -201 45z" />
    <glyph glyph-name="T" unicode="T" horiz-adv-x="558" 
d="M318 0h-78v546l-215 -1v65h508v-65l-215 1v-546z" />
    <glyph glyph-name="U" unicode="U" horiz-adv-x="692" 
d="M541 268v342h77v-349q0 -150 -72 -213q-66 -60 -200 -60q-133 0 -199 60q-73 64 -73 213v349h78v-342q0 -113 46.5 -163.5t147.5 -50.5t148 50.5t47 163.5z" />
    <glyph glyph-name="V" unicode="V" horiz-adv-x="620" 
d="M350 0h-80l-252 610h81l158 -387l52 -154h2l52 154l158 387h81z" />
    <glyph glyph-name="W" unicode="W" horiz-adv-x="954" 
d="M725 0h-73l-142 417l-32 118h-2l-32 -118l-142 -417h-73l-207 610h80l125 -378l39 -148h2l42 148l129 378h76l129 -378l42 -148h2l39 148l125 378h80z" />
    <glyph glyph-name="X" unicode="X" horiz-adv-x="634" 
d="M614 0h-87l-210 263l-210 -263h-87l253 313l-239 297h87l196 -246l196 246h87l-240 -297z" />
    <glyph glyph-name="Y" unicode="Y" horiz-adv-x="610" 
d="M344 0h-78v236l-246 374h81l129 -200l73 -121h4l73 121l129 200h81l-246 -374v-236z" />
    <glyph glyph-name="Z" unicode="Z" horiz-adv-x="560" 
d="M512 0h-467v57l363 491l-350 -2v64h437v-57l-363 -490l380 1v-64z" />
    <glyph glyph-name="bracketleft" unicode="[" horiz-adv-x="284" 
d="M254 -136h-160v798h160v-58h-89v-681h89v-59z" />
    <glyph glyph-name="backslash" unicode="\" horiz-adv-x="466" 
d="M453 -40h-69l-371 690h69z" />
    <glyph glyph-name="bracketright" unicode="]" horiz-adv-x="284" 
d="M190 -136h-160v59h89v681h-89v58h160v-798z" />
    <glyph glyph-name="asciicircum" unicode="^" horiz-adv-x="518" 
d="M473 252h-68l-146 291l-146 -291h-68l183 358h62z" />
    <glyph glyph-name="underscore" unicode="_" horiz-adv-x="360" 
d="M360 -101h-360v40h360v-40z" />
    <glyph glyph-name="grave" unicode="`" horiz-adv-x="326" 
d="M234 512h-53l-115 138h88z" />
    <glyph glyph-name="a" unicode="a" horiz-adv-x="518" 
d="M374 138v72q-70 18 -126 18q-133 0 -133 -95q0 -87 106 -87q107 0 153 92zM448 0h-61l-8 77h-2q-21 -37 -64.5 -62.5t-104.5 -25.5q-76 0 -120 36.5t-44 104.5q0 73 54 111.5t141 38.5q66 0 135 -20v36q0 109 -128 109q-83 0 -161 -40v62q79 35 169 35q194 0 194 -175
v-287z" />
    <glyph glyph-name="b" unicode="b" horiz-adv-x="564" 
d="M136 0h-62v650h76v-271h2q66 83 168 83q94 0 144 -62.5t50 -169.5q0 -119 -54 -180.5t-142 -61.5q-58 0 -102.5 24.5t-69.5 64.5h-2zM150 316v-179q23 -38 64.5 -63.5t91.5 -25.5q58 0 95 45.5t37 135.5q0 78 -33 125.5t-103 47.5q-90 0 -152 -86z" />
    <glyph glyph-name="c" unicode="c" horiz-adv-x="491" 
d="M445 85v-62q-59 -35 -149 -35q-110 0 -179 67t-69 171q0 102 68 169t178 67q84 0 147 -34v-63q-63 39 -141 39q-79 0 -127 -49.5t-48 -128.5t48.5 -129.5t127.5 -50.5q78 0 144 39z" />
    <glyph glyph-name="d" unicode="d" horiz-adv-x="564" 
d="M490 0h-61l-8 77h-2q-54 -89 -159 -89q-93 0 -151.5 60t-58.5 179q0 106 56.5 170.5t153.5 64.5q92 0 153 -72h2v260h75v-650zM415 138v189q-56 74 -144 74q-71 0 -108 -48.5t-37 -125.5q0 -89 41.5 -134t103.5 -45q85 0 144 90z" />
    <glyph glyph-name="e" unicode="e" horiz-adv-x="535" 
d="M462 92v-64q-77 -40 -165 -40q-119 0 -184 66t-65 173q0 105 62 170t171 65q99 0 154.5 -56t55.5 -156q0 -20 -7 -48h-364q4 -72 52 -114.5t131 -42.5q74 0 159 47zM120 253h304q-1 78 -39 115.5t-104 37.5q-70 0 -112.5 -42t-48.5 -111z" />
    <glyph glyph-name="f" unicode="f" horiz-adv-x="363" 
d="M183 0h-76v393h-84v57h84v45q0 167 162 167q49 0 84 -14v-60q-35 13 -72 13q-53 0 -76.5 -24t-23.5 -85v-42h154v-57h-152v-393z" />
    <glyph glyph-name="g" unicode="g" horiz-adv-x="562" 
d="M414 138v180q-57 84 -144 84q-71 0 -107.5 -48.5t-36.5 -125.5q0 -89 41 -134t103 -45q88 0 144 89zM417 74h-2q-51 -86 -157 -86q-91 0 -149.5 61t-58.5 179q0 106 56 170t154 64q52 0 92 -24t63 -59h2l7 71h66v-457q0 -207 -230 -207q-101 0 -177 37v66q84 -44 175 -44
q78 0 118 32.5t40 113.5q0 52 1 83z" />
    <glyph glyph-name="h" unicode="h" horiz-adv-x="578" 
d="M508 0h-76v275q0 125 -111 125q-93 0 -171 -83v-317h-76v650h76v-273q85 85 188 85q80 0 125 -45.5t45 -132.5v-284z" />
    <glyph glyph-name="i" unicode="i" horiz-adv-x="224" 
d="M150 0h-76v450h76v-450zM167 580q0 -23 -14 -36.5t-41 -13.5t-41 13.5t-14 36.5q0 51 55 51t55 -51z" />
    <glyph glyph-name="j" unicode="j" horiz-adv-x="234" 
d="M-33 -214v53q16 -3 48 -3q38 0 53.5 17.5t15.5 59.5v537h75v-492q0 -34 -1 -54t-7.5 -47.5t-19 -42.5t-36.5 -26.5t-58 -11.5q-40 0 -70 10zM176 580q0 -23 -14 -36.5t-41 -13.5t-41 13.5t-14 36.5q0 51 55 51t55 -51z" />
    <glyph glyph-name="k" unicode="k" horiz-adv-x="482" 
d="M464 0h-89l-225 235v-235h-76v650h76v-399l210 199h88l-218 -203z" />
    <glyph glyph-name="l" unicode="l" horiz-adv-x="222" 
d="M148 0h-74v650h74v-650z" />
    <glyph glyph-name="m" unicode="m" horiz-adv-x="853" 
d="M783 0h-75v283q0 61 -21 89t-71 28q-81 0 -152 -83q0 -4 0.5 -12t0.5 -13v-292h-75v283q0 61 -21 89t-71 28q-82 0 -150 -82v-318h-76v450h64l8 -77h1q66 89 169 89q108 0 140 -95q28 39 77 67t100 28q152 0 152 -174v-288z" />
    <glyph glyph-name="n" unicode="n" horiz-adv-x="574" 
d="M504 0h-75v275q0 65 -27 95t-82 30q-92 0 -172 -85v-315h-76v450h64l8 -77h2q83 89 190 89q80 0 124 -45t44 -133v-284z" />
    <glyph glyph-name="o" unicode="o" horiz-adv-x="586" 
d="M538 226q0 -102 -67.5 -170t-177.5 -68t-177.5 68t-67.5 170t67.5 169t177.5 67t177.5 -67t67.5 -169zM293 46q75 0 121.5 50.5t46.5 129.5t-46.5 128.5t-121.5 49.5t-121.5 -49.5t-46.5 -128.5t46.5 -129.5t121.5 -50.5z" />
    <glyph glyph-name="p" unicode="p" horiz-adv-x="562" 
d="M148 -215h-76v665h66l8 -75h2q67 87 172 87q91 0 141.5 -68t50.5 -163q0 -119 -53.5 -181t-139.5 -62q-114 0 -172 85h-2q1 -5 3 -81v-207zM148 314v-177q23 -38 64.5 -63.5t91.5 -25.5q58 0 95 46t37 136q0 78 -33 125t-103 47q-90 0 -152 -88z" />
    <glyph glyph-name="q" unicode="q" horiz-adv-x="563" 
d="M491 -215h-76v202q0 58 3 85h-2q-23 -37 -63 -60.5t-91 -23.5q-92 0 -152 61t-60 179q0 106 56.5 170t153.5 64q95 0 158 -81h2l6 69h65v-665zM415 136v184q-61 81 -144 81q-71 0 -108 -48t-37 -125q0 -89 42 -135t104 -46q87 0 143 89z" />
    <glyph glyph-name="r" unicode="r" horiz-adv-x="378" 
d="M148 0h-76v450h62l11 -110h2q61 119 168 119q26 0 41 -5v-74q-22 5 -43 5q-101 0 -165 -110v-275z" />
    <glyph glyph-name="s" unicode="s" horiz-adv-x="422" 
d="M42 16v61q76 -31 146 -31q118 0 118 64q0 16 -6 28t-12 19.5t-26.5 16.5t-32 13.5t-45.5 16.5q-36 14 -53 22t-41.5 24.5t-35 39t-10.5 53.5q0 56 43 87.5t128 31.5q75 0 133 -28v-59q-62 30 -123 30q-110 0 -110 -60q0 -17 6 -29t23.5 -22.5t28 -15.5t41.5 -16l3 -1.5
t3 -1t3.5 -1t3.5 -1.5q35 -12 55 -20.5t45.5 -25.5t38 -41.5t12.5 -57.5q0 -61 -49 -92.5t-131 -31.5q-94 0 -156 28z" />
    <glyph glyph-name="t" unicode="t" horiz-adv-x="393" 
d="M359 67v-60q-40 -19 -101 -19q-81 0 -116 38t-35 121v246h-84v57h85l20 142h53v-142h174v-57h-174v-240q0 -58 20.5 -81.5t67.5 -23.5q53 0 90 19z" />
    <glyph glyph-name="u" unicode="u" horiz-adv-x="559" 
d="M487 0h-63l-8 77h-2q-73 -89 -176 -89q-80 0 -124 42.5t-44 127.5v292h75v-282q0 -62 27 -90t80 -28q92 0 160 86v314h75v-450z" />
    <glyph glyph-name="v" unicode="v" horiz-adv-x="488" 
d="M281 0h-74l-187 450h78l95 -242l50 -144h2l50 144l95 242h78z" />
    <glyph glyph-name="w" unicode="w" horiz-adv-x="748" 
d="M568 0h-71l-94 281q-8 26 -28 103h-2q-20 -76 -28 -103l-94 -281h-71l-156 450h74l89 -276l27 -106h2l29 106l94 276h70l94 -276l29 -106h2l27 106l89 276h74z" />
    <glyph glyph-name="x" unicode="x" horiz-adv-x="502" 
d="M485 0h-85l-149 186l-149 -186h-85l192 232l-180 218h84l138 -173l138 173h84l-181 -218z" />
    <glyph glyph-name="y" unicode="y" horiz-adv-x="501" 
d="M180 -93l37 93l-198 450h75l107 -255l51 -128h2l53 143l96 240h78l-237 -555q-27 -64 -55.5 -92.5t-81.5 -28.5q-35 0 -75 17v61q43 -20 70 -20q28 0 45 17.5t33 57.5z" />
    <glyph glyph-name="z" unicode="z" horiz-adv-x="460" 
d="M418 0h-380v52l278 339l-265 -1v60h354v-52l-279 -339l292 1v-60z" />
    <glyph glyph-name="braceleft" unicode="{" horiz-adv-x="284" 
d="M262 -73v-52q-21 -8 -46 -8q-50 0 -78 30.5t-28 82.5v166q0 90 -72 95v48q72 5 72 95v166q0 52 28 82.5t78 30.5q25 0 46 -8v-52q-21 6 -36 6q-27 0 -38 -15t-11 -58v-157q0 -86 -74 -114q74 -28 74 -114v-157q0 -43 11 -58t38 -15q15 0 36 6z" />
    <glyph glyph-name="bar" unicode="|" horiz-adv-x="242" 
d="M154 -215h-66v865h66v-865z" />
    <glyph glyph-name="braceright" unicode="}" horiz-adv-x="284" 
d="M22 -125v52q21 -6 36 -6q27 0 38 15t11 58v157q0 86 74 114q-74 28 -74 114v157q0 43 -11 58t-38 15q-15 0 -36 -6v52q21 8 46 8q50 0 78 -30.5t28 -82.5v-166q0 -90 72 -95v-48q-72 -5 -72 -95v-166q0 -52 -28 -82.5t-78 -30.5q-25 0 -46 8z" />
    <glyph glyph-name="asciitilde" unicode="~" horiz-adv-x="460" 
d="M411 359v-71q-54 -45 -100 -45q-36 0 -85 30t-77 30q-27 0 -48.5 -12.5t-51.5 -40.5v71q53 44 100 44q36 0 85 -29t78 -29q48 0 99 52z" />
    <glyph glyph-name="uni007F" horiz-adv-x="450" 
 />
    <glyph glyph-name="nbspace" unicode="&#xa0;" horiz-adv-x="259" 
 />
    <glyph glyph-name="exclamdown" unicode="&#xa1;" horiz-adv-x="244" 
d="M164 -160h-84l13 395h59zM122 346q-24 0 -41 16t-17 40t17 40t41 16t41 -16t17 -40t-17 -40t-41 -16z" />
    <glyph glyph-name="cent" unicode="&#xa2;" horiz-adv-x="612" 
d="M388 -100h-54v90q-109 8 -172.5 73t-63.5 163q0 96 63.5 161.5t172.5 73.5v89h54v-88q76 -4 136 -36v-60q-63 39 -153 39q-92 0 -144 -49.5t-52 -129.5t53 -130t144 -50q92 0 156 39v-60q-56 -32 -140 -36v-89z" />
    <glyph glyph-name="sterling" unicode="&#xa3;" horiz-adv-x="612" 
d="M535 0h-447v59q51 33 68.5 67t17.5 84v114h-86v49h86v55q0 91 58.5 142t157.5 51q73 0 125 -23v-62q-48 23 -114 23q-71 0 -111.5 -33.5t-40.5 -98.5v-54h176v-49h-176v-116q0 -89 -73 -144h359v-64z" />
    <glyph glyph-name="currency" unicode="&#xa4;" horiz-adv-x="560" 
d="M501 125l-41 -40l-62 63q-56 -39 -118 -39t-118 39l-62 -63l-41 40l63 63q-40 53 -40 119q0 65 39 118l-62 62l41 40l62 -62q53 40 118 40t118 -40l62 62l41 -40l-62 -62q39 -52 39 -118t-40 -119zM280 454q-60 0 -102 -43.5t-42 -103.5t42 -103.5t102 -43.5t102 43.5
t42 103.5t-42 103.5t-102 43.5z" />
    <glyph glyph-name="yen" unicode="&#xa5;" horiz-adv-x="612" 
d="M500 151h-155v-151h-78v151h-155v49h155v61h-155v49h123l-200 300h80l189 -303h4l189 303h80l-201 -300h124v-49h-155v-61h155v-49z" />
    <glyph glyph-name="brokenbar" unicode="&#xa6;" horiz-adv-x="256" 
d="M162 296h-68v354h68v-354zM162 -215h-68v354h68v-354z" />
    <glyph glyph-name="section" unicode="&#xa7;" horiz-adv-x="612" 
d="M128 -201v69q68 -29 138 -29q60 0 101 20.5t41 55.5q0 36 -34 63t-82 47t-96 42.5t-82 63t-34 96.5q0 51 32 95t88 74q-69 51 -69 125q0 66 55.5 101.5t139.5 35.5q103 0 153 -21v-69q-72 28 -149 28q-57 0 -93 -19.5t-36 -56.5q0 -26 20 -47.5t42.5 -34t63.5 -31.5
q6 -3 9 -4q34 -15 52 -23.5t49.5 -27.5t48.5 -37t30.5 -45t13.5 -58q0 -93 -122 -174q71 -52 71 -124q0 -65 -61 -101t-145 -36q-91 0 -145 22zM314 87l37 -17q34 26 50.5 39t37.5 42.5t21 56.5q0 18 -5.5 33.5t-21.5 30t-25.5 22.5t-37 21.5t-35.5 16.5t-40 17l-36 16
q-109 -53 -109 -136q0 -21 11 -40.5t23.5 -32t40.5 -27.5t42 -21.5t47 -20.5z" />
    <glyph glyph-name="dieresis" unicode="&#xa8;" horiz-adv-x="326" 
d="M103 580q0 -48 -51 -48q-25 0 -38.5 13t-13.5 35q0 49 52 49q51 0 51 -49zM325 580q0 -22 -13.5 -35t-38.5 -13t-38.5 13t-13.5 35q0 49 52 49t52 -49z" />
    <glyph glyph-name="copyright" unicode="&#xa9;" horiz-adv-x="732" 
d="M682 303q0 -132 -90.5 -221t-225.5 -89t-225.5 89t-90.5 221t90.5 221t225.5 89t225.5 -89t90.5 -221zM639 303q0 118 -76.5 194.5t-196.5 76.5q-119 0 -195.5 -76.5t-76.5 -194.5t76 -194t196 -76q119 0 196 76t77 194zM502 191v-52q-46 -28 -120 -28q-89 0 -145 54
t-56 138q0 82 56 136t145 54q67 0 117 -27v-53q-56 33 -114 33q-64 0 -101.5 -39.5t-37.5 -103.5t38.5 -104.5t101.5 -40.5q61 0 116 33z" />
    <glyph glyph-name="ordfeminine" unicode="&#xaa;" horiz-adv-x="400" 
d="M279 386v47q-54 14 -88 14q-93 0 -93 -67q0 -28 20 -43.5t52 -15.5q71 0 109 65zM342 280h-56l-6 50h-2q-42 -58 -119 -58q-58 0 -91 27.5t-33 77.5q0 55 40 84t105 29q58 0 97 -12v20q0 75 -89 75q-66 0 -123 -27v50q50 25 127 25q68 0 109 -31.5t41 -99.5v-210z" />
    <glyph glyph-name="guillemotleft" unicode="&#xab;" horiz-adv-x="458" 
d="M236 62h-73l-139 209l139 212h73l-139 -211zM416 62h-74l-138 209l138 212h74l-140 -211z" />
    <glyph glyph-name="logicalnot" unicode="&#xac;" horiz-adv-x="540" 
d="M478 174h-66v203h-352v61h418v-264z" />
    <glyph glyph-name="hypen" unicode="&#xad;" horiz-adv-x="326" 
d="M291 272h-256v65h256v-65z" />
    <glyph glyph-name="registered" unicode="&#xae;" horiz-adv-x="732" 
d="M682 303q0 -132 -90.5 -221t-225.5 -89t-225.5 89t-90.5 221t90.5 221t225.5 89t225.5 -89t90.5 -221zM639 303q0 118 -76.5 194.5t-196.5 76.5q-119 0 -195.5 -76.5t-76.5 -194.5t76 -194t196 -76q119 0 196 76t77 194zM526 125h-62l-31 102q-9 27 -21.5 37.5
t-46.5 10.5h-69v-150h-59v364h137q66 0 100 -26t34 -75q0 -68 -70 -91v-1q23 -8 34 -21t19 -40zM296 323h40q25 0 37 0.5t29.5 3.5t25.5 9.5t14 19t6 31.5q0 37 -22 46.5t-91 9.5h-39v-120z" />
    <glyph glyph-name="overscore" unicode="&#xaf;" horiz-adv-x="326" 
d="M302 538h-278v55h278v-55z" />
    <glyph glyph-name="degree" unicode="&#xb0;" horiz-adv-x="322" 
d="M284 545q0 -51 -34.5 -84.5t-88.5 -33.5t-88.5 33.5t-34.5 84.5q0 50 34.5 83t88.5 33t88.5 -33t34.5 -83zM236 544q0 33 -20.5 54t-54.5 21t-54.5 -21t-20.5 -54q0 -32 21 -53t54 -21t54 21t21 53z" />
    <glyph glyph-name="plusminus" unicode="&#xb1;" horiz-adv-x="522" 
d="M295 92h-68v197h-187v61h187v196h68v-196h187v-61h-187v-197zM482 0h-442v52h442v-52z" />
    <glyph glyph-name="twosuperior" unicode="&#xb2;" horiz-adv-x="371" 
d="M311 287h-267v43q204 117 204 215q0 33 -23 51.5t-68 18.5q-48 0 -104 -24v47q51 22 108 22q73 0 108 -32.5t35 -82.5q0 -106 -174 -211h181v-47z" />
    <glyph glyph-name="threesuperior" unicode="&#xb3;" horiz-adv-x="360" 
d="M41 302v49q54 -24 114 -24q96 0 96 66q0 68 -131 63v41q59 -1 89.5 13t30.5 51q0 53 -84 53q-58 0 -108 -23v46q48 23 112 23q61 0 97 -23t36 -72q0 -63 -64 -86v-1q35 -7 56 -30.5t21 -57.5q0 -56 -38.5 -82.5t-105.5 -26.5q-73 0 -121 21z" />
    <glyph glyph-name="acute" unicode="&#xb4;" horiz-adv-x="326" 
d="M145 512h-53l80 138h88z" />
    <glyph glyph-name="mu" unicode="&#xb5;" horiz-adv-x="560" 
d="M148 -215h-76v665h76v-314q64 -86 160 -86q106 0 106 118v282h76v-292q0 -85 -44 -127.5t-124 -42.5q-108 0 -174 87h-2q2 -54 2 -83v-207z" />
    <glyph glyph-name="paragraph" unicode="&#xb6;" horiz-adv-x="553" 
d="M468 -215h-60v797h-86v-797h-60v438h-2q-93 0 -158.5 63t-65.5 151q0 89 65 151t159 62h208v-865z" />
    <glyph glyph-name="middot" unicode="&#xb7;" horiz-adv-x="230" 
d="M115 348q26 0 42.5 -16t16.5 -41t-16.5 -41.5t-42.5 -16.5t-42.5 16.5t-16.5 41.5t16.5 41t42.5 16z" />
    <glyph glyph-name="cedilla" unicode="&#xb8;" horiz-adv-x="326" 
d="M109 -193v50q34 -9 59 -9q57 0 57 36q0 41 -92 43l16 80l39 -4q0 -3 -4 -47q99 -6 99 -78q0 -41 -32.5 -60t-77.5 -19q-32 0 -64 8z" />
    <glyph glyph-name="onesuperior" unicode="&#xb9;" horiz-adv-x="261" 
d="M180 287h-56v301q-30 -41 -101 -39v50q69 -4 109 54h48v-366z" />
    <glyph glyph-name="ordmasculine" unicode="&#xba;" horiz-adv-x="423" 
d="M392 447q0 -76 -49 -125.5t-131 -49.5t-131.5 49.5t-49.5 125.5q0 75 49.5 124.5t131.5 49.5q81 0 130.5 -49.5t49.5 -124.5zM212 320q51 0 81.5 35t30.5 92q0 55 -31 90.5t-81 35.5q-51 0 -82.5 -35.5t-31.5 -90.5q0 -57 31.5 -92t82.5 -35z" />
    <glyph glyph-name="guillemotright" unicode="&#xbb;" horiz-adv-x="458" 
d="M295 62h-73l140 210l-140 211h73l139 -212zM115 62h-73l139 210l-139 211h73l139 -212z" />
    <glyph glyph-name="onequarter" unicode="&#xbc;" horiz-adv-x="759" 
d="M645 610l-455 -610h-62l458 610h59zM666 0h-55v74h-200v36l203 256h52v-249h60v-43h-60v-74zM611 117v180l-139 -180h139zM220 244h-56v301q-30 -41 -101 -39v50q69 -4 109 54h48v-366z" />
    <glyph glyph-name="onehalf" unicode="&#xbd;" horiz-adv-x="759" 
d="M615 610l-455 -610h-62l458 610h59zM220 244h-56v301q-30 -41 -101 -39v50q69 -4 109 54h48v-366zM708 0h-267v43q204 117 204 215q0 33 -23 51.5t-68 18.5q-48 0 -104 -24v47q51 22 108 22q73 0 108 -32.5t35 -82.5q0 -106 -174 -211h181v-47z" />
    <glyph glyph-name="threequarters" unicode="&#xbe;" horiz-adv-x="759" 
d="M665 610l-455 -610h-62l458 610h59zM666 0h-55v74h-200v36l203 256h52v-249h60v-43h-60v-74zM611 117v180l-139 -180h139zM41 258v49q57 -24 115 -24q95 0 95 66q0 68 -130 63v42q59 -2 89 12t30 52q0 53 -84 53q-55 0 -107 -24v47q46 22 112 22q60 0 96.5 -23.5
t36.5 -71.5q0 -60 -65 -86v-1q36 -7 56.5 -30t20.5 -58q0 -109 -143 -109q-70 0 -122 21z" />
    <glyph glyph-name="questiondown" unicode="&#xbf;" horiz-adv-x="431" 
d="M398 -75v-60q-74 -36 -170 -36q-78 0 -126 39t-48 116q0 36 14.5 72.5t41 70t49.5 57t55 51.5h70q-155 -139 -155 -246q0 -99 110 -99q87 0 159 35zM312 402q0 -24 -17.5 -40t-41.5 -16t-41 16t-17 40t17 40t41 16t41.5 -16t17.5 -40z" />
    <glyph glyph-name="Agrave" unicode="&#xc0;" horiz-adv-x="648" 
d="M632 0h-80l-65 150h-326l-65 -150h-80l266 610h84zM460 213l-84 199l-51 131h-2l-51 -131l-84 -199h272zM348 672h-53l-115 138h88z" />
    <glyph glyph-name="Aacute" unicode="&#xc1;" horiz-adv-x="648" 
d="M632 0h-80l-65 150h-326l-65 -150h-80l266 610h84zM460 213l-84 199l-51 131h-2l-51 -131l-84 -199h272zM333 672h-53l80 138h88z" />
    <glyph glyph-name="Acircumflex" unicode="&#xc2;" horiz-adv-x="648" 
d="M632 0h-80l-65 150h-326l-65 -150h-80l266 610h84zM460 213l-84 199l-51 131h-2l-51 -131l-84 -199h272zM467 672h-57l-86 80l-86 -80h-57l115 133h56z" />
    <glyph glyph-name="Atilde" unicode="&#xc3;" horiz-adv-x="648" 
d="M632 0h-80l-65 150h-326l-65 -150h-80l266 610h84zM460 213l-84 199l-51 131h-2l-51 -131l-84 -199h272zM420 781h48q4 -46 -15 -72.5t-60 -26.5q-29 0 -70.5 26t-60.5 26q-20 0 -28 -13.5t-6 -33.5h-48q-4 47 15.5 73t60.5 26q29 0 69 -26t60 -26q40 0 35 47z" />
    <glyph glyph-name="Adieresis" unicode="&#xc4;" horiz-adv-x="648" 
d="M632 0h-80l-65 150h-326l-65 -150h-80l266 610h84zM460 213l-84 199l-51 131h-2l-51 -131l-84 -199h272zM264 740q0 -48 -51 -48q-25 0 -38.5 13t-13.5 35q0 49 52 49q51 0 51 -49zM486 740q0 -22 -13.5 -35t-38.5 -13t-38.5 13t-13.5 35q0 49 52 49t52 -49z" />
    <glyph glyph-name="Aring" unicode="&#xc5;" horiz-adv-x="648" 
d="M632 0h-80l-65 150h-326l-65 -150h-80l266 610h84zM460 213l-84 199l-51 131h-2l-51 -131l-84 -199h272zM324 651q-47 0 -75 26t-28 66t28 65.5t75 25.5t75 -25.5t28 -65.5t-28 -66t-75 -26zM324 795q-25 0 -40 -14.5t-15 -37.5q0 -24 15 -38.5t40 -14.5t40 14.5t15 38.5
q0 23 -15 37.5t-40 14.5z" />
    <glyph glyph-name="AE" unicode="&#xc6;" horiz-adv-x="876" 
d="M824 0h-381v148h-246l-97 -148h-82l404 610h402v-65h-304v-202h277v-64h-277v-214h304v-65zM443 211v315l-206 -315h206z" />
    <glyph glyph-name="Ccedilla" unicode="&#xc7;" horiz-adv-x="617" 
d="M568 104v-75q-78 -41 -191 -41q-143 0 -234.5 84.5t-91.5 232.5q0 146 92.5 231.5t236.5 85.5q104 0 178 -36v-73q-74 44 -175 44q-116 0 -184.5 -66t-68.5 -186q0 -119 69.5 -185.5t183.5 -66.5q99 0 185 51zM311 -193v50q34 -9 59 -9q57 0 57 36q0 41 -92 43l16 80
l39 -4q0 -3 -4 -47q99 -6 99 -78q0 -41 -32.5 -60t-77.5 -19q-32 0 -64 8z" />
    <glyph glyph-name="Egrave" unicode="&#xc8;" horiz-adv-x="515" 
d="M463 0h-387v610h387v-65h-310v-202h283v-64h-283v-214h310v-65zM321 672h-53l-115 138h88z" />
    <glyph glyph-name="Eacute" unicode="&#xc9;" horiz-adv-x="515" 
d="M463 0h-387v610h387v-65h-310v-202h283v-64h-283v-214h310v-65zM226 672h-53l80 138h88z" />
    <glyph glyph-name="Ecircumflex" unicode="&#xca;" horiz-adv-x="515" 
d="M463 0h-387v610h387v-65h-310v-202h283v-64h-283v-214h310v-65zM400 672h-57l-86 80l-86 -80h-57l115 133h56z" />
    <glyph glyph-name="Edieresis" unicode="&#xcb;" horiz-adv-x="515" 
d="M463 0h-387v610h387v-65h-310v-202h283v-64h-283v-214h310v-65zM198 740q0 -48 -51 -48q-25 0 -38.5 13t-13.5 35q0 49 52 49q51 0 51 -49zM420 740q0 -22 -13.5 -35t-38.5 -13t-38.5 13t-13.5 35q0 49 52 49t52 -49z" />
    <glyph glyph-name="Igrave" unicode="&#xcc;" horiz-adv-x="234" 
d="M156 0h-78v610h78v-610zM163 672h-53l-115 138h88z" />
    <glyph glyph-name="Iacute" unicode="&#xcd;" horiz-adv-x="234" 
d="M156 0h-78v610h78v-610zM138 672h-53l80 138h88z" />
    <glyph glyph-name="Icircumflex" unicode="&#xce;" horiz-adv-x="234" 
d="M156 0h-78v610h78v-610zM262 672h-57l-86 80l-86 -80h-57l115 133h56z" />
    <glyph glyph-name="Idieresis" unicode="&#xcf;" horiz-adv-x="234" 
d="M156 0h-78v610h78v-610zM60 740q0 -48 -51 -48q-25 0 -38.5 13t-13.5 35q0 49 52 49q51 0 51 -49zM282 740q0 -22 -13.5 -35t-38.5 -13t-38.5 13t-13.5 35q0 49 52 49t52 -49z" />
    <glyph glyph-name="Eth" unicode="&#xd0;" horiz-adv-x="653" 
d="M293 0h-217v279h-61v56h61v275h221q145 0 225 -77t80 -223q0 -153 -80 -231.5t-229 -78.5zM153 65h138q118 0 175.5 58.5t57.5 186.5q0 123 -56.5 179t-172.5 56h-142v-210h151v-56h-151v-214z" />
    <glyph glyph-name="Ntilde" unicode="&#xd1;" horiz-adv-x="672" 
d="M596 0h-80l-239 327q-86 115 -129 187h-2q6 -48 6 -170v-344h-76v610h80l239 -327q86 -115 129 -187h2q-6 48 -6 170v344h76v-610zM432 781h48q4 -46 -15 -72.5t-60 -26.5q-29 0 -70.5 26t-60.5 26q-20 0 -28 -13.5t-6 -33.5h-48q-4 47 15.5 73t60.5 26q29 0 69 -26
t60 -26q40 0 35 47z" />
    <glyph glyph-name="Ograve" unicode="&#xd2;" horiz-adv-x="752" 
d="M376 53q112 0 179 66t67 186t-67 186t-179 66t-179 -66t-67 -186t67 -186t179 -66zM701 305q0 -146 -92.5 -231.5t-232.5 -85.5t-232.5 85.5t-92.5 231.5t92.5 231.5t232.5 85.5t232.5 -85.5t92.5 -231.5zM430 672h-53l-115 138h88z" />
    <glyph glyph-name="Oacute" unicode="&#xd3;" horiz-adv-x="752" 
d="M376 53q112 0 179 66t67 186t-67 186t-179 66t-179 -66t-67 -186t67 -186t179 -66zM701 305q0 -146 -92.5 -231.5t-232.5 -85.5t-232.5 85.5t-92.5 231.5t92.5 231.5t232.5 85.5t232.5 -85.5t92.5 -231.5zM375 672h-53l80 138h88z" />
    <glyph glyph-name="Ocircumflex" unicode="&#xd4;" horiz-adv-x="752" 
d="M376 53q112 0 179 66t67 186t-67 186t-179 66t-179 -66t-67 -186t67 -186t179 -66zM701 305q0 -146 -92.5 -231.5t-232.5 -85.5t-232.5 85.5t-92.5 231.5t92.5 231.5t232.5 85.5t232.5 -85.5t92.5 -231.5zM519 672h-57l-86 80l-86 -80h-57l115 133h56z" />
    <glyph glyph-name="Otilde" unicode="&#xd5;" horiz-adv-x="752" 
d="M376 53q112 0 179 66t67 186t-67 186t-179 66t-179 -66t-67 -186t67 -186t179 -66zM701 305q0 -146 -92.5 -231.5t-232.5 -85.5t-232.5 85.5t-92.5 231.5t92.5 231.5t232.5 85.5t232.5 -85.5t92.5 -231.5zM472 781h48q4 -46 -15 -72.5t-60 -26.5q-29 0 -70.5 26t-60.5 26
q-20 0 -28 -13.5t-6 -33.5h-48q-4 47 15.5 73t60.5 26q29 0 69 -26t60 -26q40 0 35 47z" />
    <glyph glyph-name="Odieresis" unicode="&#xd6;" horiz-adv-x="752" 
d="M376 53q112 0 179 66t67 186t-67 186t-179 66t-179 -66t-67 -186t67 -186t179 -66zM701 305q0 -146 -92.5 -231.5t-232.5 -85.5t-232.5 85.5t-92.5 231.5t92.5 231.5t232.5 85.5t232.5 -85.5t92.5 -231.5zM316 740q0 -48 -51 -48q-25 0 -38.5 13t-13.5 35q0 49 52 49
q51 0 51 -49zM538 740q0 -22 -13.5 -35t-38.5 -13t-38.5 13t-13.5 35q0 49 52 49t52 -49z" />
    <glyph glyph-name="multiply" unicode="&#xd7;" horiz-adv-x="522" 
d="M412 113l-151 151l-151 -151l-45 46l150 150l-150 151l45 46l151 -151l151 151l46 -46l-151 -151l151 -150z" />
    <glyph glyph-name="Oslash" unicode="&#xd8;" horiz-adv-x="752" 
d="M140 -18h-67l73 88q-95 87 -95 235q0 146 92.5 231.5t232.5 85.5q107 0 190 -53l47 57h66l-73 -87q95 -89 95 -234q0 -146 -92.5 -231.5t-232.5 -85.5q-112 0 -189 51zM192 124l330 393q-61 40 -146 40q-112 0 -179 -66t-67 -186q0 -116 62 -181zM560 484l-329 -393
q62 -38 145 -38q112 0 179 66t67 186q0 111 -62 179z" />
    <glyph glyph-name="Ugrave" unicode="&#xd9;" horiz-adv-x="692" 
d="M541 268v342h77v-349q0 -150 -72 -213q-66 -60 -200 -60q-133 0 -199 60q-73 64 -73 213v349h78v-342q0 -113 46.5 -163.5t147.5 -50.5t148 50.5t47 163.5zM390 672h-53l-115 138h88z" />
    <glyph glyph-name="Uacute" unicode="&#xda;" horiz-adv-x="692" 
d="M541 268v342h77v-349q0 -150 -72 -213q-66 -60 -200 -60q-133 0 -199 60q-73 64 -73 213v349h78v-342q0 -113 46.5 -163.5t147.5 -50.5t148 50.5t47 163.5zM355 672h-53l80 138h88z" />
    <glyph glyph-name="Ucircumflex" unicode="&#xdb;" horiz-adv-x="692" 
d="M541 268v342h77v-349q0 -150 -72 -213q-66 -60 -200 -60q-133 0 -199 60q-73 64 -73 213v349h78v-342q0 -113 46.5 -163.5t147.5 -50.5t148 50.5t47 163.5zM489 672h-57l-86 80l-86 -80h-57l115 133h56z" />
    <glyph glyph-name="Udieresis" unicode="&#xdc;" horiz-adv-x="692" 
d="M541 268v342h77v-349q0 -150 -72 -213q-66 -60 -200 -60q-133 0 -199 60q-73 64 -73 213v349h78v-342q0 -113 46.5 -163.5t147.5 -50.5t148 50.5t47 163.5zM286 740q0 -48 -51 -48q-25 0 -38.5 13t-13.5 35q0 49 52 49q51 0 51 -49zM508 740q0 -22 -13.5 -35t-38.5 -13
t-38.5 13t-13.5 35q0 49 52 49t52 -49z" />
    <glyph glyph-name="Yacute" unicode="&#xdd;" horiz-adv-x="610" 
d="M344 0h-78v236l-246 374h81l129 -200l73 -121h4l73 121l129 200h81l-246 -374v-236zM314 672h-53l80 138h88z" />
    <glyph glyph-name="Thorn" unicode="&#xde;" horiz-adv-x="572" 
d="M153 205h143q78 0 114 27t36 94t-36 93.5t-114 26.5h-143v-241zM295 141h-142v-141h-77v610h77v-100h142q114 0 170.5 -43.5t56.5 -140.5t-56.5 -141t-170.5 -44z" />
    <glyph glyph-name="germandbls" unicode="&#xdf;" horiz-adv-x="608" 
d="M264 17v58q58 -28 124 -28q50 0 75 21t25 58q0 33 -20.5 56t-49 36.5t-57.5 27t-49.5 36.5t-20.5 55t23.5 55t51.5 34.5t51.5 34.5t23.5 55q0 41 -33 62.5t-94 21.5q-165 0 -165 -173v-427h-75v447q0 96 58 155.5t178 59.5q95 0 149.5 -37.5t54.5 -109.5q0 -40 -23.5 -70
t-52 -43.5t-52 -30.5t-23.5 -35t20.5 -32t49.5 -26t58.5 -28.5t50 -48t20.5 -74.5q0 -64 -45 -101t-121 -37q-67 0 -132 28z" />
    <glyph glyph-name="agrave" unicode="&#xe0;" horiz-adv-x="518" 
d="M374 138v72q-70 18 -126 18q-133 0 -133 -95q0 -87 106 -87q107 0 153 92zM448 0h-61l-8 77h-2q-21 -37 -64.5 -62.5t-104.5 -25.5q-76 0 -120 36.5t-44 104.5q0 73 54 111.5t141 38.5q66 0 135 -20v36q0 109 -128 109q-83 0 -161 -40v62q79 35 169 35q194 0 194 -175
v-287zM313 512h-53l-115 138h88z" />
    <glyph glyph-name="aacute" unicode="&#xe1;" horiz-adv-x="518" 
d="M374 138v72q-70 18 -126 18q-133 0 -133 -95q0 -87 106 -87q107 0 153 92zM448 0h-61l-8 77h-2q-21 -37 -64.5 -62.5t-104.5 -25.5q-76 0 -120 36.5t-44 104.5q0 73 54 111.5t141 38.5q66 0 135 -20v36q0 109 -128 109q-83 0 -161 -40v62q79 35 169 35q194 0 194 -175
v-287zM258 512h-53l80 138h88z" />
    <glyph glyph-name="acircumflex" unicode="&#xe2;" horiz-adv-x="518" 
d="M374 138v72q-70 18 -126 18q-133 0 -133 -95q0 -87 106 -87q107 0 153 92zM448 0h-61l-8 77h-2q-21 -37 -64.5 -62.5t-104.5 -25.5q-76 0 -120 36.5t-44 104.5q0 73 54 111.5t141 38.5q66 0 135 -20v36q0 109 -128 109q-83 0 -161 -40v62q79 35 169 35q194 0 194 -175
v-287zM402 512h-57l-86 80l-86 -80h-57l115 133h56z" />
    <glyph glyph-name="atilde" unicode="&#xe3;" horiz-adv-x="518" 
d="M374 138v72q-70 18 -126 18q-133 0 -133 -95q0 -87 106 -87q107 0 153 92zM448 0h-61l-8 77h-2q-21 -37 -64.5 -62.5t-104.5 -25.5q-76 0 -120 36.5t-44 104.5q0 73 54 111.5t141 38.5q66 0 135 -20v36q0 109 -128 109q-83 0 -161 -40v62q79 35 169 35q194 0 194 -175
v-287zM355 621h48q4 -46 -15 -72.5t-60 -26.5q-29 0 -70.5 26t-60.5 26q-20 0 -28 -13.5t-6 -33.5h-48q-4 47 15.5 73t60.5 26q29 0 69 -26t60 -26q40 0 35 47z" />
    <glyph glyph-name="adieresis" unicode="&#xe4;" horiz-adv-x="518" 
d="M374 138v72q-70 18 -126 18q-133 0 -133 -95q0 -87 106 -87q107 0 153 92zM448 0h-61l-8 77h-2q-21 -37 -64.5 -62.5t-104.5 -25.5q-76 0 -120 36.5t-44 104.5q0 73 54 111.5t141 38.5q66 0 135 -20v36q0 109 -128 109q-83 0 -161 -40v62q79 35 169 35q194 0 194 -175
v-287zM199 580q0 -48 -51 -48q-25 0 -38.5 13t-13.5 35q0 49 52 49q51 0 51 -49zM421 580q0 -22 -13.5 -35t-38.5 -13t-38.5 13t-13.5 35q0 49 52 49t52 -49z" />
    <glyph glyph-name="aring" unicode="&#xe5;" horiz-adv-x="518" 
d="M374 138v72q-70 18 -126 18q-133 0 -133 -95q0 -87 106 -87q107 0 153 92zM448 0h-61l-8 77h-2q-21 -37 -64.5 -62.5t-104.5 -25.5q-76 0 -120 36.5t-44 104.5q0 73 54 111.5t141 38.5q66 0 135 -20v36q0 109 -128 109q-83 0 -161 -40v62q79 35 169 35q194 0 194 -175
v-287zM259 491q-47 0 -75 26t-28 66t28 65.5t75 25.5t75 -25.5t28 -65.5t-28 -66t-75 -26zM259 635q-25 0 -40 -14.5t-15 -37.5q0 -24 15 -38.5t40 -14.5t40 14.5t15 38.5q0 23 -15 37.5t-40 14.5z" />
    <glyph glyph-name="ae" unicode="&#xe6;" horiz-adv-x="799" 
d="M727 90v-62q-78 -40 -150 -40q-135 0 -191 85q-56 -85 -176 -85q-76 0 -121 37t-45 105q0 70 51 108.5t135 40.5q28 0 43 -1q65 -8 73 -10q4 44 22 81q-29 56 -121 56q-84 0 -162 -37v60q77 34 171 34q106 0 152 -56q58 56 153 56q93 0 143.5 -56t50.5 -156q0 -16 -6 -48
h-332q12 -157 166 -157q57 0 144 45zM344 218q-41 10 -93 10q-136 0 -136 -95q0 -44 29.5 -66t79.5 -22q88 0 140 67q-20 49 -20 106zM418 253h268q0 153 -125 153q-129 0 -143 -153z" />
    <glyph glyph-name="ccedilla" unicode="&#xe7;" horiz-adv-x="491" 
d="M445 85v-62q-59 -35 -149 -35q-110 0 -179 67t-69 171q0 102 68 169t178 67q84 0 147 -34v-63q-63 39 -141 39q-79 0 -127 -49.5t-48 -128.5t48.5 -129.5t127.5 -50.5q78 0 144 39zM238 -193v50q34 -9 59 -9q57 0 57 36q0 41 -92 43l16 80l39 -4q0 -3 -4 -47
q99 -6 99 -78q0 -41 -32.5 -60t-77.5 -19q-32 0 -64 8z" />
    <glyph glyph-name="egrave" unicode="&#xe8;" horiz-adv-x="535" 
d="M462 92v-64q-77 -40 -165 -40q-119 0 -184 66t-65 173q0 105 62 170t171 65q99 0 154.5 -56t55.5 -156q0 -20 -7 -48h-364q4 -72 52 -114.5t131 -42.5q74 0 159 47zM120 253h304q-1 78 -39 115.5t-104 37.5q-70 0 -112.5 -42t-48.5 -111zM321 512h-53l-115 138h88z" />
    <glyph glyph-name="eacute" unicode="&#xe9;" horiz-adv-x="535" 
d="M462 92v-64q-77 -40 -165 -40q-119 0 -184 66t-65 173q0 105 62 170t171 65q99 0 154.5 -56t55.5 -156q0 -20 -7 -48h-364q4 -72 52 -114.5t131 -42.5q74 0 159 47zM120 253h304q-1 78 -39 115.5t-104 37.5q-70 0 -112.5 -42t-48.5 -111zM266 512h-53l80 138h88z" />
    <glyph glyph-name="ecircumflex" unicode="&#xea;" horiz-adv-x="535" 
d="M462 92v-64q-77 -40 -165 -40q-119 0 -184 66t-65 173q0 105 62 170t171 65q99 0 154.5 -56t55.5 -156q0 -20 -7 -48h-364q4 -72 52 -114.5t131 -42.5q74 0 159 47zM120 253h304q-1 78 -39 115.5t-104 37.5q-70 0 -112.5 -42t-48.5 -111zM410 512h-57l-86 80l-86 -80h-57
l115 133h56z" />
    <glyph glyph-name="edieresis" unicode="&#xeb;" horiz-adv-x="535" 
d="M462 92v-64q-77 -40 -165 -40q-119 0 -184 66t-65 173q0 105 62 170t171 65q99 0 154.5 -56t55.5 -156q0 -20 -7 -48h-364q4 -72 52 -114.5t131 -42.5q74 0 159 47zM120 253h304q-1 78 -39 115.5t-104 37.5q-70 0 -112.5 -42t-48.5 -111zM208 580q0 -48 -51 -48
q-25 0 -38.5 13t-13.5 35q0 49 52 49q51 0 51 -49zM430 580q0 -22 -13.5 -35t-38.5 -13t-38.5 13t-13.5 35q0 49 52 49t52 -49z" />
    <glyph glyph-name="igrave" unicode="&#xec;" horiz-adv-x="224" 
d="M150 0h-76v450h76v-450zM148 512h-53l-115 138h88z" />
    <glyph glyph-name="iacute" unicode="&#xed;" horiz-adv-x="224" 
d="M150 0h-76v450h76v-450zM133 512h-53l80 138h88z" />
    <glyph glyph-name="icircumflex" unicode="&#xee;" horiz-adv-x="224" 
d="M150 0h-76v450h76v-450zM257 512h-57l-86 80l-86 -80h-57l115 133h56z" />
    <glyph glyph-name="idieresis" unicode="&#xef;" horiz-adv-x="224" 
d="M150 0h-76v450h76v-450zM55 580q0 -48 -51 -48q-25 0 -38.5 13t-13.5 35q0 49 52 49q51 0 51 -49zM277 580q0 -22 -13.5 -35t-38.5 -13t-38.5 13t-13.5 35q0 49 52 49t52 -49z" />
    <glyph glyph-name="eth" unicode="&#xf0;" horiz-adv-x="567" 
d="M517 591l-103 -43q96 -96 100 -247q0 -54 -5 -88q-14 -110 -75 -167.5t-159 -57.5q-99 0 -165 60t-66 157q0 86 51.5 144t153.5 62q38 1 79 -8q53 -14 103 -55q-4 105 -82 173l-166 -70v52l118 50q-69 39 -160 40v55q132 1 231 -66l145 61v-52zM439 256q-67 91 -154 95
q-81 9 -123.5 -34t-42.5 -114q0 -76 45 -116.5t110 -40.5q151 0 165 210z" />
    <glyph glyph-name="ntilde" unicode="&#xf1;" horiz-adv-x="574" 
d="M504 0h-75v275q0 65 -27 95t-82 30q-92 0 -172 -85v-315h-76v450h64l8 -77h2q83 89 190 89q80 0 124 -45t44 -133v-284zM383 621h48q4 -46 -15 -72.5t-60 -26.5q-29 0 -70.5 26t-60.5 26q-20 0 -28 -13.5t-6 -33.5h-48q-4 47 15.5 73t60.5 26q29 0 69 -26t60 -26
q40 0 35 47z" />
    <glyph glyph-name="ograve" unicode="&#xf2;" horiz-adv-x="586" 
d="M538 226q0 -102 -67.5 -170t-177.5 -68t-177.5 68t-67.5 170t67.5 169t177.5 67t177.5 -67t67.5 -169zM293 46q75 0 121.5 50.5t46.5 129.5t-46.5 128.5t-121.5 49.5t-121.5 -49.5t-46.5 -128.5t46.5 -129.5t121.5 -50.5zM347 512h-53l-115 138h88z" />
    <glyph glyph-name="oacute" unicode="&#xf3;" horiz-adv-x="586" 
d="M538 226q0 -102 -67.5 -170t-177.5 -68t-177.5 68t-67.5 170t67.5 169t177.5 67t177.5 -67t67.5 -169zM293 46q75 0 121.5 50.5t46.5 129.5t-46.5 128.5t-121.5 49.5t-121.5 -49.5t-46.5 -128.5t46.5 -129.5t121.5 -50.5zM292 512h-53l80 138h88z" />
    <glyph glyph-name="ocircumflex" unicode="&#xf4;" horiz-adv-x="586" 
d="M538 226q0 -102 -67.5 -170t-177.5 -68t-177.5 68t-67.5 170t67.5 169t177.5 67t177.5 -67t67.5 -169zM293 46q75 0 121.5 50.5t46.5 129.5t-46.5 128.5t-121.5 49.5t-121.5 -49.5t-46.5 -128.5t46.5 -129.5t121.5 -50.5zM436 512h-57l-86 80l-86 -80h-57l115 133h56z
" />
    <glyph glyph-name="otilde" unicode="&#xf5;" horiz-adv-x="586" 
d="M538 226q0 -102 -67.5 -170t-177.5 -68t-177.5 68t-67.5 170t67.5 169t177.5 67t177.5 -67t67.5 -169zM293 46q75 0 121.5 50.5t46.5 129.5t-46.5 128.5t-121.5 49.5t-121.5 -49.5t-46.5 -128.5t46.5 -129.5t121.5 -50.5zM389 621h48q4 -46 -15 -72.5t-60 -26.5
q-29 0 -70.5 26t-60.5 26q-20 0 -28 -13.5t-6 -33.5h-48q-4 47 15.5 73t60.5 26q29 0 69 -26t60 -26q40 0 35 47z" />
    <glyph glyph-name="odieresis" unicode="&#xf6;" horiz-adv-x="586" 
d="M538 226q0 -102 -67.5 -170t-177.5 -68t-177.5 68t-67.5 170t67.5 169t177.5 67t177.5 -67t67.5 -169zM293 46q75 0 121.5 50.5t46.5 129.5t-46.5 128.5t-121.5 49.5t-121.5 -49.5t-46.5 -128.5t46.5 -129.5t121.5 -50.5zM233 580q0 -48 -51 -48q-25 0 -38.5 13t-13.5 35
q0 49 52 49q51 0 51 -49zM455 580q0 -22 -13.5 -35t-38.5 -13t-38.5 13t-13.5 35q0 49 52 49t52 -49z" />
    <glyph glyph-name="divide" unicode="&#xf7;" horiz-adv-x="522" 
d="M262 85q-24 0 -41 16.5t-17 42.5t16.5 42t41.5 16q24 0 41 -16.5t17 -41.5q0 -26 -17 -42.5t-41 -16.5zM262 414q-24 0 -41 16.5t-17 42.5t16.5 42t41.5 16t41.5 -16t16.5 -42t-17 -42.5t-41 -16.5zM474 279h-426v61h426v-61z" />
    <glyph glyph-name="oslash" unicode="&#xf8;" horiz-adv-x="586" 
d="M114 -18h-54l59 69q-71 69 -71 175q0 102 67.5 169t177.5 67q81 0 142 -39l36 43h55l-58 -69q70 -67 70 -171q0 -102 -67.5 -170t-177.5 -68q-81 0 -142 39zM166 106l226 268q-39 30 -99 30q-75 0 -121.5 -49.5t-46.5 -128.5q0 -73 41 -120zM421 343l-226 -267
q39 -30 98 -30q72 0 119.5 51t47.5 131q0 64 -39 115z" />
    <glyph glyph-name="ugrave" unicode="&#xf9;" horiz-adv-x="559" 
d="M487 0h-63l-8 77h-2q-73 -89 -176 -89q-80 0 -124 42.5t-44 127.5v292h75v-282q0 -62 27 -90t80 -28q92 0 160 86v314h75v-450zM333 512h-53l-115 138h88z" />
    <glyph glyph-name="uacute" unicode="&#xfa;" horiz-adv-x="559" 
d="M487 0h-63l-8 77h-2q-73 -89 -176 -89q-80 0 -124 42.5t-44 127.5v292h75v-282q0 -62 27 -90t80 -28q92 0 160 86v314h75v-450zM278 512h-53l80 138h88z" />
    <glyph glyph-name="ucircumflex" unicode="&#xfb;" horiz-adv-x="559" 
d="M487 0h-63l-8 77h-2q-73 -89 -176 -89q-80 0 -124 42.5t-44 127.5v292h75v-282q0 -62 27 -90t80 -28q92 0 160 86v314h75v-450zM422 512h-57l-86 80l-86 -80h-57l115 133h56z" />
    <glyph glyph-name="udieresis" unicode="&#xfc;" horiz-adv-x="559" 
d="M487 0h-63l-8 77h-2q-73 -89 -176 -89q-80 0 -124 42.5t-44 127.5v292h75v-282q0 -62 27 -90t80 -28q92 0 160 86v314h75v-450zM220 580q0 -48 -51 -48q-25 0 -38.5 13t-13.5 35q0 49 52 49q51 0 51 -49zM442 580q0 -22 -13.5 -35t-38.5 -13t-38.5 13t-13.5 35
q0 49 52 49t52 -49z" />
    <glyph glyph-name="yacute" unicode="&#xfd;" horiz-adv-x="501" 
d="M180 -93l37 93l-198 450h75l107 -255l51 -128h2l53 143l96 240h78l-237 -555q-27 -64 -55.5 -92.5t-81.5 -28.5q-35 0 -75 17v61q43 -20 70 -20q28 0 45 17.5t33 57.5zM259 512h-53l80 138h88z" />
    <glyph glyph-name="thorn" unicode="&#xfe;" horiz-adv-x="564" 
d="M150 -215h-76v865h76v-192q0 -14 -0.5 -41.5t-0.5 -40.5h2q69 86 165 86q93 0 145.5 -62.5t52.5 -168.5q0 -119 -53.5 -181t-139.5 -62q-114 0 -172 85h-2q3 -58 3 -121v-167zM150 314v-177q23 -38 64.5 -63.5t91.5 -25.5q58 0 95 46t37 136q0 78 -33 125.5t-103 47.5
q-89 0 -152 -89z" />
    <glyph glyph-name="ydieresis" unicode="&#xff;" horiz-adv-x="501" 
d="M180 -93l37 93l-198 450h75l107 -255l51 -128h2l53 143l96 240h78l-237 -555q-27 -64 -55.5 -92.5t-81.5 -28.5q-35 0 -75 17v61q43 -20 70 -20q28 0 45 17.5t33 57.5zM191 580q0 -48 -51 -48q-25 0 -38.5 13t-13.5 35q0 49 52 49q51 0 51 -49zM413 580q0 -22 -13.5 -35
t-38.5 -13t-38.5 13t-13.5 35q0 49 52 49t52 -49z" />
    <glyph glyph-name="dotlessi" unicode="&#x131;" horiz-adv-x="224" 
d="M150 0h-76v450h76v-450z" />
    <glyph glyph-name="Lslash" unicode="&#x141;" horiz-adv-x="477" 
d="M449 0h-371v234l-58 -31v55l58 30v322h77v-280l163 87v-55l-163 -86v-211h294v-65z" />
    <glyph glyph-name="lslash" unicode="&#x142;" horiz-adv-x="226" 
d="M151 0h-76v268l-65 -35v55l65 34v318h76v-276l65 34v-55l-65 -34v-309z" />
    <glyph glyph-name="OE" unicode="&#x152;" horiz-adv-x="934" 
d="M882 0h-388q-48 -12 -117 -12q-140 0 -233 85.5t-93 231.5t93 231.5t233 85.5q63 0 117 -12h388v-65h-311v-202h284v-64h-284v-214h311v-65zM494 67v474q-43 16 -117 16q-112 0 -179 -66t-67 -186t67 -186t179 -66q72 0 117 14z" />
    <glyph glyph-name="oe" unicode="&#x153;" horiz-adv-x="901" 
d="M829 87v-62q-73 -37 -154 -37q-144 0 -200 111q-57 -111 -193 -111q-105 0 -169.5 68t-64.5 170t64.5 169t169.5 67q136 0 192 -109q51 109 187 109q91 0 143.5 -56.5t52.5 -155.5q0 -24 -6 -48h-340q4 -73 48.5 -115t121.5 -42t148 42zM282 46q70 0 114 49.5t44 130.5
q0 80 -44 129t-114 49q-71 0 -114 -49.5t-43 -128.5t43 -129.5t114 -50.5zM511 253h277q0 77 -34.5 115t-94.5 38q-64 0 -103 -42t-45 -111z" />
    <glyph glyph-name="Scaron" unicode="&#x160;" horiz-adv-x="517" 
d="M46 33v66q92 -48 196 -48q149 0 149 99q0 31 -23 56.5t-45.5 37.5t-72.5 34q-5 2 -7 3l-6 3t-7 3q-39 17 -62.5 29t-54 34.5t-45.5 52.5t-15 67q0 77 56 114.5t153 37.5q90 0 166 -31v-66q-84 34 -161 34q-137 0 -137 -88q0 -28 21.5 -52t43 -36t70.5 -34q11 -5 17 -8
q90 -42 121 -65q66 -51 66 -126q0 -80 -61.5 -121t-160.5 -41q-121 0 -201 45zM286 672h-56l-115 133h57l86 -79l86 79h57z" />
    <glyph glyph-name="scaron" unicode="&#x161;" horiz-adv-x="422" 
d="M42 16v61q76 -31 146 -31q118 0 118 64q0 16 -6 28t-12 19.5t-26.5 16.5t-32 13.5t-45.5 16.5q-36 14 -53 22t-41.5 24.5t-35 39t-10.5 53.5q0 56 43 87.5t128 31.5q75 0 133 -28v-59q-62 30 -123 30q-110 0 -110 -60q0 -17 6 -29t23.5 -22.5t28 -15.5t41.5 -16l3 -1.5
t3 -1t3.5 -1t3.5 -1.5q35 -12 55 -20.5t45.5 -25.5t38 -41.5t12.5 -57.5q0 -61 -49 -92.5t-131 -31.5q-94 0 -156 28zM239 512h-56l-115 133h57l86 -79l86 79h57z" />
    <glyph glyph-name="Ydieresis" unicode="&#x178;" horiz-adv-x="610" 
d="M344 0h-78v236l-246 374h81l129 -200l73 -121h4l73 121l129 200h81l-246 -374v-236zM245 740q0 -48 -51 -48q-25 0 -38.5 13t-13.5 35q0 49 52 49q51 0 51 -49zM467 740q0 -22 -13.5 -35t-38.5 -13t-38.5 13t-13.5 35q0 49 52 49t52 -49z" />
    <glyph glyph-name="Zcaron" unicode="&#x17d;" horiz-adv-x="560" 
d="M512 0h-467v57l363 491l-350 -2v64h437v-57l-363 -490l380 1v-64zM308 672h-56l-115 133h57l86 -79l86 79h57z" />
    <glyph glyph-name="zcaron" unicode="&#x17e;" horiz-adv-x="460" 
d="M418 0h-380v52l278 339l-265 -1v60h354v-52l-279 -339l292 1v-60zM258 512h-56l-115 133h57l86 -79l86 79h57z" />
    <glyph glyph-name="florin" unicode="&#x192;" horiz-adv-x="612" 
d="M209 -8l54 372h-93l8 58h93q16 100 64.5 156t146.5 56q41 0 76 -13l-8 -61q-33 12 -70 12q-56 0 -89.5 -35.5t-45.5 -114.5h156l-9 -58h-155l-57 -392q-23 -162 -169 -162q-40 0 -83 13l9 62q32 -13 68 -13q52 0 73 26t31 94z" />
    <glyph glyph-name="circumflex" unicode="&#x2c6;" horiz-adv-x="326" 
d="M306 512h-57l-86 80l-86 -80h-57l115 133h56z" />
    <glyph glyph-name="caron" unicode="&#x2c7;" horiz-adv-x="326" 
d="M191 512h-56l-115 133h57l86 -79l86 79h57z" />
    <glyph glyph-name="breve" unicode="&#x2d8;" horiz-adv-x="326" 
d="M253 642h48q0 -68 -38.5 -101.5t-99.5 -33.5t-99.5 33.5t-38.5 101.5h48q0 -88 90 -88t90 88z" />
    <glyph glyph-name="dotaccent" unicode="&#x2d9;" horiz-adv-x="326" 
d="M218 580q0 -23 -14 -36.5t-41 -13.5t-41 13.5t-14 36.5q0 51 55 51t55 -51z" />
    <glyph glyph-name="ring" unicode="&#x2da;" horiz-adv-x="326" 
d="M163 491q-47 0 -75 26t-28 66t28 65.5t75 25.5t75 -25.5t28 -65.5t-28 -66t-75 -26zM163 635q-25 0 -40 -14.5t-15 -37.5q0 -24 15 -38.5t40 -14.5t40 14.5t15 38.5q0 23 -15 37.5t-40 14.5z" />
    <glyph glyph-name="ogonek" unicode="&#x2db;" horiz-adv-x="326" 
d="M237 -116v-43q-33 -15 -74 -15q-47 0 -74 19.5t-27 58.5q0 32 26 58t47 35.5t38 14.5l31 -12q-82 -40 -82 -83q0 -44 53 -44q32 0 62 11z" />
    <glyph glyph-name="tilde" unicode="&#x2dc;" horiz-adv-x="326" 
d="M259 621h48q4 -46 -15 -72.5t-60 -26.5q-29 0 -70.5 26t-60.5 26q-20 0 -28 -13.5t-6 -33.5h-48q-4 47 15.5 73t60.5 26q29 0 69 -26t60 -26q40 0 35 47z" />
    <glyph glyph-name="hungarumlaut" unicode="&#x2dd;" horiz-adv-x="326" 
d="M287 512h-57l92 138h96zM94 512h-57l92 138h96z" />
    <glyph glyph-name="uni03A9" unicode="&#x3a9;" horiz-adv-x="682" 
d="M617 0h-228v56q169 136 169 288q0 93 -50.5 153.5t-166.5 60.5t-166.5 -60.5t-50.5 -153.5q0 -81 47 -155.5t122 -132.5v-56h-228v59h149q-71 43 -119.5 122t-48.5 167q0 121 73.5 197.5t221.5 76.5t221.5 -76.5t73.5 -197.5q0 -88 -48.5 -167t-119.5 -122h149v-59z" />
    <glyph glyph-name="pi" unicode="&#x3c0;" horiz-adv-x="600" 
d="M553 54v-56q-23 -7 -58 -7q-69 0 -94 35.5t-25 98.5v260h-171l-24 -385h-72l24 385l-101 5v60h522v-65h-105v-254q0 -44 15 -63.5t49 -19.5q10 0 40 6z" />
    <glyph glyph-name="uni0E00" unicode="&#xe00;" horiz-adv-x="175" 
 />
    <glyph glyph-name="uni0E01" unicode="&#xe01;" horiz-adv-x="636" 
d="M562 0h-76v324q0 94 -38 132.5t-129 38.5q-86 0 -167 -22v-473h-76v519q128 40 249 40q119 0 178 -56t59 -174v-329z" />
    <glyph glyph-name="uni0E02" unicode="&#xe02;" horiz-adv-x="587" 
d="M437 222v325h76v-325q0 -114 -62 -174t-170 -60q-110 0 -169 53.5t-59 148.5q0 37 13.5 70t33 56.5t39 44t33 43t13.5 44.5q0 47 -56 47q-34 0 -69 -13v63q30 11 78 11q57 0 86.5 -27t29.5 -76q0 -30 -13 -57.5t-31.5 -49.5l-37 -44t-31.5 -51t-13 -61q0 -65 38 -102
t115 -37q156 0 156 171z" />
    <glyph glyph-name="uni0E03" unicode="&#xe03;" horiz-adv-x="593" 
d="M443 222v325h76v-325q0 -114 -62 -174t-170 -60q-110 0 -169 53.5t-59 148.5q0 41 13.5 75.5t33 59t39 47t34 51t15.5 59.5h-2q-30 -24 -75 -24q-42 0 -71 27v70q36 -40 76 -40t75 32h64v-58q0 -49 -20 -91t-43.5 -67t-43.5 -62.5t-20 -78.5q0 -65 38 -102t115 -37
q156 0 156 171z" />
    <glyph glyph-name="uni0E04" unicode="&#xe04;" horiz-adv-x="660" 
d="M586 0h-75v314q0 94 -44.5 137.5t-136.5 43.5q-91 0 -136 -43.5t-45 -137.5v-106q23 39 67.5 66.5t97.5 27.5q31 0 58 -9v-71q-28 12 -61 12q-100 0 -162 -89v-145h-75v317q0 119 68.5 180.5t187.5 61.5q120 0 188 -61.5t68 -180.5v-317z" />
    <glyph glyph-name="uni0E05" unicode="&#xe05;" horiz-adv-x="672" 
d="M598 0h-76v371q0 66 -16.5 95t-59.5 29q-60 0 -75 -77h-70q-14 77 -74 77q-43 0 -60 -28.5t-17 -95.5v-163q21 38 68.5 66t99.5 28q42 0 61 -9v-71q-33 12 -64 12q-98 0 -165 -89v-145h-76v374q0 185 141 185q44 0 76 -22.5t44 -58.5h2q12 36 44 58.5t76 22.5
q141 0 141 -185v-374z" />
    <glyph glyph-name="uni0E06" unicode="&#xe06;" horiz-adv-x="635" 
d="M485 190v357h76v-361q0 -96 -51.5 -147t-138.5 -51q-124 0 -216 103h-2l-11 -91h-64v203q0 42 17 81.5t38 65.5t38.5 62.5t18.5 72.5h-2q-34 -27 -76 -27q-41 0 -70 27v70q36 -40 76 -40t75 32h65v-58q0 -42 -16 -82t-36 -66.5t-36 -63.5t-16 -72v-36q34 -51 85.5 -84
t113.5 -33q132 0 132 138z" />
    <glyph glyph-name="uni0E07" unicode="&#xe07;" horiz-adv-x="590" 
d="M260 0h-46l-162 438q-34 84 -46 109h80l178 -484h1q98 29 147.5 97.5t49.5 155.5q0 85 -37 132t-103 47q-40 0 -73 -12v64q38 10 82 10q90 0 148.5 -64t58.5 -176q0 -69 -24 -126.5t-65 -95t-88.5 -61t-100.5 -34.5z" />
    <glyph glyph-name="uni0E08" unicode="&#xe08;" horiz-adv-x="582" 
d="M263 0h-63l-92 202q-24 49 -44 82h87l98 -224q82 9 143.5 70.5t61.5 160.5q0 204 -208 204q-106 0 -208 -49v67q98 46 214 46q140 0 209 -73.5t69 -194.5q0 -123 -79.5 -199t-187.5 -92z" />
    <glyph glyph-name="uni0E09" unicode="&#xe09;" horiz-adv-x="614" 
d="M540 0h-63l-11 91h-2q-82 -103 -209 -103q-182 0 -182 185v54q0 45 -7 73h82v-122q0 -65 28.5 -95.5t95.5 -30.5q121 0 192 114v158q0 92 -49 131.5t-151 39.5q-104 0 -208 -50v68q98 46 218 46q126 0 196 -57t70 -172v-330z" />
    <glyph glyph-name="uni0E0A" unicode="&#xe0a;" horiz-adv-x="598" 
d="M531 547l-132 -125q135 -52 135 -202q0 -113 -66 -172.5t-178 -59.5q-114 0 -175.5 53.5t-61.5 148.5q0 37 13.5 70t33 56.5t39 44t33 43t13.5 44.5q0 47 -56 47q-34 0 -69 -13v63q30 11 78 11q57 0 86.5 -27t29.5 -76q0 -30 -13 -57.5t-31.5 -49.5l-37 -44t-31.5 -51
t-13 -61q0 -65 41 -101.5t120 -36.5q81 0 125 44t44 127q0 78 -35.5 117.5t-100.5 58.5v25l123 123h86z" />
    <glyph glyph-name="uni0E0B" unicode="&#xe0b;" horiz-adv-x="604" 
d="M537 547l-132 -125q135 -52 135 -202q0 -113 -66 -172.5t-178 -59.5q-114 0 -175.5 53.5t-61.5 148.5q0 41 13.5 75.5t33 59t39 47t34 51t15.5 59.5h-2q-30 -24 -75 -24q-42 0 -71 27v70q36 -40 76 -40t75 32h64v-58q0 -49 -20 -91t-43.5 -67t-43.5 -62.5t-20 -78.5
q0 -65 41 -101.5t120 -36.5q81 0 125 44t44 127q0 78 -35.5 117.5t-100.5 58.5v25l123 123h86z" />
    <glyph glyph-name="uni0E0C" unicode="&#xe0c;" horiz-adv-x="982" 
d="M832 186v361h76v-365q0 -96 -46.5 -145t-126.5 -49q-114 0 -199 103h-2l-11 -91h-64v330q0 89 -35.5 127t-117.5 38q-80 0 -154 -22v-333q0 -52 18 -70.5t59 -18.5q39 0 71 13v-62q-36 -13 -83 -13q-141 0 -141 144v386q128 40 236 40q223 0 223 -224v-166
q30 -50 78.5 -83.5t104.5 -33.5q61 0 87.5 34t26.5 100z" />
    <glyph glyph-name="uni0E0D" unicode="&#xe0d;" horiz-adv-x="981" 
d="M871 -32l29 -54q-85 -61 -215 -61q-133 0 -215 61l29 54q74 -53 186 -53t186 53zM832 219v328h75v-331q0 -97 -58.5 -147t-165.5 -50t-165.5 50t-58.5 147v114q0 89 -35.5 127t-117.5 38q-80 0 -154 -22v-333q0 -52 18 -70.5t59 -18.5q39 0 71 13v-62q-36 -13 -83 -13
q-141 0 -141 144v386q128 40 236 40q223 0 223 -224v-116q0 -136 148 -136q149 0 149 136z" />
    <glyph glyph-name="uni0E0E" unicode="&#xe0e;" horiz-adv-x="655" 
d="M581 -233h-67l-151 48q-62 22 -96 22t-54.5 -17.5t-19.5 -51.5h-66q0 63 38.5 96.5t100.5 33.5q47 0 114 -23l125 -45v503q0 88 -34.5 125t-118.5 37q-73 0 -154 -22v-351q0 -133 -116 -133q-38 0 -64 7v63q24 -8 48 -8q56 0 56 73v395q128 40 235 40q113 0 168.5 -54
t55.5 -167v-571z" />
    <glyph glyph-name="uni0E0F" unicode="&#xe0f;" horiz-adv-x="655" 
d="M581 -233h-80q-122 0 -145 77q-30 -80 -130 -80q-56 0 -100 24v67q47 -32 97 -32q81 0 100 84h64q21 -79 100 -79h18v505q0 88 -34.5 125t-118.5 37q-73 0 -154 -22v-351q0 -133 -116 -133q-38 0 -64 7v63q24 -8 48 -8q56 0 56 73v395q128 40 235 40q113 0 168.5 -54
t55.5 -167v-571z" />
    <glyph glyph-name="uni0E10" unicode="&#xe10;" horiz-adv-x="582" 
d="M263 0h-63l-92 202q-24 49 -44 82h87l98 -224q82 9 143.5 70.5t61.5 160.5q0 204 -208 204q-106 0 -208 -49v67q98 46 214 46q72 0 136 -28l62 63h94l-104 -96q90 -76 90 -207q0 -123 -79.5 -199t-187.5 -92zM491 -233h-66l-141 50q-56 20 -90 20t-54 -17t-20 -52h-66
q0 63 38.5 96.5t100.5 33.5q47 0 108 -21l115 -47v118h75v-181z" />
    <glyph glyph-name="uni0E11" unicode="&#xe11;" horiz-adv-x="655" 
d="M581 0h-76v373q0 64 -22.5 93.5t-72.5 29.5q-102 0 -178 -97t-76 -197v-202h-76v203q0 48 17.5 90.5t38 68.5t38.5 59.5t19 63.5h-2q-31 -27 -75 -27q-41 0 -70 27v70q36 -40 75 -40q40 0 75 32h47l7 -58q72 70 173 70q73 0 115.5 -45.5t42.5 -136.5v-377z" />
    <glyph glyph-name="uni0E12" unicode="&#xe12;" horiz-adv-x="1069" 
d="M919 190v357h76v-361q0 -98 -48.5 -148t-133.5 -50q-68 0 -116.5 27t-92.5 76h-2l-11 -91h-63v393q0 54 -14.5 78t-49.5 24q-51 0 -65 -77h-70q-10 39 -24.5 58t-46.5 19q-37 0 -64 -22.5t-40.5 -58.5t-19.5 -72.5t-6 -74.5q0 -98 43.5 -157.5t139.5 -59.5q42 0 82 17
v-62q-43 -16 -93 -16q-66 0 -115.5 23t-77.5 63t-41.5 87.5t-13.5 103.5q0 129 54.5 211t146.5 82q84 0 110 -81h2q13 37 43 59t73 22q61 0 91.5 -42t30.5 -119v-229q75 -117 193 -117q123 0 123 138z" />
    <glyph glyph-name="uni0E13" unicode="&#xe13;" horiz-adv-x="983" 
d="M907 0h-63l-11 91h-2q-82 -103 -202 -103q-79 0 -124.5 44.5t-45.5 136.5v161q0 89 -35.5 127t-117.5 38q-80 0 -154 -22v-333q0 -52 18 -70.5t59 -18.5q39 0 71 13v-62q-36 -13 -83 -13q-141 0 -141 144v386q128 40 236 40q223 0 223 -224v-160q0 -63 27.5 -93t86.5 -30
q56 0 104.5 33.5t78.5 83.5v378h75v-547z" />
    <glyph glyph-name="uni0E14" unicode="&#xe14;" horiz-adv-x="653" 
d="M577 0h-76v449q-64 46 -156 46q-96 0 -156.5 -62t-60.5 -178q0 -94 44.5 -149t141.5 -55q39 0 80 16v-63q-40 -15 -91 -15q-66 0 -116 22t-78.5 60.5t-42.5 84.5t-14 99q0 138 83.5 221t206.5 83q137 0 235 -84v-475z" />
    <glyph glyph-name="uni0E15" unicode="&#xe15;" horiz-adv-x="688" 
d="M612 0h-76v393q0 102 -61 102q-58 0 -72 -77h-70q-9 38 -25.5 57.5t-49.5 19.5q-58 0 -94 -60.5t-36 -167.5q0 -97 44 -156.5t140 -59.5q42 0 82 17v-63q-43 -16 -93 -16q-128 0 -188.5 79.5t-60.5 197.5q0 129 55.5 211t147.5 82q86 0 112 -80h2q12 36 43 58t75 22
q61 0 93 -42.5t32 -118.5v-398z" />
    <glyph glyph-name="uni0E16" unicode="&#xe16;" horiz-adv-x="639" 
d="M565 0h-76v324q0 93 -38.5 132t-129.5 39q-88 0 -169 -22v-332q0 -53 18.5 -71.5t64.5 -18.5q38 0 75 16v-62q-37 -16 -88 -16q-146 0 -146 144v386q128 40 251 40q119 0 178.5 -56t59.5 -174v-329z" />
    <glyph glyph-name="uni0E17" unicode="&#xe17;" horiz-adv-x="654" 
d="M580 0h-76v357q0 138 -120 138q-122 0 -232 -108v-387h-76v547h64l11 -91h2q110 103 239 103q87 0 137.5 -50.5t50.5 -147.5v-361z" />
    <glyph glyph-name="uni0E18" unicode="&#xe18;" horiz-adv-x="605" 
d="M76 15v226h74v-176q56 -13 154 -13q89 0 130.5 20t41.5 76q0 59 -43.5 84.5t-130.5 39.5q-125 21 -166 39q-77 34 -77 112q0 67 64.5 101.5t180.5 34.5q118 0 204 -34v-66q-88 38 -198 38q-176 0 -176 -73q0 -44 55 -62q20 -7 135 -28q54 -10 89.5 -21.5t69.5 -31.5
t51 -53t17 -78q0 -86 -63.5 -124t-183.5 -38q-115 0 -228 27z" />
    <glyph glyph-name="uni0E19" unicode="&#xe19;" horiz-adv-x="633" 
d="M557 0h-64l-11 91h-2q-82 -103 -214 -103q-90 0 -141 47.5t-51 142.5v369h76v-365q0 -66 31.5 -98t99.5 -32q64 0 115.5 32t84.5 82v381h76v-547z" />
    <glyph glyph-name="uni0E1A" unicode="&#xe1a;" horiz-adv-x="636" 
d="M486 234v313h76v-316q0 -243 -244 -243t-244 243v316h76v-313q0 -97 40.5 -139.5t127.5 -42.5t127.5 42.5t40.5 139.5z" />
    <glyph glyph-name="uni0E1B" unicode="&#xe1b;" horiz-adv-x="636" 
d="M486 234v546h76v-549q0 -243 -244 -243t-244 243v316h76v-313q0 -97 40.5 -139.5t127.5 -42.5t127.5 42.5t40.5 139.5z" />
    <glyph glyph-name="uni0E1C" unicode="&#xe1c;" horiz-adv-x="681" 
d="M526 0l-183 295l-187 -295h-80v436q0 19 4 36.5t15.5 38.5t37.5 34t65 13q35 0 62 -7v-63q-24 8 -48 8q-34 0 -48 -18t-14 -59v-195q0 -93 -8 -147h2q33 67 75 131l93 148h60l91 -147q35 -54 74 -132h2q-8 69 -8 147v323h74v-547h-79z" />
    <glyph glyph-name="uni0E1D" unicode="&#xe1d;" horiz-adv-x="681" 
d="M526 0l-183 295l-187 -295h-80v436q0 19 4 36.5t15.5 38.5t37.5 34t65 13q35 0 62 -7v-63q-24 8 -48 8q-34 0 -48 -18t-14 -59v-195q0 -93 -8 -147h2q33 67 75 131l93 148h60l91 -147q35 -54 74 -132h2q-8 69 -8 147v556h74v-780h-79z" />
    <glyph glyph-name="uni0E1E" unicode="&#xe1e;" horiz-adv-x="742" 
d="M591 0h-79l-110 353q-15 49 -30 127h-2q-15 -78 -30 -127l-110 -353h-79l-93 431q-17 71 -35 116h84l64 -316q7 -34 25 -170h3q15 102 37 170l100 316h70l100 -316q22 -68 37 -170h3q18 136 25 170l64 316h74z" />
    <glyph glyph-name="uni0E1F" unicode="&#xe1f;" horiz-adv-x="742" 
d="M585 0h-79l-112 353q-15 49 -30 127h-2q-15 -78 -30 -127l-108 -353h-79l-93 431q-25 105 -29 116h84l58 -316q7 -34 25 -170h3q15 102 37 170l98 316h70l102 -316q22 -68 37 -170h3q18 136 25 170l95 549h70z" />
    <glyph glyph-name="uni0E20" unicode="&#xe20;" horiz-adv-x="655" 
d="M581 0h-76v333q0 88 -34.5 125t-118.5 37q-73 0 -154 -22v-351q0 -133 -116 -133q-38 0 -64 7v63q24 -8 48 -8q56 0 56 73v395q128 40 235 40q113 0 168.5 -54t55.5 -167v-338z" />
    <glyph glyph-name="uni0E21" unicode="&#xe21;" horiz-adv-x="633" 
d="M483 190v357h76v-361q0 -96 -51.5 -147t-138.5 -51q-124 0 -216 103h-2l-11 -91h-64v547h76v-378q34 -51 85.5 -84t113.5 -33q132 0 132 138z" />
    <glyph glyph-name="uni0E22" unicode="&#xe22;" horiz-adv-x="626" 
d="M474 101v446h76v-477q-57 -41 -115.5 -61.5t-144.5 -20.5q-232 0 -232 168q0 86 84 127v2q-80 32 -80 128q0 65 44 105t118 40q51 0 94 -15v-63q-37 16 -82 16q-43 0 -71.5 -21.5t-28.5 -63.5q0 -50 29 -68t98 -18h88v-60h-145q-72 -32 -72 -102q0 -111 157 -111
q116 0 183 49z" />
    <glyph glyph-name="uni0E23" unicode="&#xe23;" horiz-adv-x="536" 
d="M62 32v66q100 -49 197 -49q145 0 145 87q0 19 -9 34.5t-20 26t-35 22t-38.5 17.5t-46.5 17q-9 3 -14 5q-38 13 -55.5 20t-47.5 22t-44.5 29.5t-26 37.5t-11.5 51q0 65 53 103t155 38q104 0 182 -37v-64q-88 40 -176 40q-142 0 -142 -78q0 -16 9 -30t20.5 -23t36 -20.5
t40.5 -17t50 -17.5q53 -19 79.5 -30.5t57.5 -32t44 -48t13 -65.5q0 -74 -58 -111t-160 -37q-114 0 -198 44z" />
    <glyph glyph-name="uni0E24" unicode="&#xe24;" horiz-adv-x="639" 
d="M565 -223h-76v547q0 93 -38.5 132t-129.5 39q-88 0 -169 -22v-332q0 -53 18.5 -71.5t64.5 -18.5q38 0 75 16v-62q-37 -16 -88 -16q-146 0 -146 144v386q128 40 251 40q119 0 178.5 -56t59.5 -174v-552z" />
    <glyph glyph-name="uni0E25" unicode="&#xe25;" horiz-adv-x="614" 
d="M540 0h-76v277q-69 0 -117 -2.5t-93 -11t-71.5 -22.5t-42.5 -38.5t-16 -58.5q0 -93 114 -93q49 0 89 17v-64q-38 -15 -97 -15q-84 0 -133 38.5t-49 113.5q0 110 101.5 153t314.5 43v8q0 78 -40 114.5t-124 36.5q-114 0 -220 -51v69q96 45 218 45q242 0 242 -210v-349z
" />
    <glyph glyph-name="uni0E26" unicode="&#xe26;" horiz-adv-x="655" 
d="M581 -223h-76v556q0 88 -34.5 125t-118.5 37q-73 0 -154 -22v-351q0 -133 -116 -133q-38 0 -64 7v63q24 -8 48 -8q56 0 56 73v395q128 40 235 40q113 0 168.5 -54t55.5 -167v-561z" />
    <glyph glyph-name="uni0E27" unicode="&#xe27;" horiz-adv-x="547" 
d="M53 31v69q84 -48 168 -48q94 0 146 58.5t52 162.5q0 106 -50 164t-148 58q-92 0 -183 -52v68q86 48 187 48q130 0 200 -76.5t70 -209.5q0 -134 -71.5 -209.5t-196.5 -75.5q-97 0 -174 43z" />
    <glyph glyph-name="uni0E28" unicode="&#xe28;" horiz-adv-x="660" 
d="M586 0h-75v314q0 94 -44.5 137.5t-136.5 43.5q-91 0 -136 -43.5t-45 -137.5v-106q23 39 67.5 66.5t97.5 27.5q31 0 58 -9v-71q-28 12 -61 12q-100 0 -162 -89v-145h-75v317q0 119 68.5 180.5t187.5 61.5q71 0 131 -26l61 61h94l-104 -96q74 -62 74 -181v-317z" />
    <glyph glyph-name="uni0E29" unicode="&#xe29;" horiz-adv-x="647" 
d="M635 291h-73v-60q0 -243 -244 -243t-244 243v316h76v-313q0 -97 40.5 -139.5t127.5 -42.5t127.5 42.5t40.5 139.5v57h-153v58h153v198h76v-198h73v-58z" />
    <glyph glyph-name="uni0E2A" unicode="&#xe2a;" horiz-adv-x="614" 
d="M540 0h-76v277q-69 0 -117 -2.5t-93 -11t-71.5 -22.5t-42.5 -38.5t-16 -58.5q0 -93 114 -93q49 0 89 17v-64q-38 -15 -97 -15q-84 0 -133 38.5t-49 113.5q0 110 101.5 153t314.5 43v8q0 78 -40 114.5t-124 36.5q-114 0 -220 -51v69q96 45 218 45q70 0 128 -24l58 59h94
l-100 -93q62 -56 62 -152v-349z" />
    <glyph glyph-name="uni0E2B" unicode="&#xe2b;" horiz-adv-x="638" 
d="M564 0h-76v214q0 78 -33 109t-92 31q-106 0 -211 -57v-297h-76v547h76v-189q107 59 215 59q3 0 8.5 -0.5t9.5 -0.5l106 131h87l-118 -147q104 -39 104 -178v-222z" />
    <glyph glyph-name="uni0E2C" unicode="&#xe2c;" horiz-adv-x="681" 
d="M605 0h-80l-187 295l-183 -295h-79v547h74v-323q0 -78 -8 -147h2q39 78 74 132l91 147h60l93 -148q42 -64 75 -131h2q-8 54 -8 147v195q0 51 -18.5 70t-59.5 19q-34 0 -72 -10v57q32 13 80 13l90 99h85l-106 -110q75 -27 75 -132v-425z" />
    <glyph glyph-name="uni0E2D" unicode="&#xe2d;" horiz-adv-x="626" 
d="M295 52q203 0 203 218q0 225 -221 225q-108 0 -211 -48v70q102 42 213 42q143 0 219 -76.5t76 -212.5q0 -142 -76 -212t-205 -70q-110 0 -177.5 51.5t-67.5 144.5q0 73 22 127h168v-62h-109q-7 -31 -7 -65q0 -70 42.5 -101t130.5 -31z" />
    <glyph glyph-name="uni0E2E" unicode="&#xe2e;" horiz-adv-x="628" 
d="M295 52q203 0 203 218q0 225 -221 225q-108 0 -211 -48v70q102 42 213 42q73 0 131 -23l57 58h94l-95 -89q108 -79 108 -235q0 -142 -76 -212t-205 -70q-110 0 -177.5 51.5t-67.5 144.5q0 73 22 127h172v-62h-113q-7 -31 -7 -65q0 -70 42.5 -101t130.5 -31z" />
    <glyph glyph-name="uni0E2F" unicode="&#xe2f;" horiz-adv-x="506" 
d="M430 -80h-76v535q-62 -110 -174 -110q-137 0 -137 136q0 30 12 66h70q-11 -26 -11 -61q0 -32 18.5 -55.5t57.5 -23.5q109 0 164 140h76v-627z" />
    <glyph glyph-name="uni0E30" unicode="&#xe30;" horiz-adv-x="386" 
d="M326 369h-153q-117 0 -117 90q0 23 11 53h70q-8 -18 -8 -39q0 -24 12.5 -32.5t39.5 -8.5h145v-63zM326 74h-153q-117 0 -117 90q0 23 11 53h70q-8 -18 -8 -39q0 -24 12.5 -32.5t39.5 -8.5h145v-63z" />
    <glyph glyph-name="uni0E31" unicode="&#xe31;" 
d="M68 643h-299q-119 0 -119 92q0 21 11 54h70q-8 -27 -8 -42q0 -24 13 -33t41 -9h291v-62z" />
    <glyph glyph-name="uni0E32" unicode="&#xe32;" horiz-adv-x="492" 
d="M418 0h-76v350q0 79 -34 112t-105 33q-93 0 -181 -51v67q86 48 191 48q91 0 148 -48.5t57 -152.5v-358z" />
    <glyph glyph-name="uni0E33" unicode="&#xe33;" horiz-adv-x="492" 
d="M-63 725q0 26 -16.5 41.5t-42.5 15.5t-42.5 -15.5t-16.5 -41.5t16.5 -41.5t42.5 -15.5t42.5 15.5t16.5 41.5zM-5 725q0 -46 -32 -77t-85 -31t-85 31t-32 77t32 77t85 31t85 -31t32 -77zM418 0h-76v350q0 79 -34 112t-105 33q-93 0 -181 -51v67q86 48 191 48
q91 0 148 -48.5t57 -152.5v-358z" />
    <glyph glyph-name="uni0E34" unicode="&#xe34;" 
d="M-74 643h-464v62h464v-62z" />
    <glyph glyph-name="uni0E35" unicode="&#xe35;" 
d="M-74 643h-464v62h394l-3 110h73v-172z" />
    <glyph glyph-name="uni0E36" unicode="&#xe36;" 
d="M-158 643h-380v62h287q-8 21 -8 37q0 38 30 64.5t71 26.5q47 0 75 -27.5t28 -67.5t-28 -67.5t-75 -27.5zM-105 738q0 24 -14.5 38t-38.5 14t-38.5 -14t-14.5 -38t14.5 -38t38.5 -14t38.5 14t14.5 38z" />
    <glyph glyph-name="uni0E37" unicode="&#xe37;" 
d="M-74 643h-464v62h273l-2 110h66v-113h63l-3 113h67v-172z" />
    <glyph glyph-name="uni0E38" unicode="&#xe38;" 
d="M-74 -269h-72v96q0 42 -42 42q-20 0 -41 -7v57q31 9 68 9q87 0 87 -87v-110z" />
    <glyph glyph-name="uni0E39" unicode="&#xe39;" 
d="M-143 -166v86h69v-94q0 -55 -40.5 -81t-104.5 -26t-104.5 26t-40.5 81v44h-61v50h130v-86q0 -32 17.5 -44.5t58.5 -12.5t58.5 12.5t17.5 44.5z" />
    <glyph glyph-name="uni0E3A" unicode="&#xe3a;" 
d="M-55 -127q0 -24 -16.5 -40t-40.5 -16t-41.5 16t-17.5 40t17 39.5t42 15.5q24 0 40.5 -15.5t16.5 -39.5z" />
    <glyph glyph-name="uni0E3F" unicode="&#xe3f;" horiz-adv-x="612" 
d="M343 -100h-55v100h-212v610h212v100h55v-100q189 0 189 -153q0 -86 -75 -135v-2q109 -33 109 -153q0 -167 -223 -167v-100zM153 62h186q25 0 44.5 2t40 9t34 18.5t22 31.5t8.5 47q0 29 -8.5 49.5t-21 31.5t-33 17.5t-38 8t-41.5 1.5h-193v-216zM153 340h192q17 0 49 -2
q60 48 60 113q0 50 -26 73.5t-90 23.5h-185v-208z" />
    <glyph glyph-name="uni0E40" unicode="&#xe40;" horiz-adv-x="230" 
d="M152 0h-74v547h74v-547z" />
    <glyph glyph-name="uni0E41" unicode="&#xe41;" horiz-adv-x="438" 
d="M152 0h-74v547h74v-547zM360 0h-74v547h74v-547z" />
    <glyph glyph-name="uni0E42" unicode="&#xe42;" horiz-adv-x="312" 
d="M222 0h-74v579q0 152 -149 191v62q94 48 209 48q102 0 180 -20v-63q-75 23 -174 23q-85 0 -145 -23q74 -24 113.5 -82.5t39.5 -139.5v-575z" />
    <glyph glyph-name="uni0E43" unicode="&#xe43;" horiz-adv-x="312" 
d="M222 0h-74v508q0 30 20.5 62t45 55t45 54t20.5 59q0 41 -29.5 61.5t-79.5 20.5q-41 0 -87 -17.5t-79 -45.5v68q71 55 167 55q86 0 132.5 -39t46.5 -101q0 -35 -20 -69t-44 -57t-44 -54t-20 -60v-500z" />
    <glyph glyph-name="uni0E44" unicode="&#xe44;" horiz-adv-x="312" 
d="M222 0h-74v536q0 86 34 157t94 117l-1 2q-76 -40 -152 -40q-38 0 -76 11.5t-60 28.5v64q68 -43 143 -43q87 0 158 42h59v-65q-68 -53 -96.5 -116.5t-28.5 -147.5v-546z" />
    <glyph glyph-name="uni0E45" unicode="&#xe45;" horiz-adv-x="492" 
d="M418 -223h-76v573q0 79 -34 112t-105 33q-93 0 -181 -51v67q86 48 191 48q91 0 148 -48.5t57 -152.5v-581z" />
    <glyph glyph-name="uni0E46" unicode="&#xe46;" horiz-adv-x="619" 
d="M539 -213h-75v573q0 61 -14 90t-49 39l-104 -74l-106 74q-61 -39 -61 -109q0 -106 101 -106q38 0 61 10v-63q-23 -9 -65 -9q-169 0 -169 169q0 63 37.5 108.5t96.5 69.5l104 -78l106 78q68 -19 102.5 -62.5t34.5 -126.5v-583z" />
    <glyph glyph-name="uni0E47" unicode="&#xe47;" 
d="M-110 643h-72q-32 0 -57.5 17t-36.5 47q-30 -68 -96 -68q-55 0 -87 33t-32 90q0 60 38 91t107 31h236v-56h-233q-83 0 -83 -66q0 -34 18 -50.5t42 -16.5q54 0 64 62h52q9 -57 74 -57h66v-57z" />
    <glyph glyph-name="uni0E48" unicode="&#xe48;" 
d="M-74 869h-72v161h72v-161z" />
    <glyph glyph-name="uni0E49" unicode="&#xe49;" 
d="M17 869h-277v42q37 7 63.5 26t26.5 47q0 34 -40 34q-25 0 -47 -9v49q27 11 64 11q82 0 82 -72q0 -48 -46 -76l174 4v-56z" />
    <glyph glyph-name="uni0E4A" unicode="&#xe4a;" 
d="M39 869h-137v51q0 24 -5.5 36t-21.5 12q-31 0 -38 -45h-47q-8 45 -38 45q-16 0 -21.5 -12t-5.5 -36v-51h-64v56q0 45 20 72.5t60 27.5q55 0 72 -53q20 53 73 53q42 0 62.5 -28t15.5 -76l75 2v-54z" />
    <glyph glyph-name="uni0E4B" unicode="&#xe4b;" 
d="M13 957l-95 2l2 -90h-64l2 90l-95 -2v56l95 -2l-2 91h64l-2 -91l95 2v-56z" />
    <glyph glyph-name="uni0E4C" unicode="&#xe4c;" 
d="M-15 860h-135q-25 0 -37 -8.5t-12 -31.5q0 -22 8 -40h-68q-11 27 -11 50q0 88 109 88h146v-58z" />
    <glyph glyph-name="uni0E4D" unicode="&#xe4d;" 
d="M-63 725q0 26 -16.5 41.5t-42.5 15.5t-42.5 -15.5t-16.5 -41.5t16.5 -41.5t42.5 -15.5t42.5 15.5t16.5 41.5zM-5 725q0 -46 -32 -77t-85 -31t-85 31t-32 77t32 77t85 31t85 -31t32 -77z" />
    <glyph glyph-name="uni0E4E" unicode="&#xe4e;" horiz-adv-x="1170" 
d="M585 832l485 -277v-555l-485 -276l-485 276v555zM1017 548l-403 231l310 -479zM556 779l-403 -231l93 -248zM129 532v-514l98 251v2zM153 0l403 -230l-310 469zM585 770l-324 -501l324 -492l324 492zM614 -230l404 230l-94 239zM1041 18v514l-98 -263zM415 300
q1 -2 5 -4.5t4 -3.5q0 -5 1 -8q-30 -35 -62 -35q18 12 52 51zM450 199q8 0 10.5 -14t-1.5 -27q-8 -25 -35 -25q-13 1 -22 11.5t-11 20t-4 23.5t-2 15q-1 3 -3 42h1q19 7 39 27q6 -32 -2 -71q-7 -38 7 -44q9 -2 12 11q1 6 -6 17q-1 4 6 9t11 5zM558 212l7 18l1 -42l-15 9
q5 9 7 15zM765 173q1 3 5 8t5 9q2 -8 -2 -20q-7 -18 -7 -44q4 -19 -2 -22q2 6 -1 16q-5 11 -3 30q4 20 5 23zM553 125q2 -2 6 -2t7 1l2 1q0 -3 1.5 -13.5t-0.5 -10.5q-3 12 -13 9q-3 0 -7 -8q-2 8 -8 8q-5 0 -10 -9l-4 6l-6 3q-4 0 -10 -9q-2 7 2 22l-1 32q8 -4 16.5 -10
t15.5 -12.5t9 -7.5zM576 168q2 2 10 2q1 -4 -2 -13q-8 6 -8 11zM568 155q4 3 13 -2l-2 -4q-1 -2 -2.5 -3.5t-1.5 -2.5q-7 5 -7 12zM560 140l2 1q2 1 10 -3q-4 -4 -9 -6q-5 5 -3 8zM558 106q5 2 7 -6q-2 -4 -13 -6q2 12 6 12zM541 105q2 0 6 -11h-6h-8q0 11 8 11zM522 106
l2 -2q4 -4 4 -9q-10 2 -13 4l4.5 6t2.5 1zM748 106q3 1 7 -6q-5 -5 -14 -6q3 12 7 12zM730 105q5 0 7 -11h-6h-8q2 11 7 11zM710 106l3 -1q3 -3 5 -10q-3 1 -8 2t-6 2q1 3 2 4.5t2 2t2 0.5zM798 241q6 -11 6 -24l-5 -26q-1 1 -3 4t-5 15t-2 28q2 50 -7 71q-9 -45 -13 -59
q-5 -15 2 -45q1 -4 -0.5 -8t-5.5 -10t-6 -11q-6 -16 -6 -31q0 -19 6 -33q2 -8 0 -10q-7 9 -12 8q-4 0 -8 -8q-2 8 -9 8q-5 0 -10 -7l-2 6l-7 2q-4 0 -11 -9q-2 4 -1 9q13 56 5 72q-2 5 -14 19t-20.5 30t-9.5 32q-5 -3 0 -21q-38 -5 -86 10q1 8 5 19q-11 -9 -18 -34
q-3 -12 -16 -38q-3 -8 21 -20q11 -2 15 -5q-6 0 -9 -5v-2q0 -3 4 -9q-8 2 -10 -2l-1 -4q0 -5 3 -8h-7l-5 -2q-2 -7 2 -12q-1 1 -3 2t-4.5 2.5t-4.5 3.5q-29 26 -44 29q-16 6 -15 32q13 94 13 95q-4 -2 -8 -13l-16 25q6 4 14 17l10 -15l4 3l2 3l5 7.5t4 7.5q5 12 7 27
q1 6 3 12l3 7q19 43 1 62q-8 8 -19.5 10.5t-18.5 1.5l-7 -2q27 0 39 -14q8 -9 8 -22q0 -4 -9 -34l-3 -7q0 -1 -1.5 -5.5l-2.5 -7.5q-1 -12 -5 -26q-6 -9 -9 -13l-11 18l-3 -5q-8 -16 -16 -21q-18 -8 -21 -11q-7 -7 -9 -16q-1 -3 -3.5 -5.5t-4.5 -3.5l-2 -1q0 3 -1 8v14
l-16 13l-3 -2q-14 -20 -33 -38q0 1 -1 3.5t-1 3.5q-5 -8 -26 -9q10 8 16 14t7 9l1 2v49q-3 29 0 45q2 8 12 39q4 9 10 14t10 5l5 1q16 22 33 24q15 2 36 -0.5t29 -1.5q4 1 21 4t33 5t26 1q92 -13 128 -41q22 -18 32.5 -28t25.5 -35t18 -53zM450 383l9 12q-8 4 -15 -4
q-3 -2 -4 -6.5t0 -8.5l1 -3q6 6 9 10zM521 423q-4 7 -10.5 10t-11.5 2l-5 -1q18 -5 22 -16l1 -27q1 2 3 5t4 11.5t-3 15.5z" />
    <glyph glyph-name="uni0E4F" unicode="&#xe4f;" horiz-adv-x="580" 
d="M520 248q0 -97 -67.5 -162t-162.5 -65t-162.5 65t-67.5 162t67.5 161t162.5 64t162.5 -64t67.5 -161zM290 56q80 0 135.5 56t55.5 136q0 78 -56 134t-135 56t-135 -56t-56 -134q0 -80 56 -136t135 -56zM290 156q38 0 64.5 26.5t26.5 64.5t-26.5 64.5t-64.5 26.5
t-64.5 -26.5t-26.5 -64.5t26.5 -64.5t64.5 -26.5zM290 113q-56 0 -95 39.5t-39 95.5q0 54 39 93.5t95 39.5t95 -39.5t39 -93.5q0 -56 -39 -95.5t-95 -39.5z" />
    <glyph glyph-name="uni0E50" unicode="&#xe50;" horiz-adv-x="616" 
d="M574 239q0 -109 -74.5 -180t-191.5 -71q-116 0 -191 71t-75 180t75 180t191 71q117 0 191.5 -71t74.5 -180zM500 239q0 87 -51 138.5t-141 51.5t-140.5 -51.5t-50.5 -138.5t50.5 -138.5t140.5 -51.5t141 51.5t51 138.5z" />
    <glyph glyph-name="uni0E51" unicode="&#xe51;" horiz-adv-x="614" 
d="M282 -59h-31v59h27q99 0 159 56.5t60 166.5q0 102 -52.5 154t-144.5 52q-86 0 -136.5 -42t-50.5 -111q0 -128 129 -128q51 0 88 14v-57q-43 -17 -99 -17q-84 0 -137 50t-53 136q0 98 72 157t189 59q122 0 195.5 -67.5t73.5 -200.5q0 -130 -81.5 -205.5t-207.5 -75.5z" />
    <glyph glyph-name="uni0E52" unicode="&#xe52;" horiz-adv-x="698" 
d="M565 67v268q0 73 -50 90l-83 -63l-90 63q-25 -9 -41.5 -34.5t-16.5 -62.5q0 -94 89 -94q18 0 43 5v-56q-26 -6 -53 -6q-70 0 -107 38t-37 108q0 128 126 165l87 -65l84 66q120 -26 120 -150v-315q-131 -36 -269 -36q-154 0 -228 36.5t-74 120.5v445h74v-435
q0 -59 57.5 -82.5t172.5 -23.5q107 0 196 18z" />
    <glyph glyph-name="uni0E53" unicode="&#xe53;" horiz-adv-x="650" 
d="M588 0h-73v312q0 65 -19 91t-62 26q-37 0 -57 -29t-20 -78v-113h-64v104q0 116 -78 116q-41 0 -61 -24t-20 -82v-177q0 -98 89 -98q41 0 77 12v-56q-43 -15 -88 -15q-152 0 -152 153v186q0 82 38.5 122t100.5 40q47 0 80 -23.5t45 -62.5q15 40 48 63t80 23q60 0 98 -40
t38 -122v-328z" />
    <glyph glyph-name="uni0E54" unicode="&#xe54;" horiz-adv-x="581" 
d="M548 0h-54q-102 0 -150 51q-51 -51 -116 -51h-47q-58 33 -98.5 95t-40.5 144q0 114 66.5 178.5t194.5 64.5h76q69 0 93.5 12t24.5 59v37h60q6 -22 7 -50q0 -18 -3 -36q-8 -45 -48.5 -64.5t-125.5 -19.5h-73q-198 0 -198 -183q0 -55 25.5 -101.5t70.5 -74.5h21q46 0 85 31
q-17 28 -17 67q0 61 38 91.5t102 30.5q24 0 49 -5v-52h-33q-40 0 -63 -18.5t-23 -53.5q0 -48 30 -71t96 -23h51v-58z" />
    <glyph glyph-name="uni0E55" unicode="&#xe55;" horiz-adv-x="587" 
d="M554 0h-54q-102 0 -151 51q-51 -51 -115 -51h-53q-58 33 -98.5 95t-40.5 144q0 98 49 160t145 76q-11 20 -11 44q0 42 29.5 69t75.5 27t75 -25.5t29 -70.5q0 -21 -9 -36q43 1 60 15t17 55v37h61q6 -32 6 -58q0 -35 -13.5 -58t-39.5 -34.5t-53.5 -15.5t-64.5 -4h-92
q-190 0 -190 -183q0 -55 25.5 -101.5t70.5 -74.5h27q46 0 85 31q-17 28 -17 67q0 61 38 91.5t102 30.5q24 0 49 -5v-52h-34q-40 0 -62.5 -18.5t-22.5 -53.5q0 -49 29.5 -71.5t96.5 -22.5h51v-58zM330 471q22 0 35 12.5t13 35.5t-13 35.5t-35 12.5t-35.5 -12.5t-13.5 -35.5
t13.5 -35.5t35.5 -12.5z" />
    <glyph glyph-name="uni0E56" unicode="&#xe56;" horiz-adv-x="609" 
d="M70 231h76q-10 -27 -10 -63q0 -52 43.5 -85.5t122.5 -33.5q89 0 139.5 49.5t50.5 143.5q0 83 -45.5 135t-125.5 52q-116 0 -174 -78h-61q-13 81 -75 239h78l48 -174q31 33 82.5 53.5t112.5 20.5q101 0 168 -69.5t67 -178.5q0 -122 -72 -188t-194 -66q-108 0 -174 46.5
t-66 129.5q0 38 9 67z" />
    <glyph glyph-name="uni0E57" unicode="&#xe57;" horiz-adv-x="772" 
d="M635 137v473h72v-467q0 -154 -142 -154q-70 0 -122 21v328q0 91 -61 91q-63 0 -63 -84v-61h-61v61q0 84 -63 84q-61 0 -61 -91v-192q0 -98 87 -98q44 0 75 11v-55q-38 -15 -86 -15q-150 0 -150 153v201q0 73 34 110t90 37q37 0 64.5 -19t39.5 -50q12 31 41 50t66 19
q54 0 86.5 -36.5t32.5 -110.5v-290q22 -6 45 -6q44 0 60 21t16 69z" />
    <glyph glyph-name="uni0E58" unicode="&#xe58;" horiz-adv-x="649" 
d="M216 0h-38q-57 34 -96.5 95.5t-39.5 143.5q0 114 66.5 178.5t194.5 64.5h122q50 0 69.5 14.5t19.5 56.5v37h60q7 -27 7 -57q0 -113 -148 -113h-127q-190 0 -190 -183q0 -55 24.5 -102t68.5 -74h11q38 0 63.5 32t30.5 83h60q4 -55 28.5 -89.5t72.5 -34.5q69 0 69 97
q0 53 -18 75.5t-57 22.5q-16 0 -36 -5v56q16 4 44 4q68 0 99.5 -38t31.5 -117q0 -155 -128 -155q-56 0 -91 29t-44 81q-15 -50 -49 -76t-80 -26z" />
    <glyph glyph-name="uni0E59" unicode="&#xe59;" horiz-adv-x="632" 
d="M530 0h-70l-177 355q-18 37 -35.5 54t-47.5 17q-66 0 -66 -95v-178q0 -105 89 -105q38 0 71 12v-56q-39 -15 -83 -15q-151 0 -151 161v185q0 79 37 117t95 38q75 0 120 -60q39 60 102 60q46 0 67 -29t21 -75v-36q26 0 36 11.5t10 44.5v164h63v-160q0 -59 -27 -85t-85 -26
h-50v70q0 64 -42 64q-43 0 -68 -47z" />
    <glyph glyph-name="uni0E5B" unicode="&#xe5b;" horiz-adv-x="1185" 
d="M1147 230v-54q-52 0 -100.5 31.5t-65.5 88.5l-33 -173h-58l-86 201l-43 -226h-56l-91 228q-3 -39 -15.5 -78.5t-37 -79.5t-57.5 -70.5t-82 -49.5t-107 -19q-110 0 -183.5 66t-73.5 193q0 119 62 179t153 60q77 0 127 -42.5t50 -122.5q0 -74 -49 -112.5t-121 -38.5v59
q41 0 70.5 23t29.5 69q0 104 -106 104q-66 0 -105 -43t-39 -135q0 -99 50 -148t135 -49q114 0 180 88t66 213q0 33 -4 58h67l102 -254l40 217h58l85 -205l34 177h56q0 -58 43 -105.5t105 -49.5z" />
    <glyph glyph-name="endash" unicode="&#x2013;" horiz-adv-x="473" 
d="M438 274h-403v61h403v-61z" />
    <glyph glyph-name="emdash" unicode="&#x2014;" horiz-adv-x="786" 
d="M751 274h-716v61h716v-61z" />
    <glyph glyph-name="quoteleft" unicode="&#x2018;" horiz-adv-x="226" 
d="M140 657l33 -12q-19 -19 -35.5 -52.5t-16.5 -60.5q21 1 36 -13.5t15 -37.5t-15.5 -37.5t-39.5 -14.5q-29 0 -44 18t-15 45q0 91 82 165z" />
    <glyph glyph-name="quoteright" unicode="&#x2019;" horiz-adv-x="226" 
d="M86 429l-33 13q19 19 35.5 52.5t16.5 60.5q-20 -2 -35.5 13t-15.5 38t15.5 37t39.5 14q29 0 44 -17.5t15 -44.5q0 -89 -82 -166z" />
    <glyph glyph-name="quotesinglbase" unicode="&#x201a;" horiz-adv-x="226" 
d="M86 -127l-33 13q19 19 35.5 52.5t16.5 60.5q-20 -2 -35.5 13t-15.5 38t15.5 37.5t39.5 14.5q29 0 44 -18t15 -45q0 -89 -82 -166z" />
    <glyph glyph-name="quotedblleft" unicode="&#x201c;" horiz-adv-x="383" 
d="M297 657l33 -12q-19 -19 -35.5 -52.5t-16.5 -60.5q21 1 36 -13.5t15 -37.5t-15 -37.5t-40 -14.5q-29 0 -44 18t-15 45q0 91 82 165zM140 657l33 -12q-19 -19 -35.5 -52.5t-16.5 -60.5q21 1 36 -13.5t15 -37.5t-15.5 -37.5t-39.5 -14.5q-29 0 -44 18t-15 45q0 91 82 165z
" />
    <glyph glyph-name="quotedblright" unicode="&#x201d;" horiz-adv-x="383" 
d="M85 429l-32 13q19 19 35.5 52.5t16.5 60.5q-20 -2 -35.5 13t-15.5 38t15 37t40 14q29 0 44 -17.5t15 -44.5q0 -49 -25.5 -93t-57.5 -73zM243 429l-33 13q19 19 35.5 52.5t16.5 60.5q-20 -2 -35.5 13t-15.5 38t15 37t40 14q29 0 44 -17.5t15 -44.5q0 -89 -82 -166z" />
    <glyph glyph-name="quotedblbase" unicode="&#x201e;" horiz-adv-x="378" 
d="M86 -127l-33 13q19 19 35.5 52.5t16.5 60.5q-20 -2 -35.5 13t-15.5 38t15.5 37.5t39.5 14.5q29 0 44 -18t15 -45q0 -89 -82 -166zM242 -127l-32 13q52 59 52 113q-20 -2 -35.5 13t-15.5 38t15 37.5t40 14.5q29 0 44 -18t15 -45q0 -49 -25.5 -93t-57.5 -73z" />
    <glyph glyph-name="dagger" unicode="&#x2020;" horiz-adv-x="490" 
d="M277 -260h-64v642h-175v60h175v208h64v-208h175v-60h-175v-642z" />
    <glyph glyph-name="daggerdbl" unicode="&#x2021;" horiz-adv-x="490" 
d="M277 -260h-64v207h-175v61h175v374h-175v60h175v208h64v-208h175v-60h-175v-374h175v-61h-175v-207z" />
    <glyph glyph-name="bullet" unicode="&#x2022;" horiz-adv-x="360" 
d="M60 315q0 48 34 83.5t86 35.5t86 -35.5t34 -83.5t-34 -83.5t-86 -35.5t-86 35.5t-34 83.5z" />
    <glyph glyph-name="ellipsis" unicode="&#x2026;" horiz-adv-x="678" 
d="M171 48q0 -24 -17 -40t-41 -16t-41 16t-17 40t17 40.5t41 16.5t41 -16.5t17 -40.5zM397 48q0 -24 -17 -40t-41 -16t-41 16t-17 40t17 40.5t41 16.5t41 -16.5t17 -40.5zM623 48q0 -24 -17 -40t-41 -16t-41 16t-17 40t17 40.5t41 16.5t41 -16.5t17 -40.5z" />
    <glyph glyph-name="perthousand" unicode="&#x2030;" horiz-adv-x="1027" 
d="M153 0h-61l448 610h60zM185 329q-65 0 -101.5 40.5t-36.5 105.5t36.5 105.5t101.5 40.5t101.5 -40.5t36.5 -105.5t-36.5 -105.5t-101.5 -40.5zM185 372q42 0 64.5 27.5t22.5 75.5t-22.5 75.5t-64.5 27.5t-64.5 -27.5t-22.5 -75.5t22.5 -75.5t64.5 -27.5zM507 -11
q-65 0 -101.5 40.5t-36.5 105.5t36.5 105.5t101.5 40.5t101.5 -40.5t36.5 -105.5t-36.5 -105.5t-101.5 -40.5zM507 32q42 0 64.5 27.5t22.5 75.5t-22.5 75.5t-64.5 27.5t-64.5 -27.5t-22.5 -75.5t22.5 -75.5t64.5 -27.5zM850 -11q-65 0 -101.5 40.5t-36.5 105.5t36.5 105.5
t101.5 40.5t101.5 -40.5t36.5 -105.5t-36.5 -105.5t-101.5 -40.5zM850 32q42 0 64.5 27.5t22.5 75.5t-22.5 75.5t-64.5 27.5t-64.5 -27.5t-22.5 -75.5t22.5 -75.5t64.5 -27.5z" />
    <glyph glyph-name="guilsinglleft" unicode="&#x2039;" horiz-adv-x="280" 
d="M237 62h-74l-138 209l138 212h74l-140 -211z" />
    <glyph glyph-name="guilsinglright" unicode="&#x203a;" horiz-adv-x="280" 
d="M116 62h-73l140 210l-140 211h73l139 -212z" />
    <glyph glyph-name="fraction" unicode="&#x2044;" horiz-adv-x="248" 
d="M-73 0h-61l457 610h59z" />
    <glyph glyph-name="Euro" unicode="&#x20ac;" horiz-adv-x="612" 
d="M562 115l14 -70q-64 -60 -162 -60q-102 0 -174 61t-95 169h-85v49h79q-3 36 -3 40l3 45h-79v49h87q24 105 95 164t169 59q94 0 157 -57l-13 -67q-60 60 -137 60q-73 0 -123 -41t-70 -118h237l-10 -49h-236q-3 -21 -3 -45q0 -16 2 -40h225l-10 -49h-206q20 -81 71.5 -123
t125.5 -42q80 0 141 65z" />
    <glyph glyph-name="trademark" unicode="&#x2122;" horiz-adv-x="766" 
d="M722 280h-57l-22 170l-3 75l-93 -245h-53l-93 245l-3 -75l-21 -170h-58l42 330h61l99 -257l98 257h62zM194 280h-59v280l-105 -1v51h269v-51l-105 1v-280z" />
    <glyph glyph-name="Omega" unicode="&#x2126;" horiz-adv-x="682" 
d="M617 0h-228v56q169 136 169 288q0 93 -50.5 153.5t-166.5 60.5t-166.5 -60.5t-50.5 -153.5q0 -81 47 -155.5t122 -132.5v-56h-228v59h149q-71 43 -119.5 122t-48.5 167q0 121 73.5 197.5t221.5 76.5t221.5 -76.5t73.5 -197.5q0 -88 -48.5 -167t-119.5 -122h149v-59z" />
    <glyph glyph-name="estimated" unicode="&#x212e;" horiz-adv-x="856" 
d="M687 130h58q-56 -65 -136.5 -102t-174.5 -37q-165 0 -279.5 105t-114.5 253q0 150 113 254.5t277 104.5t277 -104.5t113 -254.5v-14h-628q-5 0 -5 -4v-185q0 -18 8 -29q85 -96 240 -96q156 0 252 109zM673 365v186q0 24 -11 36q-93 91 -231 91q-141 0 -235 -97
q-9 -9 -9 -29v-187q0 -6 5 -6h476q5 0 5 6z" />
    <glyph glyph-name="partialdiff" unicode="&#x2202;" horiz-adv-x="568" 
d="M190 606v59q139 0 232.5 -105t93.5 -263q0 -150 -66 -229.5t-178 -79.5q-102 0 -165.5 61t-63.5 160q0 89 55.5 149t160.5 60q56 0 105 -21t78 -47q-4 105 -77.5 179.5t-174.5 76.5zM442 284q-68 76 -172 76q-76 0 -113.5 -45t-37.5 -113q0 -72 44.5 -114t107.5 -42
q45 0 79 21t52.5 57t28 75.5t11.5 84.5z" />
    <glyph glyph-name="Delta" unicode="&#x2206;" horiz-adv-x="612" 
d="M481 65l-175 505l-175 -505h350zM562 0h-512v52l214 598h84l214 -598v-52z" />
    <glyph glyph-name="product" unicode="&#x220f;" horiz-adv-x="646" 
d="M562 -215h-74v802h-330v-802h-74v865h478v-865z" />
    <glyph glyph-name="summation" unicode="&#x2211;" horiz-adv-x="542" 
d="M497 -215h-457v51l251 377l-240 380v57h430v-69h-334l223 -344v-40l-229 -342h356v-70z" />
    <glyph glyph-name="minus" unicode="&#x2212;" horiz-adv-x="522" 
d="M474 279h-426v61h426v-61z" />
    <glyph glyph-name="uni2219" unicode="&#x2219;" horiz-adv-x="230" 
d="M115 348q26 0 42.5 -16t16.5 -41t-16.5 -41.5t-42.5 -16.5t-42.5 16.5t-16.5 41.5t16.5 41t42.5 16z" />
    <glyph glyph-name="radical" unicode="&#x221a;" horiz-adv-x="491" 
d="M305 -64h-80l-118 335h-83v60h128l108 -327l137 646h60z" />
    <glyph glyph-name="infinity" unicode="&#x221e;" horiz-adv-x="697" 
d="M350 300q20 49 63.5 86t94.5 37q73 0 118.5 -44.5t45.5 -119.5q0 -79 -46.5 -123.5t-111.5 -44.5q-110 0 -168 123q-20 -49 -63 -86t-94 -37q-73 0 -118.5 44.5t-45.5 119.5q0 79 46.5 123.5t111.5 44.5q109 0 167 -123zM330 262q-17 44 -55 77t-83 33q-57 0 -82.5 -36.5
t-25.5 -81.5q0 -43 27 -78.5t80 -35.5q46 0 82.5 35.5t56.5 86.5zM368 261q17 -48 54.5 -83.5t83.5 -35.5q56 0 81.5 36.5t25.5 81.5q0 43 -27.5 78.5t-80.5 35.5q-43 0 -80 -33.5t-57 -79.5z" />
    <glyph glyph-name="integral" unicode="&#x222b;" horiz-adv-x="373" 
d="M40 -217v54q45 -3 49 -3q34 0 46.5 16.5t12.5 57.5v611q0 61 25 102t85 41q45 0 75 -10v-54q-45 3 -49 3q-34 0 -46.5 -16.5t-12.5 -57.5v-611q0 -61 -25 -102t-85 -41q-45 0 -75 10z" />
    <glyph glyph-name="approxequal" unicode="&#x2248;" horiz-adv-x="522" 
d="M455 271v-66q-53 -45 -103 -45q-36 0 -95 29.5t-88 29.5q-47 0 -102 -52v66q56 44 102 44q37 0 96 -29.5t88 -29.5q49 0 102 53zM455 443v-66q-53 -45 -103 -45q-36 0 -95 29.5t-88 29.5q-47 0 -102 -52v66q56 44 102 44q37 0 96 -29.5t88 -29.5q49 0 102 53z" />
    <glyph glyph-name="notequal" unicode="&#x2260;" horiz-adv-x="522" 
d="M470 191h-234l-98 -191h-58l97 191h-125v59h155l58 111h-213v58h242l90 175h59l-90 -175h117v-58h-147l-57 -111h204v-59z" />
    <glyph glyph-name="lessequal" unicode="&#x2264;" horiz-adv-x="522" 
d="M462 92l-432 212v56l432 212v-62l-368 -178l368 -178v-62zM462 0h-432v52h432v-52z" />
    <glyph glyph-name="greaterequal" unicode="&#x2265;" horiz-adv-x="522" 
d="M492 304l-432 -212v62l367 178l-367 178v62l432 -212v-56zM492 0h-432v52h432v-52z" />
    <glyph glyph-name="lozenge" unicode="&#x25ca;" horiz-adv-x="560" 
d="M280 75l163 250l-163 251l-163 -251zM308 0h-55l-211 325l211 325h54l211 -325z" />
    <glyph glyph-name="uni0E10.alt1" unicode="&#xf700;" horiz-adv-x="582" 
d="M263 0h-63l-92 202q-24 49 -44 82h87l98 -224q82 9 143.5 70.5t61.5 160.5q0 204 -208 204q-106 0 -208 -49v67q98 46 214 46q72 0 136 -28l62 63h94l-104 -96q90 -76 90 -207q0 -123 -79.5 -199t-187.5 -92z" />
    <glyph glyph-name="uni0E34.alt1" unicode="&#xf701;" 
d="M-208 643h-416v62h416v-62z" />
    <glyph glyph-name="uni0E35.alt1" unicode="&#xf702;" 
d="M-208 643h-416v62h346l-3 110h73v-172z" />
    <glyph glyph-name="uni0E36.alt1" unicode="&#xf703;" 
d="M-292 643h-332v62h239q-8 21 -8 37q0 39 29.5 65t71.5 26q47 0 75 -27.5t28 -67.5t-28 -67.5t-75 -27.5zM-239 738q0 24 -14.5 38t-38.5 14t-38.5 -14t-14.5 -38t14.5 -38t38.5 -14t38.5 14t14.5 38z" />
    <glyph glyph-name="uni0E37.alt1" unicode="&#xf704;" 
d="M-208 643h-416v62h225l-2 110h66v-113h63l-3 113h67v-172z" />
    <glyph glyph-name="uni0E48.alt1" unicode="&#xf705;" 
d="M-296 643h-73v202h73v-202z" />
    <glyph glyph-name="uni0E49.alt1" unicode="&#xf706;" 
d="M-227 643h-301v47q100 24 100 81q0 36 -43 36q-28 0 -54 -10v53q42 11 70 11q93 0 93 -76q0 -52 -54 -84l189 3v-61z" />
    <glyph glyph-name="uni0E4A.alt1" unicode="&#xf707;" 
d="M-176 643h-150v58q0 55 -32 55q-34 0 -42 -51h-54q-8 51 -42 51q-33 0 -33 -55v-58h-70v63q0 50 23 80.5t68 30.5q60 0 80 -57q22 57 82 57q48 0 71.5 -32t17.5 -86l81 3v-59z" />
    <glyph glyph-name="uni0E4B.alt1" unicode="&#xf708;" 
d="M-228 741l-107 3l2 -101h-71l2 101l-107 -3v60l107 -2l-2 100h71l-2 -100l107 2v-60z" />
    <glyph glyph-name="uni0E4C.alt1" unicode="&#xf709;" 
d="M-208 723h-134q-28 0 -41 -9.5t-13 -34.5q0 -21 9 -43h-74q-12 28 -12 54q0 96 119 96h146v-63z" />
    <glyph glyph-name="uni0E48.alt2" unicode="&#xf70a;" 
d="M-74 643h-73v202h73v-202z" />
    <glyph glyph-name="uni0E49.alt2" unicode="&#xf70b;" 
d="M-10 643h-298v47q99 24 99 81q0 36 -42 36q-28 0 -54 -10v53q42 11 70 11q93 0 93 -76q0 -52 -54 -84l186 3v-61z" />
    <glyph glyph-name="uni0E4A.alt2" unicode="&#xf70c;" 
d="M-30 643h-153v58q0 55 -32 55q-34 0 -42 -51h-54q-8 51 -42 51q-33 0 -33 -55v-58h-70v63q0 50 23 80.5t68 30.5q61 0 80 -57q23 57 82 57q48 0 71.5 -32t17.5 -86l84 3v-59z" />
    <glyph glyph-name="uni0E4B.alt2" unicode="&#xf70d;" 
d="M-59 741l-107 3l2 -101h-71l2 101l-107 -3v60l107 -2l-2 100h71l-2 -100l107 2v-60z" />
    <glyph glyph-name="uni0E4C.alt2" unicode="&#xf70e;" 
d="M-25 723h-136q-28 0 -41 -9.5t-13 -34.5q0 -21 9 -43h-74q-13 27 -13 54q0 96 120 96h148v-63z" />
    <glyph glyph-name="uni0E0D.alt1" unicode="&#xf70f;" horiz-adv-x="981" 
d="M832 188v359h75v-362q0 -97 -58.5 -147t-165.5 -50t-165.5 50t-58.5 147v145q0 89 -35.5 127t-117.5 38q-80 0 -154 -22v-333q0 -52 18 -70.5t59 -18.5q39 0 71 13v-62q-36 -13 -83 -13q-141 0 -141 144v386q128 40 236 40q223 0 223 -224v-147q0 -136 148 -136
q149 0 149 136z" />
    <glyph glyph-name="uni0E31.alt1" unicode="&#xf710;" 
d="M-188 643h-235q-119 0 -119 92q0 21 11 54h70q-8 -27 -8 -42q0 -24 13 -33t41 -9h227v-62z" />
    <glyph glyph-name="uni0E4D.alt1" unicode="&#xf711;" 
d="M-280 725q0 26 -16.5 41.5t-42.5 15.5t-42.5 -15.5t-16.5 -41.5t16.5 -41.5t42.5 -15.5t42.5 15.5t16.5 41.5zM-222 725q0 -46 -32 -77t-85 -31t-85 31t-32 77t32 77t85 31t85 -31t32 -77z" />
    <glyph glyph-name="uni0E47.alt1" unicode="&#xf712;" 
d="M-220 643h-72q-32 0 -57.5 17t-36.5 47q-30 -68 -96 -68q-55 0 -87 33t-32 90q0 60 38 91t107 31h236v-56h-233q-83 0 -83 -66q0 -34 18 -50.5t42 -16.5q54 0 64 62h52q9 -57 74 -57h66v-57z" />
    <glyph glyph-name="uni0E48.alt3" unicode="&#xf713;" 
d="M-208 869h-72v161h72v-161z" />
    <glyph glyph-name="uni0E49.alt3" unicode="&#xf714;" 
d="M-143 869h-277v42q37 7 63.5 26t26.5 47q0 34 -40 34q-25 0 -47 -9v49q27 11 64 11q82 0 82 -72q0 -48 -46 -76l174 4v-56z" />
    <glyph glyph-name="uni0E4A.alt3" unicode="&#xf715;" 
d="M-162 869h-137v51q0 24 -5.5 36t-21.5 12q-30 0 -38 -45h-47q-7 45 -38 45q-16 0 -21.5 -12t-5.5 -36v-51h-64v56q0 45 20 72.5t60 27.5q55 0 72 -53q20 53 73 53q42 0 62.5 -28t15.5 -76l75 2v-54z" />
    <glyph glyph-name="uni0E4B.alt3" unicode="&#xf716;" 
d="M-121 957l-95 2l2 -90h-64l2 90l-95 -2v56l95 -2l-2 91h64l-2 -91l95 2v-56z" />
    <glyph glyph-name="uni0E4C.alt3" unicode="&#xf717;" 
d="M-149 860h-135q-26 0 -37.5 -8.5t-11.5 -31.5q0 -22 8 -40h-68q-11 27 -11 50q0 88 109 88h146v-58z" />
    <glyph glyph-name="uni0E38.alt1" unicode="&#xf718;" 
d="M-74 -459h-72v96q0 42 -42 42q-20 0 -41 -7v57q31 9 68 9q87 0 87 -87v-110z" />
    <glyph glyph-name="uni0E39.alt1" unicode="&#xf719;" 
d="M-143 -356v86h69v-94q0 -55 -40.5 -81t-104.5 -26t-104.5 26t-40.5 81v44h-61v50h130v-86q0 -32 17.5 -44.5t58.5 -12.5t58.5 12.5t17.5 44.5z" />
    <glyph glyph-name="uni0E3A.alt1" unicode="&#xf71a;" 
d="M-55 -317q0 -24 -16.5 -40t-40.5 -16t-41.5 16t-17.5 40t17 39.5t42 15.5q24 0 40.5 -15.5t16.5 -39.5z" />
    <glyph glyph-name="uni0E0E.alt1" unicode="&#xf71b;" horiz-adv-x="655" 
d="M581 -213h-67l-151 48q-62 22 -96 22t-54 -17t-20 -52h-66q0 63 38.5 96.5t100.5 33.5q47 0 114 -23l125 -45v483q0 88 -34.5 125t-118.5 37q-73 0 -154 -22v-351q0 -133 -116 -133q-38 0 -64 7v63q24 -8 48 -8q56 0 56 73v395q128 40 235 40q113 0 168.5 -54t55.5 -167
v-551z" />
    <glyph glyph-name="uni0E0F.alt1" unicode="&#xf71c;" horiz-adv-x="655" 
d="M581 -213h-80q-122 0 -145 77q-12 -36 -45.5 -57.5t-84.5 -21.5q-58 0 -100 23v67q47 -32 97 -32q81 0 100 84h64q21 -79 100 -79h18v485q0 88 -34.5 125t-118.5 37q-73 0 -154 -22v-351q0 -133 -116 -133q-38 0 -64 7v63q24 -8 48 -8q56 0 56 73v395q128 40 235 40
q113 0 168.5 -54t55.5 -167v-551z" />
    <glyph glyph-name="uni0E2C.alt1" unicode="&#xf71d;" horiz-adv-x="681" 
d="M605 0h-80l-187 295l-183 -295h-79v547h74v-323q0 -78 -8 -147h2q39 78 74 132l91 147h60l93 -148q42 -64 75 -131h2q-8 54 -8 147v130q0 51 -18.5 70t-59.5 19q-34 0 -72 -10v57q32 13 80 13l82 91h85l-98 -102q75 -27 75 -132v-360z" />
    <glyph glyph-name="uniF8FF" unicode="&#xf8ff;" horiz-adv-x="1170" 
d="M585 832l485 -277v-555l-485 -276l-485 276v555zM1017 548l-403 231l310 -479zM556 779l-403 -231l93 -248zM129 532v-514l98 251v2zM153 0l403 -230l-310 469zM585 770l-324 -501l324 -492l324 492zM614 -230l404 230l-94 239zM1041 18v514l-98 -263zM415 300
q1 -2 5 -4.5t4 -3.5q0 -5 1 -8q-30 -35 -62 -35q18 12 52 51zM450 199q8 0 10.5 -14t-1.5 -27q-8 -25 -35 -25q-13 1 -22 11.5t-11 20t-4 23.5t-2 15q-1 3 -3 42h1q19 7 39 27q6 -32 -2 -71q-7 -38 7 -44q9 -2 12 11q1 6 -6 17q-1 4 6 9t11 5zM558 212l7 18l1 -42l-15 9
q5 9 7 15zM765 173q1 3 5 8t5 9q2 -8 -2 -20q-7 -18 -7 -44q4 -19 -2 -22q2 6 -1 16q-5 11 -3 30q4 20 5 23zM553 125q2 -2 6 -2t7 1l2 1q0 -3 1.5 -13.5t-0.5 -10.5q-3 12 -13 9q-3 0 -7 -8q-2 8 -8 8q-5 0 -10 -9l-4 6l-6 3q-4 0 -10 -9q-2 7 2 22l-1 32q8 -4 16.5 -10
t15.5 -12.5t9 -7.5zM576 168q2 2 10 2q1 -4 -2 -13q-8 6 -8 11zM568 155q4 3 13 -2l-2 -4q-1 -2 -2.5 -3.5t-1.5 -2.5q-7 5 -7 12zM560 140l2 1q2 1 10 -3q-4 -4 -9 -6q-5 5 -3 8zM558 106q5 2 7 -6q-2 -4 -13 -6q2 12 6 12zM541 105q2 0 6 -11h-6h-8q0 11 8 11zM522 106
l2 -2q4 -4 4 -9q-10 2 -13 4l4.5 6t2.5 1zM748 106q3 1 7 -6q-5 -5 -14 -6q3 12 7 12zM730 105q5 0 7 -11h-6h-8q2 11 7 11zM710 106l3 -1q3 -3 5 -10q-3 1 -8 2t-6 2q1 3 2 4.5t2 2t2 0.5zM798 241q6 -11 6 -24l-5 -26q-1 1 -3 4t-5 15t-2 28q2 50 -7 71q-9 -45 -13 -59
q-5 -15 2 -45q1 -4 -0.5 -8t-5.5 -10t-6 -11q-6 -16 -6 -31q0 -19 6 -33q2 -8 0 -10q-7 9 -12 8q-4 0 -8 -8q-2 8 -9 8q-5 0 -10 -7l-2 6l-7 2q-4 0 -11 -9q-2 4 -1 9q13 56 5 72q-2 5 -14 19t-20.5 30t-9.5 32q-5 -3 0 -21q-38 -5 -86 10q1 8 5 19q-11 -9 -18 -34
q-3 -12 -16 -38q-3 -8 21 -20q11 -2 15 -5q-6 0 -9 -5v-2q0 -3 4 -9q-8 2 -10 -2l-1 -4q0 -5 3 -8h-7l-5 -2q-2 -7 2 -12q-1 1 -3 2t-4.5 2.5t-4.5 3.5q-29 26 -44 29q-16 6 -15 32q13 94 13 95q-4 -2 -8 -13l-16 25q6 4 14 17l10 -15l4 3l2 3l5 7.5t4 7.5q5 12 7 27
q1 6 3 12l3 7q19 43 1 62q-8 8 -19.5 10.5t-18.5 1.5l-7 -2q27 0 39 -14q8 -9 8 -22q0 -4 -9 -34l-3 -7q0 -1 -1.5 -5.5l-2.5 -7.5q-1 -12 -5 -26q-6 -9 -9 -13l-11 18l-3 -5q-8 -16 -16 -21q-18 -8 -21 -11q-7 -7 -9 -16q-1 -3 -3.5 -5.5t-4.5 -3.5l-2 -1q0 3 -1 8v14
l-16 13l-3 -2q-14 -20 -33 -38q0 1 -1 3.5t-1 3.5q-5 -8 -26 -9q10 8 16 14t7 9l1 2v49q-3 29 0 45q2 8 12 39q4 9 10 14t10 5l5 1q16 22 33 24q15 2 36 -0.5t29 -1.5q4 1 21 4t33 5t26 1q92 -13 128 -41q22 -18 32.5 -28t25.5 -35t18 -53zM450 383l9 12q-8 4 -15 -4
q-3 -2 -4 -6.5t0 -8.5l1 -3q6 6 9 10zM521 423q-4 7 -10.5 10t-11.5 2l-5 -1q18 -5 22 -16l1 -27q1 2 3 5t4 11.5t-3 15.5z" />
    <glyph glyph-name="NULL" 
 />
    <glyph glyph-name="CR" horiz-adv-x="264" 
 />
    <glyph glyph-name="uni0E33.alt1" horiz-adv-x="513" 
d="M418 0h-76v350q0 79 -34 112t-105 33q-93 0 -181 -51v67q86 48 191 48q91 0 148 -48.5t57 -152.5v-358zM-280 725q0 26 -16.5 41.5t-42.5 15.5t-42.5 -15.5t-16.5 -41.5t16.5 -41.5t42.5 -15.5t42.5 15.5t16.5 41.5zM-222 725q0 -46 -32 -77t-85 -31t-85 31t-32 77t32 77
t85 31t85 -31t32 -77z" />
    <glyph glyph-name="uni0E4E.alt1" 
 />
    <glyph glyph-name="uni0E01.alt" horiz-adv-x="640" 
d="M566 0h-76v341q0 86 -41 120t-135 34q-40 0 -77 -6q-46 -44 -64.5 -85.5t-18.5 -124.5v-279h-76v274q0 68 20.5 116t65.5 90l-108 -16v45q114 50 259 50q251 0 251 -208v-351z" />
    <glyph glyph-name="uni0E2B.alt" horiz-adv-x="636" 
d="M564 0h-76v194q0 78 -33 109t-92 31q-106 0 -211 -57v-277h-76v547h76v-209q107 59 217 59q3 0 9 -0.5t9 -0.5l92 151h85l-104 -167q104 -39 104 -178v-202z" />
    <glyph glyph-name="uni0E2D.alt" horiz-adv-x="618" 
d="M566 270q0 -143 -78 -212.5t-204 -69.5q-130 0 -224 47v260h76v-220q52 -23 143 -23q211 0 211 218q0 225 -221 225q-108 0 -211 -48v70q102 42 216 42q141 0 216.5 -77t75.5 -212z" />
    <glyph glyph-name="zero.tab" horiz-adv-x="612" 
d="M306 -12q-118 0 -185.5 82.5t-67.5 234.5t67.5 234.5t185.5 82.5t185.5 -82.5t67.5 -234.5t-67.5 -234.5t-185.5 -82.5zM306 559q-89 0 -133 -66t-44 -188t44 -188t133 -66t133 66t44 188t-44 188t-133 66z" />
    <glyph glyph-name="one.tab" horiz-adv-x="612" 
d="M383 0h-75v531q-53 -73 -161 -68v63q108 -4 169 84h67v-610z" />
    <glyph glyph-name="two.tab" horiz-adv-x="612" 
d="M508 0h-416v57q170 107 250 195.5t80 175.5q0 62 -38.5 96t-114.5 34q-83 0 -163 -37v68q68 32 169 32q113 0 168 -54.5t55 -137.5q0 -179 -299 -365h309v-64z" />
    <glyph glyph-name="three.tab" horiz-adv-x="612" 
d="M97 23v66q87 -37 179 -37q151 0 151 119q0 120 -207 115v61q190 -5 190 115q0 96 -136 96q-91 0 -165 -36v65q74 34 175 34q90 0 145.5 -38t55.5 -117q0 -113 -114 -147v-2q58 -9 95 -47.5t37 -102.5q0 -90 -59.5 -134t-158.5 -44q-116 0 -188 34z" />
    <glyph glyph-name="four.tab" horiz-adv-x="612" 
d="M456 0h-75v127h-324v56l320 427h79v-421h94v-62h-94v-127zM381 189v327l-241 -327h241z" />
    <glyph glyph-name="five.tab" horiz-adv-x="612" 
d="M94 18v66q86 -32 169 -32q94 0 136.5 31.5t42.5 103.5q0 67 -45 97t-135 30q-79 0 -154 -15l13 311h362v-64h-295l-8 -178q61 8 105 8q114 0 173.5 -50.5t59.5 -137.5q0 -98 -63.5 -148.5t-186.5 -50.5q-100 0 -174 29z" />
    <glyph glyph-name="six.tab" horiz-adv-x="612" 
d="M472 594v-63q-60 28 -119 28q-93 0 -145.5 -64.5t-54.5 -184.5q28 37 78 61t108 24q103 0 153 -55.5t50 -141.5q0 -97 -59.5 -153t-157.5 -56q-113 0 -179 77t-66 231q0 156 73.5 240t192.5 84q61 0 126 -27zM153 240q6 -86 50.5 -137.5t120.5 -51.5q62 0 104 35t42 110
q0 61 -32.5 100.5t-107.5 39.5q-54 0 -100.5 -25.5t-76.5 -70.5z" />
    <glyph glyph-name="seven.tab" horiz-adv-x="612" 
d="M259 0h-78l236 546h-331v64h413v-55z" />
    <glyph glyph-name="eight.tab" horiz-adv-x="612" 
d="M375 311v-2q76 -14 116 -53.5t40 -98.5q0 -79 -59.5 -124t-168.5 -45q-101 0 -161.5 42t-60.5 117q0 126 162 160v2q-148 32 -148 156q0 70 56 113t151 43q100 0 155.5 -41t55.5 -114q0 -107 -138 -155zM296 278q-64 -15 -103.5 -47t-39.5 -77q0 -108 152 -108
q61 0 107.5 27t46.5 85q0 53 -42 80t-121 40zM321 340q57 22 88.5 49.5t31.5 76.5q0 44 -36.5 71t-102.5 27q-62 0 -98.5 -27.5t-36.5 -71.5q0 -55 38 -83.5t116 -41.5z" />
    <glyph glyph-name="nine.tab" horiz-adv-x="612" 
d="M140 16v63q54 -29 119 -29q93 0 145 64.5t54 184.5q-29 -36 -78 -60t-107 -24q-104 0 -153.5 55.5t-49.5 140.5q0 97 60 153.5t157 56.5q113 0 179 -77.5t66 -230.5q0 -157 -73.5 -240.5t-193.5 -83.5q-65 0 -125 27zM459 370q-6 85 -50.5 137t-120.5 52
q-62 0 -104 -35.5t-42 -109.5q0 -62 32.5 -101t107.5 -39q111 0 177 96z" />
    </font>
</defs>
</svg>
