<?xml version="1.0" standalone="no"?>
<!DOCTYPE svg PUBLIC "-//W3C//DTD SVG 1.1//EN" "http://www.w3.org/Graphics/SVG/1.1/DTD/svg11.dtd" >
<svg xmlns="http://www.w3.org/2000/svg" xmlns:xlink="http://www.w3.org/1999/xlink" version="1.1">
<metadata>
Created by FontForge 20170731 at Mon Nov 25 20:08:45 2013
 By Aleksey,,,
Copyright (c) 2013 by Chorong Kim &#38; Cadson Demak Team for SCG Group. All rights reserved.
</metadata>
<defs>
<font id="SCG-Bold" horiz-adv-x="0" >
  <font-face 
    font-family="SCG"
    font-weight="700"
    font-stretch="normal"
    units-per-em="1000"
    panose-1="2 0 5 3 0 0 0 2 0 4"
    ascent="800"
    descent="-200"
    x-height="450"
    cap-height="610"
    bbox="-670 -480 1182 1104"
    underline-thickness="20"
    underline-position="-173"
    unicode-range="U+0020-FB02"
  />
<missing-glyph horiz-adv-x="555" 
d="M555 0h-555v700h555v-700zM277 395l189 255h-377zM500 95v510l-189 -255zM466 50l-189 255l-188 -255h377zM56 95l188 255l-188 255v-510z" />
    <glyph glyph-name="uni0E5A" unicode="&#xe2f;&#xe2f;" horiz-adv-x="816" 
d="M510 -80h-154v480q-64 -75 -162 -75q-74 0 -114 36.5t-40 109.5q0 43 10 76h129q-9 -25 -9 -56q0 -19 14 -33.5t41 -14.5q90 0 131 104h154v-627zM754 -80h-154v627h154v-627z" />
    <glyph glyph-name="uni0E4F.liga" unicode="&#xe4f;&#x22;" horiz-adv-x="584" 
d="M247 537h-93l-16 223h125zM430 537h-93l-16 223h125zM520 248q0 -97 -67.5 -162t-162.5 -65t-162.5 65t-67.5 162t67.5 161t162.5 64t162.5 -64t67.5 -161zM290 56q80 0 135.5 56t55.5 136q0 78 -56 134t-135 56t-135 -56t-56 -134q0 -80 56 -136t135 -56zM290 156
q38 0 64.5 26.5t26.5 64.5t-26.5 64.5t-64.5 26.5t-64.5 -26.5t-26.5 -64.5t26.5 -64.5t64.5 -26.5zM290 113q-56 0 -95 39.5t-39 95.5q0 54 39 93.5t95 39.5t95 -39.5t39 -93.5q0 -56 -39 -95.5t-95 -39.5z" />
    <glyph glyph-name="uni0E24.liga" unicode="&#xe24;&#xe32;" horiz-adv-x="1032" 
d="M973 -223h-154v536q0 69 -27 101t-91 32q-55 0 -117 -22q17 -48 17 -105v-542h-154v536q0 69 -27 101t-91 32q-60 0 -113 -12v-277q0 -37 12.5 -50.5t50.5 -13.5q36 0 75 14v-105q-44 -18 -115 -18q-177 0 -177 163v371q135 45 271 45q99 0 162 -35q124 35 220 35
q258 0 258 -244v-542z" />
    <glyph glyph-name="uni0E26.liga" unicode="&#xe26;&#xe32;" horiz-adv-x="1043" 
d="M984 -223h-154v536q0 69 -27 101t-91 32q-48 0 -103 -17q15 -45 15 -104v-548h-154v544q0 66 -20.5 95.5t-82.5 29.5q-46 0 -99 -12v-283q0 -89 -38.5 -126t-118.5 -37q-50 0 -95 14v105q27 -10 55 -10q23 0 33 12t10 41v368q135 45 257 45q91 0 150 -30q118 30 205 30
q258 0 258 -244v-542z" />
    <glyph glyph-name="fi" unicode="fi" horiz-adv-x="657" 
d="M246 0h-154v346h-78v104h78v17q0 100 77.5 149.5t238.5 49.5q99 0 187 -22v-113q-98 19 -172 19q-94 0 -135.5 -16.5t-41.5 -66.5v-17h122v-103h-122v-347zM595 0h-152v450h152v-450z" />
    <glyph glyph-name="fl" unicode="fl" horiz-adv-x="657" 
d="M595 0h-154v551q-17 4 -70 4q-67 0 -96 -20.5t-29 -67.5v-17h122v-103h-122v-347h-154v346h-78v104h78v17q0 96 63.5 147.5t209.5 51.5q134 0 230 -22v-644z" />
    <glyph glyph-name=".notdef" horiz-adv-x="555" 
d="M555 0h-555v700h555v-700zM277 395l189 255h-377zM500 95v510l-189 -255zM466 50l-189 255l-188 -255h377zM56 95l188 255l-188 255v-510z" />
    <glyph glyph-name=".null" 
 />
    <glyph glyph-name="nonmarkingreturn" horiz-adv-x="333" 
 />
    <glyph glyph-name="space" unicode=" " horiz-adv-x="250" 
 />
    <glyph glyph-name="exclam" unicode="!" horiz-adv-x="312" 
d="M223 230h-134l-21 380h176zM157 -13q-40 0 -68.5 28t-28.5 68q0 41 28.5 68.5t68.5 27.5q39 0 67 -29t28 -67q0 -41 -27.5 -68.5t-67.5 -27.5z" />
    <glyph glyph-name="quotedbl" unicode="&#x22;" horiz-adv-x="436" 
d="M169 410h-100l-17 240h135zM366 410h-100l-17 240h135z" />
    <glyph glyph-name="numbersign" unicode="#" horiz-adv-x="652" 
d="M430 0h-101l36 167h-144l-34 -167h-101l36 167h-90v96h110l25 122h-95v97h116l34 166h100l-35 -166h144l34 166h101l-36 -166h90v-97h-110l-25 -122h95v-96h-116zM385 263l26 122h-144l-26 -122h144z" />
    <glyph glyph-name="dollar" unicode="$" horiz-adv-x="652" 
d="M365 -100h-80v87q-137 7 -215 71l58 108q74 -59 180 -59q114 0 114 49q0 26 -25 47t-62.5 34t-81 31.5t-81 38.5t-62.5 56.5t-25 83.5q0 77 52 120.5t148 52.5v90h80v-89q124 -9 193 -74l-58 -100q-64 57 -153 57q-47 0 -76.5 -14t-29.5 -40q0 -21 25 -38.5t63 -30
t81.5 -32t81.5 -41.5t63 -61t25 -89q0 -155 -215 -170v-88z" />
    <glyph glyph-name="percent" unicode="%" horiz-adv-x="732" 
d="M644 610l-455 -610h-101l456 610h100zM338 475q0 -64 -41.5 -105.5t-109.5 -41.5t-109.5 41.5t-41.5 105.5t41.5 106.5t109.5 42.5t109.5 -42.5t41.5 -106.5zM187 401q62 0 62 75t-62 75t-62 -75t62 -75zM696 131q0 -64 -41.5 -105.5t-109.5 -41.5t-109.5 41.5
t-41.5 105.5t41.5 106.5t109.5 42.5t109.5 -42.5t41.5 -106.5zM545 57q62 0 62 75t-62 75t-62 -75t62 -75z" />
    <glyph glyph-name="ampersand" unicode="&#x26;" horiz-adv-x="682" 
d="M676 0h-169l-45 44q-91 -60 -199 -60q-103 0 -168 48.5t-65 131.5q0 59 30 96t95 75q-70 57 -70 141q0 69 57 109.5t154 40.5q212 0 212 -173h-141q0 45 -17.5 62.5t-55.5 17.5q-30 0 -48 -16t-18 -40q0 -39 50 -89l177 -175q24 57 24 130h147q0 -121 -79 -220zM379 119
l-142 144q-61 -41 -61 -91q0 -41 32 -61t71 -20q56 0 100 28z" />
    <glyph glyph-name="quotesingle" unicode="'" horiz-adv-x="247" 
d="M173 410h-100l-17 240h135z" />
    <glyph glyph-name="parenleft" unicode="(" horiz-adv-x="324" 
d="M304 -38v-98q-118 34 -189 140.5t-71 258.5t71 258.5t189 140.5v-98q-52 -28 -84.5 -111t-32.5 -190t32.5 -190t84.5 -111z" />
    <glyph glyph-name="parenright" unicode=")" horiz-adv-x="324" 
d="M20 -136v98q52 28 84.5 111t32.5 190t-32.5 190t-84.5 111v98q118 -34 189 -140.5t71 -258.5t-71 -258.5t-189 -140.5z" />
    <glyph glyph-name="asterisk" unicode="*" horiz-adv-x="437" 
d="M352 334l-95 78l16 -116h-109l16 116l-95 -78l-53 81l119 57l-119 60l54 78l94 -75l-16 115h109l-16 -115l94 75l54 -78l-119 -60l119 -57z" />
    <glyph glyph-name="plus" unicode="+" horiz-adv-x="548" 
d="M339 78h-130v181h-171v110h171v181h130v-181h171v-110h-171v-181z" />
    <glyph glyph-name="comma" unicode="," horiz-adv-x="289" 
d="M121 -138l-62 24q63 58 63 103q-30 4 -54 30t-24 65q0 42 27 68.5t71 26.5q52 0 77.5 -30.5t25.5 -72.5q0 -68 -37.5 -124t-86.5 -90z" />
    <glyph glyph-name="hyphen" unicode="-" horiz-adv-x="353" 
d="M323 235h-293v131h293v-131z" />
    <glyph glyph-name="period" unicode="." horiz-adv-x="280" 
d="M141 -13q-40 0 -68.5 28t-28.5 68q0 41 28.5 68.5t68.5 27.5q39 0 67 -29t28 -67q0 -41 -27.5 -68.5t-67.5 -27.5z" />
    <glyph glyph-name="slash" unicode="/" horiz-adv-x="496" 
d="M130 -40h-120l356 690h120z" />
    <glyph glyph-name="zero" unicode="0" horiz-adv-x="652" 
d="M326 -18q-128 0 -206 83.5t-78 238.5t78 238.5t206 83.5t206 -83.5t78 -238.5t-78 -238.5t-206 -83.5zM326 100q128 0 128 204t-128 204t-128 -204t128 -204z" />
    <glyph glyph-name="one" unicode="1" horiz-adv-x="422" 
d="M342 0h-150v459q-52 -57 -170 -55v129q66 -3 120 23t70 54h130v-610z" />
    <glyph glyph-name="two" unicode="2" horiz-adv-x="518" 
d="M480 0h-450v108q165 112 223.5 176t58.5 127q0 95 -105 95q-93 0 -173 -47v132q80 35 186 35q130 0 189 -59t59 -149q0 -47 -21 -92t-60 -83t-74.5 -65.5t-82.5 -57.5h250v-120z" />
    <glyph glyph-name="three" unicode="3" horiz-adv-x="512" 
d="M353 320v-2q57 -11 90 -49t33 -97q0 -90 -70.5 -139t-185.5 -49q-114 0 -186 33v122q26 -15 76.5 -26t87.5 -11q122 0 122 83q0 89 -171 74v110q158 0 158 73q0 66 -113 66q-89 0 -150 -36v120q70 32 186 32q108 0 168 -42t60 -124q0 -107 -105 -138z" />
    <glyph glyph-name="four" unicode="4" horiz-adv-x="575" 
d="M471 0h-150v113h-309v102l305 395h154v-382h84v-115h-84v-113zM321 228v205l-156 -205h156z" />
    <glyph glyph-name="five" unicode="5" horiz-adv-x="534" 
d="M34 15v121q68 -33 160 -33q145 0 145 97q0 86 -149 86q-63 0 -141 -10l12 334h404v-120h-268l-4 -91q15 1 52 1q126 0 188.5 -54t62.5 -144q0 -105 -78.5 -161.5t-204.5 -56.5q-115 0 -179 31z" />
    <glyph glyph-name="six" unicode="6" horiz-adv-x="571" 
d="M479 601v-123q-51 28 -125 28q-82 0 -118.5 -41t-43.5 -117q56 50 145 50q97 0 149.5 -55t52.5 -140q0 -99 -62.5 -158.5t-170.5 -59.5q-125 0 -195.5 79t-70.5 234q0 156 81 241t214 85q75 0 144 -23zM190 227q5 -57 35 -90.5t73 -33.5q39 0 68 22t29 76q0 38 -23 65.5
t-68 27.5q-34 0 -65 -19t-49 -48z" />
    <glyph glyph-name="seven" unicode="7" horiz-adv-x="481" 
d="M246 0h-164l216 490h-286v120h453v-109z" />
    <glyph glyph-name="eight" unicode="8" horiz-adv-x="542" 
d="M403 317v-2q111 -32 111 -146q0 -85 -67.5 -136t-185.5 -51q-109 0 -171 50t-62 128q0 53 28.5 92t84.5 57v2q-100 36 -100 144q0 74 62 122.5t166 48.5q105 0 166.5 -47t61.5 -124q0 -50 -27 -85.5t-67 -52.5zM240 254q-28 -11 -48 -33t-20 -50q0 -39 29.5 -59.5
t69.5 -20.5t69.5 20.5t29.5 62.5q0 59 -130 80zM304 368q22 15 37.5 39t15.5 48q0 27 -23 45.5t-64 18.5q-32 0 -60 -16t-28 -48q0 -70 122 -87z" />
    <glyph glyph-name="nine" unicode="9" horiz-adv-x="571" 
d="M92 8v123q51 -28 125 -28q82 0 118.5 41t43.5 117q-56 -50 -145 -50q-97 0 -149.5 55t-52.5 140q0 99 62.5 158.5t170.5 59.5q125 0 195.5 -79t70.5 -234q0 -156 -81 -241t-214 -85q-75 0 -144 23zM381 382q-5 57 -35 90.5t-73 33.5q-39 0 -68 -22t-29 -76
q0 -38 23 -65.5t68 -27.5q34 0 65 19t49 48z" />
    <glyph glyph-name="colon" unicode=":" horiz-adv-x="312" 
d="M157 -13q-40 0 -68.5 28t-28.5 68q0 41 28.5 68.5t68.5 27.5q39 0 67 -29t28 -67q0 -41 -27.5 -68.5t-67.5 -27.5zM157 320q-40 0 -68.5 28t-28.5 68q0 41 28.5 68.5t68.5 27.5q39 0 67 -29t28 -67q0 -41 -27.5 -68.5t-67.5 -27.5z" />
    <glyph glyph-name="semicolon" unicode=";" horiz-adv-x="312" 
d="M161 320q-40 0 -68.5 28t-28.5 68q0 41 28.5 68.5t68.5 27.5q39 0 67 -29t28 -67q0 -41 -27.5 -68.5t-67.5 -27.5zM134 -138l-62 24q63 58 63 103q-30 4 -54 30t-24 65q0 42 27 68.5t71 26.5q52 0 77.5 -30.5t25.5 -72.5q0 -68 -37.5 -124t-86.5 -90z" />
    <glyph glyph-name="less" unicode="&#x3c;" horiz-adv-x="548" 
d="M488 61l-466 224v96l466 224v-119l-336 -153l336 -153v-119z" />
    <glyph glyph-name="equal" unicode="=" horiz-adv-x="548" 
d="M490 346h-432v108h432v-108zM490 147h-432v108h432v-108z" />
    <glyph glyph-name="greater" unicode="&#x3e;" horiz-adv-x="548" 
d="M526 285l-466 -224v119l336 153l-336 153v119l466 -224v-96z" />
    <glyph glyph-name="question" unicode="?" horiz-adv-x="461" 
d="M262 230h-134q138 132 138 215q0 69 -84 69q-80 0 -146 -32v105q74 39 179 39q87 0 144.5 -38t57.5 -123q0 -100 -155 -235zM193 -13q-40 0 -68.5 28t-28.5 68q0 41 28.5 68.5t68.5 27.5q39 0 67 -29t28 -67q0 -41 -27.5 -68.5t-67.5 -27.5z" />
    <glyph glyph-name="at" unicode="@" horiz-adv-x="756" 
d="M658 146h74q-38 -78 -127 -118.5t-199 -40.5q-164 0 -264 83t-100 235q0 92 40 171.5t126 132t202 52.5q135 0 219.5 -77t84.5 -193q0 -101 -60 -181t-149 -80q-69 0 -78 51q-40 -51 -97 -51q-65 0 -103 43.5t-38 116.5q0 85 51 154t146 69q32 0 58 -12t33 -28l6 31h105
l-50 -253q-5 -20 -5 -33q0 -16 14 -16q30 0 64.5 58.5t34.5 133.5q0 37 -12.5 72.5t-38.5 67.5t-74.5 52t-111.5 20q-80 0 -141 -31.5t-93.5 -80t-48.5 -98t-16 -95.5q0 -49 16.5 -93t50.5 -82.5t94 -61t139 -22.5q158 0 248 104zM433 266l22 125q-21 44 -61 44
q-39 0 -61.5 -40.5t-22.5 -100.5q0 -37 15 -58.5t39 -21.5q42 0 69 52z" />
    <glyph glyph-name="A" unicode="A" horiz-adv-x="684" 
d="M420 248l-43 120l-34 118h-2l-34 -118l-43 -120h156zM682 0h-163l-50 130h-253l-51 -130h-163l251 610h178z" />
    <glyph glyph-name="B" unicode="B" horiz-adv-x="611" 
d="M337 0h-273v610h268q99 0 158.5 -37.5t59.5 -118.5q0 -83 -71 -130v-2q102 -33 102 -147q0 -90 -65.5 -132.5t-178.5 -42.5zM217 366h161q15 28 15 66q0 33 -17.5 47t-61.5 14h-97v-127zM217 117h107q20 0 35 2.5t31 9t24.5 21.5t8.5 37q0 17 -5.5 29t-13.5 18.5t-23 10
t-28 4t-34 0.5h-102v-132z" />
    <glyph glyph-name="C" unicode="C" horiz-adv-x="634" 
d="M594 157v-131q-68 -44 -200 -44q-72 0 -135 20t-112.5 58.5t-78 102t-28.5 143.5q0 149 102.5 234.5t254.5 85.5q110 0 190 -35v-133q-74 48 -176 48q-97 0 -152 -53t-55 -147q0 -96 59.5 -150t154.5 -54q103 0 176 55z" />
    <glyph glyph-name="D" unicode="D" horiz-adv-x="675" 
d="M220 122h87q92 0 131 45.5t39 146.5q0 92 -40.5 133t-126.5 41h-90v-366zM309 0h-245v610h248q145 0 234 -74.5t89 -221.5q0 -159 -87.5 -236.5t-238.5 -77.5z" />
    <glyph glyph-name="E" unicode="E" horiz-adv-x="532" 
d="M490 0h-426v610h426v-122h-272v-116h248v-119h-248v-131h272v-122z" />
    <glyph glyph-name="F" unicode="F" horiz-adv-x="518" 
d="M474 222h-254v-222h-156v610h428v-122h-274v-147h256v-119z" />
    <glyph glyph-name="G" unicode="G" horiz-adv-x="707" 
d="M509 119v185h148v-268q-118 -54 -256 -54q-101 0 -181.5 34t-130 105.5t-49.5 172.5q0 157 109.5 244.5t278.5 87.5q126 0 207 -36v-131q-37 21 -92.5 34t-106.5 13q-106 0 -169 -50.5t-63 -156.5q0 -96 57.5 -145.5t155.5 -49.5q55 0 92 15z" />
    <glyph glyph-name="H" unicode="H" horiz-adv-x="692" 
d="M628 0h-156v251h-252v-251h-156v610h156v-235h252v235h156v-610z" />
    <glyph glyph-name="I" unicode="I" horiz-adv-x="288" 
d="M222 0h-156v610h156v-610z" />
    <glyph glyph-name="J" unicode="J" horiz-adv-x="393" 
d="M20 3v121q34 -18 77 -18q41 0 59.5 18t18.5 62v424h156v-428q0 -198 -198 -198q-69 0 -113 19z" />
    <glyph glyph-name="K" unicode="K" horiz-adv-x="630" 
d="M628 0h-175l-237 308v-308h-152v610h152v-265l232 265h168l-248 -278z" />
    <glyph glyph-name="L" unicode="L" horiz-adv-x="504" 
d="M478 0h-414v610h156v-486h258v-124z" />
    <glyph glyph-name="M" unicode="M" horiz-adv-x="840" 
d="M808 0h-156l-22 305v152h-2l-37 -145l-105 -312h-132l-105 312l-37 145h-2v-152l-22 -305h-156l69 610h184l109 -330l25 -145h2l25 145l109 330h184z" />
    <glyph glyph-name="N" unicode="N" horiz-adv-x="700" 
d="M636 0h-165l-192 288q-36 52 -70 126h-2q7 -89 7 -150v-264h-150v610h165l192 -288q36 -52 70 -126h2q-7 89 -7 150v264h150v-610z" />
    <glyph glyph-name="O" unicode="O" horiz-adv-x="772" 
d="M732 304q0 -152 -99.5 -237t-246.5 -85t-246.5 85t-99.5 237t99.5 237t246.5 85t246.5 -85t99.5 -237zM386 102q89 0 135.5 51t46.5 151t-46.5 151t-135.5 51t-135.5 -51t-46.5 -151t46.5 -151t135.5 -51z" />
    <glyph glyph-name="P" unicode="P" horiz-adv-x="582" 
d="M220 0h-156v610h241q249 0 249 -202q0 -105 -63 -153.5t-186 -48.5h-85v-206zM218 324h87q41 0 69.5 20.5t28.5 63.5q0 84 -98 84h-87v-168z" />
    <glyph glyph-name="Q" unicode="Q" horiz-adv-x="772" 
d="M706 -37v-131q-42 -5 -71 -5q-90 0 -154 37t-111 118q-141 4 -235.5 89t-94.5 233q0 152 99.5 237t246.5 85t246.5 -85t99.5 -237q0 -113 -61.5 -192.5t-159.5 -110.5q44 -46 133 -46q28 0 62 8zM386 102q89 0 135.5 51t46.5 151t-46.5 151t-135.5 51t-135.5 -51
t-46.5 -151t46.5 -151t135.5 -51z" />
    <glyph glyph-name="R" unicode="R" horiz-adv-x="606" 
d="M217 349h85q51 0 76 16.5t25 56.5t-24.5 55t-76.5 15h-85v-143zM590 0h-162l-45 153q-12 41 -33 59.5t-65 18.5h-65v-231h-156v610h241q249 0 249 -183q0 -114 -116 -151v-2q77 -21 100 -100z" />
    <glyph glyph-name="S" unicode="S" horiz-adv-x="528" 
d="M34 32v125q37 -25 94 -40t109 -15q47 0 72 12t25 44q0 29 -30 51.5t-72 41t-84.5 41t-72.5 63.5t-30 97q0 84 64.5 128t166.5 44q112 0 178 -34v-126q-82 42 -167 42q-86 0 -86 -51q0 -26 30 -47.5t72.5 -40.5t85.5 -43t73 -66.5t30 -99.5q0 -85 -70 -129.5t-174 -44.5
q-63 0 -125 15t-89 33z" />
    <glyph glyph-name="T" unicode="T" horiz-adv-x="572" 
d="M364 0h-156v490l-192 -2v122h540v-122l-192 2v-490z" />
    <glyph glyph-name="U" unicode="U" horiz-adv-x="709" 
d="M493 277v333h156v-344q0 -151 -82 -218q-73 -61 -213 -61t-213 61q-81 66 -81 218v344h156v-333q0 -84 32 -124.5t106 -40.5t106.5 41t32.5 124z" />
    <glyph glyph-name="V" unicode="V" horiz-adv-x="656" 
d="M409 0h-162l-241 610h168l97 -270l56 -208h2l56 208l97 270h168z" />
    <glyph glyph-name="W" unicode="W" horiz-adv-x="980" 
d="M765 0h-128l-100 291l-46 170h-2l-46 -170l-100 -291h-128l-205 610h158l84 -264l31 -158h2l40 158l93 264h144l93 -264l40 -158h2l31 158l84 264h158z" />
    <glyph glyph-name="X" unicode="X" horiz-adv-x="688" 
d="M680 0h-173l-163 216l-163 -216h-173l251 317l-231 293h173l143 -192l143 192h173l-232 -293z" />
    <glyph glyph-name="Y" unicode="Y" horiz-adv-x="622" 
d="M389 0h-156v234l-229 376h161l91 -160l54 -108h2l54 108l91 160h161l-229 -376v-234z" />
    <glyph glyph-name="Z" unicode="Z" horiz-adv-x="571" 
d="M535 0h-501v108l307 386l-294 -2v118h471v-108l-307 -386l324 2v-118z" />
    <glyph glyph-name="bracketleft" unicode="[" horiz-adv-x="344" 
d="M314 -136h-240v798h240v-107h-99v-582h99v-109z" />
    <glyph glyph-name="backslash" unicode="\" horiz-adv-x="496" 
d="M486 -40h-120l-356 690h120z" />
    <glyph glyph-name="bracketright" unicode="]" horiz-adv-x="354" 
d="M280 -136h-240v109h99v582h-99v107h240v-798z" />
    <glyph glyph-name="asciicircum" unicode="^" horiz-adv-x="548" 
d="M518 252h-143l-100 215l-101 -215h-144l182 358h124z" />
    <glyph glyph-name="underscore" unicode="_" horiz-adv-x="390" 
d="M390 -124h-390v63h390v-63z" />
    <glyph glyph-name="grave" unicode="`" horiz-adv-x="400" 
d="M272 512h-101l-141 138h160z" />
    <glyph glyph-name="a" unicode="a" horiz-adv-x="525" 
d="M318 131v67q-25 5 -62 5q-86 0 -86 -62q0 -27 18 -40t43 -13q56 0 87 43zM468 0h-122l-14 56h-2q-16 -29 -56 -49t-92 -20q-68 0 -109 37t-41 105q0 43 18.5 74.5t50 48.5t66.5 25t74 8q42 0 77 -5v14q0 36 -24 52t-74 16q-78 0 -146 -35v106q69 33 173 33q101 0 161 -42
t60 -151v-273z" />
    <glyph glyph-name="b" unicode="b" horiz-adv-x="596" 
d="M184 0h-122v650h154v-236h2q56 50 140 50q90 0 144 -64t54 -167q0 -116 -58.5 -182.5t-144.5 -66.5q-54 0 -93.5 20t-59.5 52h-2zM216 312v-179q47 -37 95 -37q42 0 65.5 33.5t23.5 99.5q0 51 -22 88t-71 37q-51 0 -91 -42z" />
    <glyph glyph-name="c" unicode="c" horiz-adv-x="493" 
d="M455 126v-108q-59 -36 -151 -36q-117 0 -191.5 65.5t-74.5 177.5q0 107 73.5 174t189.5 67q92 0 148 -32v-110q-56 37 -122 37q-64 0 -97.5 -34.5t-33.5 -101.5q0 -66 35 -102t94 -36q69 0 130 39z" />
    <glyph glyph-name="d" unicode="d" horiz-adv-x="596" 
d="M534 0h-122l-14 56h-2q-47 -72 -147 -72q-96 0 -152.5 63t-56.5 180q0 103 57 171t151 68q82 0 130 -44h2v228h154v-650zM380 140v186q-40 28 -89 28q-51 0 -73 -36.5t-22 -88.5q0 -66 24 -100t67 -34q51 0 93 45z" />
    <glyph glyph-name="e" unicode="e" horiz-adv-x="550" 
d="M481 128v-109q-79 -37 -180 -37q-131 0 -197 66.5t-66 180.5q0 106 65.5 171.5t180.5 65.5q109 0 169.5 -62.5t60.5 -152.5q0 -42 -8 -66h-323q4 -99 141 -99q76 0 157 42zM183 270h198q-2 48 -27.5 73.5t-68.5 25.5q-45 0 -71.5 -26.5t-30.5 -72.5z" />
    <glyph glyph-name="f" unicode="f" horiz-adv-x="396" 
d="M246 0h-154v346h-78v104h78v36q0 88 52 133t145 45q61 0 103 -14v-109q-35 11 -63 11q-40 0 -61.5 -13.5t-21.5 -55.5v-33h132v-103h-132v-347z" />
    <glyph glyph-name="g" unicode="g" horiz-adv-x="592" 
d="M383 42h-2q-40 -55 -140 -55q-88 0 -145.5 62.5t-57.5 177.5q0 104 57.5 170.5t155.5 66.5q76 0 134 -58h2l11 44h134v-464q0 -100 -68.5 -158.5t-189.5 -58.5q-125 0 -201 34v123q87 -45 177 -45q60 0 94 23t34 82q0 27 5 56zM378 140v182q-43 32 -88 32
q-51 0 -73.5 -36.5t-22.5 -88.5q0 -131 91 -131q54 0 93 42z" />
    <glyph glyph-name="h" unicode="h" horiz-adv-x="595" 
d="M538 0h-154v262q0 85 -72 85q-50 0 -96 -30v-317h-154v650h154v-244q66 58 148 58q174 0 174 -192v-272z" />
    <glyph glyph-name="i" unicode="i" horiz-adv-x="280" 
d="M216 0h-152v450h152v-450zM235 581q0 -39 -24 -61t-71 -22t-71 22t-24 61t24 61t71 22t71 -22t24 -61z" />
    <glyph glyph-name="j" unicode="j" horiz-adv-x="288" 
d="M-55 -211v109q30 -11 60 -11q35 0 51 17.5t16 62.5v483h152v-477q0 -200 -185 -200q-47 0 -94 16zM243 581q0 -39 -24 -61t-71 -22t-71 22t-24 61t24 61t71 22t71 -22t24 -61z" />
    <glyph glyph-name="k" unicode="k" horiz-adv-x="570" 
d="M566 0h-173l-177 215v-215h-154v650h154v-395l174 195h166l-188 -205z" />
    <glyph glyph-name="l" unicode="l" horiz-adv-x="276" 
d="M214 0h-152v650h152v-650z" />
    <glyph glyph-name="m" unicode="m" horiz-adv-x="875" 
d="M818 0h-154v257q0 50 -15 71t-47 21q-44 0 -89 -28q2 -22 2 -35v-286h-152v257q0 50 -15.5 71t-47.5 21q-44 0 -86 -26v-323h-154v450h126l14 -56h1q57 70 151 70q101 0 140 -75q28 34 72.5 54.5t89.5 20.5q164 0 164 -193v-271z" />
    <glyph glyph-name="n" unicode="n" horiz-adv-x="593" 
d="M536 0h-154v262q0 85 -72 85q-50 0 -96 -30v-317h-154v450h126l14 -56h2q67 70 160 70q174 0 174 -192v-272z" />
    <glyph glyph-name="o" unicode="o" horiz-adv-x="596" 
d="M558 224q0 -106 -69.5 -174t-190.5 -68t-190.5 68t-69.5 174t69.5 174t190.5 68t190.5 -68t69.5 -174zM298 89q48 0 75 34.5t27 100.5t-27 100.5t-75 34.5t-75 -34.5t-27 -100.5t27 -100.5t75 -34.5z" />
    <glyph glyph-name="p" unicode="p" horiz-adv-x="594" 
d="M214 -215h-154v665h136l12 -48h2q62 62 153 62q86 0 138.5 -64.5t52.5 -166.5q0 -116 -58.5 -182.5t-144.5 -66.5q-89 0 -141 54h-2q6 -26 6 -69v-184zM214 309v-176q47 -37 95 -37q42 0 65.5 33.5t23.5 99.5q0 51 -22 88t-71 37q-52 0 -91 -45z" />
    <glyph glyph-name="q" unicode="q" horiz-adv-x="589" 
d="M529 -215h-156v163q0 54 7 88h-2q-21 -24 -58 -38t-74 -14q-94 0 -152.5 63.5t-58.5 179.5q0 103 56.5 171t149.5 68q84 0 143 -59h2l12 43h131v-665zM375 131v189q-45 34 -90 34q-50 0 -72 -37t-22 -88q0 -66 24 -102.5t67 -36.5q55 0 93 41z" />
    <glyph glyph-name="r" unicode="r" horiz-adv-x="410" 
d="M214 0h-154v450h121l24 -96h2q22 51 59.5 80t83.5 29q22 0 44 -6v-143q-21 4 -47 4q-78 0 -133 -55v-263z" />
    <glyph glyph-name="s" unicode="s" horiz-adv-x="446" 
d="M37 8v106q76 -30 136 -30q91 0 91 37q0 8 -5 15t-16.5 12.5t-22 9.5t-28 10.5t-29.5 11.5q-68 31 -90 52q-37 36 -37 92q0 61 52 101.5t141 40.5q92 0 151 -23v-103q-57 27 -120 27q-39 0 -61 -10t-22 -26q0 -9 5.5 -16t21 -14t24.5 -10t34 -11q31 -10 52 -19.5t45 -26.5
t36.5 -42.5t12.5 -59.5q0 -71 -58 -110.5t-144 -39.5q-107 0 -169 26z" />
    <glyph glyph-name="t" unicode="t" horiz-adv-x="427" 
d="M399 119v-113q-46 -22 -116 -22q-103 0 -147 42.5t-44 132.5v188h-78v103h82l46 142h104v-142h153v-103h-153v-182q0 -37 17 -52t50 -15q52 0 86 21z" />
    <glyph glyph-name="u" unicode="u" horiz-adv-x="577" 
d="M520 0h-126l-14 56h-2q-64 -70 -153 -70q-85 0 -125 47.5t-40 144.5v272h154v-262q0 -47 16 -66t50 -19q40 0 86 30v317h154v-450z" />
    <glyph glyph-name="v" unicode="v" horiz-adv-x="516" 
d="M334 0h-152l-174 450h156l52 -158l41 -172h2l41 172l52 158h156z" />
    <glyph glyph-name="w" unicode="w" horiz-adv-x="752" 
d="M586 0h-135l-41 157l-33 165h-2l-33 -165l-41 -157h-135l-154 450h148l44 -156l29 -158h2l33 157l44 157h128l44 -157l33 -157h2l29 158l44 156h148z" />
    <glyph glyph-name="x" unicode="x" horiz-adv-x="532" 
d="M530 0h-165l-99 144l-99 -144h-165l186 234l-170 216h161l87 -128l87 128h161l-171 -216z" />
    <glyph glyph-name="y" unicode="y" horiz-adv-x="533" 
d="M26 -214v107q27 -12 74 -12q49 0 79 70l18 45l-189 454h152l103 -312h2l104 312h156l-228 -537q-32 -75 -71 -108.5t-103 -33.5q-52 0 -97 15z" />
    <glyph glyph-name="z" unicode="z" horiz-adv-x="484" 
d="M448 0h-414v94l239 254l-228 -2v104h390v-94l-240 -254l253 2v-104z" />
    <glyph glyph-name="braceleft" unicode="{" horiz-adv-x="344" 
d="M314 -27v-100q-24 -6 -64 -6q-67 0 -108 37t-41 114v116q0 42 -18 62t-53 26v92q35 6 53 26t18 62v116q0 77 41 114t108 37q40 0 64 -6v-100q-13 6 -39 6q-50 0 -50 -68v-107q0 -98 -82 -126q82 -28 82 -126v-107q0 -68 50 -68q26 0 39 6z" />
    <glyph glyph-name="bar" unicode="|" horiz-adv-x="270" 
d="M198 -215h-126v865h126v-865z" />
    <glyph glyph-name="braceright" unicode="}" horiz-adv-x="344" 
d="M30 -127v100q13 -6 39 -6q50 0 50 68v107q0 98 82 126q-82 28 -82 126v107q0 68 -50 68q-26 0 -39 -6v100q24 6 64 6q67 0 108 -37t41 -114v-116q0 -42 18 -62t53 -26v-92q-35 -6 -53 -26t-18 -62v-116q0 -77 -41 -114t-108 -37q-40 0 -64 6z" />
    <glyph glyph-name="asciitilde" unicode="~" horiz-adv-x="470" 
d="M430 366v-140q-57 -48 -109 -48q-39 0 -90.5 32t-83.5 32q-28 0 -51 -13t-56 -44v140q57 48 108 48q39 0 91 -32t84 -32q51 0 107 57z" />
    <glyph glyph-name="uni007F" horiz-adv-x="450" 
 />
    <glyph glyph-name="nbspace" unicode="&#xa0;" horiz-adv-x="259" 
 />
    <glyph glyph-name="exclamdown" unicode="&#xa1;" horiz-adv-x="312" 
d="M157 272q-40 0 -68.5 27.5t-28.5 68.5q0 40 28.5 68t68.5 28t67.5 -27.5t27.5 -68.5q0 -38 -28 -67t-67 -29zM244 -159h-176l21 380h134z" />
    <glyph glyph-name="cent" unicode="&#xa2;" horiz-adv-x="652" 
d="M441 -100h-80v83q-114 9 -186 73t-72 169q0 101 72 167.5t186 72.5v85h80v-87q75 -7 113 -29v-110q-56 37 -142 37q-73 0 -112 -35t-39 -101q0 -65 41 -101.5t108 -36.5q89 0 150 39v-108q-47 -29 -119 -34v-84z" />
    <glyph glyph-name="sterling" unicode="&#xa3;" horiz-adv-x="652" 
d="M576 0h-486v123h7q41 0 59 24.5t18 87.5v68h-83v71h83v26q0 226 244 226q62 0 128 -22v-115q-61 19 -93 19q-64 0 -94.5 -20t-30.5 -81v-33h134v-70h-134v-61q0 -48 -16.5 -74t-50.5 -46h315v-123z" />
    <glyph glyph-name="currency" unicode="&#xa4;" horiz-adv-x="574" 
d="M534 136l-73 -72l-65 65q-62 -31 -109 -31t-109 31l-65 -65l-73 72l66 64q-30 51 -30 109q0 55 30 109l-66 65l73 73l65 -67q52 31 109 31t109 -31l65 67l73 -73l-66 -65q30 -54 30 -109q0 -58 -30 -109zM287 195q49 0 80 33.5t31 80.5t-31 81t-80 34t-80 -34t-31 -81
t31 -80.5t80 -33.5z" />
    <glyph glyph-name="yen" unicode="&#xa5;" horiz-adv-x="652" 
d="M557 131h-153v-131h-156v131h-153v74h153v51h-153v74h102l-166 280h161l79 -160l54 -118h2l54 118l79 160h161l-166 -280h102v-74h-153v-51h153v-74z" />
    <glyph glyph-name="brokenbar" unicode="&#xa6;" horiz-adv-x="286" 
d="M206 296h-126v354h126v-354zM206 -215h-126v354h126v-354z" />
    <glyph glyph-name="section" unicode="&#xa7;" horiz-adv-x="652" 
d="M124 -196v120q61 -39 156 -39q36 0 69 14t33 34q0 23 -30.5 43.5t-73.5 39.5t-86.5 43t-74 66t-30.5 97q0 101 91 163q-50 45 -50 119q0 76 63.5 117.5t149.5 41.5q118 0 174 -31v-120q-61 39 -162 39q-34 0 -63 -13.5t-29 -34.5q0 -24 30.5 -44t73.5 -38.5t86.5 -42
t74 -65t30.5 -97.5q0 -101 -92 -164q51 -46 51 -120q0 -75 -68 -117t-155 -42q-113 0 -168 31zM361 113v1q61 42 61 95q0 10 -2 18.5t-7.5 16.5t-10.5 14t-15.5 13t-17 11t-20 11t-20.5 10t-23.5 10.5t-23.5 10.5q-61 -42 -61 -95q0 -11 3.5 -21.5t8 -18t14.5 -16t17 -13.5
t22 -12.5t22.5 -11t26.5 -12t26 -11.5z" />
    <glyph glyph-name="dieresis" unicode="&#xa8;" horiz-adv-x="400" 
d="M162 581q0 -74 -81 -74t-81 74t81 74t81 -74zM400 581q0 -74 -81 -74t-81 74t81 74t81 -74z" />
    <glyph glyph-name="copyright" unicode="&#xa9;" horiz-adv-x="731" 
d="M513 237v-96q-46 -29 -121 -29q-93 0 -153 52.5t-60 138.5q0 84 58.5 137.5t151.5 53.5q79 0 119 -26v-96q-43 32 -98 32q-49 0 -77 -26t-28 -75t28.5 -75t75.5 -26q53 0 104 35zM685 303q0 -134 -92 -223t-228 -89t-227.5 89t-91.5 223q0 133 91.5 223t227.5 90
q138 0 229 -89.5t91 -223.5zM627 303q0 111 -73 187.5t-189 76.5q-114 0 -187.5 -77t-73.5 -187q0 -111 73.5 -186.5t187.5 -75.5t188 76t74 186z" />
    <glyph glyph-name="ordfeminine" unicode="&#xaa;" horiz-adv-x="420" 
d="M244 385v43q-14 5 -39 5q-24 0 -39 -11.5t-15 -32.5q0 -16 12 -25t24 -9q36 0 57 30zM376 280h-111l-11 40h-2q-27 -50 -109 -50q-56 0 -86.5 29t-30.5 80q0 63 44.5 90t109.5 27q47 0 64 -4v11q0 22 -14.5 30.5t-51.5 8.5q-21 0 -59 -7.5t-62 -18.5v85q20 9 63 15.5
t73 6.5q183 0 183 -141v-202z" />
    <glyph glyph-name="guillemotleft" unicode="&#xab;" horiz-adv-x="580" 
d="M303 55h-147l-138 221l138 221h147l-138 -221zM548 55h-147l-138 221l138 221h147l-138 -221z" />
    <glyph glyph-name="logicalnot" unicode="&#xac;" horiz-adv-x="565" 
d="M525 155h-119v197h-356v111h475v-308z" />
    <glyph glyph-name="hypen" unicode="&#xad;" horiz-adv-x="353" 
d="M323 235h-293v131h293v-131z" />
    <glyph glyph-name="registered" unicode="&#xae;" horiz-adv-x="731" 
d="M685 303q0 -134 -92 -223t-228 -89t-227.5 89t-91.5 223q0 133 91.5 223t227.5 90q138 0 229 -89.5t91 -223.5zM627 303q0 111 -73 187.5t-189 76.5q-114 0 -187.5 -77t-73.5 -187q0 -111 73.5 -186.5t187.5 -75.5t188 76t74 186zM323 332h24q56 0 56 42q0 23 -13 32
t-43 9h-24v-83zM540 125h-118l-33 94q0 1 -2.5 6.5t-3 7t-2.5 6t-3 5.5t-3.5 4.5t-5 4.5t-5.5 2.5t-7 2t-9 0.5h-25v-133h-107v364h143q75 0 114.5 -28.5t39.5 -81.5q0 -69 -70 -91q37 -11 56 -59z" />
    <glyph glyph-name="overscore" unicode="&#xaf;" horiz-adv-x="400" 
d="M359 538h-318v94h318v-94z" />
    <glyph glyph-name="degree" unicode="&#xb0;" horiz-adv-x="328" 
d="M298 540q0 -55 -39 -91.5t-95 -36.5t-95 36.5t-39 91.5q0 52 39 89t95 37t95 -37t39 -89zM164 482q23 0 38 16.5t15 40.5q0 23 -15 40t-38 17t-38 -17t-15 -40q0 -24 15 -40.5t38 -16.5z" />
    <glyph glyph-name="plusminus" unicode="&#xb1;" horiz-adv-x="548" 
d="M339 118h-130v181h-171v110h171v181h130v-181h171v-110h-171v-181zM510 0h-472v90h472v-90z" />
    <glyph glyph-name="twosuperior" unicode="&#xb2;" horiz-adv-x="382" 
d="M342 287h-304v87q179 101 179 168q0 38 -58 38q-53 0 -119 -28v87q61 23 129 23q163 0 163 -117q0 -97 -151 -168h161v-90z" />
    <glyph glyph-name="threesuperior" unicode="&#xb3;" horiz-adv-x="383" 
d="M271 481v-2q38 -3 56 -26.5t18 -52.5q0 -121 -185 -121q-86 0 -130 21v89q17 -10 51 -16t59 -6q98 0 98 41q0 25 -27.5 30t-93.5 2v71h16q27 0 39.5 0.5t27.5 3.5t21 11t6 21q0 17 -18.5 24.5t-63.5 7.5q-66 0 -109 -22v85q42 20 126 20q171 0 171 -97q0 -64 -62 -84z
" />
    <glyph glyph-name="acute" unicode="&#xb4;" horiz-adv-x="400" 
d="M370 650l-141 -138h-101l82 138h160z" />
    <glyph glyph-name="mu" unicode="&#xb5;" horiz-adv-x="577" 
d="M214 -215h-154v665h154v-317q46 -30 86 -30q34 0 50 19t16 66v262h154v-272q0 -97 -40 -144.5t-125 -47.5q-87 0 -143 61h-2q4 -32 4 -79v-183z" />
    <glyph glyph-name="paragraph" unicode="&#xb6;" horiz-adv-x="601" 
d="M533 -215h-90v773h-80v-773h-90v391h-2q-104 0 -176.5 69.5t-72.5 167.5t72.5 167.5t176.5 69.5h262v-865z" />
    <glyph glyph-name="middot" unicode="&#xb7;" horiz-adv-x="280" 
d="M141 194q-40 0 -68.5 28t-28.5 68q0 41 28.5 68.5t68.5 27.5q39 0 67 -29t28 -67q0 -41 -27.5 -68.5t-67.5 -27.5z" />
    <glyph glyph-name="cedilla" unicode="&#xb8;" horiz-adv-x="400" 
d="M128 -221v74q11 -3 42 -3q27 0 46.5 8t19.5 24q0 32 -82 32l22 93l62 -6l-4 -51q43 -2 71 -22t28 -57q0 -53 -40 -75.5t-100 -22.5q-35 0 -65 6z" />
    <glyph glyph-name="onesuperior" unicode="&#xb9;" horiz-adv-x="284" 
d="M240 287h-111v243q-41 -47 -115 -46v104q89 -5 133 66h93v-367z" />
    <glyph glyph-name="ordmasculine" unicode="&#xba;" horiz-adv-x="428" 
d="M408 447q0 -80 -50 -128.5t-144 -48.5q-93 0 -143.5 48.5t-50.5 128.5q0 79 50.5 127.5t143.5 48.5t143.5 -48.5t50.5 -127.5zM214 347q55 0 55 100t-55 100t-55 -100t55 -100z" />
    <glyph glyph-name="guillemotright" unicode="&#xbb;" horiz-adv-x="580" 
d="M179 55h-147l138 221l-138 221h147l138 -221zM424 55h-147l138 221l-138 221h147l138 -221z" />
    <glyph glyph-name="onequarter" unicode="&#xbc;" horiz-adv-x="852" 
d="M704 610l-455 -610h-101l456 610h100zM740 0h-111v66h-196v57l211 244h96v-227h60v-74h-60v-66zM629 140v103l-87 -103h87zM270 244h-111v243q-41 -47 -115 -46v104q89 -5 133 66h93v-367z" />
    <glyph glyph-name="onehalf" unicode="&#xbd;" horiz-adv-x="852" 
d="M694 610l-455 -610h-101l456 610h100zM270 244h-111v243q-41 -47 -115 -46v104q89 -5 133 66h93v-367zM823 0h-304v87q179 101 179 168q0 38 -58 38q-53 0 -119 -28v87q61 23 129 23q163 0 163 -117q0 -97 -151 -168h161v-90z" />
    <glyph glyph-name="threequarters" unicode="&#xbe;" horiz-adv-x="852" 
d="M724 610l-455 -610h-101l456 610h100zM740 0h-111v66h-196v57l211 244h96v-227h60v-74h-60v-66zM629 140v103l-87 -103h87zM273 441v-2q38 -3 56 -26.5t18 -52.5q0 -121 -185 -121q-86 0 -130 21v89q17 -10 51 -16t59 -6q98 0 98 41q0 25 -27.5 30t-93.5 2v71h16
q27 0 39.5 0.5t27.5 3.5t21 11t6 21q0 17 -18.5 24.5t-63.5 7.5q-66 0 -109 -22v85q42 20 126 20q171 0 171 -97q0 -64 -62 -84z" />
    <glyph glyph-name="questiondown" unicode="&#xbf;" horiz-adv-x="453" 
d="M423 -31v-105q-74 -39 -179 -39q-88 0 -145 38t-57 123q0 100 155 235h134q-138 -132 -138 -215q0 -69 84 -69q80 0 146 32zM363 368q0 -41 -28.5 -68.5t-68.5 -27.5t-67.5 29t-27.5 67q0 41 27.5 68.5t67.5 27.5t68.5 -28t28.5 -68z" />
    <glyph glyph-name="Agrave" unicode="&#xc0;" horiz-adv-x="684" 
d="M420 248l-43 120l-34 118h-2l-34 -118l-43 -120h156zM682 0h-163l-50 130h-253l-51 -130h-163l251 610h178zM413 672h-101l-141 138h160z" />
    <glyph glyph-name="Aacute" unicode="&#xc1;" horiz-adv-x="684" 
d="M420 248l-43 120l-34 118h-2l-34 -118l-43 -120h156zM682 0h-163l-50 130h-253l-51 -130h-163l251 610h178zM513 810l-141 -138h-101l82 138h160z" />
    <glyph glyph-name="Acircumflex" unicode="&#xc2;" horiz-adv-x="684" 
d="M420 248l-43 120l-34 118h-2l-34 -118l-43 -120h156zM682 0h-163l-50 130h-253l-51 -130h-163l251 610h178zM506 672h-99l-65 57l-65 -57h-99l118 138h92z" />
    <glyph glyph-name="Atilde" unicode="&#xc3;" horiz-adv-x="684" 
d="M420 248l-43 120l-34 118h-2l-34 -118l-43 -120h156zM682 0h-163l-50 130h-253l-51 -130h-163l251 610h178zM422 803h79q3 -56 -18 -92.5t-74 -36.5q-30 0 -67 21.5t-56 21.5q-27 0 -24 -38h-79q-4 57 18.5 93t71.5 36q30 0 68 -21.5t57 -21.5q29 0 24 38z" />
    <glyph glyph-name="Adieresis" unicode="&#xc4;" horiz-adv-x="684" 
d="M420 248l-43 120l-34 118h-2l-34 -118l-43 -120h156zM682 0h-163l-50 130h-253l-51 -130h-163l251 610h178zM304 741q0 -74 -81 -74t-81 74t81 74t81 -74zM542 741q0 -74 -81 -74t-81 74t81 74t81 -74z" />
    <glyph glyph-name="Aring" unicode="&#xc5;" horiz-adv-x="684" 
d="M420 248l-43 120l-34 118h-2l-34 -118l-43 -120h156zM682 0h-163l-50 130h-253l-51 -130h-163l251 610h178zM457 741q0 -43 -33.5 -70.5t-81.5 -27.5t-81.5 27.5t-33.5 70.5t33.5 70.5t81.5 27.5t81.5 -27.5t33.5 -70.5zM382 741q0 17 -11.5 27.5t-28.5 10.5t-28.5 -10.5
t-11.5 -27.5t11.5 -27.5t28.5 -10.5t28.5 10.5t11.5 27.5z" />
    <glyph glyph-name="AE" unicode="&#xc6;" horiz-adv-x="909" 
d="M867 0h-416v130h-205l-76 -130h-164l380 610h481v-122h-262v-116h238v-119h-238v-131h262v-122zM451 246v236l-138 -236h138z" />
    <glyph glyph-name="Ccedilla" unicode="&#xc7;" horiz-adv-x="634" 
d="M594 157v-131q-55 -38 -172 -43l-2 -33q43 -2 71 -22t28 -57q0 -53 -40 -75.5t-100 -22.5q-35 0 -65 6v74q11 -3 42 -3q27 0 46.5 8t19.5 24q0 32 -82 32l16 70q-138 10 -227 92.5t-89 229.5q0 149 102.5 234.5t254.5 85.5q110 0 190 -35v-133q-74 48 -176 48
q-97 0 -152 -53t-55 -147q0 -96 59.5 -150t154.5 -54q103 0 176 55z" />
    <glyph glyph-name="Egrave" unicode="&#xc8;" horiz-adv-x="532" 
d="M490 0h-426v610h426v-122h-272v-116h248v-119h-248v-131h272v-122zM347 672h-101l-141 138h160z" />
    <glyph glyph-name="Eacute" unicode="&#xc9;" horiz-adv-x="532" 
d="M490 0h-426v610h426v-122h-272v-116h248v-119h-248v-131h272v-122zM437 810l-141 -138h-101l82 138h160z" />
    <glyph glyph-name="Ecircumflex" unicode="&#xca;" horiz-adv-x="532" 
d="M490 0h-426v610h426v-122h-272v-116h248v-119h-248v-131h272v-122zM430 672h-99l-65 57l-65 -57h-99l118 138h92z" />
    <glyph glyph-name="Edieresis" unicode="&#xcb;" horiz-adv-x="532" 
d="M490 0h-426v610h426v-122h-272v-116h248v-119h-248v-131h272v-122zM238 741q0 -74 -81 -74t-81 74t81 74t81 -74zM476 741q0 -74 -81 -74t-81 74t81 74t81 -74z" />
    <glyph glyph-name="Igrave" unicode="&#xcc;" horiz-adv-x="288" 
d="M222 0h-156v610h156v-610zM217 672h-101l-141 138h160z" />
    <glyph glyph-name="Iacute" unicode="&#xcd;" horiz-adv-x="288" 
d="M222 0h-156v610h156v-610zM317 810l-141 -138h-101l82 138h160z" />
    <glyph glyph-name="Icircumflex" unicode="&#xce;" horiz-adv-x="288" 
d="M222 0h-156v610h156v-610zM310 672h-99l-65 57l-65 -57h-99l118 138h92z" />
    <glyph glyph-name="Idieresis" unicode="&#xcf;" horiz-adv-x="288" 
d="M222 0h-156v610h156v-610zM108 741q0 -74 -81 -74t-81 74t81 74t81 -74zM346 741q0 -74 -81 -74t-81 74t81 74t81 -74z" />
    <glyph glyph-name="Eth" unicode="&#xd0;" horiz-adv-x="675" 
d="M309 0h-245v263h-54v94h54v253h248q145 0 234 -74.5t89 -221.5q0 -159 -87.5 -236.5t-238.5 -77.5zM220 122h87q92 0 131 45.5t39 146.5q0 92 -40.5 133t-126.5 41h-90v-131h128v-94h-128v-141z" />
    <glyph glyph-name="Ntilde" unicode="&#xd1;" horiz-adv-x="700" 
d="M636 0h-165l-192 288q-36 52 -70 126h-2q7 -89 7 -150v-264h-150v610h165l192 -288q36 -52 70 -126h2q-7 89 -7 150v264h150v-610zM430 803h79q3 -56 -18 -92.5t-74 -36.5q-30 0 -67 21.5t-56 21.5q-27 0 -24 -38h-79q-4 57 18.5 93t71.5 36q30 0 68 -21.5t57 -21.5
q29 0 24 38z" />
    <glyph glyph-name="Ograve" unicode="&#xd2;" horiz-adv-x="772" 
d="M732 304q0 -152 -99.5 -237t-246.5 -85t-246.5 85t-99.5 237t99.5 237t246.5 85t246.5 -85t99.5 -237zM386 102q89 0 135.5 51t46.5 151t-46.5 151t-135.5 51t-135.5 -51t-46.5 -151t46.5 -151t135.5 -51zM457 672h-101l-141 138h160z" />
    <glyph glyph-name="Oacute" unicode="&#xd3;" horiz-adv-x="772" 
d="M732 304q0 -152 -99.5 -237t-246.5 -85t-246.5 85t-99.5 237t99.5 237t246.5 85t246.5 -85t99.5 -237zM386 102q89 0 135.5 51t46.5 151t-46.5 151t-135.5 51t-135.5 -51t-46.5 -151t46.5 -151t135.5 -51zM557 810l-141 -138h-101l82 138h160z" />
    <glyph glyph-name="Ocircumflex" unicode="&#xd4;" horiz-adv-x="772" 
d="M732 304q0 -152 -99.5 -237t-246.5 -85t-246.5 85t-99.5 237t99.5 237t246.5 85t246.5 -85t99.5 -237zM386 102q89 0 135.5 51t46.5 151t-46.5 151t-135.5 51t-135.5 -51t-46.5 -151t46.5 -151t135.5 -51zM550 672h-99l-65 57l-65 -57h-99l118 138h92z" />
    <glyph glyph-name="Otilde" unicode="&#xd5;" horiz-adv-x="772" 
d="M732 304q0 -152 -99.5 -237t-246.5 -85t-246.5 85t-99.5 237t99.5 237t246.5 85t246.5 -85t99.5 -237zM386 102q89 0 135.5 51t46.5 151t-46.5 151t-135.5 51t-135.5 -51t-46.5 -151t46.5 -151t135.5 -51zM466 803h79q3 -56 -18 -92.5t-74 -36.5q-30 0 -67 21.5t-56 21.5
q-27 0 -24 -38h-79q-4 57 18.5 93t71.5 36q30 0 68 -21.5t57 -21.5q29 0 24 38z" />
    <glyph glyph-name="Odieresis" unicode="&#xd6;" horiz-adv-x="772" 
d="M732 304q0 -152 -99.5 -237t-246.5 -85t-246.5 85t-99.5 237t99.5 237t246.5 85t246.5 -85t99.5 -237zM386 102q89 0 135.5 51t46.5 151t-46.5 151t-135.5 51t-135.5 -51t-46.5 -151t46.5 -151t135.5 -51zM348 741q0 -74 -81 -74t-81 74t81 74t81 -74zM586 741
q0 -74 -81 -74t-81 74t81 74t81 -74z" />
    <glyph glyph-name="multiply" unicode="&#xd7;" horiz-adv-x="548" 
d="M412 88l-138 138l-138 -138l-88 88l138 138l-138 138l88 88l138 -138l138 138l88 -88l-138 -138l138 -138z" />
    <glyph glyph-name="Oslash" unicode="&#xd8;" horiz-adv-x="772" 
d="M175 -18h-105l69 85q-99 89 -99 237q0 152 99.5 237t246.5 85q99 0 178 -40l33 40h105l-70 -85q100 -90 100 -237q0 -152 -99.5 -237t-246.5 -85q-99 0 -179 39zM540 428l-250 -305q39 -21 96 -21q89 0 135.5 51t46.5 151q0 75 -28 124zM232 180l249 305q-39 21 -95 21
q-89 0 -135.5 -51t-46.5 -151q0 -78 28 -124z" />
    <glyph glyph-name="Ugrave" unicode="&#xd9;" horiz-adv-x="709" 
d="M493 277v333h156v-344q0 -151 -82 -218q-73 -61 -213 -61t-213 61q-81 66 -81 218v344h156v-333q0 -84 32 -124.5t106 -40.5t106.5 41t32.5 124zM425 672h-101l-141 138h160z" />
    <glyph glyph-name="Uacute" unicode="&#xda;" horiz-adv-x="709" 
d="M493 277v333h156v-344q0 -151 -82 -218q-73 -61 -213 -61t-213 61q-81 66 -81 218v344h156v-333q0 -84 32 -124.5t106 -40.5t106.5 41t32.5 124zM525 810l-141 -138h-101l82 138h160z" />
    <glyph glyph-name="Ucircumflex" unicode="&#xdb;" horiz-adv-x="709" 
d="M493 277v333h156v-344q0 -151 -82 -218q-73 -61 -213 -61t-213 61q-81 66 -81 218v344h156v-333q0 -84 32 -124.5t106 -40.5t106.5 41t32.5 124zM518 672h-99l-65 57l-65 -57h-99l118 138h92z" />
    <glyph glyph-name="Udieresis" unicode="&#xdc;" horiz-adv-x="709" 
d="M493 277v333h156v-344q0 -151 -82 -218q-73 -61 -213 -61t-213 61q-81 66 -81 218v344h156v-333q0 -84 32 -124.5t106 -40.5t106.5 41t32.5 124zM316 741q0 -74 -81 -74t-81 74t81 74t81 -74zM554 741q0 -74 -81 -74t-81 74t81 74t81 -74z" />
    <glyph glyph-name="Yacute" unicode="&#xdd;" horiz-adv-x="622" 
d="M389 0h-156v234l-229 376h161l91 -160l54 -108h2l54 108l91 160h161l-229 -376v-234zM482 810l-141 -138h-101l82 138h160z" />
    <glyph glyph-name="Thorn" unicode="&#xde;" horiz-adv-x="586" 
d="M220 0h-156v610h154v-100h87q249 0 249 -198q0 -103 -63 -150.5t-186 -47.5h-85v-114zM218 232h89q42 0 70 19t28 61q0 45 -25.5 62.5t-72.5 17.5h-89v-160z" />
    <glyph glyph-name="germandbls" unicode="&#xdf;" horiz-adv-x="620" 
d="M292 11v102q39 -22 91 -22t52 33q0 17 -14.5 33.5t-35 32t-41 34t-35 47.5t-14.5 64q0 29 11 51.5t26.5 36t31 25t26.5 25t11 29.5q0 24 -20.5 37t-55.5 13q-58 0 -84.5 -31.5t-26.5 -79.5v-441h-152v448q0 99 66.5 157.5t187.5 58.5q236 0 236 -168q0 -34 -19 -59.5
t-41.5 -37.5t-41.5 -29t-19 -36q0 -17 16 -33t39 -30.5t45.5 -32t38.5 -45t16 -61.5q0 -70 -49.5 -107.5t-123.5 -37.5q-66 0 -121 24z" />
    <glyph glyph-name="agrave" unicode="&#xe0;" horiz-adv-x="525" 
d="M318 131v67q-25 5 -62 5q-86 0 -86 -62q0 -27 18 -40t43 -13q56 0 87 43zM468 0h-122l-14 56h-2q-16 -29 -56 -49t-92 -20q-68 0 -109 37t-41 105q0 43 18.5 74.5t50 48.5t66.5 25t74 8q42 0 77 -5v14q0 36 -24 52t-74 16q-78 0 -146 -35v106q69 33 173 33q101 0 161 -42
t60 -151v-273zM353 512h-101l-141 138h160z" />
    <glyph glyph-name="aacute" unicode="&#xe1;" horiz-adv-x="525" 
d="M318 131v67q-25 5 -62 5q-86 0 -86 -62q0 -27 18 -40t43 -13q56 0 87 43zM468 0h-122l-14 56h-2q-16 -29 -56 -49t-92 -20q-68 0 -109 37t-41 105q0 43 18.5 74.5t50 48.5t66.5 25t74 8q42 0 77 -5v14q0 36 -24 52t-74 16q-78 0 -146 -35v106q69 33 173 33q101 0 161 -42
t60 -151v-273zM413 650l-141 -138h-101l82 138h160z" />
    <glyph glyph-name="acircumflex" unicode="&#xe2;" horiz-adv-x="525" 
d="M318 131v67q-25 5 -62 5q-86 0 -86 -62q0 -27 18 -40t43 -13q56 0 87 43zM468 0h-122l-14 56h-2q-16 -29 -56 -49t-92 -20q-68 0 -109 37t-41 105q0 43 18.5 74.5t50 48.5t66.5 25t74 8q42 0 77 -5v14q0 36 -24 52t-74 16q-78 0 -146 -35v106q69 33 173 33q101 0 161 -42
t60 -151v-273zM426 512h-99l-65 57l-65 -57h-99l118 138h92z" />
    <glyph glyph-name="atilde" unicode="&#xe3;" horiz-adv-x="525" 
d="M318 131v67q-25 5 -62 5q-86 0 -86 -62q0 -27 18 -40t43 -13q56 0 87 43zM468 0h-122l-14 56h-2q-16 -29 -56 -49t-92 -20q-68 0 -109 37t-41 105q0 43 18.5 74.5t50 48.5t66.5 25t74 8q42 0 77 -5v14q0 36 -24 52t-74 16q-78 0 -146 -35v106q69 33 173 33q101 0 161 -42
t60 -151v-273zM343 643h79q3 -56 -18 -92.5t-74 -36.5q-30 0 -67 21.5t-56 21.5q-27 0 -24 -38h-79q-4 57 18.5 93t71.5 36q30 0 68 -21.5t57 -21.5q29 0 24 38z" />
    <glyph glyph-name="adieresis" unicode="&#xe4;" horiz-adv-x="525" 
d="M318 131v67q-25 5 -62 5q-86 0 -86 -62q0 -27 18 -40t43 -13q56 0 87 43zM468 0h-122l-14 56h-2q-16 -29 -56 -49t-92 -20q-68 0 -109 37t-41 105q0 43 18.5 74.5t50 48.5t66.5 25t74 8q42 0 77 -5v14q0 36 -24 52t-74 16q-78 0 -146 -35v106q69 33 173 33q101 0 161 -42
t60 -151v-273zM224 581q0 -74 -81 -74t-81 74t81 74t81 -74zM462 581q0 -74 -81 -74t-81 74t81 74t81 -74z" />
    <glyph glyph-name="aring" unicode="&#xe5;" horiz-adv-x="525" 
d="M318 131v67q-25 5 -62 5q-86 0 -86 -62q0 -27 18 -40t43 -13q56 0 87 43zM468 0h-122l-14 56h-2q-16 -29 -56 -49t-92 -20q-68 0 -109 37t-41 105q0 43 18.5 74.5t50 48.5t66.5 25t74 8q42 0 77 -5v14q0 36 -24 52t-74 16q-78 0 -146 -35v106q69 33 173 33q101 0 161 -42
t60 -151v-273zM377 581q0 -43 -33.5 -70.5t-81.5 -27.5t-81.5 27.5t-33.5 70.5t33.5 70.5t81.5 27.5t81.5 -27.5t33.5 -70.5zM302 581q0 17 -11.5 27.5t-28.5 10.5t-28.5 -10.5t-11.5 -27.5t11.5 -27.5t28.5 -10.5t28.5 10.5t11.5 27.5z" />
    <glyph glyph-name="ae" unicode="&#xe6;" horiz-adv-x="804" 
d="M735 128v-109q-79 -37 -164 -37q-141 0 -190 74q-60 -69 -189 -69q-70 0 -115 37.5t-45 104.5q0 43 20 74.5t53.5 48.5t70 25t75.5 8q46 0 77 -4q3 22 7 33q-16 48 -111 48q-85 0 -150 -35v106q30 14 82.5 23.5t100.5 9.5q98 0 153 -49q65 49 144 49q107 0 160.5 -61.5
t53.5 -153.5q0 -42 -8 -66h-291q2 -51 31 -75t94 -24q28 0 53 6t39.5 12.5t48.5 23.5zM325 200q-19 3 -59 3t-68 -15t-28 -47q0 -25 22.5 -39t48.5 -14q66 0 96 41q-10 33 -12 71zM469 270h166q-2 50 -20.5 74.5t-59.5 24.5q-43 0 -62.5 -25t-23.5 -74z" />
    <glyph glyph-name="ccedilla" unicode="&#xe7;" horiz-adv-x="493" 
d="M455 126v-108q-50 -32 -133 -36l-2 -32q43 -2 71 -22t28 -57q0 -53 -40 -75.5t-100 -22.5q-35 0 -65 6v74q11 -3 42 -3q27 0 46.5 8t19.5 24q0 32 -82 32l17 71q-98 12 -158.5 76t-60.5 164q0 107 73.5 174t189.5 67q92 0 148 -32v-110q-56 37 -122 37q-64 0 -97.5 -34.5
t-33.5 -101.5q0 -66 35 -102t94 -36q69 0 130 39z" />
    <glyph glyph-name="egrave" unicode="&#xe8;" horiz-adv-x="550" 
d="M481 128v-109q-79 -37 -180 -37q-131 0 -197 66.5t-66 180.5q0 106 65.5 171.5t180.5 65.5q109 0 169.5 -62.5t60.5 -152.5q0 -42 -8 -66h-323q4 -99 141 -99q76 0 157 42zM183 270h198q-2 48 -27.5 73.5t-68.5 25.5q-45 0 -71.5 -26.5t-30.5 -72.5zM366 512h-101
l-141 138h160z" />
    <glyph glyph-name="eacute" unicode="&#xe9;" horiz-adv-x="550" 
d="M481 128v-109q-79 -37 -180 -37q-131 0 -197 66.5t-66 180.5q0 106 65.5 171.5t180.5 65.5q109 0 169.5 -62.5t60.5 -152.5q0 -42 -8 -66h-323q4 -99 141 -99q76 0 157 42zM183 270h198q-2 48 -27.5 73.5t-68.5 25.5q-45 0 -71.5 -26.5t-30.5 -72.5zM426 650l-141 -138
h-101l82 138h160z" />
    <glyph glyph-name="ecircumflex" unicode="&#xea;" horiz-adv-x="550" 
d="M481 128v-109q-79 -37 -180 -37q-131 0 -197 66.5t-66 180.5q0 106 65.5 171.5t180.5 65.5q109 0 169.5 -62.5t60.5 -152.5q0 -42 -8 -66h-323q4 -99 141 -99q76 0 157 42zM183 270h198q-2 48 -27.5 73.5t-68.5 25.5q-45 0 -71.5 -26.5t-30.5 -72.5zM439 512h-99l-65 57
l-65 -57h-99l118 138h92z" />
    <glyph glyph-name="edieresis" unicode="&#xeb;" horiz-adv-x="550" 
d="M481 128v-109q-79 -37 -180 -37q-131 0 -197 66.5t-66 180.5q0 106 65.5 171.5t180.5 65.5q109 0 169.5 -62.5t60.5 -152.5q0 -42 -8 -66h-323q4 -99 141 -99q76 0 157 42zM183 270h198q-2 48 -27.5 73.5t-68.5 25.5q-45 0 -71.5 -26.5t-30.5 -72.5zM237 581
q0 -74 -81 -74t-81 74t81 74t81 -74zM475 581q0 -74 -81 -74t-81 74t81 74t81 -74z" />
    <glyph glyph-name="igrave" unicode="&#xec;" horiz-adv-x="280" 
d="M216 0h-152v450h152v-450zM213 512h-101l-141 138h160z" />
    <glyph glyph-name="iacute" unicode="&#xed;" horiz-adv-x="280" 
d="M216 0h-152v450h152v-450zM313 650l-141 -138h-101l82 138h160z" />
    <glyph glyph-name="icircumflex" unicode="&#xee;" horiz-adv-x="280" 
d="M216 0h-152v450h152v-450zM306 512h-99l-65 57l-65 -57h-99l118 138h92z" />
    <glyph glyph-name="idieresis" unicode="&#xef;" horiz-adv-x="280" 
d="M216 0h-152v450h152v-450zM104 581q0 -74 -81 -74t-81 74t81 74t81 -74zM342 581q0 -74 -81 -74t-81 74t81 74t81 -74z" />
    <glyph glyph-name="eth" unicode="&#xf0;" horiz-adv-x="588" 
d="M519 574l-90 -36q117 -117 117 -308q0 -117 -68 -180t-187 -63q-116 0 -185.5 60t-69.5 160t68.5 157t188.5 57q37 0 62 -6q-20 41 -53 72l-149 -60v77l74 30q-47 20 -102 21v94q136 4 239 -60l155 62v-77zM371 312q-76 29 -125.5 1.5t-49.5 -106.5q0 -120 95 -120
t95 120q0 69 -15 105z" />
    <glyph glyph-name="ntilde" unicode="&#xf1;" horiz-adv-x="593" 
d="M536 0h-154v262q0 85 -72 85q-50 0 -96 -30v-317h-154v450h126l14 -56h2q67 70 160 70q174 0 174 -192v-272zM377 643h79q3 -56 -18 -92.5t-74 -36.5q-30 0 -67 21.5t-56 21.5q-27 0 -24 -38h-79q-4 57 18.5 93t71.5 36q30 0 68 -21.5t57 -21.5q29 0 24 38z" />
    <glyph glyph-name="ograve" unicode="&#xf2;" horiz-adv-x="596" 
d="M558 224q0 -106 -69.5 -174t-190.5 -68t-190.5 68t-69.5 174t69.5 174t190.5 68t190.5 -68t69.5 -174zM298 89q48 0 75 34.5t27 100.5t-27 100.5t-75 34.5t-75 -34.5t-27 -100.5t27 -100.5t75 -34.5zM389 512h-101l-141 138h160z" />
    <glyph glyph-name="oacute" unicode="&#xf3;" horiz-adv-x="596" 
d="M558 224q0 -106 -69.5 -174t-190.5 -68t-190.5 68t-69.5 174t69.5 174t190.5 68t190.5 -68t69.5 -174zM298 89q48 0 75 34.5t27 100.5t-27 100.5t-75 34.5t-75 -34.5t-27 -100.5t27 -100.5t75 -34.5zM449 650l-141 -138h-101l82 138h160z" />
    <glyph glyph-name="ocircumflex" unicode="&#xf4;" horiz-adv-x="596" 
d="M558 224q0 -106 -69.5 -174t-190.5 -68t-190.5 68t-69.5 174t69.5 174t190.5 68t190.5 -68t69.5 -174zM298 89q48 0 75 34.5t27 100.5t-27 100.5t-75 34.5t-75 -34.5t-27 -100.5t27 -100.5t75 -34.5zM462 512h-99l-65 57l-65 -57h-99l118 138h92z" />
    <glyph glyph-name="otilde" unicode="&#xf5;" horiz-adv-x="596" 
d="M558 224q0 -106 -69.5 -174t-190.5 -68t-190.5 68t-69.5 174t69.5 174t190.5 68t190.5 -68t69.5 -174zM298 89q48 0 75 34.5t27 100.5t-27 100.5t-75 34.5t-75 -34.5t-27 -100.5t27 -100.5t75 -34.5zM378 643h79q3 -56 -18 -92.5t-74 -36.5q-30 0 -67 21.5t-56 21.5
q-27 0 -24 -38h-79q-4 57 18.5 93t71.5 36q30 0 68 -21.5t57 -21.5q29 0 24 38z" />
    <glyph glyph-name="odieresis" unicode="&#xf6;" horiz-adv-x="596" 
d="M558 224q0 -106 -69.5 -174t-190.5 -68t-190.5 68t-69.5 174t69.5 174t190.5 68t190.5 -68t69.5 -174zM298 89q48 0 75 34.5t27 100.5t-27 100.5t-75 34.5t-75 -34.5t-27 -100.5t27 -100.5t75 -34.5zM260 581q0 -74 -81 -74t-81 74t81 74t81 -74zM498 581q0 -74 -81 -74
t-81 74t81 74t81 -74z" />
    <glyph glyph-name="divide" unicode="&#xf7;" horiz-adv-x="548" 
d="M505 369v-110h-462v110h462zM274 409q-34 0 -58 23.5t-24 57.5q0 35 24 58t58 23q33 0 56.5 -24t23.5 -57q0 -35 -23 -58t-57 -23zM274 56q-34 0 -58 23.5t-24 57.5q0 35 24 58t58 23q33 0 56.5 -24t23.5 -57q0 -35 -23 -58t-57 -23z" />
    <glyph glyph-name="oslash" unicode="&#xf8;" horiz-adv-x="596" 
d="M115 -18h-67l60 67q-70 66 -70 175q0 106 69.5 174t190.5 68q86 0 147 -35l31 35h72l-60 -67q70 -68 70 -175q0 -106 -69.5 -174t-190.5 -68q-86 0 -150 37zM390 290l-158 -177q26 -24 66 -24q48 0 75 34.5t27 100.5q0 39 -10 66zM205 159l156 177q-26 23 -63 23
q-48 0 -75 -34.5t-27 -100.5q0 -38 9 -65z" />
    <glyph glyph-name="ugrave" unicode="&#xf9;" horiz-adv-x="577" 
d="M520 0h-126l-14 56h-2q-64 -70 -153 -70q-85 0 -125 47.5t-40 144.5v272h154v-262q0 -47 16 -66t50 -19q40 0 86 30v317h154v-450zM379 512h-101l-141 138h160z" />
    <glyph glyph-name="uacute" unicode="&#xfa;" horiz-adv-x="577" 
d="M520 0h-126l-14 56h-2q-64 -70 -153 -70q-85 0 -125 47.5t-40 144.5v272h154v-262q0 -47 16 -66t50 -19q40 0 86 30v317h154v-450zM439 650l-141 -138h-101l82 138h160z" />
    <glyph glyph-name="ucircumflex" unicode="&#xfb;" horiz-adv-x="577" 
d="M520 0h-126l-14 56h-2q-64 -70 -153 -70q-85 0 -125 47.5t-40 144.5v272h154v-262q0 -47 16 -66t50 -19q40 0 86 30v317h154v-450zM452 512h-99l-65 57l-65 -57h-99l118 138h92z" />
    <glyph glyph-name="udieresis" unicode="&#xfc;" horiz-adv-x="577" 
d="M520 0h-126l-14 56h-2q-64 -70 -153 -70q-85 0 -125 47.5t-40 144.5v272h154v-262q0 -47 16 -66t50 -19q40 0 86 30v317h154v-450zM250 581q0 -74 -81 -74t-81 74t81 74t81 -74zM488 581q0 -74 -81 -74t-81 74t81 74t81 -74z" />
    <glyph glyph-name="yacute" unicode="&#xfd;" horiz-adv-x="533" 
d="M26 -214v107q27 -12 74 -12q49 0 79 70l18 45l-189 454h152l103 -312h2l104 312h156l-228 -537q-32 -75 -71 -108.5t-103 -33.5q-52 0 -97 15zM437 650l-141 -138h-101l82 138h160z" />
    <glyph glyph-name="thorn" unicode="&#xfe;" horiz-adv-x="596" 
d="M216 -215h-154v865h154v-244h2q58 58 147 58q86 0 138.5 -64.5t52.5 -166.5q0 -116 -58.5 -182.5t-144.5 -66.5q-89 0 -141 54h-2q6 -26 6 -69v-184zM216 309v-176q47 -37 95 -37q42 0 65.5 33.5t23.5 99.5q0 51 -22 88t-71 37q-52 0 -91 -45z" />
    <glyph glyph-name="ydieresis" unicode="&#xff;" horiz-adv-x="533" 
d="M26 -214v107q27 -12 74 -12q49 0 79 70l18 45l-189 454h152l103 -312h2l104 312h156l-228 -537q-32 -75 -71 -108.5t-103 -33.5q-52 0 -97 15zM228 581q0 -74 -81 -74t-81 74t81 74t81 -74zM466 581q0 -74 -81 -74t-81 74t81 74t81 -74z" />
    <glyph glyph-name="dotlessi" unicode="&#x131;" horiz-adv-x="280" 
d="M216 0h-152v450h152v-450z" />
    <glyph glyph-name="Lslash" unicode="&#x141;" horiz-adv-x="504" 
d="M478 0h-414v251l-46 -26v87l46 26v272h156v-184l120 68v-87l-120 -68v-215h258v-124z" />
    <glyph glyph-name="lslash" unicode="&#x142;" horiz-adv-x="288" 
d="M222 0h-156v227l-58 -32v87l58 32v296h156v-208l58 33v-87l-58 -33v-315z" />
    <glyph glyph-name="OE" unicode="&#x152;" horiz-adv-x="962" 
d="M920 0h-434q-44 -13 -96 -13q-149 0 -249.5 83t-100.5 234q0 102 49 175t127 107t174 34q57 0 96 -10h434v-122h-280v-116h256v-119h-256v-131h280v-122zM486 122v363q-33 16 -96 16q-185 0 -185 -197q0 -98 47.5 -148t137.5 -50q67 0 96 16z" />
    <glyph glyph-name="oe" unicode="&#x153;" horiz-adv-x="906" 
d="M837 128v-109q-75 -37 -177 -37q-134 0 -184 75q-54 -75 -178 -75q-121 0 -190.5 68t-69.5 174t69.5 174t190.5 68q123 0 177 -75q53 75 175 75q103 0 161.5 -63t58.5 -152q0 -42 -8 -66h-317q3 -99 138 -99q73 0 154 42zM298 89q48 0 75 34.5t27 100.5t-27 100.5
t-75 34.5t-75 -34.5t-27 -100.5t27 -100.5t75 -34.5zM545 270h192q-5 99 -93 99q-44 0 -69.5 -26t-29.5 -73z" />
    <glyph glyph-name="Scaron" unicode="&#x160;" horiz-adv-x="528" 
d="M34 32v125q37 -25 94 -40t109 -15q47 0 72 12t25 44q0 29 -30 51.5t-72 41t-84.5 41t-72.5 63.5t-30 97q0 84 64.5 128t166.5 44q112 0 178 -34v-126q-82 42 -167 42q-86 0 -86 -51q0 -26 30 -47.5t72.5 -40.5t85.5 -43t73 -66.5t30 -99.5q0 -85 -70 -129.5t-174 -44.5
q-63 0 -125 15t-89 33zM310 672h-92l-118 138h99l65 -57l65 57h99z" />
    <glyph glyph-name="scaron" unicode="&#x161;" horiz-adv-x="446" 
d="M37 8v106q76 -30 136 -30q91 0 91 37q0 8 -5 15t-16.5 12.5t-22 9.5t-28 10.5t-29.5 11.5q-68 31 -90 52q-37 36 -37 92q0 61 52 101.5t141 40.5q92 0 151 -23v-103q-57 27 -120 27q-39 0 -61 -10t-22 -26q0 -9 5.5 -16t21 -14t24.5 -10t34 -11q31 -10 52 -19.5t45 -26.5
t36.5 -42.5t12.5 -59.5q0 -71 -58 -110.5t-144 -39.5q-107 0 -169 26zM269 512h-92l-118 138h99l65 -57l65 57h99z" />
    <glyph glyph-name="Ydieresis" unicode="&#x178;" horiz-adv-x="622" 
d="M389 0h-156v234l-229 376h161l91 -160l54 -108h2l54 108l91 160h161l-229 -376v-234zM273 741q0 -74 -81 -74t-81 74t81 74t81 -74zM511 741q0 -74 -81 -74t-81 74t81 74t81 -74z" />
    <glyph glyph-name="Zcaron" unicode="&#x17d;" horiz-adv-x="571" 
d="M535 0h-501v108l307 386l-294 -2v118h471v-108l-307 -386l324 2v-118zM331 672h-92l-118 138h99l65 -57l65 57h99z" />
    <glyph glyph-name="zcaron" unicode="&#x17e;" horiz-adv-x="484" 
d="M448 0h-414v94l239 254l-228 -2v104h390v-94l-240 -254l253 2v-104zM288 512h-92l-118 138h99l65 -57l65 57h99z" />
    <glyph glyph-name="florin" unicode="&#x192;" horiz-adv-x="652" 
d="M54 -182l18 114q27 -8 54 -8q54 0 70 43q10 31 15 67l42 292h-114l17 109h113q11 83 43 131q21 32 66 52.5t103 20.5q41 0 106 -12l-16 -112q-38 5 -61 5q-38 0 -61.5 -17.5t-31.5 -67.5h122l-18 -109h-120l-52 -361q-12 -75 -64.5 -117.5t-125.5 -42.5q-32 0 -105 13z
" />
    <glyph glyph-name="circumflex" unicode="&#x2c6;" horiz-adv-x="400" 
d="M364 512h-99l-65 57l-65 -57h-99l118 138h92z" />
    <glyph glyph-name="caron" unicode="&#x2c7;" horiz-adv-x="400" 
d="M246 512h-92l-118 138h99l65 -57l65 57h99z" />
    <glyph glyph-name="breve" unicode="&#x2d8;" horiz-adv-x="400" 
d="M269 650h86q0 -69 -44 -106t-111 -37t-111 37t-44 106h87q0 -64 68 -64q69 0 69 64z" />
    <glyph glyph-name="dotaccent" unicode="&#x2d9;" horiz-adv-x="400" 
d="M295 581q0 -39 -24 -61t-71 -22t-71 22t-24 61t24 61t71 22t71 -22t24 -61z" />
    <glyph glyph-name="ring" unicode="&#x2da;" horiz-adv-x="400" 
d="M315 581q0 -43 -33.5 -70.5t-81.5 -27.5t-81.5 27.5t-33.5 70.5t33.5 70.5t81.5 27.5t81.5 -27.5t33.5 -70.5zM240 581q0 17 -11.5 27.5t-28.5 10.5t-28.5 -10.5t-11.5 -27.5t11.5 -27.5t28.5 -10.5t28.5 10.5t11.5 27.5z" />
    <glyph glyph-name="ogonek" unicode="&#x2db;" horiz-adv-x="400" 
d="M266 -93v-72q-46 -16 -91 -16q-51 0 -88.5 22t-37.5 65q0 60 69 97q30 17 69 24l67 -27q-88 -26 -88 -72q0 -29 49 -29q19 0 51 8z" />
    <glyph glyph-name="tilde" unicode="&#x2dc;" horiz-adv-x="400" 
d="M280 643h79q3 -56 -18 -92.5t-74 -36.5q-30 0 -67 21.5t-56 21.5q-27 0 -24 -38h-79q-4 57 18.5 93t71.5 36q30 0 68 -21.5t57 -21.5q29 0 24 38z" />
    <glyph glyph-name="hungarumlaut" unicode="&#x2dd;" horiz-adv-x="400" 
d="M540 650l-141 -138h-95l82 138h154zM333 650l-141 -138h-95l82 138h154z" />
    <glyph glyph-name="uni03A9" unicode="&#x3a9;" horiz-adv-x="700" 
d="M652 0h-264v104q53 50 82.5 114.5t29.5 125.5q0 162 -150 162t-150 -162q0 -61 29.5 -125.5t82.5 -114.5v-104h-264v112h118q-57 37 -92.5 101.5t-35.5 139.5q0 127 81.5 200t230.5 73t230.5 -73t81.5 -200q0 -75 -35.5 -139.5t-92.5 -101.5h118v-112z" />
    <glyph glyph-name="pi" unicode="&#x3c0;" horiz-adv-x="632" 
d="M592 113v-110q-37 -16 -89 -16q-145 0 -145 157v182h-85l-20 -326h-149l20 326l-104 10v114h578v-124h-90v-163q0 -60 46 -60q19 0 38 10z" />
    <glyph glyph-name="uni0E00" unicode="&#xe00;" horiz-adv-x="175" 
 />
    <glyph glyph-name="uni0E01" unicode="&#xe01;" horiz-adv-x="656" 
d="M597 0h-154v313q0 69 -26.5 101t-89.5 32q-58 0 -111 -12v-434h-154v518q135 45 269 45q130 0 198 -57.5t68 -186.5v-319z" />
    <glyph glyph-name="uni0E02" unicode="&#xe02;" horiz-adv-x="618" 
d="M405 228v319h154v-319q0 -121 -71 -183.5t-189 -62.5q-119 0 -185.5 58t-66.5 158q0 46 20.5 86.5t45 62.5t45 43.5t20.5 34.5q0 23 -38 23q-39 0 -81 -20v111q48 20 112 20q71 0 106 -30.5t35 -86.5q0 -29 -11.5 -54.5t-28 -44t-33.5 -38t-28.5 -45t-11.5 -56.5
q0 -48 26 -77.5t74 -29.5q106 0 106 131z" />
    <glyph glyph-name="uni0E03" unicode="&#xe03;" horiz-adv-x="622" 
d="M409 228v319h154v-319q0 -121 -71.5 -183.5t-190.5 -62.5q-118 0 -185 56.5t-67 150.5q0 45 20 85.5t44 65t46.5 51.5t25.5 47h-2q-31 -20 -71 -20q-47 0 -77 24v115q42 -40 86 -40q45 0 75 30h113v-91q0 -38 -17 -72.5t-37 -56.5t-37 -56t-17 -71q0 -46 26.5 -74.5
t73.5 -28.5q108 0 108 131z" />
    <glyph glyph-name="uni0E04" unicode="&#xe04;" horiz-adv-x="676" 
d="M617 0h-154v306q0 72 -28 106t-97 34q-67 0 -96 -34t-29 -106v-72q44 74 121 74q25 0 43 -6v-128q-28 7 -53 7q-75 0 -111 -56v-125h-154v309q0 128 77 191t202 63q130 0 204.5 -62.5t74.5 -191.5v-309z" />
    <glyph glyph-name="uni0E05" unicode="&#xe05;" horiz-adv-x="684" 
d="M625 0h-154v368q0 46 -11 62t-34 16q-38 0 -42 -54h-84q-6 54 -42 54q-23 0 -34 -16t-11 -62v-134q44 74 125 74q27 0 45 -6v-128q-28 7 -55 7q-79 0 -115 -56v-125h-154v369q0 93 45 143.5t119 50.5q41 0 72 -18t46 -49h2q15 31 46 49t72 18q74 0 119 -50.5t45 -143.5
v-369z" />
    <glyph glyph-name="uni0E06" unicode="&#xe06;" horiz-adv-x="649" 
d="M436 202v345h154v-348q0 -105 -48.5 -160t-138.5 -55q-109 0 -187 83h-2l-23 -67h-129v189q0 45 17.5 86t39 65t42 51t23.5 47h-2q-31 -20 -71 -20q-47 0 -77 24v115q42 -40 86 -40q45 0 75 30h117v-91q0 -38 -15 -72.5t-33 -56.5t-33 -56t-15 -71v-23q59 -76 137 -76
q83 0 83 101z" />
    <glyph glyph-name="uni0E07" unicode="&#xe07;" horiz-adv-x="610" 
d="M326 0h-128l-154 430q-11 30 -31 82l-15 35h155l149 -433h1q126 49 126 204q0 61 -26 95.5t-73 34.5q-36 0 -65 -9v113q31 9 83 9q101 0 162.5 -63.5t61.5 -178.5q0 -245 -246 -319z" />
    <glyph glyph-name="uni0E08" unicode="&#xe08;" horiz-adv-x="615" 
d="M293 0h-112l-74 182q-12 31 -32 67l-19 35h159l61 -177q64 6 104.5 54t40.5 133q0 75 -43.5 113.5t-125.5 38.5q-104 0 -216 -50v123q99 44 228 44q152 0 231.5 -73.5t79.5 -195.5q0 -67 -25 -121.5t-67 -89t-90 -55t-100 -28.5z" />
    <glyph glyph-name="uni0E09" unicode="&#xe09;" horiz-adv-x="634" 
d="M575 0h-129l-23 67h-2q-76 -83 -174 -83q-186 0 -186 185v44q0 38 -5 63l-5 24h162v-120q0 -79 76 -79q77 0 132 76v136q0 73 -37.5 103t-121.5 30q-114 0 -215 -52v127q102 42 244 42q127 0 205.5 -59.5t78.5 -181.5v-322z" />
    <glyph glyph-name="uni0E0A" unicode="&#xe0a;" horiz-adv-x="630" 
d="M590 547l-123 -127q114 -52 114 -195q0 -123 -74 -183t-199 -60q-124 0 -192.5 58t-68.5 158q0 46 19.5 86.5t43.5 62.5t43.5 43.5t19.5 34.5q0 23 -38 23q-39 0 -81 -20v111q48 20 112 20q71 0 106 -30.5t35 -86.5q0 -36 -17 -67t-37 -50.5t-37 -51.5t-17 -69
q0 -48 28 -77.5t76 -29.5q126 0 126 140q0 133 -100 154v31l99 125h162z" />
    <glyph glyph-name="uni0E0B" unicode="&#xe0b;" horiz-adv-x="632" 
d="M592 547l-123 -127q114 -52 114 -195q0 -123 -74 -183t-199 -60q-124 0 -192.5 58t-68.5 158q0 46 19.5 85t43.5 61.5t46 48t25 45.5h-2q-31 -20 -71 -20q-47 0 -77 24v115q42 -40 86 -40q45 0 75 30h113v-91q0 -38 -16.5 -72t-36.5 -55t-36.5 -54.5t-16.5 -70.5
q0 -48 28 -77.5t76 -29.5q126 0 126 140q0 133 -100 154v31l99 125h162z" />
    <glyph glyph-name="uni0E0C" unicode="&#xe0c;" horiz-adv-x="992" 
d="M779 194v353h154v-359q0 -97 -47 -150.5t-131 -53.5q-100 0 -178 83h-2l-23 -67h-129v316q0 67 -24 98.5t-82 31.5q-54 0 -101 -12v-277q0 -36 11.5 -49t42.5 -13q32 0 66 10v-105q-50 -14 -104 -14q-76 0 -123 38t-47 123v371q46 18 119.5 31.5t139.5 13.5
q256 0 256 -239v-147q59 -76 128 -76q74 0 74 93z" />
    <glyph glyph-name="uni0E0D" unicode="&#xe0d;" horiz-adv-x="992" 
d="M779 234v313h154v-319q0 -100 -63.5 -157t-191.5 -57t-191.5 57t-63.5 157v88q0 67 -24 98.5t-82 31.5q-54 0 -101 -12v-277q0 -36 11.5 -49t42.5 -13q32 0 66 10v-105q-50 -14 -104 -14q-76 0 -123 38t-47 123v371q46 18 119.5 31.5t139.5 13.5q256 0 256 -239v-90
q0 -49 25.5 -76t75.5 -27t75.5 27t25.5 76zM879 -9l59 -104q-37 -28 -103 -49t-150 -21t-150 21t-103 49l59 104q82 -59 194 -59t194 59z" />
    <glyph glyph-name="uni0E0E" unicode="&#xe0e;" horiz-adv-x="683" 
d="M624 -233h-146l-142 47q-27 10 -50 10q-45 0 -43 -56h-120q-2 77 36 116.5t105 39.5q42 0 92 -15l114 -35v447q0 66 -20.5 95.5t-82.5 29.5q-46 0 -99 -12v-283q0 -89 -38.5 -126t-118.5 -37q-50 0 -95 14v105q27 -10 55 -10q23 0 33 12t10 41v368q135 45 257 45
q128 0 190.5 -56t62.5 -182v-558z" />
    <glyph glyph-name="uni0E0F" unicode="&#xe0f;" horiz-adv-x="683" 
d="M624 -233h-164q-48 0 -85 19t-51 54q-32 -78 -125 -78q-65 0 -100 19v114q39 -22 88 -22q34 0 53.5 13t33.5 51h93q23 -58 93 -58h10v442q0 66 -20.5 95.5t-82.5 29.5q-46 0 -99 -12v-283q0 -89 -38.5 -126t-118.5 -37q-50 0 -95 14v105q27 -10 55 -10q23 0 33 12t10 41
v368q135 45 257 45q128 0 190.5 -56t62.5 -182v-558z" />
    <glyph glyph-name="uni0E10" unicode="&#xe10;" horiz-adv-x="619" 
d="M293 0h-112l-74 182q-12 31 -32 67l-19 35h159l61 -177q64 6 104.5 54t40.5 133q0 72 -45.5 112t-123.5 40q-104 0 -216 -50v123q99 44 228 44q66 0 123 -19l45 50h163l-104 -106q84 -72 84 -194q0 -67 -25 -121.5t-67 -89t-90 -55t-100 -28.5zM526 -232h-120l-138 46
q-27 10 -50 10q-47 0 -45 -56h-113q-2 78 34.5 117t102.5 39q42 0 91 -15l113 -35v83h125v-189z" />
    <glyph glyph-name="uni0E11" unicode="&#xe11;" horiz-adv-x="668" 
d="M609 0h-154v354q0 95 -69 95q-75 0 -120.5 -80t-45.5 -179v-190h-154v189q0 45 16.5 86t37 65t40 51t22.5 47h-2q-31 -20 -71 -20q-47 0 -77 24v115q42 -40 86 -40q45 0 75 30h67l21 -54q64 70 157 70q82 0 126.5 -53.5t44.5 -150.5v-359z" />
    <glyph glyph-name="uni0E12" unicode="&#xe12;" horiz-adv-x="1083" 
d="M870 202v345h154v-348q0 -105 -48.5 -160t-138.5 -55q-109 0 -187 83h-2l-23 -67h-127v397q0 49 -36 49q-20 0 -32.5 -14.5t-14.5 -39.5h-85q-3 28 -11 41t-31 13q-40 0 -68 -46.5t-28 -130.5q0 -71 31 -120.5t95 -49.5q55 0 105 25v-111q-50 -26 -129 -26q-68 0 -119 24
t-79.5 65t-42 89t-13.5 101q0 126 62.5 211.5t164.5 85.5q76 0 109 -67h2q40 67 125 67q72 0 109.5 -43.5t37.5 -114.5v-228q59 -76 137 -76q83 0 83 101z" />
    <glyph glyph-name="uni0E13" unicode="&#xe13;" horiz-adv-x="995" 
d="M933 0h-129l-23 67h-2q-74 -83 -185 -83q-79 0 -125 47.5t-46 134.5v150q0 67 -24 98.5t-82 31.5q-54 0 -101 -12v-277q0 -36 11.5 -49t42.5 -13q32 0 66 10v-105q-50 -14 -104 -14q-76 0 -123 38t-47 123v371q46 18 119.5 31.5t139.5 13.5q256 0 256 -239v-147
q0 -31 18 -53.5t56 -22.5q69 0 128 76v370h154v-547z" />
    <glyph glyph-name="uni0E14" unicode="&#xe14;" horiz-adv-x="684" 
d="M622 0h-154v414q-40 32 -107 32q-78 0 -122.5 -47.5t-44.5 -141.5q0 -70 29.5 -114t93.5 -44q50 0 96 23v-111q-46 -24 -120 -24q-68 0 -118.5 22.5t-79 61.5t-42 85.5t-13.5 100.5q0 141 88.5 223t225.5 82q179 0 268 -105v-457z" />
    <glyph glyph-name="uni0E15" unicode="&#xe15;" horiz-adv-x="717" 
d="M658 0h-152v397q0 25 -11 37t-27 12q-20 0 -33.5 -15t-15.5 -39h-85q-2 27 -11.5 40.5t-32.5 13.5q-40 0 -69 -46.5t-29 -130.5q0 -70 33 -120t97 -50q55 0 105 25v-111q-50 -26 -129 -26q-55 0 -99.5 16t-73.5 43t-48.5 63.5t-28 75.5t-8.5 81q0 126 63 211.5t166 85.5
q78 0 111 -67h2q40 67 127 67q73 0 111 -43.5t38 -114.5v-405z" />
    <glyph glyph-name="uni0E16" unicode="&#xe16;" horiz-adv-x="660" 
d="M601 0h-154v313q0 69 -27 101t-91 32q-60 0 -113 -12v-277q0 -37 12.5 -50.5t50.5 -13.5q36 0 75 14v-105q-44 -18 -115 -18q-177 0 -177 163v371q135 45 271 45q131 0 199.5 -57.5t68.5 -186.5v-319z" />
    <glyph glyph-name="uni0E17" unicode="&#xe17;" horiz-adv-x="664" 
d="M605 0h-154v345q0 101 -84 101q-92 0 -151 -76v-370h-154v547h129l23 -67h2q74 83 196 83q93 0 143 -55.5t50 -159.5v-348z" />
    <glyph glyph-name="uni0E18" unicode="&#xe18;" horiz-adv-x="619" 
d="M65 10v223h150v-133q47 -7 97 -7q56 0 84.5 15t28.5 52q0 41 -34 59t-100 30q-114 20 -153 37q-88 38 -88 126q0 70 71 110.5t200 40.5q56 0 117.5 -10t92.5 -23v-112q-82 32 -198 32q-131 0 -131 -34q0 -22 32.5 -33t117.5 -26q44 -8 76.5 -18.5t70 -31.5t58 -56.5
t20.5 -83.5q0 -100 -71 -140.5t-194 -40.5t-247 24z" />
    <glyph glyph-name="uni0E19" unicode="&#xe19;" horiz-adv-x="649" 
d="M587 0h-129l-23 67h-2q-76 -83 -176 -83q-97 0 -147.5 53.5t-50.5 152.5v357h154v-352q0 -94 87 -94q78 0 133 76v370h154v-547z" />
    <glyph glyph-name="uni0E1A" unicode="&#xe1a;" horiz-adv-x="662" 
d="M449 243v304h154v-307q0 -258 -272 -258t-272 258v307h154v-304q0 -73 27 -108.5t91 -35.5t91 35.5t27 108.5z" />
    <glyph glyph-name="uni0E1B" unicode="&#xe1b;" horiz-adv-x="662" 
d="M449 243v537h154v-540q0 -258 -272 -258t-272 258v307h154v-304q0 -73 27 -108.5t91 -35.5t91 35.5t27 108.5z" />
    <glyph glyph-name="uni0E1C" unicode="&#xe1c;" horiz-adv-x="714" 
d="M652 0h-158h1l-90 145q-23 40 -45 97h-2q-22 -57 -45 -97l-90 -145h-161v404q0 80 40.5 117.5t121.5 37.5q57 0 94 -10v-105q-27 6 -53 6q-30 0 -42.5 -13.5t-12.5 -44.5v-103q0 -85 -12 -153h2q29 79 58 127l56 93h87l55 -93q29 -48 58 -127h2q-12 68 -12 153v258h148
v-547z" />
    <glyph glyph-name="uni0E1D" unicode="&#xe1d;" horiz-adv-x="714" 
d="M652 0h-158h1l-90 145q-23 40 -45 97h-2q-22 -57 -45 -97l-90 -145h-161v404q0 80 40.5 117.5t121.5 37.5q57 0 94 -10v-105q-27 6 -53 6q-30 0 -42.5 -13.5t-12.5 -44.5v-103q0 -85 -12 -153h2q29 79 58 127l56 93h87l55 -93q29 -48 58 -127h2q-12 68 -12 153v491h148
v-780z" />
    <glyph glyph-name="uni0E1E" unicode="&#xe1e;" horiz-adv-x="770" 
d="M654 0h-156l-79 241q-19 55 -30 176h-3q-11 -121 -30 -176l-79 -241h-157l-71 402q-8 43 -25 102q-1 4 -6 19.5t-8 23.5h160l34 -247q12 -86 16 -174h3q27 149 35 174l74 247h110l74 -247q8 -25 35 -174h3q4 88 16 174l34 247h146z" />
    <glyph glyph-name="uni0E1F" unicode="&#xe1f;" horiz-adv-x="770" 
d="M656 0h-156l-79 241q-19 55 -30 176h-3q-11 -121 -30 -176l-79 -241h-157l-73 402q-8 43 -25 102q-1 4 -6 19.5t-8 23.5h160l36 -247q12 -86 16 -174h3q27 149 35 174l74 247h110l74 -247q8 -29 35 -174h3q8 159 10 174l51 480h144z" />
    <glyph glyph-name="uni0E20" unicode="&#xe20;" horiz-adv-x="683" 
d="M624 0h-154v321q0 66 -20.5 95.5t-82.5 29.5q-46 0 -99 -12v-283q0 -89 -38.5 -126t-118.5 -37q-50 0 -95 14v105q27 -10 55 -10q23 0 33 12t10 41v368q135 45 257 45q128 0 190.5 -56t62.5 -182v-325z" />
    <glyph glyph-name="uni0E21" unicode="&#xe21;" horiz-adv-x="649" 
d="M436 202v345h154v-348q0 -105 -48.5 -160t-138.5 -55q-109 0 -187 83h-2l-23 -67h-129v547h154v-370q59 -76 137 -76q83 0 83 101z" />
    <glyph glyph-name="uni0E22" unicode="&#xe22;" horiz-adv-x="641" 
d="M428 127v420h154v-467q-103 -98 -289 -98q-111 0 -181 42.5t-70 135.5q0 82 74 118v2q-69 43 -69 128q0 72 47.5 111.5t135.5 39.5q62 0 94 -10v-111q-26 10 -56 10q-33 0 -52 -9.5t-19 -38.5q0 -23 22 -39t62 -16h62v-97h-129q-21 -29 -21 -62q0 -87 115 -87
q64 0 120 28z" />
    <glyph glyph-name="uni0E23" unicode="&#xe23;" horiz-adv-x="558" 
d="M56 27v118q96 -50 201 -50q103 0 103 56q0 14 -12.5 26t-26 18t-40 15.5t-38.5 14.5q-52 19 -80 32t-58.5 34t-43.5 48.5t-13 64.5q0 75 61 117t170 42q117 0 197 -43v-118q-100 48 -191 48q-93 0 -93 -38q0 -5 1.5 -9.5t5.5 -9t8.5 -8t12.5 -8t14.5 -7.5t18.5 -7.5
t20.5 -8t23.5 -9t25 -9.5q42 -16 61 -24t48 -24.5t41.5 -33t23 -43t10.5 -60.5q0 -83 -63 -126t-181 -43q-57 0 -115 13.5t-91 31.5z" />
    <glyph glyph-name="uni0E24" unicode="&#xe24;" horiz-adv-x="660" 
d="M601 -223h-154v536q0 69 -27 101t-91 32q-60 0 -113 -12v-277q0 -37 12.5 -50.5t50.5 -13.5q36 0 75 14v-105q-44 -18 -115 -18q-177 0 -177 163v371q135 45 271 45q131 0 199.5 -57.5t68.5 -186.5v-542z" />
    <glyph glyph-name="uni0E25" unicode="&#xe25;" horiz-adv-x="630" 
d="M571 0h-152v249q-53 0 -91 -3.5t-70.5 -13t-49.5 -28t-17 -46.5q0 -61 72 -61q39 0 80 16v-109q-44 -18 -106 -18q-91 0 -144 40.5t-53 123.5q0 63 34 105t94.5 61.5t118.5 26.5t132 7q0 57 -25.5 78.5t-96.5 21.5q-112 0 -217 -54v125q93 42 222 42q269 0 269 -218v-345
z" />
    <glyph glyph-name="uni0E26" unicode="&#xe26;" horiz-adv-x="683" 
d="M624 -223h-154v544q0 66 -20.5 95.5t-82.5 29.5q-46 0 -99 -12v-283q0 -89 -38.5 -126t-118.5 -37q-50 0 -95 14v105q27 -10 55 -10q23 0 33 12t10 41v368q135 45 257 45q128 0 190.5 -56t62.5 -182v-548z" />
    <glyph glyph-name="uni0E27" unicode="&#xe27;" horiz-adv-x="564" 
d="M45 16v128q77 -45 161 -45q164 0 164 172q0 175 -147 175q-100 0 -191 -54v127q92 44 207 44q138 0 211.5 -77.5t73.5 -214.5q0 -144 -78 -216.5t-219 -72.5q-116 0 -182 34z" />
    <glyph glyph-name="uni0E28" unicode="&#xe28;" horiz-adv-x="680" 
d="M617 0h-154v306q0 66 -31 103t-94 37q-67 0 -96 -34t-29 -106v-72q44 74 121 74q25 0 43 -6v-128q-28 7 -53 7q-75 0 -111 -56v-125h-154v309q0 128 77 191t202 63q61 0 116 -20l45 51h163l-110 -111q65 -62 65 -174v-309z" />
    <glyph glyph-name="uni0E29" unicode="&#xe29;" horiz-adv-x="676" 
d="M668 267h-63v-27q0 -258 -273 -258t-273 258v307h154v-304q0 -72 27.5 -108t91.5 -36t91.5 36t27.5 108v24h-125v107h125v173h154v-173h63v-107z" />
    <glyph glyph-name="uni0E2A" unicode="&#xe2a;" horiz-adv-x="634" 
d="M571 0h-152v249q-53 0 -91 -3.5t-70.5 -13t-49.5 -28t-17 -46.5q0 -61 72 -61q39 0 80 16v-109q-44 -18 -106 -18q-91 0 -144 40.5t-53 123.5q0 63 34 105t94.5 61.5t118.5 26.5t132 7q0 54 -26.5 77t-95.5 23q-112 0 -217 -54v125q93 42 222 42q67 0 112 -17l43 48h163
l-103 -105q54 -48 54 -144v-345z" />
    <glyph glyph-name="uni0E2B" unicode="&#xe2b;" horiz-adv-x="654" 
d="M592 0h-154v216q0 99 -98 99q-66 0 -124 -27v-288h-154v547h154v-145q65 28 158 28l82 117h162l-106 -154q80 -53 80 -169v-224z" />
    <glyph glyph-name="uni0E2C" unicode="&#xe2c;" horiz-adv-x="714" 
d="M652 0h-161l-90 145q-23 40 -45 97h-2q-22 -57 -45 -97l-90 -145h-157v547h148v-258q0 -85 -12 -153h2q29 79 58 127l55 93h87l56 -93q29 -48 58 -127h2q-12 68 -12 153v107q0 35 -12 49.5t-43 14.5q-32 0 -73 -9v105q24 7 97 13l71 98h160l-108 -126q56 -41 56 -137
v-404z" />
    <glyph glyph-name="uni0E2D" unicode="&#xe2d;" horiz-adv-x="639" 
d="M260 220h-66q-6 -22 -6 -37q0 -87 118 -87q67 0 103 47.5t36 130.5t-44 129t-126 46q-117 0 -216 -56v127q103 43 229 43q147 0 229 -77t82 -212q0 -144 -80.5 -218t-209.5 -74q-124 0 -196.5 51t-72.5 154q0 34 10.5 75.5t24.5 63.5h185v-106z" />
    <glyph glyph-name="uni0E2E" unicode="&#xe2e;" horiz-adv-x="642" 
d="M260 220h-66q-6 -22 -6 -37q0 -87 118 -87q67 0 103 47.5t36 130.5q0 81 -45.5 128t-124.5 47q-117 0 -216 -56v127q103 43 229 43q61 0 118 -19l45 50h163l-107 -108q92 -74 92 -212q0 -144 -80.5 -218t-209.5 -74q-124 0 -196.5 51t-72.5 154q0 34 10.5 75.5t24.5 63.5
h185v-106z" />
    <glyph glyph-name="uni0E2F" unicode="&#xe2f;" horiz-adv-x="571" 
d="M510 -80h-154v480q-64 -75 -162 -75q-74 0 -114 36.5t-40 109.5q0 43 10 76h129q-9 -25 -9 -56q0 -19 14 -33.5t41 -14.5q90 0 131 104h154v-627z" />
    <glyph glyph-name="uni0E30" unicode="&#xe30;" horiz-adv-x="426" 
d="M380 335h-187q-145 0 -145 113q0 39 15 79h133q-8 -18 -8 -40q0 -38 39 -38h153v-114zM380 52h-187q-145 0 -145 113q0 39 15 79h133q-8 -18 -8 -40q0 -38 39 -38h153v-114z" />
    <glyph glyph-name="uni0E31" unicode="&#xe31;" 
d="M62 626h-299q-148 0 -148 121q0 34 18 74h133q-10 -21 -10 -46q0 -41 39 -41h267v-108z" />
    <glyph glyph-name="uni0E32" unicode="&#xe32;" horiz-adv-x="513" 
d="M454 0h-154v333q0 113 -113 113q-88 0 -173 -53v121q88 49 207 49q102 0 167.5 -53.5t65.5 -167.5v-342z" />
    <glyph glyph-name="uni0E33" unicode="&#xe33;" horiz-adv-x="513" 
d="M-8 726q0 -53 -35 -87t-96 -34t-96 34t-35 87q0 52 35 85.5t96 33.5t96 -33.5t35 -85.5zM454 0h-154v333q0 113 -113 113q-88 0 -173 -53v121q88 49 207 49q102 0 167.5 -53.5t65.5 -167.5v-342zM-139 682q18 0 30 12.5t12 30.5t-12 30.5t-30 12.5t-30 -12.5t-12 -30.5
t12 -30.5t30 -12.5z" />
    <glyph glyph-name="uni0E34" unicode="&#xe34;" 
d="M-59 626h-501v110h501v-110z" />
    <glyph glyph-name="uni0E35" unicode="&#xe35;" 
d="M-59 626h-501v110h365l-4 88h140v-198z" />
    <glyph glyph-name="uni0E36" unicode="&#xe36;" 
d="M-162 626h-398v110h278q0 47 32 78t88 31q55 0 87 -31t32 -78q0 -49 -31.5 -79.5t-87.5 -30.5zM-162 692q17 0 29.5 13t12.5 30q0 18 -12.5 31t-29.5 13q-18 0 -30.5 -13t-12.5 -31q0 -17 12.5 -30t30.5 -13z" />
    <glyph glyph-name="uni0E37" unicode="&#xe37;" 
d="M-59 626h-501v110h219l-4 88h116v-92h58l-4 92h116v-198z" />
    <glyph glyph-name="uni0E38" unicode="&#xe38;" 
d="M-59 -276h-140v87q0 30 -38 30q-20 0 -35 -4v92q58 10 103 10q57 0 83.5 -24t26.5 -77v-114z" />
    <glyph glyph-name="uni0E39" unicode="&#xe39;" 
d="M-59 -72v-93q0 -125 -168 -125t-168 125v4h-52v89h180v-84q0 -44 40 -44t40 44v84h128z" />
    <glyph glyph-name="uni0E3A" unicode="&#xe3a;" 
d="M-43 -150q0 -36 -27.5 -62.5t-65.5 -26.5q-39 0 -67 26.5t-28 62.5q0 37 28 63t67 26q38 0 65.5 -26t27.5 -63z" />
    <glyph glyph-name="uni0E3F" unicode="&#xe3f;" horiz-adv-x="652" 
d="M362 -100h-80v100h-216v610h216v100h80v-100q98 0 153 -34q66 -41 66 -122q0 -83 -71 -130v-2q102 -33 102 -147q0 -90 -65.5 -132.5t-178.5 -42.5h-6v-100zM219 117h136q20 0 35 2.5t31 9t24.5 21.5t8.5 37q0 17 -5.5 29t-13.5 18.5t-23 10t-28 4t-34 0.5h-131v-132z
M219 366h190q15 28 15 66q0 33 -17.5 47t-61.5 14h-126v-127z" />
    <glyph glyph-name="uni0E40" unicode="&#xe40;" horiz-adv-x="280" 
d="M216 0h-152v547h152v-547z" />
    <glyph glyph-name="uni0E41" unicode="&#xe41;" horiz-adv-x="530" 
d="M216 0h-152v547h152v-547zM466 0h-152v547h152v-547z" />
    <glyph glyph-name="uni0E42" unicode="&#xe42;" horiz-adv-x="354" 
d="M280 0h-152v554q0 136 -137 176v107q107 48 225 48q109 0 187 -20v-115q-77 24 -162 24q-60 0 -102 -11q70 -28 105.5 -88.5t35.5 -137.5v-537z" />
    <glyph glyph-name="uni0E43" unicode="&#xe43;" horiz-adv-x="354" 
d="M280 0h-152v512q0 27 17.5 57t38.5 52t38.5 50t17.5 51q0 52 -71 52q-94 0 -175 -69v126q68 54 185 54q100 0 151.5 -42.5t51.5 -106.5q0 -35 -16 -68t-35 -55t-35 -51.5t-16 -57.5v-504z" />
    <glyph glyph-name="uni0E44" unicode="&#xe44;" horiz-adv-x="354" 
d="M280 0h-152v506q0 148 131 250l-1 3q-46 -20 -130 -20q-77 0 -142 31v108q87 -35 158 -35q84 0 162 32h84v-111q-63 -45 -86.5 -103.5t-23.5 -138.5v-522z" />
    <glyph glyph-name="uni0E45" unicode="&#xe45;" horiz-adv-x="513" 
d="M454 -223h-154v556q0 113 -113 113q-88 0 -173 -53v121q88 49 207 49q102 0 167.5 -53.5t65.5 -167.5v-565z" />
    <glyph glyph-name="uni0E46" unicode="&#xe46;" horiz-adv-x="688" 
d="M593 -213h-149v514q0 42 -1.5 62t-10 43t-25.5 33l-90 -58l-94 57q-31 -31 -31 -78q0 -64 61 -64q35 0 62 9v-121q-28 -10 -77 -10q-183 0 -183 185q0 75 46.5 129t117.5 75l98 -68l106 69q170 -38 170 -255v-522z" />
    <glyph glyph-name="uni0E47" unicode="&#xe47;" 
d="M-109 626h-78q-21 0 -47 15t-40 36q-37 -55 -107 -55q-59 0 -98 39.5t-39 102.5q0 65 46 101.5t121 36.5h242v-96h-239q-56 0 -56 -42q0 -20 14.5 -30t29.5 -10q49 0 57 44h59q9 -42 63 -42h72v-100z" />
    <glyph glyph-name="uni0E48" unicode="&#xe48;" 
d="M-63 869h-128l-4 189h136z" />
    <glyph glyph-name="uni0E49" unicode="&#xe49;" 
d="M17 869h-304v68q26 8 40 13t29.5 17.5t15.5 27.5q0 26 -36 26q-28 0 -49 -7v72q49 15 88 15q43 0 68 -19t25 -54q0 -44 -32 -72l155 8v-95z" />
    <glyph glyph-name="uni0E4A" unicode="&#xe4a;" 
d="M42 869h-172v53q0 35 -18 35q-20 0 -26 -33h-50q-6 33 -26 33q-18 0 -18 -35v-53h-110v83q0 41 26.5 70.5t69.5 29.5q65 0 83 -52q18 52 84 52q47 0 70.5 -27.5t20.5 -71.5l66 5v-89z" />
    <glyph glyph-name="uni0E4B" unicode="&#xe4b;" 
d="M8 943l-82 2l2 -76h-113l2 76l-80 -2v87l80 -2l-2 76h113l-2 -76l82 2v-87z" />
    <glyph glyph-name="uni0E4C" unicode="&#xe4c;" 
d="M-8 859h-138q-37 0 -37 -30q0 -17 9 -41h-127q-14 29 -14 65q0 48 30.5 78.5t91.5 30.5h185v-103z" />
    <glyph glyph-name="uni0E4D" unicode="&#xe4d;" 
d="M-8 726q0 -53 -35 -87t-96 -34t-96 34t-35 87q0 52 35 85.5t96 33.5t96 -33.5t35 -85.5zM-139 682q18 0 30 12.5t12 30.5t-12 30.5t-30 12.5t-30 -12.5t-12 -30.5t12 -30.5t30 -12.5z" />
    <glyph glyph-name="uni0E4E" unicode="&#xe4e;" horiz-adv-x="1170" 
d="M585 832l485 -277v-555l-485 -276l-485 276v555zM1017 548l-403 231l310 -479zM556 779l-403 -231l93 -248zM129 532v-514l98 251v2zM153 0l403 -230l-310 469zM585 770l-324 -501l324 -492l324 492zM614 -230l404 230l-94 239zM1041 18v514l-98 -263zM415 300
q1 -2 5 -4.5t4 -3.5q0 -5 1 -8q-30 -35 -62 -35q18 12 52 51zM450 199q8 0 10.5 -14t-1.5 -27q-8 -25 -35 -25q-13 1 -22 11.5t-11 20t-4 23.5t-2 15q-1 3 -3 42h1q19 7 39 27q6 -32 -2 -71q-7 -38 7 -44q9 -2 12 11q1 6 -6 17q-1 4 6 9t11 5zM558 212l7 18l1 -42l-15 9
q5 9 7 15zM765 173q1 3 5 8t5 9q2 -8 -2 -20q-7 -18 -7 -44q4 -19 -2 -22q2 6 -1 16q-5 11 -3 30q4 20 5 23zM553 125q2 -2 6 -2t7 1l2 1q0 -3 1.5 -13.5t-0.5 -10.5q-3 12 -13 9q-3 0 -7 -8q-2 8 -8 8q-5 0 -10 -9l-4 6l-6 3q-4 0 -10 -9q-2 7 2 22l-1 32q8 -4 16.5 -10
t15.5 -12.5t9 -7.5zM576 168q2 2 10 2q1 -4 -2 -13q-8 6 -8 11zM568 155q4 3 13 -2l-2 -4q-1 -2 -2.5 -3.5t-1.5 -2.5q-7 5 -7 12zM560 140l2 1q2 1 10 -3q-4 -4 -9 -6q-5 5 -3 8zM558 106q5 2 7 -6q-2 -4 -13 -6q2 12 6 12zM541 105q2 0 6 -11h-6h-8q0 11 8 11zM522 106
l2 -2q4 -4 4 -9q-10 2 -13 4l4.5 6t2.5 1zM748 106q3 1 7 -6q-5 -5 -14 -6q3 12 7 12zM730 105q5 0 7 -11h-6h-8q2 11 7 11zM710 106l3 -1q3 -3 5 -10q-3 1 -8 2t-6 2q1 3 2 4.5t2 2t2 0.5zM798 241q6 -11 6 -24l-5 -26q-1 1 -3 4t-5 15t-2 28q2 50 -7 71q-9 -45 -13 -59
q-5 -15 2 -45q1 -4 -0.5 -8t-5.5 -10t-6 -11q-6 -16 -6 -31q0 -19 6 -33q2 -8 0 -10q-7 9 -12 8q-4 0 -8 -8q-2 8 -9 8q-5 0 -10 -7l-2 6l-7 2q-4 0 -11 -9q-2 4 -1 9q13 56 5 72q-2 5 -14 19t-20.5 30t-9.5 32q-5 -3 0 -21q-38 -5 -86 10q1 8 5 19q-11 -9 -18 -34
q-3 -12 -16 -38q-3 -8 21 -20q11 -2 15 -5q-6 0 -9 -5v-2q0 -3 4 -9q-8 2 -10 -2l-1 -4q0 -5 3 -8h-7l-5 -2q-2 -7 2 -12q-1 1 -3 2t-4.5 2.5t-4.5 3.5q-29 26 -44 29q-16 6 -15 32q13 94 13 95q-4 -2 -8 -13l-16 25q6 4 14 17l10 -15l4 3l2 3l5 7.5t4 7.5q5 12 7 27
q1 6 3 12l3 7q19 43 1 62q-8 8 -19.5 10.5t-18.5 1.5l-7 -2q27 0 39 -14q8 -9 8 -22q0 -4 -9 -34l-3 -7q0 -1 -1.5 -5.5l-2.5 -7.5q-1 -12 -5 -26q-6 -9 -9 -13l-11 18l-3 -5q-8 -16 -16 -21q-18 -8 -21 -11q-7 -7 -9 -16q-1 -3 -3.5 -5.5t-4.5 -3.5l-2 -1q0 3 -1 8v14
l-16 13l-3 -2q-14 -20 -33 -38q0 1 -1 3.5t-1 3.5q-5 -8 -26 -9q10 8 16 14t7 9l1 2v49q-3 29 0 45q2 8 12 39q4 9 10 14t10 5l5 1q16 22 33 24q15 2 36 -0.5t29 -1.5q4 1 21 4t33 5t26 1q92 -13 128 -41q22 -18 32.5 -28t25.5 -35t18 -53zM450 383l9 12q-8 4 -15 -4
q-3 -2 -4 -6.5t0 -8.5l1 -3q6 6 9 10zM521 423q-4 7 -10.5 10t-11.5 2l-5 -1q18 -5 22 -16l1 -27q1 2 3 5t4 11.5t-3 15.5z" />
    <glyph glyph-name="uni0E4F" unicode="&#xe4f;" horiz-adv-x="584" 
d="M520 248q0 -97 -67.5 -162t-162.5 -65t-162.5 65t-67.5 162t67.5 161t162.5 64t162.5 -64t67.5 -161zM290 56q80 0 135.5 56t55.5 136q0 78 -56 134t-135 56t-135 -56t-56 -134q0 -80 56 -136t135 -56zM290 156q38 0 64.5 26.5t26.5 64.5t-26.5 64.5t-64.5 26.5
t-64.5 -26.5t-26.5 -64.5t26.5 -64.5t64.5 -26.5zM290 113q-56 0 -95 39.5t-39 95.5q0 54 39 93.5t95 39.5t95 -39.5t39 -93.5q0 -56 -39 -95.5t-95 -39.5z" />
    <glyph glyph-name="uni0E50" unicode="&#xe50;" horiz-adv-x="642" 
d="M606 236q0 -122 -82 -188t-203 -66t-203 66t-82 188t82 188t203 66t203 -66t82 -188zM321 94q66 0 100.5 36.5t34.5 105.5t-34.5 105.5t-100.5 36.5t-100.5 -36.5t-34.5 -105.5t34.5 -105.5t100.5 -36.5z" />
    <glyph glyph-name="uni0E51" unicode="&#xe51;" horiz-adv-x="647" 
d="M280 -112h-35v112h21q83 0 138 51t55 155q0 92 -37.5 132.5t-113.5 40.5q-64 0 -95 -28t-31 -76t21.5 -73.5t60.5 -25.5q47 0 79 14v-102q-41 -22 -98 -22q-94 0 -151.5 57.5t-57.5 149.5q0 102 79 160t202 58q62 0 113 -15t92 -47t64 -89t23 -134q0 -148 -94.5 -233
t-234.5 -85z" />
    <glyph glyph-name="uni0E52" unicode="&#xe52;" horiz-adv-x="751" 
d="M557 105v201q0 59 -41 70l-54 -43l-62 45q-33 -12 -33 -58q0 -56 52 -56q20 0 36 4v-93q-32 -7 -65 -7q-70 0 -106 41.5t-36 105.5q0 137 144 175l70 -58l70 59q79 -11 121 -61.5t42 -117.5v-291q-123 -39 -321 -39q-167 0 -240.5 40t-73.5 138v430h148v-407
q0 -50 41.5 -69.5t129.5 -19.5q131 0 178 11z" />
    <glyph glyph-name="uni0E53" unicode="&#xe53;" horiz-adv-x="682" 
d="M626 0h-146v315q0 64 -40 64q-41 0 -41 -63v-107h-114v107q0 63 -43 63q-42 0 -42 -64v-155q0 -65 69 -65q39 0 78 13v-103q-44 -18 -111 -18q-182 0 -182 173v157q0 90 44.5 132t114.5 42q91 0 128 -76q44 76 137 76q66 0 107 -42t41 -132v-317z" />
    <glyph glyph-name="uni0E54" unicode="&#xe54;" horiz-adv-x="620" 
d="M581 0h-53q-57 0 -100 17.5t-64 45.5q-34 -63 -131 -63h-66q-131 88 -131 245q0 237 276 237h87q50 0 67 16.5t17 60.5v31h110q13 -47 13 -87q0 -58 -49 -97.5t-138 -39.5h-94q-71 0 -106 -29t-35 -93q0 -76 45 -126h22q41 0 76 24q-12 16 -12 46q0 57 39 84.5t106 27.5
q35 0 63 -5v-98h-31q-49 0 -49 -38q0 -23 25.5 -38t71.5 -15h41v-106z" />
    <glyph glyph-name="uni0E55" unicode="&#xe55;" horiz-adv-x="628" 
d="M589 0h-53q-57 0 -100 17.5t-64 45.5q-34 -63 -131 -63h-74q-131 88 -131 245q0 172 147 219q-2 18 -2 28q0 53 35.5 87.5t99.5 34.5t99.5 -34.5t35.5 -87.5v-6q23 2 31.5 18.5t8.5 54.5v31h110q13 -36 13 -77q0 -147 -187 -147h-102q-71 0 -106 -29t-35 -93
q0 -76 45 -126h30q41 0 76 24q-12 16 -12 46q0 57 39 84.5t106 27.5q35 0 63 -5v-98h-31q-49 0 -49 -38q0 -23 25.5 -38t71.5 -15h41v-106zM316 446q19 0 31 13t12 32q0 18 -12.5 31t-30.5 13t-30.5 -13t-12.5 -31q0 -19 12 -32t31 -13z" />
    <glyph glyph-name="uni0E56" unicode="&#xe56;" horiz-adv-x="639" 
d="M193 316h-124q-21 159 -69 274h153l28 -169q69 69 180 69q105 0 173.5 -63.5t68.5 -184.5q0 -128 -76.5 -194t-208.5 -66q-115 0 -187 46t-72 135q0 34 8 68h150q-7 -21 -7 -52q0 -39 27 -62t82 -23q63 0 98.5 39.5t35.5 108.5q0 136 -128 136q-91 0 -132 -62z" />
    <glyph glyph-name="uni0E57" unicode="&#xe57;" horiz-adv-x="850" 
d="M652 133v477h138v-443q0 -102 -48.5 -142.5t-150.5 -40.5q-87 0 -159 24v307q0 35 -7.5 49.5t-24.5 14.5q-33 0 -33 -63v-47h-98v47q0 63 -35 63q-34 0 -34 -64v-155q0 -65 61 -65q37 0 70 11v-103q-39 -16 -103 -16q-91 0 -132.5 43.5t-41.5 129.5v157q0 90 41 132
t106 42q74 0 116 -68q46 68 125 68q59 0 94.5 -42t35.5 -132v-221q9 -4 28 -4q52 0 52 41z" />
    <glyph glyph-name="uni0E58" unicode="&#xe58;" horiz-adv-x="670" 
d="M447 218v97q17 4 48 4q145 0 145 -165q0 -71 -37 -116.5t-112 -45.5q-111 0 -138 99q-17 -39 -53 -65t-87 -26h-56q-121 81 -121 245q0 237 276 237h97q50 0 67 16.5t17 60.5v31h110q13 -46 13 -77q0 -65 -48.5 -106t-138.5 -41h-104q-71 0 -106 -29t-35 -93
q0 -87 35 -126h12q34 0 53 25t25 56h88q5 -36 23.5 -66.5t52.5 -30.5q43 0 43 63q0 28 -12 42.5t-30 14.5t-27 -4z" />
    <glyph glyph-name="uni0E59" unicode="&#xe59;" horiz-adv-x="684" 
d="M573 0h-127l-167 336q-9 17 -13.5 24.5t-12.5 13t-18 5.5q-35 0 -35 -64v-127q0 -51 16 -72t52 -21q26 0 62 12v-103q-42 -17 -96 -17q-180 0 -180 193v137q0 90 46 132t124 42q86 0 127 -53q35 53 100 53q50 0 77.5 -29t27.5 -80v-17q23 0 23 52v153h105v-145
q0 -73 -28.5 -105.5t-86.5 -32.5h-93v53q0 59 -38 59q-31 0 -46 -29z" />
    <glyph glyph-name="uni0E5B" unicode="&#xe5b;" horiz-adv-x="1202" 
d="M1182 232v-86q-21 0 -44 6t-48.5 18t-47.5 35.5t-33 55.5l-35 -138h-88l-56 163l-48 -188h-80l-68 203q-3 -48 -21 -94t-51.5 -87.5t-92 -67t-134.5 -25.5q-120 0 -202.5 65.5t-82.5 191.5q0 64 21 113t56 76.5t73.5 41.5t78.5 14q87 0 142 -44.5t55 -123.5
q0 -161 -195 -161v106q58 0 58 50q0 61 -56 61q-15 0 -28.5 -5t-29.5 -17.5t-25.5 -41t-9.5 -69.5q0 -76 43.5 -110t98.5 -34q59 0 103 22.5t68.5 62t36.5 86.5t12 102q0 25 -1 37h126l66 -199l36 162h87l57 -177l34 149h78q10 -46 28 -78.5t40 -47.5t41 -21t38 -6z" />
    <glyph glyph-name="endash" unicode="&#x2013;" horiz-adv-x="493" 
d="M463 244h-433v112h433v-112z" />
    <glyph glyph-name="emdash" unicode="&#x2014;" horiz-adv-x="843" 
d="M813 244h-783v112h783v-112z" />
    <glyph glyph-name="quoteleft" unicode="&#x2018;" horiz-adv-x="251" 
d="M156 662l50 -19q-24 -22 -41 -51.5t-17 -52.5q24 -3 43.5 -24t19.5 -53q0 -33 -22 -55t-57 -22q-43 0 -63.5 24t-20.5 60q0 60 34 113.5t74 79.5z" />
    <glyph glyph-name="quoteright" unicode="&#x2019;" horiz-adv-x="251" 
d="M95 385l-50 19q24 22 41 51.5t17 52.5q-24 3 -43.5 24t-19.5 53q0 33 22 55t57 22q43 0 63.5 -24t20.5 -60q0 -60 -34 -113t-74 -80z" />
    <glyph glyph-name="quotesinglbase" unicode="&#x201a;" horiz-adv-x="251" 
d="M95 -116l-50 19q24 22 41 51.5t17 52.5q-24 3 -43.5 24t-19.5 53q0 33 22 55t57 22q43 0 63.5 -24t20.5 -60q0 -60 -34 -113t-74 -80z" />
    <glyph glyph-name="quotedblleft" unicode="&#x201c;" horiz-adv-x="452" 
d="M359 662l50 -19q-24 -22 -41 -51.5t-17 -52.5q24 -3 43.5 -24t19.5 -53q0 -33 -22 -55t-57 -22q-43 0 -63.5 24t-20.5 60q0 60 34 113.5t74 79.5zM152 662l50 -19q-24 -22 -41 -51.5t-17 -52.5q24 -3 43.5 -24t19.5 -53q0 -33 -22 -55t-57 -22q-43 0 -63.5 24t-20.5 60
q0 60 34 113.5t74 79.5z" />
    <glyph glyph-name="quotedblright" unicode="&#x201d;" horiz-adv-x="452" 
d="M93 385l-50 19q24 22 41 51.5t17 52.5q-24 3 -43.5 24t-19.5 53q0 33 22 55t57 22q43 0 63.5 -24t20.5 -60q0 -60 -34 -113t-74 -80zM300 385l-50 19q24 22 41 51.5t17 52.5q-24 3 -43.5 24t-19.5 53q0 33 22 55t57 22q43 0 63.5 -24t20.5 -60q0 -60 -34 -113t-74 -80z
" />
    <glyph glyph-name="quotedblbase" unicode="&#x201e;" horiz-adv-x="458" 
d="M95 -116l-50 19q24 22 41 51.5t17 52.5q-24 3 -43.5 24t-19.5 53q0 33 22 55t57 22q43 0 63.5 -24t20.5 -60q0 -60 -34 -113t-74 -80zM302 -116l-50 19q24 22 41 51.5t17 52.5q-24 3 -43.5 24t-19.5 53q0 33 22 55t57 22q43 0 63.5 -24t20.5 -60q0 -60 -34 -113t-74 -80z
" />
    <glyph glyph-name="dagger" unicode="&#x2020;" horiz-adv-x="520" 
d="M315 -260h-110v604h-175v106h175v200h110v-200h175v-106h-175v-604z" />
    <glyph glyph-name="daggerdbl" unicode="&#x2021;" horiz-adv-x="520" 
d="M315 -261h-110v200h-175v106h175v299h-175v106h175v200h110v-200h175v-106h-175v-299h175v-106h-175v-200z" />
    <glyph glyph-name="bullet" unicode="&#x2022;" horiz-adv-x="386" 
d="M341 315q0 -61 -43 -104.5t-105 -43.5q-60 0 -104 42.5t-44 105.5q0 60 43 104t105 44q60 0 104 -42.5t44 -105.5z" />
    <glyph glyph-name="ellipsis" unicode="&#x2026;" horiz-adv-x="840" 
d="M141 -13q-40 0 -68.5 28t-28.5 68q0 41 28.5 68.5t68.5 27.5q39 0 67 -29t28 -67q0 -41 -27.5 -68.5t-67.5 -27.5zM421 -13q-40 0 -68.5 28t-28.5 68q0 41 28.5 68.5t68.5 27.5q39 0 67 -29t28 -67q0 -41 -27.5 -68.5t-67.5 -27.5zM701 -13q-40 0 -68.5 28t-28.5 68
q0 41 28.5 68.5t68.5 27.5q39 0 67 -29t28 -67q0 -41 -27.5 -68.5t-67.5 -27.5z" />
    <glyph glyph-name="perthousand" unicode="&#x2030;" horiz-adv-x="1048" 
d="M644 610l-455 -610h-101l456 610h100zM338 475q0 -64 -41.5 -105.5t-109.5 -41.5t-109.5 41.5t-41.5 105.5t41.5 106.5t109.5 42.5t109.5 -42.5t41.5 -106.5zM187 401q62 0 62 75t-62 75t-62 -75t62 -75zM696 131q0 -64 -41.5 -105.5t-109.5 -41.5t-109.5 41.5
t-41.5 105.5t41.5 106.5t109.5 42.5t109.5 -42.5t41.5 -106.5zM545 57q62 0 62 75t-62 75t-62 -75t62 -75zM1048 131q0 -64 -41.5 -105.5t-109.5 -41.5t-109.5 41.5t-41.5 105.5t41.5 106.5t109.5 42.5t109.5 -42.5t41.5 -106.5zM897 57q62 0 62 75t-62 75t-62 -75t62 -75z
" />
    <glyph glyph-name="guilsinglleft" unicode="&#x2039;" horiz-adv-x="339" 
d="M305 55h-147l-138 221l138 221h147l-138 -221z" />
    <glyph glyph-name="guilsinglright" unicode="&#x203a;" horiz-adv-x="339" 
d="M181 55h-147l138 221l-138 221h147l138 -221z" />
    <glyph glyph-name="fraction" unicode="&#x2044;" horiz-adv-x="276" 
d="M-39 0h-101l456 610h100z" />
    <glyph glyph-name="Euro" unicode="&#x20ac;" horiz-adv-x="652" 
d="M582 167l20 -124q-71 -61 -174 -61q-113 0 -191 59.5t-104 161.5h-79v71h68q-1 11 -1 32q0 18 1 27h-68v71h79q27 105 107.5 163.5t184.5 58.5q55 0 100 -17.5t70 -39.5l-20 -114q-32 28 -61.5 41t-75.5 13q-48 0 -86.5 -27.5t-59.5 -77.5h185l-12 -71h-189q-1 -9 -1 -27
q0 -10 2 -32h177l-13 -71h-147q21 -49 59.5 -74.5t85.5 -25.5q51 0 81 16t62 48z" />
    <glyph glyph-name="trademark" unicode="&#x2122;" horiz-adv-x="778" 
d="M216 280h-97v253l-99 -1v78h295v-78l-99 1v-253zM740 280h-92l-17 163v47l-65 -210h-73l-67 210l1 -47l-18 -163h-91l40 330h107l65 -201l61 201h110z" />
    <glyph glyph-name="Omega" unicode="&#x2126;" horiz-adv-x="700" 
d="M652 0h-264v104q53 50 82.5 114.5t29.5 125.5q0 162 -150 162t-150 -162q0 -61 29.5 -125.5t82.5 -114.5v-104h-264v112h118q-57 37 -92.5 101.5t-35.5 139.5q0 127 81.5 200t230.5 73t230.5 -73t81.5 -200q0 -75 -35.5 -139.5t-92.5 -101.5h118v-112z" />
    <glyph glyph-name="estimated" unicode="&#x212e;" horiz-adv-x="856" 
d="M687 130h58q-56 -65 -136.5 -102t-174.5 -37q-165 0 -279.5 105t-114.5 253q0 150 113 254.5t277 104.5t277 -104.5t113 -254.5v-14h-628q-5 0 -5 -4v-185q0 -18 8 -29q85 -96 240 -96q156 0 252 109zM673 365v186q0 24 -11 36q-93 91 -231 91q-141 0 -235 -97
q-9 -9 -9 -29v-187q0 -6 5 -6h476q5 0 5 6z" />
    <glyph glyph-name="partialdiff" unicode="&#x2202;" horiz-adv-x="591" 
d="M384 319q-29 24 -78 24q-48 0 -80 -37t-32 -105q0 -47 26.5 -80t71.5 -33q46 0 70.5 41.5t24.5 121.5q0 52 -3 68zM171 563v107q87 0 154.5 -22.5t109.5 -59.5t68.5 -89.5t37 -108t10.5 -119.5q0 -138 -69.5 -211t-189.5 -73q-125 0 -191.5 64t-66.5 171
q0 100 65.5 159.5t168.5 59.5q76 0 115 -17q-7 29 -17 48.5t-31.5 41t-62.5 34t-101 15.5z" />
    <glyph glyph-name="Delta" unicode="&#x2206;" horiz-adv-x="650" 
d="M610 0h-570v89l196 561h177l197 -561v-89zM441 123l-116 385l-116 -385h232z" />
    <glyph glyph-name="product" unicode="&#x220f;" horiz-adv-x="672" 
d="M600 -215h-154v740h-220v-740h-154v865h528v-865z" />
    <glyph glyph-name="summation" unicode="&#x2211;" horiz-adv-x="547" 
d="M522 -215h-495v100l220 338l-208 323v104h469v-140h-260l161 -245v-78l-169 -260h282v-142z" />
    <glyph glyph-name="minus" unicode="&#x2212;" horiz-adv-x="548" 
d="M505 369v-110h-462v110h462z" />
    <glyph glyph-name="uni2219" unicode="&#x2219;" horiz-adv-x="280" 
d="M141 194q-40 0 -68.5 28t-28.5 68q0 41 28.5 68.5t68.5 27.5q39 0 67 -29t28 -67q0 -41 -27.5 -68.5t-67.5 -27.5z" />
    <glyph glyph-name="radical" unicode="&#x221a;" horiz-adv-x="503" 
d="M335 -64h-127l-115 306h-77v107h159l88 -256l113 557h111z" />
    <glyph glyph-name="infinity" unicode="&#x221e;" horiz-adv-x="712" 
d="M352 168q-53 -84 -146 -84q-82 0 -134 47.5t-52 127.5q0 84 53 127.5t127 43.5q95 0 157 -84q54 84 149 84q82 0 134 -47.5t52 -127.5q0 -84 -53 -127.5t-127 -43.5q-98 0 -160 84zM316 276q-11 20 -42.5 40.5t-58.5 20.5q-38 0 -56.5 -24t-18.5 -55q0 -32 17.5 -56.5
t52.5 -24.5q62 0 106 99zM397 276q44 -99 106 -99q35 0 52.5 24.5t17.5 56.5q0 31 -18.5 55t-56.5 24q-27 0 -58.5 -20.5t-42.5 -40.5z" />
    <glyph glyph-name="integral" unicode="&#x222b;" horiz-adv-x="427" 
d="M20 -212v117q33 -12 64 -12q50 0 50 65v538q0 32 7 59.5t23 53.5t49 41t79 15q64 0 115 -17v-117q-33 12 -64 12q-50 0 -50 -65v-538q0 -32 -7 -59.5t-23 -53.5t-49 -41t-79 -15q-64 0 -115 17z" />
    <glyph glyph-name="approxequal" unicode="&#x2248;" horiz-adv-x="548" 
d="M489 470v-120q-59 -48 -119 -48q-39 0 -101 32t-93 32q-55 0 -117 -57v120q57 48 118 48q39 0 101 -32t94 -32q63 0 117 57zM489 281v-120q-59 -48 -119 -48q-39 0 -101 32t-93 32q-55 0 -117 -57v120q57 48 118 48q39 0 101 -32t94 -32q63 0 117 57z" />
    <glyph glyph-name="notequal" unicode="&#x2260;" horiz-adv-x="548" 
d="M490 147h-255l-77 -147h-80l77 147h-97v108h154l48 91h-202v108h258l74 140h80l-74 -140h94v-108h-150l-48 -91h198v-108z" />
    <glyph glyph-name="lessequal" unicode="&#x2264;" horiz-adv-x="548" 
d="M488 101l-466 224v96l466 224v-119l-336 -153l336 -153v-119zM488 0h-466v90h466v-90z" />
    <glyph glyph-name="greaterequal" unicode="&#x2265;" horiz-adv-x="548" 
d="M526 325l-466 -224v119l336 153l-336 153v119l466 -224v-96zM526 0h-466v90h466v-90z" />
    <glyph glyph-name="lozenge" unicode="&#x25ca;" horiz-adv-x="574" 
d="M345 0h-116l-199 324l199 326h116l199 -326zM287 146l111 179l-111 180l-111 -180z" />
    <glyph glyph-name="uni0E10.alt1" unicode="&#xf700;" horiz-adv-x="619" 
d="M293 0h-112l-74 182q-12 31 -32 67l-19 35h159l61 -177q64 6 104.5 54t40.5 133q0 72 -45.5 112t-123.5 40q-104 0 -216 -50v123q99 44 228 44q66 0 123 -19l45 50h163l-104 -106q84 -72 84 -194q0 -67 -25 -121.5t-67 -89t-90 -55t-100 -28.5z" />
    <glyph glyph-name="uni0E34.alt1" unicode="&#xf701;" 
d="M-269 626h-401v110h401v-110z" />
    <glyph glyph-name="uni0E35.alt1" unicode="&#xf702;" 
d="M-269 626h-401v110h265l-4 88h140v-198z" />
    <glyph glyph-name="uni0E36.alt1" unicode="&#xf703;" 
d="M-372 626h-298v110h178q0 47 32 78t88 31q55 0 87 -31t32 -78q0 -49 -31.5 -79.5t-87.5 -30.5zM-372 692q17 0 29.5 13t12.5 30q0 18 -12.5 31t-29.5 13q-18 0 -30.5 -13t-12.5 -31q0 -17 12.5 -30t30.5 -13z" />
    <glyph glyph-name="uni0E37.alt1" unicode="&#xf704;" 
d="M-269 626h-401v110h119l-4 88h116v-92h58l-4 92h116v-198z" />
    <glyph glyph-name="uni0E48.alt1" unicode="&#xf705;" 
d="M-312 626h-135l-9 218h152z" />
    <glyph glyph-name="uni0E49.alt1" unicode="&#xf706;" 
d="M-267 626h-349v80q26 6 34.5 8.5t26.5 10t24.5 16.5t6.5 21q0 27 -39 27q-34 0 -52 -8v79q55 16 95 16q108 0 108 -77q0 -39 -35 -72l180 3v-104z" />
    <glyph glyph-name="uni0E4A.alt1" unicode="&#xf707;" 
d="M-202 626h-183v50q0 43 -20 43q-24 0 -30 -41h-60q-6 41 -31 41q-20 0 -20 -43v-50h-121v80q0 46 29 80t77 34q69 0 95 -53q26 53 97 53q53 0 78.5 -28.5t22.5 -77.5l66 6v-94z" />
    <glyph glyph-name="uni0E4B.alt1" unicode="&#xf708;" 
d="M-285 713l-100 3l2 -90h-125l3 90l-98 -3v98l98 -2l-3 89h125l-2 -89l100 2v-98z" />
    <glyph glyph-name="uni0E4C.alt1" unicode="&#xf709;" 
d="M-273 704h-98q-40 0 -40 -33q0 -21 10 -45h-136q-16 33 -16 71q0 53 33 84.5t102 31.5h145v-109z" />
    <glyph glyph-name="uni0E48.alt2" unicode="&#xf70a;" 
d="M-72 626h-135l-9 218h152z" />
    <glyph glyph-name="uni0E49.alt2" unicode="&#xf70b;" 
d="M-17 626h-339v80q26 6 34.5 8.5t26.5 10t24.5 16.5t6.5 21q0 27 -39 27q-34 0 -52 -8v79q55 16 95 16q108 0 108 -77q0 -39 -35 -72l170 3v-104z" />
    <glyph glyph-name="uni0E4A.alt2" unicode="&#xf70c;" 
d="M-22 626h-193v50q0 43 -20 43q-24 0 -30 -41h-60q-6 41 -31 41q-20 0 -20 -43v-50h-121v80q0 46 29 80t77 34q69 0 95 -53q26 53 97 53q53 0 78.5 -28.5t22.5 -77.5l76 6v-94z" />
    <glyph glyph-name="uni0E4B.alt2" unicode="&#xf70d;" 
d="M-37 713l-100 3l2 -90h-125l3 90l-98 -3v98l98 -2l-3 89h125l-2 -89l100 2v-98z" />
    <glyph glyph-name="uni0E4C.alt2" unicode="&#xf70e;" 
d="M-23 704h-132q-40 0 -40 -33q0 -21 10 -45h-136q-16 33 -16 71q0 53 33 84.5t102 31.5h179v-109z" />
    <glyph glyph-name="uni0E0D.alt1" unicode="&#xf70f;" horiz-adv-x="992" 
d="M779 204v343h154v-349q0 -94 -66.5 -154t-188.5 -60q-128 0 -191.5 57t-63.5 157v118q0 67 -24 98.5t-82 31.5q-54 0 -101 -12v-277q0 -36 11.5 -49t42.5 -13q32 0 66 10v-105q-50 -14 -104 -14q-76 0 -123 38t-47 123v371q46 18 119.5 31.5t139.5 13.5q256 0 256 -239
v-120q0 -49 25.5 -76t75.5 -27t75.5 27t25.5 76z" />
    <glyph glyph-name="uni0E31.alt1" unicode="&#xf710;" 
d="M-117 626h-313q-148 0 -148 121q0 34 18 74h133q-10 -21 -10 -46q0 -41 39 -41h281v-108z" />
    <glyph glyph-name="uni0E4D.alt1" unicode="&#xf711;" 
d="M-263 726q0 -53 -35 -87t-96 -34t-96 34t-35 87q0 52 35 85.5t96 33.5t96 -33.5t35 -85.5zM-394 682q18 0 30 12.5t12 30.5t-12 30.5t-30 12.5t-30 -12.5t-12 -30.5t12 -30.5t30 -12.5z" />
    <glyph glyph-name="uni0E47.alt1" unicode="&#xf712;" 
d="M-272 626h-68q-21 0 -45 14.5t-38 36.5q-35 -55 -103 -55q-58 0 -95.5 39.5t-37.5 102.5q0 65 44 101.5t119 36.5h224v-96h-221q-52 0 -52 -42q0 -21 12.5 -30.5t27.5 -9.5q45 0 53 44h59q9 -42 59 -42h62v-100z" />
    <glyph glyph-name="uni0E48.alt3" unicode="&#xf713;" 
d="M-273 869h-128l-4 189h136z" />
    <glyph glyph-name="uni0E49.alt3" unicode="&#xf714;" 
d="M-197 869h-304v68q26 8 40 13t29.5 17.5t15.5 27.5q0 26 -36 26q-28 0 -49 -7v72q49 15 88 15q43 0 68 -19t25 -54q0 -44 -32 -72l155 8v-95z" />
    <glyph glyph-name="uni0E4A.alt3" unicode="&#xf715;" 
d="M-153 869h-172v53q0 35 -18 35q-20 0 -26 -33h-50q-6 33 -26 33q-18 0 -18 -35v-53h-110v83q0 41 26.5 70.5t69.5 29.5q65 0 83 -52q18 52 84 52q47 0 70.5 -27.5t20.5 -71.5l66 5v-89z" />
    <glyph glyph-name="uni0E4B.alt3" unicode="&#xf716;" 
d="M-202 943l-82 2l2 -76h-113l2 76l-80 -2v87l80 -2l-2 76h113l-2 -76l82 2v-87z" />
    <glyph glyph-name="uni0E4C.alt3" unicode="&#xf717;" 
d="M-218 859h-138q-37 0 -37 -30q0 -17 9 -41h-127q-14 29 -14 65q0 48 30.5 78.5t91.5 30.5h185v-103z" />
    <glyph glyph-name="uni0E38.alt1" unicode="&#xf718;" 
d="M-59 -466h-140v87q0 30 -38 30q-20 0 -35 -4v92q58 10 103 10q57 0 83.5 -24t26.5 -77v-114z" />
    <glyph glyph-name="uni0E39.alt1" unicode="&#xf719;" 
d="M-59 -262v-93q0 -125 -168 -125t-168 125v4h-52v89h180v-84q0 -44 40 -44t40 44v84h128z" />
    <glyph glyph-name="uni0E3A.alt1" unicode="&#xf71a;" 
d="M-43 -340q0 -36 -27.5 -62.5t-65.5 -26.5q-39 0 -67 26.5t-28 62.5q0 37 28 63t67 26q38 0 65.5 -26t27.5 -63z" />
    <glyph glyph-name="uni0E0E.alt1" unicode="&#xf71b;" horiz-adv-x="683" 
d="M624 -213h-146l-142 47q-27 10 -50 10q-45 0 -43 -56h-120q-2 79 37 119.5t107 40.5q41 0 89 -15l114 -35v423q0 66 -20.5 95.5t-82.5 29.5q-46 0 -99 -12v-283q0 -89 -38.5 -126t-118.5 -37q-50 0 -95 14v105q27 -10 55 -10q23 0 33 12t10 41v368q135 45 257 45
q128 0 190.5 -56t62.5 -182v-538z" />
    <glyph glyph-name="uni0E0F.alt1" unicode="&#xf71c;" horiz-adv-x="683" 
d="M624 -213h-164q-48 0 -85 19t-51 54q-32 -78 -125 -78q-65 0 -100 19v114q39 -22 88 -22q34 0 53.5 13t33.5 51h93q23 -58 93 -58h10v422q0 66 -20.5 95.5t-82.5 29.5q-46 0 -99 -12v-283q0 -89 -38.5 -126t-118.5 -37q-50 0 -95 14v105q27 -10 55 -10q23 0 33 12t10 41
v368q135 45 257 45q128 0 190.5 -56t62.5 -182v-538z" />
    <glyph glyph-name="uni0E2C.alt1" unicode="&#xf71d;" horiz-adv-x="714" 
d="M652 0h-161l-90 137q-32 55 -45 89h-2q-13 -34 -45 -89l-90 -137h-157v547h148v-258q0 -85 -12 -153h2q5 14 9 25t11.5 24t10 18t13.5 23.5t14 23.5l55 90h87l56 -89q43 -76 58 -115h2q-12 68 -12 153v59q0 35 -12 49.5t-43 14.5q-32 0 -73 -9v93q24 7 97 13l62 85h160
l-99 -113q31 -18 43.5 -43.5t12.5 -73.5v-364z" />
    <glyph glyph-name="uniF8FF" unicode="&#xf8ff;" horiz-adv-x="1170" 
d="M585 832l485 -277v-555l-485 -276l-485 276v555zM1017 548l-403 231l310 -479zM556 779l-403 -231l93 -248zM129 532v-514l98 251v2zM153 0l403 -230l-310 469zM585 770l-324 -501l324 -492l324 492zM614 -230l404 230l-94 239zM1041 18v514l-98 -263zM415 300
q1 -2 5 -4.5t4 -3.5q0 -5 1 -8q-30 -35 -62 -35q18 12 52 51zM450 199q8 0 10.5 -14t-1.5 -27q-8 -25 -35 -25q-13 1 -22 11.5t-11 20t-4 23.5t-2 15q-1 3 -3 42h1q19 7 39 27q6 -32 -2 -71q-7 -38 7 -44q9 -2 12 11q1 6 -6 17q-1 4 6 9t11 5zM558 212l7 18l1 -42l-15 9
q5 9 7 15zM765 173q1 3 5 8t5 9q2 -8 -2 -20q-7 -18 -7 -44q4 -19 -2 -22q2 6 -1 16q-5 11 -3 30q4 20 5 23zM553 125q2 -2 6 -2t7 1l2 1q0 -3 1.5 -13.5t-0.5 -10.5q-3 12 -13 9q-3 0 -7 -8q-2 8 -8 8q-5 0 -10 -9l-4 6l-6 3q-4 0 -10 -9q-2 7 2 22l-1 32q8 -4 16.5 -10
t15.5 -12.5t9 -7.5zM576 168q2 2 10 2q1 -4 -2 -13q-8 6 -8 11zM568 155q4 3 13 -2l-2 -4q-1 -2 -2.5 -3.5t-1.5 -2.5q-7 5 -7 12zM560 140l2 1q2 1 10 -3q-4 -4 -9 -6q-5 5 -3 8zM558 106q5 2 7 -6q-2 -4 -13 -6q2 12 6 12zM541 105q2 0 6 -11h-6h-8q0 11 8 11zM522 106
l2 -2q4 -4 4 -9q-10 2 -13 4l4.5 6t2.5 1zM748 106q3 1 7 -6q-5 -5 -14 -6q3 12 7 12zM730 105q5 0 7 -11h-6h-8q2 11 7 11zM710 106l3 -1q3 -3 5 -10q-3 1 -8 2t-6 2q1 3 2 4.5t2 2t2 0.5zM798 241q6 -11 6 -24l-5 -26q-1 1 -3 4t-5 15t-2 28q2 50 -7 71q-9 -45 -13 -59
q-5 -15 2 -45q1 -4 -0.5 -8t-5.5 -10t-6 -11q-6 -16 -6 -31q0 -19 6 -33q2 -8 0 -10q-7 9 -12 8q-4 0 -8 -8q-2 8 -9 8q-5 0 -10 -7l-2 6l-7 2q-4 0 -11 -9q-2 4 -1 9q13 56 5 72q-2 5 -14 19t-20.5 30t-9.5 32q-5 -3 0 -21q-38 -5 -86 10q1 8 5 19q-11 -9 -18 -34
q-3 -12 -16 -38q-3 -8 21 -20q11 -2 15 -5q-6 0 -9 -5v-2q0 -3 4 -9q-8 2 -10 -2l-1 -4q0 -5 3 -8h-7l-5 -2q-2 -7 2 -12q-1 1 -3 2t-4.5 2.5t-4.5 3.5q-29 26 -44 29q-16 6 -15 32q13 94 13 95q-4 -2 -8 -13l-16 25q6 4 14 17l10 -15l4 3l2 3l5 7.5t4 7.5q5 12 7 27
q1 6 3 12l3 7q19 43 1 62q-8 8 -19.5 10.5t-18.5 1.5l-7 -2q27 0 39 -14q8 -9 8 -22q0 -4 -9 -34l-3 -7q0 -1 -1.5 -5.5l-2.5 -7.5q-1 -12 -5 -26q-6 -9 -9 -13l-11 18l-3 -5q-8 -16 -16 -21q-18 -8 -21 -11q-7 -7 -9 -16q-1 -3 -3.5 -5.5t-4.5 -3.5l-2 -1q0 3 -1 8v14
l-16 13l-3 -2q-14 -20 -33 -38q0 1 -1 3.5t-1 3.5q-5 -8 -26 -9q10 8 16 14t7 9l1 2v49q-3 29 0 45q2 8 12 39q4 9 10 14t10 5l5 1q16 22 33 24q15 2 36 -0.5t29 -1.5q4 1 21 4t33 5t26 1q92 -13 128 -41q22 -18 32.5 -28t25.5 -35t18 -53zM450 383l9 12q-8 4 -15 -4
q-3 -2 -4 -6.5t0 -8.5l1 -3q6 6 9 10zM521 423q-4 7 -10.5 10t-11.5 2l-5 -1q18 -5 22 -16l1 -27q1 2 3 5t4 11.5t-3 15.5z" />
    <glyph glyph-name="NULL" 
 />
    <glyph glyph-name="CR" horiz-adv-x="250" 
 />
    <glyph glyph-name="uni0E33.alt1" horiz-adv-x="513" 
d="M-263 726q0 -53 -35 -87t-96 -34t-96 34t-35 87q0 52 35 85.5t96 33.5t96 -33.5t35 -85.5zM454 0h-154v333q0 113 -113 113q-88 0 -173 -53v121q88 49 207 49q102 0 167.5 -53.5t65.5 -167.5v-342zM-394 682q18 0 30 12.5t12 30.5t-12 30.5t-30 12.5t-30 -12.5t-12 -30.5
t12 -30.5t30 -12.5z" />
    <glyph glyph-name="uni0E4E.alt1" 
 />
    <glyph glyph-name="uni0E01.alt" horiz-adv-x="640" 
d="M581 0h-154v343q0 56 -26.5 79.5t-82.5 23.5q-36 0 -48 -4q-30 -34 -41 -72.5t-11 -95.5v-274h-154v258q0 119 80 179q-55 -4 -105 -15v100q105 41 262 41q280 0 280 -211v-352z" />
    <glyph glyph-name="uni0E2B.alt" horiz-adv-x="624" 
d="M561 0h-149v228q0 40 -16.5 56.5t-48.5 16.5t-72.5 -12.5t-68.5 -30.5v-258h-150v547h150v-186q68 42 158 46l70 140h166l-94 -172q55 -42 55 -133v-242z" />
    <glyph glyph-name="uni0E2D.alt" horiz-adv-x="633" 
d="M593 274q0 -146 -83.5 -219t-212.5 -73q-71 0 -136.5 16.5t-104.5 40.5v256h148v-188q30 -11 89 -11q67 0 106.5 46t39.5 132q0 83 -45 129t-131 46q-111 0 -210 -56v127q103 43 229 43q147 0 229 -77t82 -212z" />
    <glyph glyph-name="zero.tab" horiz-adv-x="652" 
d="M326 -18q-128 0 -206 83.5t-78 238.5t78 238.5t206 83.5t206 -83.5t78 -238.5t-78 -238.5t-206 -83.5zM326 100q128 0 128 204t-128 204t-128 -204t128 -204z" />
    <glyph glyph-name="one.tab" horiz-adv-x="652" 
d="M446 0h-150v459q-52 -57 -170 -55v129q66 -3 120 23t70 54h130v-610z" />
    <glyph glyph-name="two.tab" horiz-adv-x="652" 
d="M550 0h-450v108q165 112 223.5 176t58.5 127q0 95 -105 95q-93 0 -173 -47v132q80 35 186 35q130 0 189 -59t59 -149q0 -47 -21 -92t-60 -83t-74.5 -65.5t-82.5 -57.5h250v-120z" />
    <glyph glyph-name="three.tab" horiz-adv-x="652" 
d="M433 320v-2q57 -11 90 -49t33 -97q0 -90 -70.5 -139t-185.5 -49q-114 0 -186 33v122q26 -15 76.5 -26t87.5 -11q122 0 122 83q0 89 -171 74v110q158 0 158 73q0 66 -113 66q-89 0 -150 -36v120q70 32 186 32q108 0 168 -42t60 -124q0 -107 -105 -138z" />
    <glyph glyph-name="four.tab" horiz-adv-x="652" 
d="M501 0h-150v113h-309v102l305 395h154v-382h84v-115h-84v-113zM351 228v205l-156 -205h156z" />
    <glyph glyph-name="five.tab" horiz-adv-x="652" 
d="M99 15v121q68 -33 160 -33q145 0 145 97q0 86 -149 86q-63 0 -141 -10l12 334h404v-120h-268l-4 -91q15 1 52 1q126 0 188.5 -54t62.5 -144q0 -105 -78.5 -161.5t-204.5 -56.5q-115 0 -179 31z" />
    <glyph glyph-name="six.tab" horiz-adv-x="652" 
d="M523 601v-123q-51 28 -125 28q-82 0 -118.5 -41t-43.5 -117q56 50 145 50q97 0 149.5 -55t52.5 -140q0 -99 -62.5 -158.5t-170.5 -59.5q-125 0 -195.5 79t-70.5 234q0 156 81 241t214 85q75 0 144 -23zM234 227q5 -57 35 -90.5t73 -33.5q39 0 68 22t29 76q0 38 -23 65.5
t-68 27.5q-34 0 -65 -19t-49 -48z" />
    <glyph glyph-name="seven.tab" horiz-adv-x="652" 
d="M318 0h-164l216 490h-286v120h453v-109z" />
    <glyph glyph-name="eight.tab" horiz-adv-x="652" 
d="M458 317v-2q111 -32 111 -146q0 -85 -67.5 -136t-185.5 -51q-109 0 -171 50t-62 128q0 53 28.5 92t84.5 57v2q-100 36 -100 144q0 74 62 122.5t166 48.5q105 0 166.5 -47t61.5 -124q0 -50 -27 -85.5t-67 -52.5zM295 254q-28 -11 -48 -33t-20 -50q0 -39 29.5 -59.5
t69.5 -20.5t69.5 20.5t29.5 62.5q0 59 -130 80zM359 368q22 15 37.5 39t15.5 48q0 31 -28 47.5t-62 16.5q-39 -1 -62 -19t-23 -45q0 -70 122 -87z" />
    <glyph glyph-name="nine.tab" horiz-adv-x="652" 
d="M129 8v123q51 -28 125 -28q82 0 118.5 41t43.5 117q-56 -50 -145 -50q-97 0 -149.5 55t-52.5 140q0 99 62.5 158.5t170.5 59.5q125 0 195.5 -79t70.5 -234q0 -156 -81 -241t-214 -85q-75 0 -144 23zM418 382q-5 57 -35 90.5t-73 33.5q-39 0 -68 -22t-29 -76
q0 -38 23 -65.5t68 -27.5q34 0 65 19t49 48z" />
    </font>
</defs>
</svg>
