<?xml version="1.0" standalone="no"?>
<!DOCTYPE svg PUBLIC "-//W3C//DTD SVG 1.1//EN" "http://www.w3.org/Graphics/SVG/1.1/DTD/svg11.dtd" >
<svg xmlns="http://www.w3.org/2000/svg" xmlns:xlink="http://www.w3.org/1999/xlink" version="1.1">
<metadata>
Created by FontForge 20170731 at Mon Nov 25 20:08:50 2013
 By Aleksey,,,
Copyright (c) 2013 by Chorong Kim &#38; Cadson Demak Team for SCG Group. All rights reserved.
</metadata>
<defs>
<font id="SCGLight" horiz-adv-x="0" >
  <font-face 
    font-family="SCG Light"
    font-weight="400"
    font-stretch="normal"
    units-per-em="1000"
    panose-1="2 0 5 3 0 0 0 2 0 4"
    ascent="800"
    descent="-200"
    x-height="450"
    cap-height="610"
    bbox="-609 -465 1136 1101"
    underline-thickness="20"
    underline-position="-173"
    unicode-range="U+0020-FB02"
  />
<missing-glyph horiz-adv-x="555" 
d="M555 0h-555v700h555v-700zM277 395l189 255h-377zM500 95v510l-189 -255zM466 50l-189 255l-188 -255h377zM56 95l188 255l-188 255v-510z" />
    <glyph glyph-name="uni0E5A" unicode="&#xe2f;&#xe2f;" horiz-adv-x="635" 
d="M404 -80h-50v553q-60 -122 -178 -122q-64 0 -98 33.5t-34 99.5q0 27 12 63h51q-12 -31 -12 -62q0 -37 20 -63.5t63 -26.5q116 0 176 152h50v-627zM555 -80h-50v627h50v-627z" />
    <glyph glyph-name="uni0E4F.liga" unicode="&#xe4f;&#x22;" horiz-adv-x="580" 
d="M235 530h-40l-7 200h54zM385 530h-40l-7 200h54zM520 248q0 -97 -67.5 -162t-162.5 -65t-162.5 65t-67.5 162t67.5 161t162.5 64t162.5 -64t67.5 -161zM290 56q80 0 135.5 56t55.5 136q0 78 -56 134t-135 56t-135 -56t-56 -134q0 -80 56 -136t135 -56zM290 156
q38 0 64.5 26.5t26.5 64.5t-26.5 64.5t-64.5 26.5t-64.5 -26.5t-26.5 -64.5t26.5 -64.5t64.5 -26.5zM290 113q-56 0 -95 39.5t-39 95.5q0 54 39 93.5t95 39.5t95 -39.5t39 -93.5q0 -56 -39 -95.5t-95 -39.5z" />
    <glyph glyph-name="uni0E24.liga" unicode="&#xe24;&#xe32;" horiz-adv-x="1002" 
d="M925 -223h-50v550q0 102 -42 143t-142 41q-64 0 -176 -31q38 -56 38 -148v-555h-50v550q0 102 -42 143t-142 41q-109 0 -189 -25v-352q0 -57 21.5 -77.5t68.5 -20.5q43 0 76 12v-42q-35 -14 -80 -14q-67 0 -101.5 31.5t-34.5 104.5v391q129 38 245 38q98 0 153 -40
q128 40 219 40q116 0 172 -55t56 -170v-555z" />
    <glyph glyph-name="uni0E26.liga" unicode="&#xe26;&#xe32;" horiz-adv-x="982" 
d="M905 -223h-50v550q0 102 -42 143t-142 41q-63 0 -145 -23q40 -52 40 -146v-565h-50v560q0 95 -39 134.5t-130 39.5q-93 0 -173 -25v-373q0 -119 -103 -119q-33 0 -55 6v40q20 -5 48 -5q60 0 60 80v404q129 38 229 38q80 0 133 -32q112 32 191 32q116 0 172 -55t56 -170
v-555z" />
    <glyph glyph-name="fi" unicode="fi" horiz-adv-x="550" 
d="M162 0h-50v408h-86v42h86v22q0 91 59 139.5t158 48.5q82 0 143 -28v-44q-65 28 -138 28q-172 0 -172 -145v-21h149v-42h-149v-408zM472 0h-50v450h50v-450z" />
    <glyph glyph-name="fl" unicode="fl" horiz-adv-x="550" 
d="M472 0h-50v608q-46 8 -88 8q-172 0 -172 -145v-21h149v-42h-149v-408h-50v408h-86v42h86v22q0 91 59 139.5t158 48.5q75 0 143 -17v-643z" />
    <glyph glyph-name=".notdef" horiz-adv-x="555" 
d="M555 0h-555v700h555v-700zM277 395l189 255h-377zM500 95v510l-189 -255zM466 50l-189 255l-188 -255h377zM56 95l188 255l-188 255v-510z" />
    <glyph glyph-name=".null" 
 />
    <glyph glyph-name="nonmarkingreturn" horiz-adv-x="333" 
 />
    <glyph glyph-name="space" unicode=" " horiz-adv-x="264" 
 />
    <glyph glyph-name="exclam" unicode="!" horiz-adv-x="222" 
d="M128 210h-34l-10 400h54zM157 37q0 -20 -13.5 -31.5t-32.5 -11.5t-32.5 11.5t-13.5 31.5t13.5 31.5t32.5 11.5t32.5 -11.5t13.5 -31.5z" />
    <glyph glyph-name="quotedbl" unicode="&#x22;" horiz-adv-x="316" 
d="M113 410h-40l-7 240h54zM243 410h-40l-7 240h54z" />
    <glyph glyph-name="numbersign" unicode="#" horiz-adv-x="600" 
d="M362 0h-48l38 183h-164l-38 -183h-48l38 183h-101v46h111l40 191h-98v46h107l39 182h48l-39 -182h164l39 182h48l-39 -182h102v-46h-111l-40 -191h99v-46h-109zM362 229l40 191h-164l-40 -191h164z" />
    <glyph glyph-name="dollar" unicode="$" horiz-adv-x="600" 
d="M329 -100h-46v91q-58 2 -116.5 21.5t-92.5 42.5l20 40q85 -60 206 -60q31 0 58.5 5t54.5 16.5t43 35t16 56.5q0 17 -5 31t-17.5 26.5t-23.5 22t-32 20t-34.5 16.5t-40 17t-38.5 16q-5 2 -24 10.5t-26.5 12t-25.5 12t-26.5 14t-23.5 15.5t-22.5 18t-18 19.5t-15.5 23
t-8.5 25.5t-3.5 29q0 71 52 107t144 38v89h46v-90q88 -6 163 -50l-20 -40q-80 46 -174 46q-80 0 -120 -23t-40 -77q0 -18 8.5 -34t18.5 -26.5t32 -23.5t36 -19.5t43.5 -19.5t42.5 -19q10 -5 36 -16t40.5 -18.5t37.5 -20t36.5 -24.5t27.5 -28.5t20.5 -36t6.5 -42.5
q0 -71 -55 -110t-140 -46v-92z" />
    <glyph glyph-name="percent" unicode="%" horiz-adv-x="680" 
d="M136 0h-48l458 610h46zM185 330q-63 0 -99 41.5t-36 103.5t36 103.5t99 41.5t99 -41.5t36 -103.5t-36 -103.5t-99 -41.5zM185 363q46 0 71 29t25 83t-25 83t-71 29t-71 -29t-25 -83t25 -83t71 -29zM495 -10q-63 0 -99 41.5t-36 103.5t36 103.5t99 41.5t99 -41.5
t36 -103.5t-36 -103.5t-99 -41.5zM495 23q46 0 71 29t25 83t-25 83t-71 29t-71 -29t-25 -83t25 -83t71 -29z" />
    <glyph glyph-name="ampersand" unicode="&#x26;" horiz-adv-x="630" 
d="M608 0h-60l-77 74q-78 -84 -205 -84q-95 0 -155.5 42.5t-60.5 123.5q0 119 141 190q-84 78 -84 145q0 56 44 92.5t120 36.5q79 0 122 -42.5t43 -115.5h-48q0 53 -28 84t-87 31q-55 0 -86.5 -22t-31.5 -63q0 -32 19 -60t58 -66l233 -227q50 80 50 194h48q0 -136 -64 -227z
M438 106l-213 207q-123 -51 -123 -157q0 -45 27 -73.5t60 -38t70 -9.5q113 0 179 71z" />
    <glyph glyph-name="quotesingle" unicode="'" horiz-adv-x="194" 
d="M117 410h-40l-7 240h54z" />
    <glyph glyph-name="parenleft" unicode="(" horiz-adv-x="266" 
d="M246 -106v-26q-80 64 -132 166t-52 228t52 228t132 166v-26q-63 -61 -98.5 -155.5t-35.5 -212.5t35.5 -212.5t98.5 -155.5z" />
    <glyph glyph-name="parenright" unicode=")" horiz-adv-x="266" 
d="M20 -132v26q63 61 98.5 155.5t35.5 212.5t-35.5 212.5t-98.5 155.5v26q80 -64 132 -166t52 -228t-52 -228t-132 -166z" />
    <glyph glyph-name="asterisk" unicode="*" horiz-adv-x="435" 
d="M355 366l-123 84l6 -144h-41l6 144l-123 -84l-20 30l132 77l-132 77l20 30l123 -84l-6 144h41l-6 -144l123 84l20 -30l-132 -77l132 -77z" />
    <glyph glyph-name="plus" unicode="+" horiz-adv-x="514" 
d="M281 84h-48v202h-193v44h193v202h48v-202h193v-44h-193v-202z" />
    <glyph glyph-name="comma" unicode="," horiz-adv-x="208" 
d="M82 -112l-27 10q46 53 46 96q-18 0 -30.5 12.5t-12.5 30.5q0 19 13 31t34 12q24 0 35.5 -14t11.5 -32q0 -68 -70 -146z" />
    <glyph glyph-name="hyphen" unicode="-" horiz-adv-x="316" 
d="M280 284h-244v44h244v-44z" />
    <glyph glyph-name="period" unicode="." horiz-adv-x="208" 
d="M150 37q0 -20 -13.5 -31.5t-32.5 -11.5t-32.5 11.5t-13.5 31.5t13.5 31.5t32.5 11.5t32.5 -11.5t13.5 -31.5z" />
    <glyph glyph-name="slash" unicode="/" horiz-adv-x="456" 
d="M66 -40h-52l376 690h52z" />
    <glyph glyph-name="zero" unicode="0" horiz-adv-x="600" 
d="M300 -10q-116 0 -180 81.5t-64 233.5t64 233.5t180 81.5t180 -81.5t64 -233.5t-64 -233.5t-180 -81.5zM300 35q97 0 145.5 70t48.5 200t-48.5 200t-145.5 70t-145.5 -70t-48.5 -200t48.5 -200t145.5 -70z" />
    <glyph glyph-name="one" unicode="1" horiz-adv-x="342" 
d="M242 0h-50v555q-53 -78 -158 -73v42q53 -2 91 18t71 68h46v-610z" />
    <glyph glyph-name="two" unicode="2" horiz-adv-x="512" 
d="M452 0h-404v40q172 105 258.5 201.5t86.5 191.5q0 67 -42.5 104.5t-125.5 37.5q-82 0 -160 -34v47q71 32 163 32q108 0 161.5 -53.5t53.5 -134.5q0 -55 -25 -108.5t-71.5 -102t-100 -90.5t-122.5 -85h328v-46z" />
    <glyph glyph-name="three" unicode="3" horiz-adv-x="492" 
d="M36 25v48q89 -37 184 -37q160 0 160 130q0 134 -219 129v45q92 -4 146 27t54 102q0 106 -143 106q-86 0 -170 -37v47q76 35 172 35q84 0 137.5 -36.5t53.5 -115.5q0 -62 -32.5 -99t-84.5 -50v-2q56 -6 96 -46.5t40 -105.5q0 -90 -56 -132.5t-150 -42.5q-112 0 -188 35z
" />
    <glyph glyph-name="four" unicode="4" horiz-adv-x="528" 
d="M401 0h-50v131h-329v41l325 438h54v-434h97v-45h-97v-131zM351 176v368l-269 -368h269z" />
    <glyph glyph-name="five" unicode="5" horiz-adv-x="522" 
d="M50 19v48q84 -32 172 -32q100 0 145 35t45 113q0 140 -190 140q-78 0 -158 -16l13 303h348v-45h-304l-9 -207q63 10 123 10q110 0 168.5 -49t58.5 -136q0 -193 -239 -193q-93 0 -173 29z" />
    <glyph glyph-name="six" unicode="6" horiz-adv-x="554" 
d="M432 592v-44q-60 29 -116 29q-96 0 -154 -73t-58 -206q27 40 81.5 68t117.5 28q105 0 154 -55.5t49 -141.5q0 -97 -59 -152t-153 -55q-110 0 -174 77t-64 230q0 157 71 240t186 83q61 0 119 -28zM104 244q6 -96 55 -153t136 -57q70 0 116.5 40t46.5 120q0 69 -36 112.5
t-121 43.5q-123 0 -197 -106z" />
    <glyph glyph-name="seven" unicode="7" horiz-adv-x="472" 
d="M182 0h-50l242 565h-346v45h400v-37z" />
    <glyph glyph-name="eight" unicode="8" horiz-adv-x="552" 
d="M234 307v2q-163 32 -163 159q0 69 54.5 110.5t146.5 41.5q98 0 151.5 -40t53.5 -111q0 -108 -152 -160v-2q81 -12 126 -52t45 -102q0 -78 -56.5 -120.5t-163.5 -42.5q-99 0 -159.5 39.5t-60.5 113.5q0 65 43 105.5t135 58.5zM273 286q-168 -38 -168 -137q0 -118 171 -118
q66 0 118.5 29.5t52.5 92.5q0 59 -44.5 89.5t-129.5 43.5zM286 331q67 22 104.5 52t37.5 86q0 50 -40.5 80t-114.5 30q-71 0 -112 -30.5t-41 -80.5q0 -60 41.5 -92t124.5 -45z" />
    <glyph glyph-name="nine" unicode="9" horiz-adv-x="554" 
d="M122 18v44q60 -29 116 -29q96 0 154 73t58 206q-30 -41 -83 -68.5t-116 -27.5q-105 0 -154 55.5t-49 141.5q0 97 59 152t153 55q110 0 174 -77t64 -230q0 -157 -71 -240t-186 -83q-61 0 -119 28zM450 366q-6 96 -55 153t-136 57q-70 0 -116.5 -40t-46.5 -120
q0 -69 36 -112.5t121 -43.5q123 0 197 106z" />
    <glyph glyph-name="colon" unicode=":" horiz-adv-x="248" 
d="M170 37q0 -20 -13.5 -31.5t-32.5 -11.5t-32.5 11.5t-13.5 31.5t13.5 31.5t32.5 11.5t32.5 -11.5t13.5 -31.5zM170 417q0 -20 -13.5 -31.5t-32.5 -11.5t-32.5 11.5t-13.5 31.5t13.5 31.5t32.5 11.5t32.5 -11.5t13.5 -31.5z" />
    <glyph glyph-name="semicolon" unicode=";" horiz-adv-x="248" 
d="M170 417q0 -20 -13.5 -31.5t-32.5 -11.5t-32.5 11.5t-13.5 31.5t13.5 31.5t32.5 11.5t32.5 -11.5t13.5 -31.5zM101 -112l-27 10q46 53 46 96q-18 0 -30.5 12.5t-12.5 30.5q0 19 13 31t34 12q24 0 35.5 -14t11.5 -32q0 -68 -70 -146z" />
    <glyph glyph-name="less" unicode="&#x3c;" horiz-adv-x="514" 
d="M454 116l-422 208v42l422 208v-43l-379 -186l379 -186v-43z" />
    <glyph glyph-name="equal" unicode="=" horiz-adv-x="514" 
d="M464 206h-414v42h414v-42zM464 366h-414v42h414v-42z" />
    <glyph glyph-name="greater" unicode="&#x3e;" horiz-adv-x="514" 
d="M482 324l-422 -208v43l379 186l-379 186v43l422 -208v-42z" />
    <glyph glyph-name="question" unicode="?" horiz-adv-x="430" 
d="M211 210h-50q66 57 113.5 125t47.5 131q0 110 -119 110q-87 0 -163 -37v46q72 35 167 35q75 0 120 -39t45 -114q0 -71 -44.5 -132t-116.5 -125zM227 37q0 -20 -13.5 -31.5t-32.5 -11.5t-32.5 11.5t-13.5 31.5t13.5 31.5t32.5 11.5t32.5 -11.5t13.5 -31.5z" />
    <glyph glyph-name="at" unicode="@" horiz-adv-x="738" 
d="M654 133h34q-98 -146 -296 -146q-163 0 -252.5 83t-89.5 239q0 70 20.5 131.5t61 111.5t109 79.5t157.5 29.5q139 0 214.5 -81.5t75.5 -202.5q0 -97 -45.5 -167.5t-113.5 -70.5q-34 0 -53 19.5t-19 49.5q-19 -31 -54 -50t-81 -19q-59 0 -94.5 39.5t-35.5 110.5
q0 92 46.5 154.5t134.5 62.5q45 0 75 -23.5t38 -53.5l18 68h43l-51 -257q-3 -14 -3 -28q0 -39 43 -39q50 0 84 59.5t34 147.5q0 104 -64.5 178.5t-192.5 74.5q-73 0 -130.5 -22.5t-91 -56.5t-55 -79.5t-29 -86.5t-7.5 -83q0 -59 14 -107t47 -91t97 -67.5t154 -24.5
q92 0 158 32t100 86zM452 257l24 126q-7 36 -31 61t-68 25q-63 0 -99.5 -52t-36.5 -126q0 -55 25 -85t65 -30q80 0 121 81z" />
    <glyph glyph-name="A" unicode="A" horiz-adv-x="636" 
d="M616 0h-53l-70 156h-350l-70 -156h-53l272 610h52zM473 201l-98 224l-56 137h-2l-56 -136l-98 -225h310z" />
    <glyph glyph-name="B" unicode="B" horiz-adv-x="590" 
d="M326 0h-244v610h248q178 0 178 -152q0 -90 -76 -139q112 -32 112 -154q0 -165 -218 -165zM134 44h192q76 0 121 25t45 96q0 40 -13 66t-38 37.5t-47.5 15t-55.5 3.5h-204v-243zM134 331h203q15 0 45 -2q74 54 74 128q0 56 -28.5 82.5t-99.5 26.5h-194v-235z" />
    <glyph glyph-name="C" unicode="C" horiz-adv-x="612" 
d="M560 84v-54q-82 -40 -189 -40q-138 0 -227.5 85t-89.5 230q0 146 88.5 230.5t231.5 84.5q103 0 175 -37v-50q-70 40 -175 40q-122 0 -195 -70.5t-73 -197.5t73 -197.5t192 -70.5q104 0 189 47z" />
    <glyph glyph-name="D" unicode="D" horiz-adv-x="648" 
d="M134 46h155q127 0 190 63t63 200q0 133 -62 194t-187 61h-159v-518zM291 0h-209v610h213q146 0 222.5 -77.5t76.5 -223.5q0 -152 -77.5 -230.5t-225.5 -78.5z" />
    <glyph glyph-name="E" unicode="E" horiz-adv-x="510" 
d="M454 0h-374v610h374v-46h-322v-231h294v-46h-294v-241h322v-46z" />
    <glyph glyph-name="F" unicode="F" horiz-adv-x="496" 
d="M436 258h-302v-258h-52v610h374v-46h-322v-260h302v-46z" />
    <glyph glyph-name="G" unicode="G" horiz-adv-x="656" 
d="M536 66v238h52v-268q-89 -46 -213 -46q-140 0 -230.5 85t-90.5 230t92.5 230t237.5 85q109 0 185 -39v-50q-74 42 -185 42q-125 0 -201.5 -70.5t-76.5 -197.5t74 -197.5t195 -70.5q84 0 161 29z" />
    <glyph glyph-name="H" unicode="H" horiz-adv-x="658" 
d="M578 0h-52v287h-394v-287h-52v610h52v-277h394v277h52v-610z" />
    <glyph glyph-name="I" unicode="I" horiz-adv-x="216" 
d="M134 0h-52v610h52v-610z" />
    <glyph glyph-name="J" unicode="J" horiz-adv-x="350" 
d="M218 173v437h52v-442q0 -93 -39.5 -134.5t-120.5 -41.5q-47 0 -80 10v46q30 -11 80 -11q55 0 81.5 28.5t26.5 107.5z" />
    <glyph glyph-name="K" unicode="K" horiz-adv-x="510" 
d="M484 0h-60l-290 319v-319h-52v610h52v-276l283 276h60l-290 -283z" />
    <glyph glyph-name="L" unicode="L" horiz-adv-x="468" 
d="M440 0h-358v610h52v-564h306v-46z" />
    <glyph glyph-name="M" unicode="M" horiz-adv-x="808" 
d="M746 0h-52l-32 358l-12 184h-2l-65 -173l-152 -369h-54l-152 369l-65 173h-2l-12 -184l-32 -358h-52l58 610h57l176 -426l50 -136h2l50 136l176 426h57z" />
    <glyph glyph-name="N" unicode="N" horiz-adv-x="664" 
d="M584 0h-52l-307 408q-62 83 -97 139h-2q6 -49 6 -177v-370h-52v610h52l307 -408q62 -83 97 -139h2q-6 130 -6 177v370h52v-610z" />
    <glyph glyph-name="O" unicode="O" horiz-adv-x="746" 
d="M373 37q119 0 193 70.5t74 197.5t-74 197.5t-193 70.5t-193 -70.5t-74 -197.5t74 -197.5t193 -70.5zM692 305q0 -144 -90 -229.5t-229 -85.5t-229 85.5t-90 229.5t90 229.5t229 85.5t229 -85.5t90 -229.5z" />
    <glyph glyph-name="P" unicode="P" horiz-adv-x="570" 
d="M134 280h167q88 0 129.5 33t41.5 109t-41.5 109t-129.5 33h-167v-284zM134 0h-52v610h219q223 0 223 -188t-223 -188h-167v-234z" />
    <glyph glyph-name="Q" unicode="Q" horiz-adv-x="746" 
d="M670 -102v-49q-29 -5 -64 -5q-79 0 -135.5 35t-97.5 112q-138 0 -228.5 85t-90.5 229t90 229.5t229 85.5t229 -85.5t90 -229.5q0 -132 -76.5 -214t-198.5 -97q61 -104 192 -104q37 0 61 8zM373 37q119 0 193 70.5t74 197.5t-74 197.5t-193 70.5t-193 -70.5t-74 -197.5
t74 -197.5t193 -70.5z" />
    <glyph glyph-name="R" unicode="R" horiz-adv-x="582" 
d="M544 0h-53l-55 174q-16 49 -45.5 71.5t-94.5 22.5h-162v-268h-52v610h214q224 0 224 -165q0 -65 -35 -105t-92 -50v-2q69 -20 94 -103zM134 315h159q89 0 132 30t43 100q0 67 -42.5 93t-132.5 26h-159v-249z" />
    <glyph glyph-name="S" unicode="S" horiz-adv-x="512" 
d="M48 35v46q98 -46 194 -46q166 0 166 113q0 13 -2.5 24.5t-9.5 22t-13 18.5t-19 17t-21 14.5t-26 14t-26 12.5t-29.5 13t-29.5 13q-90 41 -121 66q-56 47 -57 111q0 74 53.5 110t148.5 36q86 0 162 -31v-46q-76 32 -159 32q-78 0 -116 -23t-38 -78q0 -15 4 -28.5t14.5 -25
t18.5 -19.5t28 -19t29 -15.5t36 -16.5t35 -16q4 -2 27 -12.5t30 -14t27.5 -14t28.5 -17t23.5 -18t22.5 -22t15.5 -25t12 -30t3.5 -33.5q0 -79 -58.5 -118.5t-156.5 -39.5q-114 0 -197 45z" />
    <glyph glyph-name="T" unicode="T" horiz-adv-x="554" 
d="M303 0h-52v565l-223 -1v46h498v-46l-223 1v-565z" />
    <glyph glyph-name="U" unicode="U" horiz-adv-x="684" 
d="M555 265v345h52v-350q0 -149 -69 -212q-64 -58 -196 -58q-130 0 -194 58q-71 65 -71 212v350h52v-345q0 -123 51.5 -176t161.5 -53t161.5 53t51.5 176z" />
    <glyph glyph-name="V" unicode="V" horiz-adv-x="608" 
d="M330 0h-52l-256 610h52l178 -426l51 -136h2l51 137l178 425h52z" />
    <glyph glyph-name="W" unicode="W" horiz-adv-x="946" 
d="M712 0h-54l-147 422l-37 138h-2l-38 -139l-146 -421h-54l-208 610h54l135 -398l45 -162h2l46 162l138 398h54l138 -398l46 -162h2l45 162l135 398h54z" />
    <glyph glyph-name="X" unicode="X" horiz-adv-x="616" 
d="M592 0h-59l-225 278l-225 -278h-59l254 312l-242 298h59l213 -264l213 264h59l-243 -298z" />
    <glyph glyph-name="Y" unicode="Y" horiz-adv-x="602" 
d="M327 0h-52v236l-251 374h54l142 -213l79 -126h4l79 126l142 213h54l-251 -374v-236z" />
    <glyph glyph-name="Z" unicode="Z" horiz-adv-x="556" 
d="M504 0h-456v40l380 526l-367 -2v46h427v-40l-380 -525l396 1v-46z" />
    <glyph glyph-name="bracketleft" unicode="[" horiz-adv-x="262" 
d="M232 -136h-134v798h134v-42h-86v-714h86v-42z" />
    <glyph glyph-name="backslash" unicode="\" horiz-adv-x="456" 
d="M442 -40h-52l-376 690h52z" />
    <glyph glyph-name="bracketright" unicode="]" horiz-adv-x="262" 
d="M164 -136h-134v42h86v714h-86v42h134v-798z" />
    <glyph glyph-name="asciicircum" unicode="^" horiz-adv-x="508" 
d="M458 252h-43l-161 316l-161 -316h-43l183 358h42z" />
    <glyph glyph-name="underscore" unicode="_" horiz-adv-x="350" 
d="M350 -94h-350v33h350v-33z" />
    <glyph glyph-name="grave" unicode="`" horiz-adv-x="300" 
d="M220 512h-37l-105 138h64z" />
    <glyph glyph-name="a" unicode="a" horiz-adv-x="516" 
d="M393 140v74q-82 22 -147 22q-149 0 -149 -106q0 -98 121 -98q117 0 175 108zM442 0h-42l-6 84h-2q-22 -40 -66.5 -67t-109.5 -27q-79 0 -123.5 36t-44.5 104q0 71 51 109.5t140 38.5q78 0 154 -24v42q0 60 -36 92t-102 32q-88 0 -166 -38v44q77 36 167 36q86 0 136 -42
t50 -129v-291z" />
    <glyph glyph-name="b" unicode="b" horiz-adv-x="554" 
d="M120 0h-42v650h50v-282h2q69 94 178 94q95 0 144.5 -62t49.5 -170q0 -120 -53 -180t-138 -60q-120 0 -183 94h-2zM128 317v-179q26 -45 73 -74.5t104 -29.5q63 0 105 49t42 147q0 86 -37 137t-114 51q-102 0 -173 -101z" />
    <glyph glyph-name="c" unicode="c" horiz-adv-x="489" 
d="M441 69v-45q-58 -34 -149 -34q-109 0 -175.5 67.5t-66.5 168.5t66.5 168.5t173.5 67.5q82 0 147 -35v-44q-62 37 -147 37t-137.5 -55.5t-52.5 -138.5t53 -138.5t139 -55.5q87 0 149 37z" />
    <glyph glyph-name="d" unicode="d" horiz-adv-x="554" 
d="M476 0h-42l-6 84h-2q-54 -94 -162 -94q-91 0 -151.5 59.5t-60.5 178.5q0 106 57 170t155 64q99 0 160 -82h2v270h50v-650zM426 138v189q-61 91 -162 91q-77 0 -119.5 -52.5t-42.5 -137.5q0 -98 47 -146t117 -48q101 0 160 104z" />
    <glyph glyph-name="e" unicode="e" horiz-adv-x="528" 
d="M455 78v-47q-73 -41 -160 -41q-116 0 -180.5 65t-64.5 171q0 104 60.5 170t168.5 66q95 0 149 -54.5t54 -157.5q0 -12 -6 -42h-376q5 -80 56 -128t139 -48q77 0 160 46zM101 248h333q0 87 -41 129.5t-114 42.5q-78 0 -125 -48t-53 -124z" />
    <glyph glyph-name="f" unicode="f" horiz-adv-x="354" 
d="M162 0h-50v408h-86v42h86v47q0 163 150 163q46 0 78 -14v-44q-38 14 -75 14q-56 0 -79.5 -28t-23.5 -95v-43h159v-42h-159v-408z" />
    <glyph glyph-name="g" unicode="g" horiz-adv-x="552" 
d="M426 138v179q-64 101 -163 101q-78 0 -119.5 -52t-41.5 -138q0 -98 47 -146t116 -48q102 0 161 104zM428 -8v92h-2q-23 -41 -65 -67.5t-98 -26.5q-91 0 -151 59.5t-60 178.5q0 106 56.5 170t154.5 64q54 0 96 -27t66 -65h2l6 80h43v-455q0 -204 -220 -204q-90 0 -170 39
v44q80 -41 174 -41q84 0 126 35.5t42 123.5z" />
    <glyph glyph-name="h" unicode="h" horiz-adv-x="572" 
d="M498 0h-50v279q0 139 -124 139q-104 0 -196 -101v-317h-50v650h50v-282q87 94 201 94q77 0 123 -45t46 -129v-288z" />
    <glyph glyph-name="i" unicode="i" horiz-adv-x="206" 
d="M128 0h-50v450h50v-450zM145 580q0 -18 -11 -29t-31 -11t-31 11t-11 29t11 29t31 11t31 -11t11 -29z" />
    <glyph glyph-name="j" unicode="j" horiz-adv-x="216" 
d="M155 580q0 -18 -11 -29t-31 -11t-31 11t-11 29t11 29t31 11t31 -11t11 -29zM88 -105v555h50v-559q0 -114 -102 -114q-28 0 -62 8v34h44q39 0 54.5 17t15.5 59z" />
    <glyph glyph-name="k" unicode="k" horiz-adv-x="452" 
d="M430 0h-61l-241 241v-241h-50v650h50v-400l222 200h62l-228 -203z" />
    <glyph glyph-name="l" unicode="l" horiz-adv-x="206" 
d="M128 0h-50v650h50v-650z" />
    <glyph glyph-name="m" unicode="m" horiz-adv-x="846" 
d="M772 0h-50v291q0 65 -23 95t-79 30q-94 0 -172 -100q0 -3 0.5 -10.5t0.5 -11.5v-294h-50v291q0 65 -23 95t-79 30q-98 0 -171 -100v-316h-50v450h43l6 -84h2q26 39 72.5 66.5t101.5 27.5q113 0 140 -100q28 42 78 71t105 29q72 0 110 -42t38 -124v-294z" />
    <glyph glyph-name="n" unicode="n" horiz-adv-x="568" 
d="M494 0h-50v279q0 139 -121 139q-59 0 -105 -27t-92 -76v-315h-50v450h43l6 -84h2q96 96 201 96q76 0 121 -44.5t45 -129.5v-288z" />
    <glyph glyph-name="o" unicode="o" horiz-adv-x="580" 
d="M530 226q0 -101 -66.5 -168.5t-173.5 -67.5t-173.5 67.5t-66.5 168.5t66.5 168.5t173.5 67.5t173.5 -67.5t66.5 -168.5zM290 32q85 0 137.5 55.5t52.5 138.5t-52.5 138.5t-137.5 55.5t-137.5 -55.5t-52.5 -138.5t52.5 -138.5t137.5 -55.5z" />
    <glyph glyph-name="p" unicode="p" horiz-adv-x="552" 
d="M126 -215h-50v665h43l6 -84h2q69 96 179 96q95 0 144.5 -62t49.5 -170q0 -120 -53 -180t-138 -60q-120 0 -183 94h-2l2 -84v-215zM126 315v-177q26 -45 73 -74.5t104 -29.5q63 0 105 49t42 147q0 86 -37 137t-114 51q-101 0 -173 -103z" />
    <glyph glyph-name="q" unicode="q" horiz-adv-x="552" 
d="M476 -215h-50v215l2 84h-2q-54 -94 -162 -94q-91 0 -151.5 59.5t-60.5 178.5q0 106 57 170t155 64q96 0 162 -89h2l5 77h43v-665zM426 138v182q-67 98 -162 98q-77 0 -119.5 -52.5t-42.5 -137.5q0 -98 47 -146t117 -48q101 0 160 104z" />
    <glyph glyph-name="r" unicode="r" horiz-adv-x="368" 
d="M126 0h-50v450h43l6 -114h2q67 119 175 119q25 0 40 -4v-52q-18 5 -41 5q-107 0 -175 -125v-279z" />
    <glyph glyph-name="s" unicode="s" horiz-adv-x="414" 
d="M44 19v43q70 -29 149 -29q127 0 127 73q0 18 -6 32t-12.5 22.5t-27 18.5t-34 15t-49.5 18t-55.5 22t-43.5 25t-34.5 38t-10.5 52q0 113 163 113q70 0 128 -29v-43q-52 29 -124 29q-119 0 -119 -70q0 -20 8 -35t27 -26.5t36.5 -19t48.5 -18.5q81 -30 107 -49
q46 -35 46 -95q0 -116 -173 -116q-87 0 -151 29z" />
    <glyph glyph-name="t" unicode="t" horiz-adv-x="382" 
d="M346 51v-43q-42 -18 -96 -18q-74 0 -106 36t-32 118v264h-86v42h86l12 142h38v-142h179v-42h-179v-257q0 -65 21 -91.5t72 -26.5q53 0 91 18z" />
    <glyph glyph-name="u" unicode="u" horiz-adv-x="554" 
d="M478 0h-43l-6 84h-2q-34 -44 -76.5 -70t-107.5 -26q-77 0 -123 41.5t-46 122.5v298h50v-289q0 -129 120 -129q111 0 184 105v313h50v-450z" />
    <glyph glyph-name="v" unicode="v" horiz-adv-x="480" 
d="M265 0h-50l-191 450h52l105 -251l58 -153h2l58 153l105 251h52z" />
    <glyph glyph-name="w" unicode="w" horiz-adv-x="746" 
d="M562 0h-50l-105 287l-33 117h-2l-33 -117l-105 -287h-50l-156 450h50l97 -281l33 -123h2l35 123l103 281h50l102 -281l35 -123h2l33 123l98 281h50z" />
    <glyph glyph-name="x" unicode="x" horiz-adv-x="492" 
d="M470 0h-59l-165 200l-165 -200h-59l194 231l-184 219h59l155 -188l155 188h59l-185 -219z" />
    <glyph glyph-name="y" unicode="y" horiz-adv-x="490" 
d="M180 -108l44 109l-202 449h50l114 -253l62 -153h2l59 155l105 251h52l-242 -570q-25 -57 -49 -80t-73 -23q-34 0 -68 16v43q32 -17 69 -17q29 0 44.5 16t32.5 57z" />
    <glyph glyph-name="z" unicode="z" horiz-adv-x="452" 
d="M410 0h-370v38l291 367l-277 -1v46h342v-38l-292 -367l306 1v-46z" />
    <glyph glyph-name="braceleft" unicode="{" horiz-adv-x="262" 
d="M246 -88v-37q-18 -8 -40 -8q-44 0 -68.5 28.5t-24.5 72.5v182q0 95 -73 97v34q73 2 73 97v182q0 44 24.5 72.5t68.5 28.5q22 0 40 -8v-37q-19 6 -35 6q-27 0 -38.5 -15.5t-11.5 -59.5v-173q0 -82 -71 -110q71 -28 71 -110v-173q0 -45 11 -60t39 -15q15 0 35 6z" />
    <glyph glyph-name="bar" unicode="|" horiz-adv-x="232" 
d="M140 -215h-48v865h48v-865z" />
    <glyph glyph-name="braceright" unicode="}" horiz-adv-x="262" 
d="M16 -125v37q19 -6 35 -6q28 0 39 15t11 60v173q0 82 71 110q-71 28 -71 110v173q0 44 -11.5 59.5t-38.5 15.5q-15 0 -35 -6v37q18 8 40 8q44 0 68.5 -28.5t24.5 -72.5v-182q0 -95 73 -97v-34q-73 -2 -73 -97v-182q0 -44 -24.5 -72.5t-68.5 -28.5q-22 0 -40 8z" />
    <glyph glyph-name="asciitilde" unicode="~" horiz-adv-x="456" 
d="M404 357v-48q-53 -44 -98 -44q-35 0 -81.5 29t-75.5 29q-26 0 -46.5 -12t-50.5 -39v48q52 43 97 43q36 0 83 -28.5t75 -28.5q47 0 97 51z" />
    <glyph glyph-name="uni007F" horiz-adv-x="450" 
 />
    <glyph glyph-name="nbspace" unicode="&#xa0;" horiz-adv-x="259" 
 />
    <glyph glyph-name="exclamdown" unicode="&#xa1;" horiz-adv-x="222" 
d="M138 -160h-54l10 400h34zM157 413q0 -20 -13.5 -31.5t-32.5 -11.5t-32.5 11.5t-13.5 31.5t13.5 31.5t32.5 11.5t32.5 -11.5t13.5 -31.5z" />
    <glyph glyph-name="cent" unicode="&#xa2;" horiz-adv-x="600" 
d="M371 -100h-46v92q-107 8 -168 73.5t-61 160.5t61 159.5t168 74.5v90h46v-88q80 -4 143 -38v-44q-67 40 -157 40q-98 0 -154.5 -55t-56.5 -139t57 -139t156 -55q92 0 159 40v-45q-57 -33 -147 -37v-90z" />
    <glyph glyph-name="sterling" unicode="&#xa3;" horiz-adv-x="600" 
d="M524 0h-434v38q86 76 86 149v144h-86v42h86v64q0 81 57.5 132t150.5 51q74 0 124 -24v-44q-54 24 -121 24q-75 0 -118 -38t-43 -105v-60h189v-42h-189v-134q0 -91 -76 -153h374v-44z" />
    <glyph glyph-name="currency" unicode="&#xa4;" horiz-adv-x="554" 
d="M460 92l-62 62q-51 -42 -121 -42t-121 42l-62 -62l-30 30l62 62q-43 53 -43 122q0 70 42 121l-61 61l30 30l61 -61q53 43 122 43q66 0 122 -43l61 61l30 -30l-61 -61q42 -51 42 -121q0 -69 -43 -122l62 -62zM277 148q64 0 110 46.5t46 111.5t-46 111.5t-110 46.5
t-110 -46.5t-46 -111.5t46 -111.5t110 -46.5z" />
    <glyph glyph-name="yen" unicode="&#xa5;" horiz-adv-x="600" 
d="M326 0h-52v157h-156v42h156v63h-156v42h130l-195 306h54l120 -195l71 -116h4l71 116l120 195h54l-196 -306h131v-42h-156v-63h156v-42h-156v-157z" />
    <glyph glyph-name="brokenbar" unicode="&#xa6;" horiz-adv-x="246" 
d="M148 296h-50v354h50v-354zM148 -215h-50v354h50v-354z" />
    <glyph glyph-name="section" unicode="&#xa7;" horiz-adv-x="600" 
d="M129 -203v52q68 -25 133 -25q68 0 111.5 22.5t43.5 62.5q0 45 -35 72.5t-111 58.5q-37 15 -53.5 23t-49 26.5t-48 36t-29 44.5t-13.5 59q0 51 34.5 96t94.5 74q-75 57 -75 128q0 63 53 96.5t136 33.5q89 0 146 -19v-51q-79 24 -145 24q-65 0 -103 -22t-38 -63
q0 -23 11.5 -42t36 -35.5t45.5 -27t56 -25.5q36 -16 51.5 -23.5t48.5 -27t48.5 -36t29.5 -43t14 -55.5q0 -93 -132 -177q77 -54 77 -126q0 -62 -58.5 -96t-141.5 -34q-84 0 -138 19zM309 74l39 -18q35 25 56 42t44.5 49t23.5 61q0 14 -3 26t-11 23t-14.5 19.5t-21.5 18.5
t-23 15.5t-27 14.5t-26 12.5t-29 13t-27 11.5l-39 17q-124 -58 -124 -150q0 -36 31 -67.5t57.5 -45t82.5 -37.5q7 -3 11 -5z" />
    <glyph glyph-name="dieresis" unicode="&#xa8;" horiz-adv-x="300" 
d="M84 580q0 -18 -11 -29t-31 -11t-31 11t-11 29t11 29t31 11t31 -11t11 -29zM300 580q0 -18 -11 -29t-31 -11t-31 11t-11 29t11 29t31 11t31 -11t11 -29z" />
    <glyph glyph-name="copyright" unicode="&#xa9;" horiz-adv-x="731" 
d="M680 303q0 -132 -90.5 -220.5t-224.5 -88.5t-224.5 88.5t-90.5 220.5t90.5 220.5t224.5 88.5t224.5 -88.5t90.5 -220.5zM641 303q0 119 -77.5 196t-198.5 77t-198.5 -77t-77.5 -196t77.5 -196t198.5 -77t198.5 77t77.5 196zM498 182v-40q-51 -31 -121 -31
q-88 0 -142.5 54.5t-54.5 136.5t54.5 136.5t141.5 54.5q67 0 119 -32v-39q-57 34 -119 34q-69 0 -110.5 -43t-41.5 -111q0 -67 42 -110.5t111 -43.5q70 0 121 34z" />
    <glyph glyph-name="ordfeminine" unicode="&#xaa;" horiz-adv-x="393" 
d="M290 386v49q-62 16 -104 16q-105 0 -105 -74q0 -32 22.5 -49.5t61.5 -17.5q84 0 125 76zM331 280h-38l-5 53h-1q-48 -60 -123 -60q-59 0 -92.5 27t-33.5 77q0 53 38 82t104 29q50 0 108 -15v24q0 86 -97 86q-66 0 -123 -27v39q50 25 124 25q63 0 101 -31.5t38 -95.5v-213
z" />
    <glyph glyph-name="guillemotleft" unicode="&#xab;" horiz-adv-x="418" 
d="M214 64h-49l-139 206l139 209h49l-140 -208zM372 64h-49l-139 206l139 209h49l-140 -208z" />
    <glyph glyph-name="logicalnot" unicode="&#xac;" horiz-adv-x="535" 
d="M465 180h-48v203h-353v47h401v-250z" />
    <glyph glyph-name="hypen" unicode="&#xad;" horiz-adv-x="316" 
d="M280 284h-244v44h244v-44z" />
    <glyph glyph-name="registered" unicode="&#xae;" horiz-adv-x="730" 
d="M680 303q0 -132 -90.5 -220.5t-224.5 -88.5t-224.5 88.5t-90.5 220.5t90.5 220.5t224.5 88.5t224.5 -88.5t90.5 -220.5zM641 303q0 119 -77.5 196t-198.5 77t-198.5 -77t-77.5 -196t77.5 -196t198.5 -77t198.5 77t77.5 196zM520 125h-43l-31 105q-9 29 -23.5 39.5
t-53.5 10.5h-83v-155h-44v364h135q128 0 128 -98q0 -69 -70 -92v-1q23 -8 33.5 -20.5t18.5 -40.5zM286 320h90q85 0 85 71q0 34 -18 47.5t-68 13.5h-89v-132z" />
    <glyph glyph-name="overscore" unicode="&#xaf;" horiz-adv-x="300" 
d="M282 538h-264v42h264v-42z" />
    <glyph glyph-name="degree" unicode="&#xb0;" horiz-adv-x="320" 
d="M280 546q0 -49 -33.5 -81.5t-86.5 -32.5t-86.5 32.5t-33.5 81.5t33.5 81.5t86.5 32.5t86.5 -32.5t33.5 -81.5zM242 546q0 36 -22.5 58t-59.5 22t-59.5 -22t-22.5 -58t22.5 -58t59.5 -22t59.5 22t22.5 58z" />
    <glyph glyph-name="plusminus" unicode="&#xb1;" horiz-adv-x="514" 
d="M281 84h-48v202h-193v44h193v202h48v-202h193v-44h-193v-202zM474 0h-434v40h434v-40z" />
    <glyph glyph-name="twosuperior" unicode="&#xb2;" horiz-adv-x="367" 
d="M301 287h-255v28q212 124 212 231q0 37 -25.5 58.5t-75.5 21.5q-52 0 -100 -22v34q44 21 102 21q67 0 101.5 -32.5t34.5 -81.5q0 -113 -182 -225h188v-33z" />
    <glyph glyph-name="threesuperior" unicode="&#xb3;" horiz-adv-x="353" 
d="M44 303v35q57 -24 116 -24q95 0 95 74q0 73 -134 73v32q123 -5 123 73q0 60 -85 60q-53 0 -107 -24v34q48 23 108 23q52 0 86 -23t34 -71q0 -59 -65 -87q78 -20 78 -91q0 -54 -35.5 -80t-94.5 -26q-68 0 -119 22z" />
    <glyph glyph-name="acute" unicode="&#xb4;" horiz-adv-x="300" 
d="M117 512h-37l78 138h64z" />
    <glyph glyph-name="mu" unicode="&#xb5;" horiz-adv-x="554" 
d="M126 -215h-50v665h50v-313q73 -105 184 -105q120 0 120 129v289h50v-298q0 -81 -46 -122.5t-123 -41.5q-65 0 -107.5 26t-76.5 70h-2l1 -84v-215z" />
    <glyph glyph-name="paragraph" unicode="&#xb6;" horiz-adv-x="537" 
d="M447 -215h-50v805h-89v-805h-50v454h-2q-90 0 -153 60t-63 146q0 85 63 145t153 60h191v-865z" />
    <glyph glyph-name="middot" unicode="&#xb7;" horiz-adv-x="212" 
d="M152 291q0 -20 -13 -32.5t-33 -12.5t-33 12.5t-13 32.5t13 32.5t33 12.5t33 -12.5t13 -32.5z" />
    <glyph glyph-name="cedilla" unicode="&#xb8;" horiz-adv-x="300" 
d="M103 -184v39q30 -8 64 -8q54 0 54 38q0 24 -23.5 33.5t-71.5 12.5l14 76l32 -3l-4 -46q99 -6 99 -78q0 -38 -30 -55.5t-70 -17.5q-30 0 -64 9z" />
    <glyph glyph-name="onesuperior" unicode="&#xb9;" horiz-adv-x="254" 
d="M160 287h-37v320q-29 -39 -97 -37v33q63 -4 101 50h33v-366z" />
    <glyph glyph-name="ordmasculine" unicode="&#xba;" horiz-adv-x="421" 
d="M387 447q0 -74 -48.5 -124t-127.5 -50t-128 50t-49 124t49 123.5t128 49.5t127.5 -49.5t48.5 -123.5zM211 311q58 0 94.5 39t36.5 97q0 57 -36.5 96t-94.5 39q-59 0 -96 -39t-37 -96q0 -58 37 -97t96 -39z" />
    <glyph glyph-name="guillemotright" unicode="&#xbb;" horiz-adv-x="418" 
d="M253 64h-49l140 207l-140 208h49l139 -209zM95 64h-49l140 207l-140 208h49l139 -209z" />
    <glyph glyph-name="onequarter" unicode="&#xbc;" horiz-adv-x="728" 
d="M160 0h-48l458 610h46zM642 0h-37v77h-201v29l200 260h38v-256h60v-33h-60v-77zM605 110v205l-156 -205h156zM196 244h-37v320q-29 -39 -97 -37v33q63 -4 101 50h33v-366z" />
    <glyph glyph-name="onehalf" unicode="&#xbd;" horiz-adv-x="728" 
d="M140 0h-48l458 610h46zM688 0h-255v28q212 124 212 231q0 37 -25.5 58.5t-75.5 21.5q-52 0 -100 -22v34q44 21 102 21q67 0 101.5 -32.5t34.5 -81.5q0 -113 -182 -225h188v-33zM196 244h-37v320q-29 -39 -97 -37v33q63 -4 101 50h33v-366z" />
    <glyph glyph-name="threequarters" unicode="&#xbe;" horiz-adv-x="728" 
d="M646 610l-456 -610h-48l458 610h46zM642 0h-37v77h-201v29l200 260h38v-256h60v-33h-60v-77zM605 110v205l-156 -205h156zM44 258v35q57 -24 116 -24q95 0 95 74q0 73 -134 73v32q123 -5 123 73q0 60 -85 60q-53 0 -107 -24v34q48 23 108 23q52 0 86 -23t34 -71
q0 -59 -65 -87q78 -20 78 -91q0 -54 -35.5 -80t-94.5 -26q-68 0 -119 22z" />
    <glyph glyph-name="questiondown" unicode="&#xbf;" horiz-adv-x="424" 
d="M390 -89v-46q-72 -35 -167 -35q-75 0 -120 39t-45 114q0 71 44.5 132t116.5 125h50q-66 -57 -113.5 -125t-47.5 -131q0 -110 119 -110q87 0 163 37zM295 413q0 -20 -13.5 -31.5t-32.5 -11.5t-32.5 11.5t-13.5 31.5t13.5 31.5t32.5 11.5t32.5 -11.5t13.5 -31.5z" />
    <glyph glyph-name="Agrave" unicode="&#xc0;" horiz-adv-x="636" 
d="M616 0h-53l-70 156h-350l-70 -156h-53l272 610h52zM473 201l-98 224l-56 137h-2l-56 -136l-98 -225h310zM338 672h-37l-105 138h64z" />
    <glyph glyph-name="Aacute" unicode="&#xc1;" horiz-adv-x="636" 
d="M616 0h-53l-70 156h-350l-70 -156h-53l272 610h52zM473 201l-98 224l-56 137h-2l-56 -136l-98 -225h310zM335 672h-37l78 138h64z" />
    <glyph glyph-name="Acircumflex" unicode="&#xc2;" horiz-adv-x="636" 
d="M616 0h-53l-70 156h-350l-70 -156h-53l272 610h52zM473 201l-98 224l-56 137h-2l-56 -136l-98 -225h310zM454 672h-43l-93 87l-93 -87h-43l114 132h44z" />
    <glyph glyph-name="Atilde" unicode="&#xc3;" horiz-adv-x="636" 
d="M616 0h-53l-70 156h-350l-70 -156h-53l272 610h52zM473 201l-98 224l-56 137h-2l-56 -136l-98 -225h310zM420 774h38q8 -90 -70 -90q-29 0 -72 27.5t-62 27.5q-22 0 -31 -14.5t-7 -35.5h-38q-8 90 72 90q29 0 70.5 -27.5t61.5 -27.5q22 0 31 14.5t7 35.5z" />
    <glyph glyph-name="Adieresis" unicode="&#xc4;" horiz-adv-x="636" 
d="M616 0h-53l-70 156h-350l-70 -156h-53l272 610h52zM473 201l-98 224l-56 137h-2l-56 -136l-98 -225h310zM252 740q0 -18 -11 -29t-31 -11t-31 11t-11 29t11 29t31 11t31 -11t11 -29zM468 740q0 -18 -11 -29t-31 -11t-31 11t-11 29t11 29t31 11t31 -11t11 -29z" />
    <glyph glyph-name="Aring" unicode="&#xc5;" horiz-adv-x="636" 
d="M616 0h-53l-70 156h-350l-70 -156h-53l272 610h52zM473 201l-98 224l-56 137h-2l-56 -136l-98 -225h310zM418 743q0 -39 -27 -64t-73 -25t-73 25t-27 64t27 64t73 25t73 -25t27 -64zM379 743q0 26 -16.5 41.5t-44.5 15.5t-44.5 -15.5t-16.5 -41.5t16.5 -41.5t44.5 -15.5
t44.5 15.5t16.5 41.5z" />
    <glyph glyph-name="AE" unicode="&#xc6;" horiz-adv-x="865" 
d="M809 0h-370v154h-259l-104 -154h-56l412 610h377v-46h-318v-231h290v-46h-290v-241h318v-46zM439 200v341l-228 -341h228z" />
    <glyph glyph-name="Ccedilla" unicode="&#xc7;" horiz-adv-x="612" 
d="M560 84v-54q-82 -40 -189 -40q-138 0 -227.5 85t-89.5 230q0 146 88.5 230.5t231.5 84.5q103 0 175 -37v-50q-70 40 -175 40q-122 0 -195 -70.5t-73 -197.5t73 -197.5t192 -70.5q104 0 189 47zM324 -184v39q30 -8 64 -8q54 0 54 38q0 24 -23.5 33.5t-71.5 12.5l14 76
l32 -3l-4 -46q99 -6 99 -78q0 -38 -30 -55.5t-70 -17.5q-30 0 -64 9z" />
    <glyph glyph-name="Egrave" unicode="&#xc8;" horiz-adv-x="510" 
d="M454 0h-374v610h374v-46h-322v-231h294v-46h-294v-241h322v-46zM345 672h-37l-105 138h64z" />
    <glyph glyph-name="Eacute" unicode="&#xc9;" horiz-adv-x="510" 
d="M454 0h-374v610h374v-46h-322v-231h294v-46h-294v-241h322v-46zM262 672h-37l78 138h64z" />
    <glyph glyph-name="Ecircumflex" unicode="&#xca;" horiz-adv-x="510" 
d="M454 0h-374v610h374v-46h-322v-231h294v-46h-294v-241h322v-46zM411 672h-43l-93 87l-93 -87h-43l114 132h44z" />
    <glyph glyph-name="Edieresis" unicode="&#xcb;" horiz-adv-x="510" 
d="M454 0h-374v610h374v-46h-322v-231h294v-46h-294v-241h322v-46zM209 740q0 -18 -11 -29t-31 -11t-31 11t-11 29t11 29t31 11t31 -11t11 -29zM425 740q0 -18 -11 -29t-31 -11t-31 11t-11 29t11 29t31 11t31 -11t11 -29z" />
    <glyph glyph-name="Igrave" unicode="&#xcc;" horiz-adv-x="216" 
d="M134 0h-52v610h52v-610zM136 672h-37l-105 138h64z" />
    <glyph glyph-name="Iacute" unicode="&#xcd;" horiz-adv-x="216" 
d="M134 0h-52v610h52v-610zM119 672h-37l78 138h64z" />
    <glyph glyph-name="Icircumflex" unicode="&#xce;" horiz-adv-x="216" 
d="M134 0h-52v610h52v-610zM246 672h-43l-93 87l-93 -87h-43l114 132h44z" />
    <glyph glyph-name="Idieresis" unicode="&#xcf;" horiz-adv-x="216" 
d="M134 0h-52v610h52v-610zM44 740q0 -18 -11 -29t-31 -11t-31 11t-11 29t11 29t31 11t31 -11t11 -29zM260 740q0 -18 -11 -29t-31 -11t-31 11t-11 29t11 29t31 11t31 -11t11 -29z" />
    <glyph glyph-name="Eth" unicode="&#xd0;" horiz-adv-x="648" 
d="M291 0h-209v284h-66v44h66v282h213q146 0 222.5 -77.5t76.5 -223.5q0 -152 -77.5 -230.5t-225.5 -78.5zM134 46h155q127 0 190 63t63 200q0 133 -62 194t-187 61h-159v-236h156v-44h-156v-238z" />
    <glyph glyph-name="Ntilde" unicode="&#xd1;" horiz-adv-x="664" 
d="M584 0h-52l-307 408q-62 83 -97 139h-2q6 -49 6 -177v-370h-52v610h52l307 -408q62 -83 97 -139h2q-6 130 -6 177v370h52v-610zM434 774h38q8 -90 -70 -90q-29 0 -72 27.5t-62 27.5q-22 0 -31 -14.5t-7 -35.5h-38q-8 90 72 90q29 0 70.5 -27.5t61.5 -27.5q22 0 31 14.5
t7 35.5z" />
    <glyph glyph-name="Ograve" unicode="&#xd2;" horiz-adv-x="746" 
d="M373 37q119 0 193 70.5t74 197.5t-74 197.5t-193 70.5t-193 -70.5t-74 -197.5t74 -197.5t193 -70.5zM692 305q0 -144 -90 -229.5t-229 -85.5t-229 85.5t-90 229.5t90 229.5t229 85.5t229 -85.5t90 -229.5zM423 672h-37l-105 138h64z" />
    <glyph glyph-name="Oacute" unicode="&#xd3;" horiz-adv-x="746" 
d="M373 37q119 0 193 70.5t74 197.5t-74 197.5t-193 70.5t-193 -70.5t-74 -197.5t74 -197.5t193 -70.5zM692 305q0 -144 -90 -229.5t-229 -85.5t-229 85.5t-90 229.5t90 229.5t229 85.5t229 -85.5t90 -229.5zM360 672h-37l78 138h64z" />
    <glyph glyph-name="Ocircumflex" unicode="&#xd4;" horiz-adv-x="746" 
d="M373 37q119 0 193 70.5t74 197.5t-74 197.5t-193 70.5t-193 -70.5t-74 -197.5t74 -197.5t193 -70.5zM692 305q0 -144 -90 -229.5t-229 -85.5t-229 85.5t-90 229.5t90 229.5t229 85.5t229 -85.5t90 -229.5zM509 672h-43l-93 87l-93 -87h-43l114 132h44z" />
    <glyph glyph-name="Otilde" unicode="&#xd5;" horiz-adv-x="746" 
d="M373 37q119 0 193 70.5t74 197.5t-74 197.5t-193 70.5t-193 -70.5t-74 -197.5t74 -197.5t193 -70.5zM692 305q0 -144 -90 -229.5t-229 -85.5t-229 85.5t-90 229.5t90 229.5t229 85.5t229 -85.5t90 -229.5zM475 774h38q7 -90 -70 -90q-29 0 -72 27.5t-62 27.5
q-22 0 -31 -14.5t-7 -35.5h-38q-7 90 72 90q29 0 70.5 -27.5t61.5 -27.5q22 0 31 14.5t7 35.5z" />
    <glyph glyph-name="Odieresis" unicode="&#xd6;" horiz-adv-x="746" 
d="M373 37q119 0 193 70.5t74 197.5t-74 197.5t-193 70.5t-193 -70.5t-74 -197.5t74 -197.5t193 -70.5zM692 305q0 -144 -90 -229.5t-229 -85.5t-229 85.5t-90 229.5t90 229.5t229 85.5t229 -85.5t90 -229.5zM307 740q0 -18 -11 -29t-31 -11t-31 11t-11 29t11 29t31 11
t31 -11t11 -29zM523 740q0 -18 -11 -29t-31 -11t-31 11t-11 29t11 29t31 11t31 -11t11 -29z" />
    <glyph glyph-name="multiply" unicode="&#xd7;" horiz-adv-x="514" 
d="M412 121l-155 155l-155 -155l-32 32l155 155l-155 155l32 32l155 -155l155 155l32 -32l-155 -155l155 -155z" />
    <glyph glyph-name="Oslash" unicode="&#xd8;" horiz-adv-x="746" 
d="M128 -18h-54l75 89q-95 87 -95 234q0 144 90 229.5t229 85.5q111 0 193 -56l52 62h54l-74 -88q94 -88 94 -233q0 -144 -90 -229.5t-229 -85.5q-112 0 -192 55zM180 107l355 421q-64 45 -162 45q-119 0 -193 -70.5t-74 -197.5t74 -198zM567 502l-355 -421q68 -44 161 -44
q119 0 193 70.5t74 197.5t-73 197z" />
    <glyph glyph-name="Ugrave" unicode="&#xd9;" horiz-adv-x="684" 
d="M555 265v345h52v-350q0 -149 -69 -212q-64 -58 -196 -58q-130 0 -194 58q-71 65 -71 212v350h52v-345q0 -123 51.5 -176t161.5 -53t161.5 53t51.5 176zM392 672h-37l-105 138h64z" />
    <glyph glyph-name="Uacute" unicode="&#xda;" horiz-adv-x="684" 
d="M555 265v345h52v-350q0 -149 -69 -212q-64 -58 -196 -58q-130 0 -194 58q-71 65 -71 212v350h52v-345q0 -123 51.5 -176t161.5 -53t161.5 53t51.5 176zM329 672h-37l78 138h64z" />
    <glyph glyph-name="Ucircumflex" unicode="&#xdb;" horiz-adv-x="684" 
d="M555 265v345h52v-350q0 -149 -69 -212q-64 -58 -196 -58q-130 0 -194 58q-71 65 -71 212v350h52v-345q0 -123 51.5 -176t161.5 -53t161.5 53t51.5 176zM478 672h-43l-93 87l-93 -87h-43l114 132h44z" />
    <glyph glyph-name="Udieresis" unicode="&#xdc;" horiz-adv-x="684" 
d="M555 265v345h52v-350q0 -149 -69 -212q-64 -58 -196 -58q-130 0 -194 58q-71 65 -71 212v350h52v-345q0 -123 51.5 -176t161.5 -53t161.5 53t51.5 176zM276 740q0 -18 -11 -29t-31 -11t-31 11t-11 29t11 29t31 11t31 -11t11 -29zM492 740q0 -18 -11 -29t-31 -11t-31 11
t-11 29t11 29t31 11t31 -11t11 -29z" />
    <glyph glyph-name="Yacute" unicode="&#xdd;" horiz-adv-x="602" 
d="M327 0h-52v236l-251 374h54l142 -213l79 -126h4l79 126l142 213h54l-251 -374v-236zM317 672h-37l78 138h64z" />
    <glyph glyph-name="Thorn" unicode="&#xde;" horiz-adv-x="570" 
d="M134 196h161q89 0 128 29.5t39 104.5q0 74 -40 104t-127 30h-161v-268zM295 150h-161v-150h-52v610h52v-100h161q110 0 164.5 -42t54.5 -138t-54.5 -138t-164.5 -42z" />
    <glyph glyph-name="germandbls" unicode="&#xdf;" horiz-adv-x="604" 
d="M255 19v43q70 -29 134 -29q60 0 88.5 25.5t28.5 67.5q0 38 -22 63.5t-54 38.5t-64 25t-54 32.5t-22 51.5q0 30 25.5 52t56.5 34t56.5 37t25.5 61q0 45 -37.5 69t-106.5 24q-95 0 -138.5 -46.5t-43.5 -124.5v-443h-50v447q0 95 55.5 154t174.5 59q89 0 141.5 -36.5
t52.5 -102.5q0 -42 -25.5 -73.5t-55.5 -45.5t-55.5 -31.5t-25.5 -34.5q0 -18 22 -31t53.5 -25t63 -28t53.5 -48t22 -78q0 -63 -43 -99.5t-120 -36.5q-72 0 -136 29z" />
    <glyph glyph-name="agrave" unicode="&#xe0;" horiz-adv-x="516" 
d="M393 140v74q-82 22 -147 22q-149 0 -149 -106q0 -98 121 -98q117 0 175 108zM442 0h-42l-6 84h-2q-22 -40 -66.5 -67t-109.5 -27q-79 0 -123.5 36t-44.5 104q0 71 51 109.5t140 38.5q78 0 154 -24v42q0 60 -36 92t-102 32q-88 0 -166 -38v44q77 36 167 36q86 0 136 -42
t50 -129v-291zM308 512h-37l-105 138h64z" />
    <glyph glyph-name="aacute" unicode="&#xe1;" horiz-adv-x="516" 
d="M393 140v74q-82 22 -147 22q-149 0 -149 -106q0 -98 121 -98q117 0 175 108zM442 0h-42l-6 84h-2q-22 -40 -66.5 -67t-109.5 -27q-79 0 -123.5 36t-44.5 104q0 71 51 109.5t140 38.5q78 0 154 -24v42q0 60 -36 92t-102 32q-88 0 -166 -38v44q77 36 167 36q86 0 136 -42
t50 -129v-291zM245 512h-37l78 138h64z" />
    <glyph glyph-name="acircumflex" unicode="&#xe2;" horiz-adv-x="516" 
d="M393 140v74q-82 22 -147 22q-149 0 -149 -106q0 -98 121 -98q117 0 175 108zM442 0h-42l-6 84h-2q-22 -40 -66.5 -67t-109.5 -27q-79 0 -123.5 36t-44.5 104q0 71 51 109.5t140 38.5q78 0 154 -24v42q0 60 -36 92t-102 32q-88 0 -166 -38v44q77 36 167 36q86 0 136 -42
t50 -129v-291zM394 512h-43l-93 87l-93 -87h-43l114 132h44z" />
    <glyph glyph-name="atilde" unicode="&#xe3;" horiz-adv-x="516" 
d="M393 140v74q-82 22 -147 22q-149 0 -149 -106q0 -98 121 -98q117 0 175 108zM442 0h-42l-6 84h-2q-22 -40 -66.5 -67t-109.5 -27q-79 0 -123.5 36t-44.5 104q0 71 51 109.5t140 38.5q78 0 154 -24v42q0 60 -36 92t-102 32q-88 0 -166 -38v44q77 36 167 36q86 0 136 -42
t50 -129v-291zM360 614h38q8 -90 -70 -90q-29 0 -72 27.5t-62 27.5q-22 0 -31 -14.5t-7 -35.5h-38q-8 90 72 90q29 0 70.5 -27.5t61.5 -27.5q22 0 31 14.5t7 35.5z" />
    <glyph glyph-name="adieresis" unicode="&#xe4;" horiz-adv-x="516" 
d="M393 140v74q-82 22 -147 22q-149 0 -149 -106q0 -98 121 -98q117 0 175 108zM442 0h-42l-6 84h-2q-22 -40 -66.5 -67t-109.5 -27q-79 0 -123.5 36t-44.5 104q0 71 51 109.5t140 38.5q78 0 154 -24v42q0 60 -36 92t-102 32q-88 0 -166 -38v44q77 36 167 36q86 0 136 -42
t50 -129v-291zM192 580q0 -18 -11 -29t-31 -11t-31 11t-11 29t11 29t31 11t31 -11t11 -29zM408 580q0 -18 -11 -29t-31 -11t-31 11t-11 29t11 29t31 11t31 -11t11 -29z" />
    <glyph glyph-name="aring" unicode="&#xe5;" horiz-adv-x="516" 
d="M393 140v74q-82 22 -147 22q-149 0 -149 -106q0 -98 121 -98q117 0 175 108zM442 0h-42l-6 84h-2q-22 -40 -66.5 -67t-109.5 -27q-79 0 -123.5 36t-44.5 104q0 71 51 109.5t140 38.5q78 0 154 -24v42q0 60 -36 92t-102 32q-88 0 -166 -38v44q77 36 167 36q86 0 136 -42
t50 -129v-291zM358 583q0 -39 -27 -64t-73 -25t-73 25t-27 64t27 64t73 25t73 -25t27 -64zM319 583q0 26 -16.5 41.5t-44.5 15.5t-44.5 -15.5t-16.5 -41.5t16.5 -41.5t44.5 -15.5t44.5 15.5t16.5 41.5z" />
    <glyph glyph-name="ae" unicode="&#xe6;" horiz-adv-x="797" 
d="M724 78v-47q-73 -41 -145 -41q-133 0 -191 88q-53 -88 -172 -88q-79 0 -123.5 36t-44.5 104q0 71 51 109.5t140 38.5q49 0 113 -14q4 54 27 96q-31 60 -124 60q-88 0 -166 -38v44q77 36 167 36q107 0 152 -60q54 60 155 60q88 0 138 -54.5t50 -157.5q0 -12 -6 -42h-345
q14 -176 179 -176q62 0 145 46zM350 224q-57 12 -104 12q-149 0 -149 -106q0 -98 121 -98q97 0 155 75q-23 54 -23 117zM401 248h302q0 87 -37.5 129.5t-102.5 42.5q-77 0 -116.5 -47t-45.5 -125z" />
    <glyph glyph-name="ccedilla" unicode="&#xe7;" horiz-adv-x="489" 
d="M441 69v-45q-58 -34 -149 -34q-109 0 -175.5 67.5t-66.5 168.5t66.5 168.5t173.5 67.5q82 0 147 -35v-44q-62 37 -147 37t-137.5 -55.5t-52.5 -138.5t53 -138.5t139 -55.5q87 0 149 37zM232 -184v39q30 -8 64 -8q54 0 54 38q0 24 -23.5 33.5t-71.5 12.5l14 76l32 -3
l-4 -46q99 -6 99 -78q0 -38 -30 -55.5t-70 -17.5q-30 0 -64 9z" />
    <glyph glyph-name="egrave" unicode="&#xe8;" horiz-adv-x="528" 
d="M455 78v-47q-73 -41 -160 -41q-116 0 -180.5 65t-64.5 171q0 104 60.5 170t168.5 66q95 0 149 -54.5t54 -157.5q0 -12 -6 -42h-376q5 -80 56 -128t139 -48q77 0 160 46zM101 248h333q0 87 -41 129.5t-114 42.5q-78 0 -125 -48t-53 -124zM314 512h-37l-105 138h64z" />
    <glyph glyph-name="eacute" unicode="&#xe9;" horiz-adv-x="528" 
d="M455 78v-47q-73 -41 -160 -41q-116 0 -180.5 65t-64.5 171q0 104 60.5 170t168.5 66q95 0 149 -54.5t54 -157.5q0 -12 -6 -42h-376q5 -80 56 -128t139 -48q77 0 160 46zM101 248h333q0 87 -41 129.5t-114 42.5q-78 0 -125 -48t-53 -124zM251 512h-37l78 138h64z" />
    <glyph glyph-name="ecircumflex" unicode="&#xea;" horiz-adv-x="528" 
d="M455 78v-47q-73 -41 -160 -41q-116 0 -180.5 65t-64.5 171q0 104 60.5 170t168.5 66q95 0 149 -54.5t54 -157.5q0 -12 -6 -42h-376q5 -80 56 -128t139 -48q77 0 160 46zM101 248h333q0 87 -41 129.5t-114 42.5q-78 0 -125 -48t-53 -124zM400 512h-43l-93 87l-93 -87h-43
l114 132h44z" />
    <glyph glyph-name="edieresis" unicode="&#xeb;" horiz-adv-x="528" 
d="M455 78v-47q-73 -41 -160 -41q-116 0 -180.5 65t-64.5 171q0 104 60.5 170t168.5 66q95 0 149 -54.5t54 -157.5q0 -12 -6 -42h-376q5 -80 56 -128t139 -48q77 0 160 46zM101 248h333q0 87 -41 129.5t-114 42.5q-78 0 -125 -48t-53 -124zM198 580q0 -18 -11 -29t-31 -11
t-31 11t-11 29t11 29t31 11t31 -11t11 -29zM414 580q0 -18 -11 -29t-31 -11t-31 11t-11 29t11 29t31 11t31 -11t11 -29z" />
    <glyph glyph-name="igrave" unicode="&#xec;" horiz-adv-x="206" 
d="M128 0h-50v450h50v-450zM130 512h-37l-105 138h64z" />
    <glyph glyph-name="iacute" unicode="&#xed;" horiz-adv-x="206" 
d="M128 0h-50v450h50v-450zM117 512h-37l78 138h64z" />
    <glyph glyph-name="icircumflex" unicode="&#xee;" horiz-adv-x="206" 
d="M128 0h-50v450h50v-450zM241 512h-43l-93 87l-93 -87h-43l114 132h44z" />
    <glyph glyph-name="idieresis" unicode="&#xef;" horiz-adv-x="206" 
d="M109 0h-50v450h50v-450zM18 580q0 -18 -11 -29t-31 -11t-31 11t-11 29t11 29t31 11t31 -11t11 -29zM234 580q0 -18 -11 -29t-31 -11t-31 11t-11 29t11 29t31 11t31 -11t11 -29z" />
    <glyph glyph-name="eth" unicode="&#xf0;" horiz-adv-x="560" 
d="M516 596l-107 -45q95 -95 95 -246q0 -155 -62.5 -235t-171.5 -80q-94 0 -159 59.5t-65 155.5q0 86 52.5 145.5t157.5 59.5q109 0 200 -84q0 126 -92 206l-171 -73v44l133 56q-81 46 -180 46v43q134 0 228 -68l142 60v-44zM456 272q-81 94 -198 94q-85 0 -124.5 -47.5
t-39.5 -116.5q0 -81 52 -124.5t123 -43.5q89 0 133.5 61t53.5 177z" />
    <glyph glyph-name="ntilde" unicode="&#xf1;" horiz-adv-x="568" 
d="M494 0h-50v279q0 139 -121 139q-59 0 -105 -27t-92 -76v-315h-50v450h43l6 -84h2q96 96 201 96q76 0 121 -44.5t45 -129.5v-288zM386 614h38q8 -90 -70 -90q-29 0 -72 27.5t-62 27.5q-22 0 -31 -14.5t-7 -35.5h-38q-8 90 72 90q29 0 70.5 -27.5t61.5 -27.5q22 0 31 14.5
t7 35.5z" />
    <glyph glyph-name="ograve" unicode="&#xf2;" horiz-adv-x="580" 
d="M530 226q0 -101 -66.5 -168.5t-173.5 -67.5t-173.5 67.5t-66.5 168.5t66.5 168.5t173.5 67.5t173.5 -67.5t66.5 -168.5zM290 32q85 0 137.5 55.5t52.5 138.5t-52.5 138.5t-137.5 55.5t-137.5 -55.5t-52.5 -138.5t52.5 -138.5t137.5 -55.5zM330 512h-37l-105 138h64z" />
    <glyph glyph-name="oacute" unicode="&#xf3;" horiz-adv-x="580" 
d="M530 226q0 -101 -66.5 -168.5t-173.5 -67.5t-173.5 67.5t-66.5 168.5t66.5 168.5t173.5 67.5t173.5 -67.5t66.5 -168.5zM290 32q85 0 137.5 55.5t52.5 138.5t-52.5 138.5t-137.5 55.5t-137.5 -55.5t-52.5 -138.5t52.5 -138.5t137.5 -55.5zM287 512h-37l78 138h64z" />
    <glyph glyph-name="ocircumflex" unicode="&#xf4;" horiz-adv-x="580" 
d="M530 226q0 -101 -66.5 -168.5t-173.5 -67.5t-173.5 67.5t-66.5 168.5t66.5 168.5t173.5 67.5t173.5 -67.5t66.5 -168.5zM290 32q85 0 137.5 55.5t52.5 138.5t-52.5 138.5t-137.5 55.5t-137.5 -55.5t-52.5 -138.5t52.5 -138.5t137.5 -55.5zM426 512h-43l-93 87l-93 -87
h-43l114 132h44z" />
    <glyph glyph-name="otilde" unicode="&#xf5;" horiz-adv-x="580" 
d="M530 226q0 -101 -66.5 -168.5t-173.5 -67.5t-173.5 67.5t-66.5 168.5t66.5 168.5t173.5 67.5t173.5 -67.5t66.5 -168.5zM290 32q85 0 137.5 55.5t52.5 138.5t-52.5 138.5t-137.5 55.5t-137.5 -55.5t-52.5 -138.5t52.5 -138.5t137.5 -55.5zM392 614h38q8 -90 -70 -90
q-29 0 -72 27.5t-62 27.5q-22 0 -31 -14.5t-7 -35.5h-38q-8 90 72 90q29 0 70.5 -27.5t61.5 -27.5q22 0 31 14.5t7 35.5z" />
    <glyph glyph-name="odieresis" unicode="&#xf6;" horiz-adv-x="580" 
d="M530 226q0 -101 -66.5 -168.5t-173.5 -67.5t-173.5 67.5t-66.5 168.5t66.5 168.5t173.5 67.5t173.5 -67.5t66.5 -168.5zM290 32q85 0 137.5 55.5t52.5 138.5t-52.5 138.5t-137.5 55.5t-137.5 -55.5t-52.5 -138.5t52.5 -138.5t137.5 -55.5zM224 580q0 -18 -11 -29t-31 -11
t-31 11t-11 29t11 29t31 11t31 -11t11 -29zM440 580q0 -18 -11 -29t-31 -11t-31 11t-11 29t11 29t31 11t31 -11t11 -29z" />
    <glyph glyph-name="divide" unicode="&#xf7;" horiz-adv-x="514" 
d="M464 286h-414v44h414v-44zM257 90q-22 0 -36.5 14t-14.5 37t14.5 37t36.5 14t36.5 -14t14.5 -37t-14.5 -37t-36.5 -14zM257 421q-22 0 -36.5 14t-14.5 37t14.5 37t36.5 14t36.5 -14t14.5 -37t-14.5 -37t-36.5 -14z" />
    <glyph glyph-name="oslash" unicode="&#xf8;" horiz-adv-x="580" 
d="M112 -18h-50l59 70q-71 68 -71 174q0 101 66.5 168.5t173.5 67.5q81 0 140 -41l38 45h50l-58 -69q70 -67 70 -171q0 -101 -66.5 -168.5t-173.5 -67.5q-80 0 -139 39zM152 88l249 298q-46 34 -111 34q-85 0 -137.5 -55.5t-52.5 -138.5t52 -138zM430 361l-249 -297
q47 -32 109 -32q85 0 137.5 55.5t52.5 138.5q0 80 -50 135z" />
    <glyph glyph-name="ugrave" unicode="&#xf9;" horiz-adv-x="554" 
d="M478 0h-43l-6 84h-2q-34 -44 -76.5 -70t-107.5 -26q-77 0 -123 41.5t-46 122.5v298h50v-289q0 -129 120 -129q111 0 184 105v313h50v-450zM317 512h-37l-105 138h64z" />
    <glyph glyph-name="uacute" unicode="&#xfa;" horiz-adv-x="554" 
d="M478 0h-43l-6 84h-2q-34 -44 -76.5 -70t-107.5 -26q-77 0 -123 41.5t-46 122.5v298h50v-289q0 -129 120 -129q111 0 184 105v313h50v-450zM274 512h-37l78 138h64z" />
    <glyph glyph-name="ucircumflex" unicode="&#xfb;" horiz-adv-x="554" 
d="M478 0h-43l-6 84h-2q-34 -44 -76.5 -70t-107.5 -26q-77 0 -123 41.5t-46 122.5v298h50v-289q0 -129 120 -129q111 0 184 105v313h50v-450zM413 512h-43l-93 87l-93 -87h-43l114 132h44z" />
    <glyph glyph-name="udieresis" unicode="&#xfc;" horiz-adv-x="554" 
d="M478 0h-43l-6 84h-2q-34 -44 -76.5 -70t-107.5 -26q-77 0 -123 41.5t-46 122.5v298h50v-289q0 -129 120 -129q111 0 184 105v313h50v-450zM211 580q0 -18 -11 -29t-31 -11t-31 11t-11 29t11 29t31 11t31 -11t11 -29zM427 580q0 -18 -11 -29t-31 -11t-31 11t-11 29t11 29
t31 11t31 -11t11 -29z" />
    <glyph glyph-name="yacute" unicode="&#xfd;" horiz-adv-x="490" 
d="M180 -108l44 109l-202 449h50l114 -253l62 -153h2l59 155l105 251h52l-242 -570q-25 -57 -49 -80t-73 -23q-34 0 -68 16v43q32 -17 69 -17q29 0 44.5 16t32.5 57zM261 512h-37l78 138h64z" />
    <glyph glyph-name="thorn" unicode="&#xfe;" horiz-adv-x="554" 
d="M128 -215h-50v865h50v-195l-1 -89h2q69 96 179 96q95 0 144.5 -62t49.5 -170q0 -120 -53 -180t-138 -60q-120 0 -183 94h-2l2 -84v-215zM128 315v-177q26 -45 73 -74.5t104 -29.5q63 0 105 49t42 147q0 86 -37 137t-114 51q-101 0 -173 -103z" />
    <glyph glyph-name="ydieresis" unicode="&#xff;" horiz-adv-x="490" 
d="M180 -108l44 109l-202 449h50l114 -253l62 -153h2l59 155l105 251h52l-242 -570q-25 -57 -49 -80t-73 -23q-34 0 -68 16v43q32 -17 69 -17q29 0 44.5 16t32.5 57zM179 580q0 -18 -11 -29t-31 -11t-31 11t-11 29t11 29t31 11t31 -11t11 -29zM395 580q0 -18 -11 -29
t-31 -11t-31 11t-11 29t11 29t31 11t31 -11t11 -29z" />
    <glyph glyph-name="dotlessi" unicode="&#x131;" horiz-adv-x="206" 
d="M128 0h-50v450h50v-450z" />
    <glyph glyph-name="Lslash" unicode="&#x141;" horiz-adv-x="468" 
d="M440 0h-358v228l-62 -32v44l62 32v338h52v-311l177 92v-44l-177 -92v-209h306v-46z" />
    <glyph glyph-name="lslash" unicode="&#x142;" horiz-adv-x="206" 
d="M128 0h-50v281l-68 -35v44l68 35v325h50v-299l68 35v-44l-68 -35v-307z" />
    <glyph glyph-name="OE" unicode="&#x152;" horiz-adv-x="926" 
d="M870 0h-374q-43 -10 -123 -10q-139 0 -229 85.5t-90 229.5t90 229.5t229 85.5q74 0 123 -10h374v-46h-322v-231h294v-46h-294v-241h322v-46zM496 49v510q-40 14 -123 14q-119 0 -193 -70.5t-74 -197.5t74 -197.5t193 -70.5q83 0 123 12z" />
    <glyph glyph-name="oe" unicode="&#x153;" horiz-adv-x="898" 
d="M825 74v-47q-66 -37 -146 -37q-152 0 -205 123q-27 -58 -77.5 -90.5t-120.5 -32.5q-101 0 -163.5 67.5t-62.5 168.5t62.5 168.5t163.5 67.5q68 0 119 -33t78 -89q50 122 190 122q88 0 138.5 -55t50.5 -157q0 -12 -6 -42h-348q5 -80 52.5 -128t128.5 -48t146 42zM276 32
q77 0 126.5 54.5t49.5 139.5t-49.5 139.5t-126.5 54.5q-79 0 -127.5 -55.5t-48.5 -138.5t48.5 -138.5t127.5 -55.5zM499 248h305q0 87 -38 129.5t-103 42.5q-72 0 -115 -48t-49 -124z" />
    <glyph glyph-name="Scaron" unicode="&#x160;" horiz-adv-x="512" 
d="M48 35v46q98 -46 194 -46q166 0 166 113q0 13 -2.5 24.5t-9.5 22t-13 18.5t-19 17t-21 14.5t-26 14t-26 12.5t-29.5 13t-29.5 13q-90 41 -121 66q-56 47 -57 111q0 74 53.5 110t148.5 36q86 0 162 -31v-46q-76 32 -159 32q-78 0 -116 -23t-38 -78q0 -15 4 -28.5t14.5 -25
t18.5 -19.5t28 -19t29 -15.5t36 -16.5t35 -16q4 -2 27 -12.5t30 -14t27.5 -14t28.5 -17t23.5 -18t22.5 -22t15.5 -25t12 -30t3.5 -33.5q0 -79 -58.5 -118.5t-156.5 -39.5q-114 0 -197 45zM278 672h-44l-114 132h43l93 -87l93 87h43z" />
    <glyph glyph-name="scaron" unicode="&#x161;" horiz-adv-x="414" 
d="M44 19v43q70 -29 149 -29q127 0 127 73q0 18 -6 32t-12.5 22.5t-27 18.5t-34 15t-49.5 18t-55.5 22t-43.5 25t-34.5 38t-10.5 52q0 113 163 113q70 0 128 -29v-43q-52 29 -124 29q-119 0 -119 -70q0 -20 8 -35t27 -26.5t36.5 -19t48.5 -18.5q81 -30 107 -49
q46 -35 46 -95q0 -116 -173 -116q-87 0 -151 29zM229 512h-44l-114 132h43l93 -87l93 87h43z" />
    <glyph glyph-name="Ydieresis" unicode="&#x178;" horiz-adv-x="602" 
d="M327 0h-52v236l-251 374h54l142 -213l79 -126h4l79 126l142 213h54l-251 -374v-236zM235 740q0 -18 -11 -29t-31 -11t-31 11t-11 29t11 29t31 11t31 -11t11 -29zM451 740q0 -18 -11 -29t-31 -11t-31 11t-11 29t11 29t31 11t31 -11t11 -29z" />
    <glyph glyph-name="Zcaron" unicode="&#x17d;" horiz-adv-x="556" 
d="M504 0h-456v40l380 526l-367 -2v46h427v-40l-380 -525l396 1v-46zM300 672h-44l-114 132h43l93 -87l93 87h43z" />
    <glyph glyph-name="zcaron" unicode="&#x17e;" horiz-adv-x="452" 
d="M410 0h-370v38l291 367l-277 -1v46h342v-38l-292 -367l306 1v-46zM248 512h-44l-114 132h43l93 -87l93 87h43z" />
    <glyph glyph-name="florin" unicode="&#x192;" horiz-adv-x="600" 
d="M210 -22l57 398h-86l6 42h86q30 215 201 215q46 0 76 -14l-6 -44q-34 14 -73 14q-63 0 -99 -41t-49 -130h167l-6 -42h-167l-58 -402q-11 -83 -49.5 -123t-112.5 -40q-46 0 -76 14l6 44q34 -14 73 -14q54 0 77 27t33 96z" />
    <glyph glyph-name="circumflex" unicode="&#x2c6;" horiz-adv-x="300" 
d="M286 512h-43l-93 87l-93 -87h-43l114 132h44z" />
    <glyph glyph-name="caron" unicode="&#x2c7;" horiz-adv-x="300" 
d="M172 512h-44l-114 132h43l93 -87l93 87h43z" />
    <glyph glyph-name="breve" unicode="&#x2d8;" horiz-adv-x="300" 
d="M248 640h35q0 -68 -36.5 -100.5t-96.5 -32.5t-96.5 32.5t-36.5 100.5h35q0 -96 98 -96t98 96z" />
    <glyph glyph-name="dotaccent" unicode="&#x2d9;" horiz-adv-x="300" 
d="M185 580q0 -18 -11 -29t-31 -11t-31 11t-11 29t11 29t31 11t31 -11t11 -29z" />
    <glyph glyph-name="ring" unicode="&#x2da;" horiz-adv-x="300" 
d="M250 583q0 -39 -27 -64t-73 -25t-73 25t-27 64t27 64t73 25t73 -25t27 -64zM211 583q0 26 -16.5 41.5t-44.5 15.5t-44.5 -15.5t-16.5 -41.5t16.5 -41.5t44.5 -15.5t44.5 15.5t16.5 41.5z" />
    <glyph glyph-name="ogonek" unicode="&#x2db;" horiz-adv-x="300" 
d="M228 -124v-33q-33 -15 -69 -15q-93 0 -93 75q0 40 36.5 68.5t66.5 35.5l18 -7q-29 -16 -54.5 -39.5t-25.5 -46.5q0 -50 55 -50q33 0 66 12z" />
    <glyph glyph-name="tilde" unicode="&#x2dc;" horiz-adv-x="300" 
d="M252 614h38q8 -90 -70 -90q-29 0 -72 27.5t-62 27.5q-22 0 -31 -14.5t-7 -35.5h-38q-8 90 72 90q29 0 70.5 -27.5t61.5 -27.5q22 0 31 14.5t7 35.5z" />
    <glyph glyph-name="hungarumlaut" unicode="&#x2dd;" horiz-adv-x="300" 
d="M265 512h-41l92 138h70zM78 512h-41l92 138h70z" />
    <glyph glyph-name="uni03A9" unicode="&#x3a9;" horiz-adv-x="678" 
d="M606 0h-216v40q188 137 188 304q0 101 -56 165.5t-183 64.5t-183 -64.5t-56 -165.5q0 -167 188 -304v-40h-216v42h159q-75 45 -128 127.5t-53 176.5q0 120 70.5 197t218.5 77t218.5 -77t70.5 -197q0 -94 -53 -176.5t-128 -127.5h159v-42z" />
    <glyph glyph-name="pi" unicode="&#x3c0;" horiz-adv-x="590" 
d="M540 35v-39q-16 -4 -48 -4q-65 0 -87.5 32.5t-22.5 94.5v285h-200l-25 -404h-46l25 404l-100 4v42h504v-46h-111v-284q0 -48 16 -69t54 -21q13 0 41 5z" />
    <glyph glyph-name="uni0E00" unicode="&#xe00;" horiz-adv-x="175" 
 />
    <glyph glyph-name="uni0E01" unicode="&#xe01;" horiz-adv-x="627" 
d="M550 0h-50v327q0 102 -41.5 143t-141.5 41q-107 0 -187 -25v-486h-50v519q129 38 243 38q115 0 171 -54.5t56 -170.5v-332z" />
    <glyph glyph-name="uni0E02" unicode="&#xe02;" horiz-adv-x="574" 
d="M447 220v327h50v-327q0 -112 -59 -171t-163 -59q-108 0 -164 51.5t-56 145.5q0 37 13.5 70t33 56.5t39 45.5t33 46.5t13.5 50.5q0 55 -61 55q-34 0 -66 -8v44q32 8 67 8q53 0 80.5 -25.5t27.5 -73.5q0 -37 -20.5 -72.5t-44.5 -60t-44.5 -61.5t-20.5 -76q0 -150 170 -150
q172 0 172 184z" />
    <glyph glyph-name="uni0E03" unicode="&#xe03;" horiz-adv-x="581" 
d="M454 220v327h50v-327q0 -113 -57 -171.5t-161 -58.5q-108 0 -166 51.5t-58 145.5q0 42 14 76t33.5 58t39.5 48t34 57t14 74h-2q-34 -29 -77 -29q-40 0 -68 28v56q36 -41 72 -41q37 0 75 33h48v-47q0 -53 -21 -97.5t-45.5 -70.5t-45.5 -64.5t-21 -81.5q0 -71 43.5 -110.5
t130.5 -39.5q85 0 126.5 44.5t41.5 139.5z" />
    <glyph glyph-name="uni0E04" unicode="&#xe04;" horiz-adv-x="652" 
d="M575 0h-50v316q0 101 -50 148t-149 47t-149 -47t-50 -148v-112q21 39 71.5 67.5t107.5 28.5q42 0 63 -10v-50q-30 12 -63 12q-113 0 -179 -97v-155h-50v320q0 115 66.5 176t182.5 61t182.5 -61t66.5 -176v-320z" />
    <glyph glyph-name="uni0E05" unicode="&#xe05;" horiz-adv-x="662" 
d="M588 0h-50v372q0 73 -19.5 107t-67.5 34q-37 0 -60.5 -24t-32.5 -62h-50q-9 38 -32.5 62t-60.5 24q-48 0 -67.5 -34t-19.5 -107v-168q21 39 72.5 67.5t109.5 28.5q43 0 67 -11v-50q-33 13 -67 13q-116 0 -182 -97v-155h-50v376q0 181 133 181q44 0 77.5 -26.5t43.5 -64.5
h2q10 38 43.5 64.5t77.5 26.5q133 0 133 -181v-376z" />
    <glyph glyph-name="uni0E06" unicode="&#xe06;" horiz-adv-x="629" 
d="M502 186v361h50v-365q0 -95 -51.5 -143.5t-138.5 -48.5q-136 0 -227 109h-2l-7 -99h-42v207q0 41 17.5 80t39 66t39 66.5t17.5 80.5h-2q-34 -29 -77 -29q-40 0 -68 28v56q36 -41 72 -41q37 0 75 33h48v-47q0 -43 -17.5 -85t-38 -70t-38 -66t-17.5 -73v-40
q35 -56 92.5 -93t128.5 -37q147 0 147 150z" />
    <glyph glyph-name="uni0E07" unicode="&#xe07;" horiz-adv-x="578" 
d="M260 0h-41l-165 440q-25 67 -46 107h56l187 -503h2q107 29 164 104.5t57 167.5t-41 143.5t-113 51.5q-41 0 -76 -13v46q35 11 81 11q86 0 142.5 -64t56.5 -174q0 -123 -76 -207t-188 -110z" />
    <glyph glyph-name="uni0E08" unicode="&#xe08;" horiz-adv-x="571" 
d="M254 0h-47l-98 209q-22 45 -41 75h63l111 -240q87 9 156 76t69 170q0 221 -221 221q-104 0 -206 -46v46q102 46 210 46q136 0 201.5 -73t65.5 -194t-78.5 -197.5t-184.5 -92.5z" />
    <glyph glyph-name="uni0E09" unicode="&#xe09;" horiz-adv-x="607" 
d="M530 0h-42l-7 99h-2q-41 -50 -90.5 -79.5t-129.5 -29.5q-181 0 -181 184v57q0 37 -6 69h56v-122q0 -74 32.5 -108t107.5 -34q133 0 212 126v165q0 97 -53.5 140.5t-160.5 43.5q-108 0 -206 -46v46q96 46 210 46q260 0 260 -225v-332z" />
    <glyph glyph-name="uni0E0A" unicode="&#xe0a;" horiz-adv-x="588" 
d="M512 547l-136 -125q142 -50 142 -203q0 -109 -63 -169t-171 -60q-110 0 -169.5 51.5t-59.5 145.5q0 37 13.5 70t33 56.5t39 45.5t33 46.5t13.5 50.5q0 55 -61 55q-34 0 -66 -8v44q32 8 67 8q53 0 80.5 -25.5t27.5 -73.5q0 -37 -20.5 -72.5t-44.5 -60t-44.5 -61.5
t-20.5 -76q0 -71 45 -110.5t134 -39.5t136.5 47t47.5 135q0 82 -39.5 124t-106.5 60v25l128 120h62z" />
    <glyph glyph-name="uni0E0B" unicode="&#xe0b;" horiz-adv-x="593" 
d="M517 547l-136 -125q142 -50 142 -203q0 -109 -63 -169t-171 -60q-110 0 -169.5 51.5t-59.5 145.5q0 42 14.5 76t36 58t42.5 48t35.5 57t14.5 74h-2q-34 -29 -77 -29q-40 0 -68 28v56q36 -41 72 -41q37 0 75 33h48v-47q0 -44 -14.5 -80.5t-35.5 -62t-41.5 -50t-35 -55.5
t-14.5 -66q0 -71 45 -110.5t134 -39.5t136.5 47t47.5 135q0 82 -39.5 124t-106.5 60v25l128 120h62z" />
    <glyph glyph-name="uni0E0C" unicode="&#xe0c;" horiz-adv-x="976" 
d="M849 184v363h50v-367q0 -95 -45.5 -142.5t-124.5 -47.5q-121 0 -207 109h-2l-7 -99h-42v334q0 97 -38.5 137t-129.5 40q-93 0 -173 -25v-352q0 -56 21.5 -77t64.5 -21q42 0 72 11v-42q-32 -13 -76 -13q-65 0 -98.5 32t-33.5 104v391q129 38 229 38q212 0 212 -219v-172
q33 -57 85 -93.5t116 -36.5q67 0 97 36.5t30 111.5z" />
    <glyph glyph-name="uni0E0D" unicode="&#xe0d;" horiz-adv-x="976" 
d="M849 214v333h50v-335q0 -95 -57.5 -143.5t-156.5 -48.5t-156.5 48.5t-57.5 143.5v122q0 97 -38.5 137t-129.5 40q-93 0 -173 -25v-352q0 -56 21.5 -77t64.5 -21q42 0 72 11v-42q-32 -13 -76 -13q-65 0 -98.5 32t-33.5 104v391q129 38 229 38q212 0 212 -219v-124
q0 -148 164 -148t164 148zM869 -33l19 -38q-80 -58 -203 -58t-203 58l19 38q71 -51 184 -51t184 51z" />
    <glyph glyph-name="uni0E0E" unicode="&#xe0e;" horiz-adv-x="643" 
d="M566 -233h-45l-158 56q-58 20 -93 20q-44 0 -69 -19t-25 -56h-48q0 58 40 90t105 32q38 0 96 -20l147 -54v521q0 95 -39 134.5t-130 39.5q-93 0 -173 -25v-373q0 -119 -102 -119q-32 0 -54 6v41q20 -5 47 -5q59 0 59 80v403q129 38 229 38q213 0 213 -215v-575z" />
    <glyph glyph-name="uni0E0F" unicode="&#xe0f;" horiz-adv-x="643" 
d="M566 -233h-70q-48 0 -83.5 21t-46.5 57q-11 -38 -47 -60t-84 -22q-51 0 -100 27v47q44 -30 100 -30q87 0 104 90h54q23 -86 103 -86h20v526q0 95 -39 134.5t-130 39.5q-93 0 -173 -25v-373q0 -119 -102 -119q-32 0 -54 6v41q20 -5 47 -5q59 0 59 80v403q129 38 229 38
q213 0 213 -215v-575z" />
    <glyph glyph-name="uni0E10" unicode="&#xe10;" horiz-adv-x="571" 
d="M254 0h-47l-98 209q-22 45 -41 75h65l111 -240q87 9 155 76t68 170t-56 162t-165 59q-104 0 -206 -46v46q102 46 210 46q79 0 137 -30l69 67h71l-102 -92q92 -74 92 -212q0 -121 -78.5 -197.5t-184.5 -92.5zM476 -233h-45l-138 56q-48 22 -90 22q-36 0 -60.5 -18.5
t-26.5 -58.5h-48q0 63 39 93t98 30q49 0 104 -25l117 -50v131h50v-180z" />
    <glyph glyph-name="uni0E11" unicode="&#xe11;" horiz-adv-x="649" 
d="M572 0h-50v379q0 69 -26.5 100.5t-82.5 31.5q-75 0 -141.5 -51t-102 -120.5t-35.5 -133.5v-206h-50v207q0 48 17.5 92t39 71t39 62t17.5 68h-2q-34 -29 -77 -29q-40 0 -68 28v56q36 -41 72 -41q37 0 75 33h41l5 -64q80 74 175 74q70 0 112 -42.5t42 -131.5v-383z" />
    <glyph glyph-name="uni0E12" unicode="&#xe12;" horiz-adv-x="1061" 
d="M934 186v361h50v-365q0 -95 -48.5 -143.5t-131.5 -48.5q-126 0 -217 109h-2l-7 -99h-42v392q0 63 -16 92t-57 29q-29 0 -49.5 -24t-29.5 -62h-50q-12 43 -29.5 64.5t-55.5 21.5q-67 0 -106 -66.5t-39 -180.5q0 -106 48.5 -169t155.5 -63q36 0 74 14v-46q-39 -12 -81 -12
q-127 0 -187 78.5t-60 197.5q0 130 52 210.5t141 80.5q86 0 111 -91h2q11 39 40.5 65t72.5 26q113 0 113 -161v-230q36 -57 90 -93.5t121 -36.5q137 0 137 150z" />
    <glyph glyph-name="uni0E13" unicode="&#xe13;" horiz-adv-x="979" 
d="M899 0h-42l-7 99h-2q-86 -109 -207 -109q-79 0 -124.5 43.5t-45.5 136.5v164q0 97 -38.5 137t-129.5 40q-93 0 -173 -25v-352q0 -56 21.5 -77t64.5 -21q42 0 72 11v-42q-32 -13 -76 -13q-65 0 -98.5 32t-33.5 104v391q129 38 229 38q212 0 212 -219v-164q0 -72 30.5 -105
t96.5 -33q64 0 116 36.5t85 93.5v381h50v-547z" />
    <glyph glyph-name="uni0E14" unicode="&#xe14;" horiz-adv-x="640" 
d="M560 0h-50v461q-69 50 -171 50q-103 0 -169 -67t-66 -189q0 -101 50 -161t158 -60q36 0 74 14v-46q-39 -12 -81 -12q-127 0 -189 76.5t-62 188.5q0 138 81.5 220t201.5 82q119 0 223 -76v-481z" />
    <glyph glyph-name="uni0E15" unicode="&#xe15;" horiz-adv-x="671" 
d="M594 0h-50v392q0 62 -17 91.5t-58 29.5q-30 0 -51 -24t-30 -62h-50q-12 42 -30 64t-57 22q-67 0 -107 -66.5t-40 -180.5q0 -106 48.5 -169t155.5 -63q36 0 74 14v-46q-39 -12 -81 -12q-127 0 -187 78.5t-60 197.5q0 130 53 210.5t142 80.5q45 0 73.5 -25.5t39.5 -65.5h2
q10 39 41 65t74 26q57 0 86 -41.5t29 -119.5v-396z" />
    <glyph glyph-name="uni0E16" unicode="&#xe16;" horiz-adv-x="630" 
d="M553 0h-50v327q0 102 -42 143t-142 41q-109 0 -189 -25v-352q0 -57 21.5 -77.5t68.5 -20.5q43 0 76 12v-42q-35 -14 -80 -14q-67 0 -101.5 31.5t-34.5 104.5v391q129 38 245 38t172 -55t56 -170v-332z" />
    <glyph glyph-name="uni0E17" unicode="&#xe17;" horiz-adv-x="649" 
d="M572 0h-50v361q0 150 -139 150q-134 0 -253 -119v-392h-50v547h42l7 -99h2q123 109 254 109q86 0 136.5 -48.5t50.5 -143.5v-365z" />
    <glyph glyph-name="uni0E18" unicode="&#xe18;" horiz-adv-x="597" 
d="M79 16v227h50v-190q66 -17 172 -17q99 0 145.5 23t46.5 85q0 66 -47 94t-141 42q-35 6 -49 8t-44 8t-43 11t-34.5 13t-31 17.5t-21 22.5t-16 30t-4.5 37q0 65 62.5 97.5t174.5 32.5t201 -35v-47q-82 37 -198 37q-90 0 -140 -18.5t-50 -66.5q0 -12 2.5 -22t9 -17.5
t13.5 -13.5t19.5 -11.5t22.5 -8.5t29 -7t31.5 -6.5t36.5 -7t39 -7.5q56 -10 93.5 -21.5t70.5 -31.5t48.5 -52t15.5 -76q0 -83 -60.5 -119t-181.5 -36q-123 0 -222 26z" />
    <glyph glyph-name="uni0E19" unicode="&#xe19;" horiz-adv-x="625" 
d="M545 0h-42l-7 99h-2q-88 -109 -227 -109q-88 0 -139 45t-51 139v373h50v-369q0 -73 35.5 -107.5t111.5 -34.5q72 0 128.5 35.5t92.5 90.5v385h50v-547z" />
    <glyph glyph-name="uni0E1A" unicode="&#xe1a;" horiz-adv-x="628" 
d="M501 231v316h50v-319q0 -238 -237 -238t-237 238v319h50v-316q0 -105 45.5 -150t141.5 -45t141.5 45t45.5 150z" />
    <glyph glyph-name="uni0E1B" unicode="&#xe1b;" horiz-adv-x="628" 
d="M501 231v549h50v-552q0 -238 -237 -238t-237 238v319h50v-316q0 -105 45.5 -150t141.5 -45t141.5 45t45.5 150z" />
    <glyph glyph-name="uni0E1C" unicode="&#xe1c;" horiz-adv-x="670" 
d="M590 0h-54l-199 313l-203 -313h-54v444q0 113 104 113q30 0 52 -6v-41q-20 5 -47 5q-29 0 -44 -16t-15 -58v-238q0 -101 -7 -146h2q10 22 73 122l114 177h50l114 -177q46 -74 69 -122h2q-7 45 -7 146v344h50v-547z" />
    <glyph glyph-name="uni0E1D" unicode="&#xe1d;" horiz-adv-x="670" 
d="M590 0h-54l-199 313l-203 -313h-54v444q0 113 104 113q30 0 52 -6v-41q-20 5 -47 5q-29 0 -44 -16t-15 -58v-238q0 -101 -7 -146h2q10 22 73 122l114 177h50l114 -177q46 -74 69 -122h2q-7 45 -7 146v577h50v-780z" />
    <glyph glyph-name="uni0E1E" unicode="&#xe1e;" horiz-adv-x="736" 
d="M569 0h-50l-109 343l-41 158h-2l-41 -158l-109 -343h-50l-101 441q-13 57 -34 106h60l71 -320l31 -174h2l45 173l102 321h50l102 -321l45 -173h2l31 174l71 320h50z" />
    <glyph glyph-name="uni0E1F" unicode="&#xe1f;" horiz-adv-x="732" 
d="M578 0h-50l-111 343l-41 158h-2l-41 -158l-111 -343h-50l-105 442q-13 53 -35 105h60l75 -320l31 -174h2l45 173l104 321h50l104 -321l45 -173h2l21 174l95 553h48z" />
    <glyph glyph-name="uni0E20" unicode="&#xe20;" horiz-adv-x="643" 
d="M566 0h-50v337q0 95 -39 134.5t-130 39.5q-93 0 -173 -25v-373q0 -119 -102 -119q-32 0 -54 6v41q20 -5 47 -5q59 0 59 80v403q129 38 229 38q213 0 213 -215v-342z" />
    <glyph glyph-name="uni0E21" unicode="&#xe21;" horiz-adv-x="625" 
d="M498 186v361h50v-365q0 -95 -51.5 -143.5t-138.5 -48.5q-136 0 -227 109h-2l-7 -99h-42v547h50v-381q35 -56 92.5 -93t128.5 -37q147 0 147 150z" />
    <glyph glyph-name="uni0E22" unicode="&#xe22;" horiz-adv-x="620" 
d="M490 92v455h50v-480q-58 -39 -113 -58t-138 -19q-226 0 -226 165q0 46 24.5 81t63.5 53v2q-84 28 -84 124q0 63 42 101.5t113 38.5q49 0 94 -15v-45q-42 16 -91 16q-47 0 -78.5 -24.5t-31.5 -71.5q0 -96 96 -96h137v-44h-145q-90 -32 -90 -120q0 -119 173 -119
q128 0 204 56z" />
    <glyph glyph-name="uni0E23" unicode="&#xe23;" horiz-adv-x="524" 
d="M61 31v46q95 -43 196 -43q161 0 161 97q0 28 -12 49t-39 36.5t-51.5 25t-69.5 23.5q-42 12 -70 23t-58.5 29.5t-46 45t-15.5 60.5q0 61 53 97.5t148 36.5q101 0 177 -33v-44q-75 33 -171 33q-159 0 -159 -90q0 -43 42 -68.5t123 -50.5q53 -17 83.5 -30t59.5 -33
t41.5 -46.5t12.5 -63.5q0 -71 -56.5 -106t-152.5 -35q-116 0 -196 41z" />
    <glyph glyph-name="uni0E24" unicode="&#xe24;" horiz-adv-x="630" 
d="M553 -223h-50v550q0 102 -42 143t-142 41q-109 0 -189 -25v-352q0 -57 21.5 -77.5t68.5 -20.5q43 0 76 12v-42q-35 -14 -80 -14q-67 0 -101.5 31.5t-34.5 104.5v391q129 38 245 38t172 -55t56 -170v-555z" />
    <glyph glyph-name="uni0E25" unicode="&#xe25;" horiz-adv-x="605" 
d="M528 0h-50v289q-77 0 -131.5 -3t-104 -12.5t-79 -26t-46.5 -43t-17 -64.5q0 -104 128 -104q53 0 93 14v-44q-42 -14 -94 -14q-83 0 -130 37t-47 109q0 46 18.5 80t52.5 56.5t88 35.5t118 18.5t151 5.5v10q0 89 -44 128t-139 39q-116 0 -216 -47v46q98 47 217 47
q232 0 232 -207v-350z" />
    <glyph glyph-name="uni0E26" unicode="&#xe26;" horiz-adv-x="643" 
d="M566 -223h-50v560q0 95 -39 134.5t-130 39.5q-93 0 -173 -25v-373q0 -119 -103 -119q-33 0 -55 6v40q20 -5 48 -5q60 0 60 80v404q129 38 229 38q213 0 213 -215v-565z" />
    <glyph glyph-name="uni0E27" unicode="&#xe27;" horiz-adv-x="542" 
d="M56 36v47q79 -47 170 -47q98 0 154 64.5t56 173.5q0 113 -55 175t-161 62q-97 0 -180 -49v47q83 48 181 48q127 0 196 -75.5t69 -207.5q0 -131 -69 -207.5t-190 -76.5q-92 0 -171 46z" />
    <glyph glyph-name="uni0E28" unicode="&#xe28;" horiz-adv-x="652" 
d="M575 0h-50v316q0 101 -50 148t-149 47t-149 -47t-50 -148v-112q21 39 71.5 67.5t107.5 28.5q42 0 63 -10v-50q-30 12 -63 12q-113 0 -179 -97v-155h-50v320q0 115 66.5 176t182.5 61q78 0 136 -31l69 68h71l-103 -94q76 -63 76 -180v-320z" />
    <glyph glyph-name="uni0E29" unicode="&#xe29;" horiz-adv-x="638" 
d="M625 299h-74v-71q0 -238 -237 -238t-237 238v319h50v-316q0 -105 45.5 -150t141.5 -45t141.5 45t45.5 150v68h-164v42h164v206h50v-206h74v-42z" />
    <glyph glyph-name="uni0E2A" unicode="&#xe2a;" horiz-adv-x="605" 
d="M528 0h-50v289q-95 0 -158 -5.5t-116.5 -21t-78.5 -45.5t-25 -77q0 -104 128 -104q53 0 93 14v-44q-42 -14 -94 -14q-83 0 -130 37t-47 109q0 59 27 98t84.5 60t132 29.5t184.5 8.5v10q0 87 -44.5 127t-138.5 40q-116 0 -216 -47v46q98 47 217 47q78 0 131 -28l65 65h71
l-98 -90q63 -55 63 -154v-350z" />
    <glyph glyph-name="uni0E2B" unicode="&#xe2b;" horiz-adv-x="625" 
d="M551 0h-50v213q0 87 -35.5 120.5t-99.5 33.5q-109 0 -239 -67v-300h-50v547h50v-203q134 68 240 68q13 0 20 -1l114 136h60l-122 -145q57 -17 84.5 -65t27.5 -115v-222z" />
    <glyph glyph-name="uni0E2C" unicode="&#xe2c;" horiz-adv-x="670" 
d="M590 0h-54l-203 313l-199 -313h-54v547h50v-344q0 -101 -7 -146h2q23 48 69 122l114 177h50l114 -177q63 -100 73 -122h2q-7 45 -7 146v223q0 56 -21.5 77t-64.5 21q-42 0 -72 -11v42q31 13 75 13l96 99h60l-105 -105q82 -24 82 -130v-432z" />
    <glyph glyph-name="uni0E2D" unicode="&#xe2d;" horiz-adv-x="614" 
d="M292 36q96 0 154 55t58 178q0 242 -233 242q-107 0 -207 -43v48q102 41 208 41q138 0 210 -76t72 -212q0 -143 -73 -211t-187 -68q-112 0 -179 52t-67 144q0 69 18 123h155v-44h-113q-10 -40 -10 -79q0 -150 194 -150z" />
    <glyph glyph-name="uni0E2E" unicode="&#xe2e;" horiz-adv-x="616" 
d="M292 36q96 0 154 55t58 178q0 242 -233 242q-107 0 -207 -43v48q102 41 208 41q73 0 129 -24l63 61h71l-93 -84q112 -69 112 -241q0 -143 -73 -211t-187 -68q-112 0 -179 52t-67 144q0 69 18 123h155v-44h-113q-10 -40 -10 -79q0 -150 194 -150z" />
    <glyph glyph-name="uni0E2F" unicode="&#xe2f;" horiz-adv-x="484" 
d="M404 -80h-50v553q-60 -122 -178 -122q-64 0 -98 33.5t-34 99.5q0 27 12 63h51q-12 -31 -12 -62q0 -37 20 -63.5t63 -26.5q116 0 176 152h50v-627z" />
    <glyph glyph-name="uni0E30" unicode="&#xe30;" horiz-adv-x="374" 
d="M310 377h-144q-108 0 -108 83q0 23 10 47h49q-8 -18 -8 -41q0 -25 14.5 -35t42.5 -10h144v-44zM310 81h-144q-108 0 -108 83q0 23 10 47h49q-8 -18 -8 -41q0 -25 14.5 -35t42.5 -10h144v-44z" />
    <glyph glyph-name="uni0E31" unicode="&#xe31;" 
d="M72 646h-284q-109 0 -109 82q0 22 9 48h49q-7 -21 -7 -41q0 -26 14 -35.5t44 -9.5h284v-44z" />
    <glyph glyph-name="uni0E32" unicode="&#xe32;" horiz-adv-x="482" 
d="M405 0h-49v347q0 165 -148 165q-96 0 -184 -49v47q84 47 186 47q86 0 140.5 -50.5t54.5 -151.5v-355z" />
    <glyph glyph-name="uni0E33" unicode="&#xe33;" horiz-adv-x="482" 
d="M405 0h-49v347q0 165 -148 165q-96 0 -184 -49v47q84 47 186 47q86 0 140.5 -50.5t54.5 -151.5v-355zM-50 725q0 32 -18 49t-49 17t-49 -17t-18 -49t18 -49t49 -17t49 17t18 49zM-5 725q0 -43 -31 -73.5t-81 -30.5t-81 30.5t-31 73.5t31 73.5t81 30.5t81 -30.5t31 -73.5z
" />
    <glyph glyph-name="uni0E34" unicode="&#xe34;" 
d="M-78 646h-451v44h451v-44z" />
    <glyph glyph-name="uni0E35" unicode="&#xe35;" 
d="M-78 646h-451v44h403l-2 120h50v-164z" />
    <glyph glyph-name="uni0E36" unicode="&#xe36;" 
d="M-156 646h-373v44h289q-13 20 -13 46q0 38 26.5 64.5t70.5 26.5t71 -26.5t27 -64.5q0 -37 -27 -63.5t-71 -26.5zM-99 736q0 26 -15.5 40.5t-41.5 14.5q-25 0 -40.5 -14.5t-15.5 -40.5t15.5 -40t40.5 -14t41 14t16 40z" />
    <glyph glyph-name="uni0E37" unicode="&#xe37;" 
d="M-78 646h-451v44h291l-2 120h50v-120h64l-2 120h50v-164z" />
    <glyph glyph-name="uni0E38" unicode="&#xe38;" 
d="M-78 -262h-49v100q0 45 -43 45q-22 0 -43 -7v40q26 8 56 8q37 0 58 -20.5t21 -61.5v-104z" />
    <glyph glyph-name="uni0E39" unicode="&#xe39;" 
d="M-127 -163v81h49v-87q0 -51 -39 -78.5t-98 -27.5t-98 27.5t-39 78.5v49h-64v38h113v-81q0 -40 20.5 -55.5t67.5 -15.5t67.5 15.5t20.5 55.5z" />
    <glyph glyph-name="uni0E3A" unicode="&#xe3a;" 
d="M-56 -120q0 -20 -13.5 -32.5t-32.5 -12.5t-32.5 12.5t-13.5 32.5t13.5 32.5t32.5 12.5t32.5 -12.5t13.5 -32.5z" />
    <glyph glyph-name="uni0E3F" unicode="&#xe3f;" horiz-adv-x="600" 
d="M339 -100h-46v100h-211v610h211v100h46v-100q179 0 179 -152q0 -90 -76 -139q112 -32 112 -154q0 -165 -215 -165v-100zM134 44h202q76 0 121 25t45 96q0 40 -13 66t-38 37.5t-47.5 15t-55.5 3.5h-214v-243zM134 331h213q15 0 45 -2q74 54 74 128q0 56 -28.5 82.5
t-99.5 26.5h-204v-235z" />
    <glyph glyph-name="uni0E40" unicode="&#xe40;" horiz-adv-x="218" 
d="M133 0h-49v547h49v-547z" />
    <glyph glyph-name="uni0E41" unicode="&#xe41;" horiz-adv-x="412" 
d="M328 0h-49v547h49v-547zM133 0h-49v547h49v-547z" />
    <glyph glyph-name="uni0E42" unicode="&#xe42;" horiz-adv-x="298" 
d="M204 0h-50v587q0 159 -152 196v47q93 49 204 49q99 0 177 -20v-46q-72 22 -178 22q-101 0 -159 -27q77 -21 117.5 -79.5t40.5 -141.5v-587z" />
    <glyph glyph-name="uni0E43" unicode="&#xe43;" horiz-adv-x="298" 
d="M204 0h-50v515q0 30 21 61t46.5 53t46.5 52.5t21 59.5q0 46 -33 70t-86 24q-40 0 -87 -16t-76 -40v44q74 56 162 56q81 0 125.5 -38t44.5 -100q0 -29 -14 -56t-33.5 -47.5t-39.5 -40.5t-34 -43.5t-14 -47.5v-506z" />
    <glyph glyph-name="uni0E44" unicode="&#xe44;" horiz-adv-x="298" 
d="M204 0h-50v546q0 87 33.5 161.5t94.5 120.5l-1 2q-82 -44 -159 -44q-38 0 -76 12.5t-59 30.5v46q62 -45 139 -45q85 0 156 45h51v-50q-70 -55 -99.5 -119.5t-29.5 -151.5v-554z" />
    <glyph glyph-name="uni0E45" unicode="&#xe45;" horiz-adv-x="482" 
d="M405 -223h-49v570q0 165 -148 165q-96 0 -184 -49v47q84 47 186 47q86 0 140.5 -50.5t54.5 -151.5v-578z" />
    <glyph glyph-name="uni0E46" unicode="&#xe46;" horiz-adv-x="608" 
d="M526 -213h-50v593q0 61 -17 88.5t-55 36.5l-109 -79l-109 80q-72 -43 -72 -119q0 -61 30.5 -84t84.5 -23q37 0 61 8v-41q-23 -9 -62 -9q-164 0 -164 150q0 59 34.5 102.5t89.5 67.5l106 -82l106 81q63 -18 94.5 -54t31.5 -113v-603z" />
    <glyph glyph-name="uni0E47" unicode="&#xe47;" 
d="M-114 646h-65q-73 0 -96 68q-29 -72 -93 -72q-54 0 -83.5 31t-29.5 86q0 116 138 116h229v-43h-226q-92 0 -92 -73q0 -38 19.5 -56t45.5 -18q32 0 46.5 17.5t20.5 48.5h49q9 -62 78 -62h59v-43z" />
    <glyph glyph-name="uni0E48" unicode="&#xe48;" 
d="M-78 869h-50v152h50v-152z" />
    <glyph glyph-name="uni0E49" unicode="&#xe49;" 
d="M24 869h-268v33q37 7 64.5 27.5t27.5 51.5q0 36 -42 36q-24 0 -46 -10v42q27 9 56 9q79 0 79 -71q0 -45 -54 -78l183 3v-43z" />
    <glyph glyph-name="uni0E4A" unicode="&#xe4a;" 
d="M49 869h-126v55q0 28 -5.5 40.5t-24.5 12.5q-33 0 -42 -49h-46q-9 49 -42 49q-19 0 -24.5 -12.5t-5.5 -40.5v-55h-49v52q0 101 75 101q51 0 69 -54q18 54 69 54q41 0 60.5 -30.5t12.5 -81.5l79 2v-43z" />
    <glyph glyph-name="uni0E4B" unicode="&#xe4b;" 
d="M18 962l-99 2l2 -95h-48l2 95l-100 -2v46l100 -2l-2 95h48l-2 -95l99 2v-46z" />
    <glyph glyph-name="uni0E4C" unicode="&#xe4c;" 
d="M-14 860h-134q-28 0 -41 -9t-13 -34q0 -21 8 -39h-49q-10 24 -10 45q0 81 105 81h134v-44z" />
    <glyph glyph-name="uni0E4D" unicode="&#xe4d;" 
d="M-50 725q0 32 -18 49t-49 17t-49 -17t-18 -49t18 -49t49 -17t49 17t18 49zM-5 725q0 -43 -31 -73.5t-81 -30.5t-81 30.5t-31 73.5t31 73.5t81 30.5t81 -30.5t31 -73.5z" />
    <glyph glyph-name="uni0E4E" unicode="&#xe4e;" horiz-adv-x="1170" 
d="M585 832l485 -277v-555l-485 -276l-485 276v555zM1017 548l-403 231l310 -479zM556 779l-403 -231l93 -248zM129 532v-514l98 251v2zM153 0l403 -230l-310 469zM585 770l-324 -501l324 -492l324 492zM614 -230l404 230l-94 239zM1041 18v514l-98 -263zM415 300
q1 -2 5 -4.5t4 -3.5q0 -5 1 -8q-30 -35 -62 -35q18 12 52 51zM450 199q8 0 10.5 -14t-1.5 -27q-8 -25 -35 -25q-13 1 -22 11.5t-11 20t-4 23.5t-2 15q-1 3 -3 42h1q19 7 39 27q6 -32 -2 -71q-7 -38 7 -44q9 -2 12 11q1 6 -6 17q-1 4 6 9t11 5zM558 212l7 18l1 -42l-15 9
q5 9 7 15zM765 173q1 3 5 8t5 9q2 -8 -2 -20q-7 -18 -7 -44q4 -19 -2 -22q2 6 -1 16q-5 11 -3 30q4 20 5 23zM553 125q2 -2 6 -2t7 1l2 1q0 -3 1.5 -13.5t-0.5 -10.5q-3 12 -13 9q-3 0 -7 -8q-2 8 -8 8q-5 0 -10 -9l-4 6l-6 3q-4 0 -10 -9q-2 7 2 22l-1 32q8 -4 16.5 -10
t15.5 -12.5t9 -7.5zM576 168q2 2 10 2q1 -4 -2 -13q-8 6 -8 11zM568 155q4 3 13 -2l-2 -4q-1 -2 -2.5 -3.5t-1.5 -2.5q-7 5 -7 12zM560 140l2 1q2 1 10 -3q-4 -4 -9 -6q-5 5 -3 8zM558 106q5 2 7 -6q-2 -4 -13 -6q2 12 6 12zM541 105q2 0 6 -11h-6h-8q0 11 8 11zM522 106
l2 -2q4 -4 4 -9q-10 2 -13 4l4.5 6t2.5 1zM748 106q3 1 7 -6q-5 -5 -14 -6q3 12 7 12zM730 105q5 0 7 -11h-6h-8q2 11 7 11zM710 106l3 -1q3 -3 5 -10q-3 1 -8 2t-6 2q1 3 2 4.5t2 2t2 0.5zM798 241q6 -11 6 -24l-5 -26q-1 1 -3 4t-5 15t-2 28q2 50 -7 71q-9 -45 -13 -59
q-5 -15 2 -45q1 -4 -0.5 -8t-5.5 -10t-6 -11q-6 -16 -6 -31q0 -19 6 -33q2 -8 0 -10q-7 9 -12 8q-4 0 -8 -8q-2 8 -9 8q-5 0 -10 -7l-2 6l-7 2q-4 0 -11 -9q-2 4 -1 9q13 56 5 72q-2 5 -14 19t-20.5 30t-9.5 32q-5 -3 0 -21q-38 -5 -86 10q1 8 5 19q-11 -9 -18 -34
q-3 -12 -16 -38q-3 -8 21 -20q11 -2 15 -5q-6 0 -9 -5v-2q0 -3 4 -9q-8 2 -10 -2l-1 -4q0 -5 3 -8h-7l-5 -2q-2 -7 2 -12q-1 1 -3 2t-4.5 2.5t-4.5 3.5q-29 26 -44 29q-16 6 -15 32q13 94 13 95q-4 -2 -8 -13l-16 25q6 4 14 17l10 -15l4 3l2 3l5 7.5t4 7.5q5 12 7 27
q1 6 3 12l3 7q19 43 1 62q-8 8 -19.5 10.5t-18.5 1.5l-7 -2q27 0 39 -14q8 -9 8 -22q0 -4 -9 -34l-3 -7q0 -1 -1.5 -5.5l-2.5 -7.5q-1 -12 -5 -26q-6 -9 -9 -13l-11 18l-3 -5q-8 -16 -16 -21q-18 -8 -21 -11q-7 -7 -9 -16q-1 -3 -3.5 -5.5t-4.5 -3.5l-2 -1q0 3 -1 8v14
l-16 13l-3 -2q-14 -20 -33 -38q0 1 -1 3.5t-1 3.5q-5 -8 -26 -9q10 8 16 14t7 9l1 2v49q-3 29 0 45q2 8 12 39q4 9 10 14t10 5l5 1q16 22 33 24q15 2 36 -0.5t29 -1.5q4 1 21 4t33 5t26 1q92 -13 128 -41q22 -18 32.5 -28t25.5 -35t18 -53zM450 383l9 12q-8 4 -15 -4
q-3 -2 -4 -6.5t0 -8.5l1 -3q6 6 9 10zM521 423q-4 7 -10.5 10t-11.5 2l-5 -1q18 -5 22 -16l1 -27q1 2 3 5t4 11.5t-3 15.5z" />
    <glyph glyph-name="uni0E4F" unicode="&#xe4f;" horiz-adv-x="580" 
d="M520 248q0 -97 -67.5 -162t-162.5 -65t-162.5 65t-67.5 162t67.5 161t162.5 64t162.5 -64t67.5 -161zM290 56q80 0 135.5 56t55.5 136q0 78 -56 134t-135 56t-135 -56t-56 -134q0 -80 56 -136t135 -56zM290 156q38 0 64.5 26.5t26.5 64.5t-26.5 64.5t-64.5 26.5
t-64.5 -26.5t-26.5 -64.5t26.5 -64.5t64.5 -26.5zM290 113q-56 0 -95 39.5t-39 95.5q0 54 39 93.5t95 39.5t95 -39.5t39 -93.5q0 -56 -39 -95.5t-95 -39.5z" />
    <glyph glyph-name="uni0E50" unicode="&#xe50;" horiz-adv-x="608" 
d="M564 240q0 -105 -72.5 -177.5t-187.5 -72.5t-187.5 72.5t-72.5 177.5t72.5 177.5t187.5 72.5t187.5 -72.5t72.5 -177.5zM514 240q0 92 -56.5 149t-153.5 57t-153.5 -57t-56.5 -149t56.5 -149t153.5 -57t153.5 57t56.5 149z" />
    <glyph glyph-name="uni0E51" unicode="&#xe51;" horiz-adv-x="603" 
d="M282 -41h-29v41h29q105 0 166 58t61 170q0 105 -57.5 161.5t-153.5 56.5q-93 0 -150.5 -47.5t-57.5 -122.5q0 -137 145 -137q52 0 91 14v-42q-42 -16 -99 -16q-82 0 -133.5 47.5t-51.5 131.5q0 97 70.5 156.5t184.5 59.5q119 0 190.5 -68t71.5 -195q0 -125 -77 -196.5
t-200 -71.5z" />
    <glyph glyph-name="uni0E52" unicode="&#xe52;" horiz-adv-x="681" 
d="M567 55v289q0 41 -12 63.5t-40 33.5l-93 -70l-99 70q-28 -10 -47 -40t-19 -70q0 -53 23.5 -80t77.5 -27q26 0 45 6v-44q-23 -6 -49 -6q-70 0 -107.5 37.5t-37.5 108.5q0 122 120 162l93 -68l89 68q106 -26 106 -140v-323q-128 -35 -252 -35q-149 0 -224 35.5t-75 114.5
v450h50v-444q0 -63 62.5 -87.5t187.5 -24.5q106 0 201 21z" />
    <glyph glyph-name="uni0E53" unicode="&#xe53;" horiz-adv-x="640" 
d="M576 0h-50v326q0 66 -23 93t-71 27q-44 0 -66.5 -33t-22.5 -89v-115h-48v115q0 56 -22.5 89t-66.5 33q-48 0 -71 -27t-23 -93v-184q0 -110 96 -110q43 0 76 12v-40q-35 -14 -80 -14q-66 0 -104 36.5t-38 109.5v195q0 80 37 119.5t95 39.5q47 0 80 -24.5t45 -65.5
q12 41 44.5 65.5t79.5 24.5q58 0 95.5 -39.5t37.5 -119.5v-331z" />
    <glyph glyph-name="uni0E54" unicode="&#xe54;" horiz-adv-x="568" 
d="M537 0h-54q-98 0 -146 47q-58 -47 -110 -47h-42q-59 34 -100 95t-41 142q0 112 65 178.5t191 66.5h110q50 0 70.5 14t20.5 55v39h44q5 -25 5 -50q0 -51 -31.5 -76.5t-104.5 -25.5h-114q-104 0 -155 -53.5t-51 -149.5q0 -61 29.5 -112.5t82.5 -80.5h21q42 0 88 34
q-18 30 -18 74q0 62 37.5 93.5t100.5 31.5q22 0 44 -5v-37h-34q-45 0 -71.5 -22t-26.5 -61q0 -57 31.5 -82.5t104.5 -25.5h54v-42z" />
    <glyph glyph-name="uni0E55" unicode="&#xe55;" horiz-adv-x="573" 
d="M542 0h-54q-98 0 -146 47q-58 -47 -110 -47h-47q-59 34 -100 95t-41 142q0 101 53.5 165.5t156.5 76.5q-15 21 -15 49q0 37 26 63t70 26q43 0 68.5 -26t25.5 -63q0 -26 -13 -46q50 0 70 14t20 55v39h44q5 -25 5 -50q0 -51 -31.5 -76.5t-104.5 -25.5h-119
q-104 0 -155 -53.5t-51 -149.5q0 -61 29.5 -112.5t82.5 -80.5h26q42 0 88 34q-18 30 -18 74q0 62 37.5 93.5t100.5 31.5q22 0 44 -5v-37h-34q-45 0 -71.5 -22t-26.5 -61q0 -57 31.5 -82.5t104.5 -25.5h54v-42zM335 479q22 0 35.5 13t13.5 36q0 24 -13.5 37t-35.5 13
q-24 0 -37.5 -13t-13.5 -37t13.5 -36.5t37.5 -12.5z" />
    <glyph glyph-name="uni0E56" unicode="&#xe56;" horiz-adv-x="599" 
d="M71 231h52q-12 -29 -12 -66q0 -56 49 -93.5t137 -37.5q96 0 152 53.5t56 154.5q0 87 -50 145.5t-135 58.5q-120 0 -188 -84h-41q-6 38 -19 77t-32 85t-26 66h54l56 -183q34 36 85.5 59.5t112.5 23.5q100 0 166.5 -71.5t66.5 -176.5q0 -120 -70 -186t-189 -66
q-107 0 -171 46.5t-64 127.5q0 37 10 67z" />
    <glyph glyph-name="uni0E57" unicode="&#xe57;" horiz-adv-x="746" 
d="M630 138v472h50v-475q0 -77 -34 -111t-89 -34q-57 0 -110 20v336q0 100 -71 100q-73 0 -73 -92v-65h-48v65q0 92 -73 92q-36 0 -53 -23.5t-17 -76.5v-204q0 -110 96 -110q43 0 76 12v-40q-35 -14 -80 -14q-66 0 -104 36.5t-38 109.5v215q0 69 31.5 104t84.5 35
q36 0 63.5 -19.5t37.5 -50.5q10 31 37.5 50.5t63.5 19.5q52 0 83.5 -35t31.5 -104v-312q22 -7 50 -7q49 0 67 25t18 81z" />
    <glyph glyph-name="uni0E58" unicode="&#xe58;" horiz-adv-x="642" 
d="M219 0h-34q-59 34 -100 95t-41 142q0 112 65 178.5t191 66.5h130q50 0 70.5 14t20.5 55v39h44q5 -25 5 -50q0 -51 -31.5 -76.5t-104.5 -25.5h-134q-104 0 -155 -53.5t-51 -149.5q0 -61 29.5 -112.5t82.5 -80.5h11q39 0 66.5 35t32.5 92h50q12 -133 109 -133q78 0 78 108
q0 60 -20 85.5t-66 25.5q-18 0 -38 -5v42q18 5 42 5q127 0 127 -152q0 -153 -122 -153q-56 0 -91 29.5t-43 83.5q-14 -52 -47 -78.5t-76 -26.5z" />
    <glyph glyph-name="uni0E59" unicode="&#xe59;" horiz-adv-x="612" 
d="M522 0h-51l-180 361q-20 40 -42.5 60.5t-57.5 20.5q-79 0 -79 -106v-194q0 -110 96 -110q43 0 76 12v-40q-35 -14 -80 -14q-66 0 -104 36.5t-38 109.5v205q0 74 35.5 111.5t88.5 37.5q77 0 119 -63q35 63 97 63q50 0 73 -32t23 -80v-36q37 0 49.5 11.5t12.5 50.5v166h44
v-170q0 -56 -24.5 -77t-78.5 -21h-45v75q0 36 -11.5 53t-45.5 17q-51 0 -71 -57l12 -22z" />
    <glyph glyph-name="uni0E5B" unicode="&#xe5b;" horiz-adv-x="1180" 
d="M1136 230v-44q-54 0 -102.5 32t-61.5 89l-33 -184h-48l-95 213l-42 -238h-48l-99 236q-4 -50 -24 -101t-55 -98t-92.5 -76.5t-127.5 -29.5q-105 0 -176.5 67t-71.5 193q0 118 60 177.5t151 59.5q74 0 122 -41.5t48 -122.5q0 -69 -46.5 -108t-114.5 -39v43q48 0 80.5 26.5
t32.5 79.5q0 56 -30.5 87t-91.5 31q-75 0 -118 -47.5t-43 -145.5q0 -107 52.5 -160.5t146.5 -53.5q118 0 187 88t69 217q0 28 -5 66l-1 4h48l113 -272l42 235h48l95 -214l34 186h48l-1 -3q12 -60 41.5 -96t55.5 -46t53 -10z" />
    <glyph glyph-name="endash" unicode="&#x2013;" horiz-adv-x="466" 
d="M430 284h-394v44h394v-44z" />
    <glyph glyph-name="emdash" unicode="&#x2014;" horiz-adv-x="766" 
d="M730 284h-694v44h694v-44z" />
    <glyph glyph-name="quoteleft" unicode="&#x2018;" horiz-adv-x="219" 
d="M136 656l27 -10q-18 -21 -34 -54t-16 -62q19 2 33 -11t14 -32t-13 -31t-34 -12q-25 0 -38 15t-13 40q0 83 74 157z" />
    <glyph glyph-name="quoteright" unicode="&#x2019;" horiz-adv-x="219" 
d="M83 444l-27 10q50 66 50 116q-19 -2 -33 11t-14 32t13 31t34 12q25 0 38 -15t13 -40q0 -75 -74 -157z" />
    <glyph glyph-name="quotesinglbase" unicode="&#x201a;" horiz-adv-x="219" 
d="M83 -130l-27 10q50 66 50 116q-19 -2 -33 11t-14 32t13 31t34 12q25 0 38 -15t13 -40q0 -75 -74 -157z" />
    <glyph glyph-name="quotedblleft" unicode="&#x201c;" horiz-adv-x="360" 
d="M277 656l27 -10q-18 -21 -34 -54t-16 -62q19 2 33 -11t14 -32t-13 -31t-34 -12q-25 0 -38 15t-13 40q0 83 74 157zM136 656l27 -10q-18 -21 -34 -54t-16 -62q19 2 33 -11t14 -32t-13 -31t-34 -12q-25 0 -38 15t-13 40q0 83 74 157z" />
    <glyph glyph-name="quotedblright" unicode="&#x201d;" horiz-adv-x="360" 
d="M83 444l-27 10q50 66 50 116q-19 -2 -33 11t-14 32t13 31t34 12q25 0 38 -15t13 -40q0 -75 -74 -157zM224 444l-27 10q50 66 50 116q-19 -2 -33 11t-14 32t13 31t34 12q25 0 38 -15t13 -40q0 -75 -74 -157z" />
    <glyph glyph-name="quotedblbase" unicode="&#x201e;" horiz-adv-x="360" 
d="M83 -130l-27 10q50 66 50 116q-19 -2 -33 11t-14 32t13 31t34 12q25 0 38 -15t13 -40q0 -75 -74 -157zM224 -130l-27 10q50 66 50 116q-19 -2 -33 11t-14 32t13 31t34 12q25 0 38 -15t13 -40q0 -75 -74 -157z" />
    <glyph glyph-name="dagger" unicode="&#x2020;" horiz-adv-x="480" 
d="M265 -260h-50v654h-175v46h175v210h50v-210h175v-46h-175v-654z" />
    <glyph glyph-name="daggerdbl" unicode="&#x2021;" horiz-adv-x="480" 
d="M265 -260h-50v210h-175v46h175v398h-175v46h175v210h50v-210h175v-46h-175v-398h175v-46h-175v-210z" />
    <glyph glyph-name="bullet" unicode="&#x2022;" horiz-adv-x="352" 
d="M176 207q-46 0 -78 32t-32 78t32 78t78 32t78 -32t32 -78t-32 -78t-78 -32z" />
    <glyph glyph-name="ellipsis" unicode="&#x2026;" horiz-adv-x="624" 
d="M150 37q0 -20 -13.5 -31.5t-32.5 -11.5t-32.5 11.5t-13.5 31.5t13.5 31.5t32.5 11.5t32.5 -11.5t13.5 -31.5zM358 37q0 -20 -13.5 -31.5t-32.5 -11.5t-32.5 11.5t-13.5 31.5t13.5 31.5t32.5 11.5t32.5 -11.5t13.5 -31.5zM566 37q0 -20 -13.5 -31.5t-32.5 -11.5
t-32.5 11.5t-13.5 31.5t13.5 31.5t32.5 11.5t32.5 -11.5t13.5 -31.5z" />
    <glyph glyph-name="perthousand" unicode="&#x2030;" horiz-adv-x="1020" 
d="M136 0h-48l458 610h46zM185 330q-63 0 -99 41.5t-36 103.5t36 103.5t99 41.5t99 -41.5t36 -103.5t-36 -103.5t-99 -41.5zM185 363q46 0 71 29t25 83t-25 83t-71 29t-71 -29t-25 -83t25 -83t71 -29zM495 -10q-63 0 -99 41.5t-36 103.5t36 103.5t99 41.5t99 -41.5
t36 -103.5t-36 -103.5t-99 -41.5zM495 23q46 0 71 29t25 83t-25 83t-71 29t-71 -29t-25 -83t25 -83t71 -29zM835 -10q-63 0 -99 41.5t-36 103.5t36 103.5t99 41.5t99 -41.5t36 -103.5t-36 -103.5t-99 -41.5zM835 23q46 0 71 29t25 83t-25 83t-71 29t-71 -29t-25 -83t25 -83
t71 -29z" />
    <glyph glyph-name="guilsinglleft" unicode="&#x2039;" horiz-adv-x="260" 
d="M214 64h-49l-139 206l139 209h49l-140 -208z" />
    <glyph glyph-name="guilsinglright" unicode="&#x203a;" horiz-adv-x="260" 
d="M95 64h-49l140 207l-140 208h49l139 -209z" />
    <glyph glyph-name="fraction" unicode="&#x2044;" horiz-adv-x="240" 
d="M-84 0h-48l458 610h46z" />
    <glyph glyph-name="Euro" unicode="&#x20ac;" horiz-adv-x="600" 
d="M556 95l11 -50q-63 -59 -157 -59q-99 0 -170 61.5t-91 171.5h-87v42h82q-3 39 -3 42q0 28 4 51h-83v42h89q23 105 91 164.5t164 59.5q90 0 153 -57l-11 -50q-54 60 -137 60q-80 0 -134 -45.5t-74 -131.5h254l-9 -42h-252q-3 -24 -3 -51q0 -16 2 -42h240l-9 -42h-225
q18 -92 74.5 -139t139.5 -47q85 0 141 62z" />
    <glyph glyph-name="trademark" unicode="&#x2122;" horiz-adv-x="758" 
d="M712 280h-46l-23 172l-4 85l-102 -257h-46l-102 257l-4 -85l-23 -172h-46l42 330h46l110 -276l110 276h46zM185 280h-46v289l-107 -1v42h260v-42l-107 1v-289z" />
    <glyph glyph-name="Omega" unicode="&#x2126;" horiz-adv-x="678" 
d="M606 0h-216v40q188 137 188 304q0 101 -56 165.5t-183 64.5t-183 -64.5t-56 -165.5q0 -167 188 -304v-40h-216v42h159q-75 45 -128 127.5t-53 176.5q0 120 70.5 197t218.5 77t218.5 -77t70.5 -197q0 -94 -53 -176.5t-128 -127.5h159v-42z" />
    <glyph glyph-name="estimated" unicode="&#x212e;" horiz-adv-x="856" 
d="M687 130h58q-56 -65 -136.5 -102t-174.5 -37q-165 0 -279.5 105t-114.5 253q0 150 113 254.5t277 104.5t277 -104.5t113 -254.5v-14h-628q-5 0 -5 -4v-185q0 -18 8 -29q85 -96 240 -96q156 0 252 109zM673 365v186q0 24 -11 36q-93 91 -231 91q-141 0 -235 -97
q-9 -9 -9 -29v-187q0 -6 5 -6h476q5 0 5 6z" />
    <glyph glyph-name="partialdiff" unicode="&#x2202;" horiz-adv-x="560" 
d="M196 620v43q55 0 110 -26t99 -71.5t71.5 -114t27.5 -146.5q0 -154 -65 -234.5t-174 -80.5q-94 0 -156.5 59t-62.5 156q0 86 52.5 145.5t157.5 59.5q109 0 200 -84q0 120 -81.5 207t-178.5 87zM456 272q-81 94 -198 94q-85 0 -124.5 -47.5t-39.5 -116.5q0 -81 50 -124.5
t120 -43.5q174 0 192 238z" />
    <glyph glyph-name="Delta" unicode="&#x2206;" horiz-adv-x="598" 
d="M546 0h-494v40l220 610h54l220 -610v-40zM494 46l-195 545l-195 -545h390z" />
    <glyph glyph-name="product" unicode="&#x220f;" horiz-adv-x="638" 
d="M550 -215h-48v822h-366v-822h-48v865h462v-865z" />
    <glyph glyph-name="summation" unicode="&#x2211;" horiz-adv-x="541" 
d="M489 -215h-445v35l262 390l-251 398v42h417v-46h-358l243 -376v-28l-248 -369h380v-46z" />
    <glyph glyph-name="minus" unicode="&#x2212;" horiz-adv-x="514" 
d="M464 286h-414v44h414v-44z" />
    <glyph glyph-name="uni2219" unicode="&#x2219;" horiz-adv-x="212" 
d="M152 291q0 -20 -13 -32.5t-33 -12.5t-33 12.5t-13 32.5t13 32.5t33 12.5t33 -12.5t13 -32.5z" />
    <glyph glyph-name="radical" unicode="&#x221a;" horiz-adv-x="487" 
d="M295 -64h-65l-119 344h-85v45h119l114 -350l145 675h43z" />
    <glyph glyph-name="infinity" unicode="&#x221e;" horiz-adv-x="692" 
d="M344 229q-18 -50 -63.5 -93t-97.5 -43q-71 0 -114 43.5t-43 117.5q0 78 44 122.5t107 44.5q55 0 99 -35.5t72 -100.5q16 49 63 92.5t98 43.5q71 0 114 -43.5t43 -117.5q0 -78 -44 -122.5t-107 -44.5q-55 0 -99 35.5t-72 100.5zM334 258q-17 50 -58 87.5t-91 37.5
q-63 0 -91 -40.5t-28 -89.5q0 -47 30 -86t89 -39q49 0 88 37t61 93zM358 256q17 -50 58 -87.5t91 -37.5q63 0 91 40.5t28 89.5q0 47 -30.5 86t-88.5 39q-49 0 -88 -37t-61 -93z" />
    <glyph glyph-name="integral" unicode="&#x222b;" horiz-adv-x="354" 
d="M46 -215v34h44q38 0 50 16.5t12 59.5v650q0 54 18.5 84t75.5 30q28 0 62 -8v-34h-44q-38 0 -50 -16.5t-12 -59.5v-650q0 -54 -18.5 -84t-75.5 -30q-28 0 -62 8z" />
    <glyph glyph-name="approxequal" unicode="&#x2248;" horiz-adv-x="514" 
d="M444 274v-48q-53 -44 -98 -44q-35 0 -93 29t-86 29q-26 0 -46.5 -12t-50.5 -39v48q52 43 97 43q36 0 93.5 -28.5t86.5 -28.5q47 0 97 51zM444 427v-48q-53 -44 -98 -44q-35 0 -93 29t-86 29q-26 0 -46.5 -12t-50.5 -39v48q52 43 97 43q36 0 93.5 -28.5t86.5 -28.5
q47 0 97 51z" />
    <glyph glyph-name="notequal" unicode="&#x2260;" horiz-adv-x="514" 
d="M464 206h-228l-104 -206h-52l104 206h-134v42h156l60 118h-216v42h237l95 186h52l-95 -186h125v-42h-146l-60 -118h206v-42z" />
    <glyph glyph-name="lessequal" unicode="&#x2264;" horiz-adv-x="514" 
d="M454 116l-422 208v42l422 208v-43l-379 -186l379 -186v-43zM454 0h-422v40h422v-40z" />
    <glyph glyph-name="greaterequal" unicode="&#x2265;" horiz-adv-x="514" 
d="M482 324l-422 -208v43l379 186l-379 186v43l422 -208v-42zM482 0h-422v40h422v-40z" />
    <glyph glyph-name="lozenge" unicode="&#x25ca;" horiz-adv-x="554" 
d="M277 51l181 274l-181 274l-181 -274zM294 0h-34l-216 325l216 325h34l216 -325z" />
    <glyph glyph-name="uni0E10.alt1" unicode="&#xf700;" horiz-adv-x="571" 
d="M254 0h-47l-98 209q-22 45 -41 75h65l111 -240q87 9 155 76t68 170t-56 162t-165 59q-104 0 -206 -46v46q102 46 210 46q79 0 137 -30l69 67h71l-102 -92q92 -74 92 -212q0 -121 -78.5 -197.5t-184.5 -92.5z" />
    <glyph glyph-name="uni0E34.alt1" unicode="&#xf701;" 
d="M-188 646h-421v44h421v-44z" />
    <glyph glyph-name="uni0E35.alt1" unicode="&#xf702;" 
d="M-188 646h-421v44h373l-2 120h50v-164z" />
    <glyph glyph-name="uni0E36.alt1" unicode="&#xf703;" 
d="M-266 646h-343v44h259q-13 20 -13 46q0 38 26.5 64.5t70.5 26.5t71 -26.5t27 -64.5q0 -37 -27 -63.5t-71 -26.5zM-209 736q0 26 -15.5 40.5t-41.5 14.5q-25 0 -40.5 -14.5t-15.5 -40.5t15.5 -40t40.5 -14t41 14t16 40z" />
    <glyph glyph-name="uni0E37.alt1" unicode="&#xf704;" 
d="M-188 646h-421v44h261l-2 120h50v-120h64l-2 120h50v-164z" />
    <glyph glyph-name="uni0E48.alt1" unicode="&#xf705;" 
d="M-293 646h-50v197h50v-197z" />
    <glyph glyph-name="uni0E49.alt1" unicode="&#xf706;" 
d="M-214 646h-285v36q41 9 71.5 32t30.5 57q0 39 -44 39q-28 0 -54 -11v45q34 10 62 10q87 0 87 -76q0 -56 -60 -88l192 3v-47z" />
    <glyph glyph-name="uni0E4A.alt1" unicode="&#xf707;" 
d="M-167 646h-139v60q0 59 -37 59q-36 0 -46 -54h-51q-10 54 -46 54q-37 0 -37 -59v-60h-54v57q0 51 21.5 81t65.5 30q55 0 75 -59q21 59 76 59q46 0 69.5 -34t15.5 -89l87 2v-47z" />
    <glyph glyph-name="uni0E4B.alt1" unicode="&#xf708;" 
d="M-212 748l-109 2l2 -104h-51l2 104l-110 -2v47l110 -2l-2 104h51l-2 -104l109 2v-47z" />
    <glyph glyph-name="uni0E4C.alt1" unicode="&#xf709;" 
d="M-185 726h-138q-31 0 -45 -9.5t-14 -37.5q0 -21 9 -43h-54q-11 30 -11 49q0 89 115 89h138v-48z" />
    <glyph glyph-name="uni0E48.alt2" unicode="&#xf70a;" 
d="M-79 646h-50v197h50v-197z" />
    <glyph glyph-name="uni0E49.alt2" unicode="&#xf70b;" 
d="M0 646h-285v36q41 9 71.5 32t30.5 57q0 39 -44 39q-28 0 -54 -11v45q34 10 62 10q87 0 87 -76q0 -56 -60 -88l192 3v-47z" />
    <glyph glyph-name="uni0E4A.alt2" unicode="&#xf70c;" 
d="M-35 646h-139v60q0 59 -37 59q-36 0 -46 -54h-51q-10 54 -46 54q-37 0 -37 -59v-60h-54v57q0 51 21.5 81t65.5 30q55 0 75 -59q21 59 76 59q46 0 69.5 -34t15.5 -89l87 2v-47z" />
    <glyph glyph-name="uni0E4B.alt2" unicode="&#xf70d;" 
d="M-82 748l-109 2l2 -104h-51l2 104l-110 -2v47l110 -2l-2 104h51l-2 -104l109 2v-47z" />
    <glyph glyph-name="uni0E4C.alt2" unicode="&#xf70e;" 
d="M-25 726h-138q-31 0 -45 -9.5t-14 -37.5q0 -21 9 -43h-54q-11 30 -11 49q0 89 115 89h138v-48z" />
    <glyph glyph-name="uni0E0D.alt1" unicode="&#xf70f;" horiz-adv-x="976" 
d="M849 184v363h50v-365q0 -95 -57.5 -143.5t-156.5 -48.5t-156.5 48.5t-57.5 143.5v152q0 97 -38.5 137t-129.5 40q-93 0 -173 -25v-352q0 -56 21.5 -77t64.5 -21q42 0 72 11v-42q-32 -13 -76 -13q-65 0 -98.5 32t-33.5 104v391q129 38 229 38q212 0 212 -219v-154
q0 -148 164 -148t164 148z" />
    <glyph glyph-name="uni0E31.alt1" unicode="&#xf710;" 
d="M-177 646h-244q-109 0 -109 82q0 22 9 48h49q-7 -21 -7 -41q0 -26 14 -35.5t44 -9.5h244v-44z" />
    <glyph glyph-name="uni0E4D.alt1" unicode="&#xf711;" 
d="M-260 721q0 32 -18 49t-49 17t-49 -17t-18 -49t18 -49t49 -17t49 17t18 49zM-215 721q0 -43 -31 -73.5t-81 -30.5t-81 30.5t-31 73.5t31 73.5t81 30.5t81 -30.5t31 -73.5z" />
    <glyph glyph-name="uni0E47.alt1" unicode="&#xf712;" 
d="M-204 646h-65q-73 0 -96 68q-29 -72 -93 -72q-54 0 -83.5 31t-29.5 86q0 116 138 116h229v-43h-226q-92 0 -92 -73q0 -38 19.5 -56t45.5 -18q32 0 46.5 17.5t20.5 48.5h49q9 -62 78 -62h59v-43z" />
    <glyph glyph-name="uni0E48.alt3" unicode="&#xf713;" 
d="M-188 869h-50v152h50v-152z" />
    <glyph glyph-name="uni0E49.alt3" unicode="&#xf714;" 
d="M-143 869h-268v33q37 7 64.5 27.5t27.5 51.5q0 36 -42 36q-24 0 -46 -10v42q27 9 56 9q79 0 79 -71q0 -45 -54 -78l183 3v-43z" />
    <glyph glyph-name="uni0E4A.alt3" unicode="&#xf715;" 
d="M-144 869h-126v55q0 28 -5.5 40.5t-24.5 12.5q-33 0 -42 -49h-46q-9 49 -42 49q-19 0 -24.5 -12.5t-5.5 -40.5v-55h-49v52q0 101 75 101q51 0 69 -54q18 54 69 54q41 0 60.5 -30.5t12.5 -81.5l79 2v-43z" />
    <glyph glyph-name="uni0E4B.alt3" unicode="&#xf716;" 
d="M-92 962l-99 2l2 -95h-48l2 95l-100 -2v46l100 -2l-2 95h48l-2 -95l99 2v-46z" />
    <glyph glyph-name="uni0E4C.alt3" unicode="&#xf717;" 
d="M-124 860h-134q-28 0 -41 -9t-13 -34q0 -21 8 -39h-49q-10 24 -10 45q0 81 105 81h134v-44z" />
    <glyph glyph-name="uni0E38.alt1" unicode="&#xf718;" 
d="M-78 -452h-49v100q0 45 -43 45q-22 0 -43 -7v40q26 8 56 8q37 0 58 -20.5t21 -61.5v-104z" />
    <glyph glyph-name="uni0E39.alt1" unicode="&#xf719;" 
d="M-127 -353v81h49v-87q0 -51 -39 -78.5t-98 -27.5t-98 27.5t-39 78.5v49h-64v38h113v-81q0 -40 20.5 -55.5t67.5 -15.5t67.5 15.5t20.5 55.5z" />
    <glyph glyph-name="uni0E3A.alt1" unicode="&#xf71a;" 
d="M-56 -310q0 -20 -13.5 -32.5t-32.5 -12.5t-32.5 12.5t-13.5 32.5t13.5 32.5t32.5 12.5t32.5 -12.5t13.5 -32.5z" />
    <glyph glyph-name="uni0E0E.alt1" unicode="&#xf71b;" horiz-adv-x="643" 
d="M566 -213h-45l-158 56q-58 20 -93 20q-44 0 -69 -19t-25 -56h-48q0 58 40 90t105 32q38 0 96 -20l147 -54v501q0 95 -39 134.5t-130 39.5q-93 0 -173 -25v-373q0 -119 -102 -119q-32 0 -54 6v41q20 -5 47 -5q59 0 59 80v403q129 38 229 38q213 0 213 -215v-555z" />
    <glyph glyph-name="uni0E0F.alt1" unicode="&#xf71c;" horiz-adv-x="643" 
d="M566 -213h-70q-48 0 -83.5 21t-46.5 57q-11 -38 -47 -60t-84 -22q-51 0 -100 27v47q44 -30 100 -30q87 0 104 90h54q23 -86 103 -86h20v506q0 95 -39 134.5t-130 39.5q-93 0 -173 -25v-373q0 -119 -102 -119q-32 0 -54 6v41q20 -5 47 -5q59 0 59 80v403q129 38 229 38
q213 0 213 -215v-555z" />
    <glyph glyph-name="uni0E2C.alt1" unicode="&#xf71d;" horiz-adv-x="670" 
d="M590 0h-54l-203 313l-199 -313h-54v547h50v-344q0 -101 -7 -146h2q23 48 69 122l114 177h50l114 -177q63 -100 73 -122h2q-7 45 -7 146v156q0 56 -21.5 77t-64.5 21q-42 0 -72 -11v42q31 13 75 13l80 93h60l-89 -99q82 -24 82 -130v-365z" />
    <glyph glyph-name="uniF8FF" unicode="&#xf8ff;" horiz-adv-x="1170" 
d="M585 832l485 -277v-555l-485 -276l-485 276v555zM1017 548l-403 231l310 -479zM556 779l-403 -231l93 -248zM129 532v-514l98 251v2zM153 0l403 -230l-310 469zM585 770l-324 -501l324 -492l324 492zM614 -230l404 230l-94 239zM1041 18v514l-98 -263zM415 300
q1 -2 5 -4.5t4 -3.5q0 -5 1 -8q-30 -35 -62 -35q18 12 52 51zM450 199q8 0 10.5 -14t-1.5 -27q-8 -25 -35 -25q-13 1 -22 11.5t-11 20t-4 23.5t-2 15q-1 3 -3 42h1q19 7 39 27q6 -32 -2 -71q-7 -38 7 -44q9 -2 12 11q1 6 -6 17q-1 4 6 9t11 5zM558 212l7 18l1 -42l-15 9
q5 9 7 15zM765 173q1 3 5 8t5 9q2 -8 -2 -20q-7 -18 -7 -44q4 -19 -2 -22q2 6 -1 16q-5 11 -3 30q4 20 5 23zM553 125q2 -2 6 -2t7 1l2 1q0 -3 1.5 -13.5t-0.5 -10.5q-3 12 -13 9q-3 0 -7 -8q-2 8 -8 8q-5 0 -10 -9l-4 6l-6 3q-4 0 -10 -9q-2 7 2 22l-1 32q8 -4 16.5 -10
t15.5 -12.5t9 -7.5zM576 168q2 2 10 2q1 -4 -2 -13q-8 6 -8 11zM568 155q4 3 13 -2l-2 -4q-1 -2 -2.5 -3.5t-1.5 -2.5q-7 5 -7 12zM560 140l2 1q2 1 10 -3q-4 -4 -9 -6q-5 5 -3 8zM558 106q5 2 7 -6q-2 -4 -13 -6q2 12 6 12zM541 105q2 0 6 -11h-6h-8q0 11 8 11zM522 106
l2 -2q4 -4 4 -9q-10 2 -13 4l4.5 6t2.5 1zM748 106q3 1 7 -6q-5 -5 -14 -6q3 12 7 12zM730 105q5 0 7 -11h-6h-8q2 11 7 11zM710 106l3 -1q3 -3 5 -10q-3 1 -8 2t-6 2q1 3 2 4.5t2 2t2 0.5zM798 241q6 -11 6 -24l-5 -26q-1 1 -3 4t-5 15t-2 28q2 50 -7 71q-9 -45 -13 -59
q-5 -15 2 -45q1 -4 -0.5 -8t-5.5 -10t-6 -11q-6 -16 -6 -31q0 -19 6 -33q2 -8 0 -10q-7 9 -12 8q-4 0 -8 -8q-2 8 -9 8q-5 0 -10 -7l-2 6l-7 2q-4 0 -11 -9q-2 4 -1 9q13 56 5 72q-2 5 -14 19t-20.5 30t-9.5 32q-5 -3 0 -21q-38 -5 -86 10q1 8 5 19q-11 -9 -18 -34
q-3 -12 -16 -38q-3 -8 21 -20q11 -2 15 -5q-6 0 -9 -5v-2q0 -3 4 -9q-8 2 -10 -2l-1 -4q0 -5 3 -8h-7l-5 -2q-2 -7 2 -12q-1 1 -3 2t-4.5 2.5t-4.5 3.5q-29 26 -44 29q-16 6 -15 32q13 94 13 95q-4 -2 -8 -13l-16 25q6 4 14 17l10 -15l4 3l2 3l5 7.5t4 7.5q5 12 7 27
q1 6 3 12l3 7q19 43 1 62q-8 8 -19.5 10.5t-18.5 1.5l-7 -2q27 0 39 -14q8 -9 8 -22q0 -4 -9 -34l-3 -7q0 -1 -1.5 -5.5l-2.5 -7.5q-1 -12 -5 -26q-6 -9 -9 -13l-11 18l-3 -5q-8 -16 -16 -21q-18 -8 -21 -11q-7 -7 -9 -16q-1 -3 -3.5 -5.5t-4.5 -3.5l-2 -1q0 3 -1 8v14
l-16 13l-3 -2q-14 -20 -33 -38q0 1 -1 3.5t-1 3.5q-5 -8 -26 -9q10 8 16 14t7 9l1 2v49q-3 29 0 45q2 8 12 39q4 9 10 14t10 5l5 1q16 22 33 24q15 2 36 -0.5t29 -1.5q4 1 21 4t33 5t26 1q92 -13 128 -41q22 -18 32.5 -28t25.5 -35t18 -53zM450 383l9 12q-8 4 -15 -4
q-3 -2 -4 -6.5t0 -8.5l1 -3q6 6 9 10zM521 423q-4 7 -10.5 10t-11.5 2l-5 -1q18 -5 22 -16l1 -27q1 2 3 5t4 11.5t-3 15.5z" />
    <glyph glyph-name="NULL" 
 />
    <glyph glyph-name="CR" horiz-adv-x="264" 
 />
    <glyph glyph-name="uni0E33.alt1" horiz-adv-x="513" 
d="M405 0h-49v347q0 165 -148 165q-96 0 -184 -49v47q84 47 186 47q86 0 140.5 -50.5t54.5 -151.5v-355zM-260 721q0 32 -18 49t-49 17t-49 -17t-18 -49t18 -49t49 -17t49 17t18 49zM-215 721q0 -43 -31 -73.5t-81 -30.5t-81 30.5t-31 73.5t31 73.5t81 30.5t81 -30.5
t31 -73.5z" />
    <glyph glyph-name="uni0E4E.alt1" 
 />
    <glyph glyph-name="uni0E01.alt" horiz-adv-x="618" 
d="M541 0h-50v340q0 96 -48 133.5t-155 37.5q-44 0 -90 -6q-41 -38 -67 -88.5t-26 -99.5v-317h-50v316q0 90 86 180l-107 -22v30q122 53 251 53q256 0 256 -206v-351z" />
    <glyph glyph-name="uni0E2B.alt" horiz-adv-x="625" 
d="M551 0h-50v183q0 87 -35.5 120.5t-99.5 33.5q-109 0 -239 -67v-270h-50v547h50v-233q134 68 240 68q13 0 20 -1l94 166h60l-102 -175q57 -17 84.5 -65t27.5 -115v-192z" />
    <glyph glyph-name="uni0E2D.alt" horiz-adv-x="612" 
d="M556 269q0 -142 -76.5 -210.5t-201.5 -68.5q-122 0 -215 44v261h50v-231q65 -28 160 -28q233 0 233 233q0 242 -237 242q-109 0 -209 -43v48q102 41 210 41q139 0 212.5 -76.5t73.5 -211.5z" />
    <glyph glyph-name="zero.tab" horiz-adv-x="600" 
d="M300 -10q-116 0 -180 81.5t-64 233.5t64 233.5t180 81.5t180 -81.5t64 -233.5t-64 -233.5t-180 -81.5zM300 35q97 0 145.5 70t48.5 200t-48.5 200t-145.5 70t-145.5 -70t-48.5 -200t48.5 -200t145.5 -70z" />
    <glyph glyph-name="one.tab" horiz-adv-x="600" 
d="M362 0h-50v555q-53 -78 -158 -73v42q53 -2 91 18t71 68h46v-610z" />
    <glyph glyph-name="two.tab" horiz-adv-x="600" 
d="M494 0h-404v40q172 105 258.5 201.5t86.5 191.5q0 67 -42.5 104.5t-125.5 37.5q-82 0 -160 -34v47q71 32 163 32q108 0 161.5 -53.5t53.5 -134.5q0 -55 -25 -108.5t-71.5 -102t-100 -90.5t-122.5 -85h328v-46z" />
    <glyph glyph-name="three.tab" horiz-adv-x="600" 
d="M92 25v48q89 -37 184 -37q160 0 160 130q0 134 -219 129v45q92 -4 146 27t54 102q0 106 -143 106q-86 0 -170 -37v47q76 35 172 35q84 0 137.5 -36.5t53.5 -115.5q0 -62 -32.5 -99t-84.5 -50v-2q56 -6 96 -46.5t40 -105.5q0 -90 -56 -132.5t-150 -42.5q-112 0 -188 35z
" />
    <glyph glyph-name="four.tab" horiz-adv-x="600" 
d="M441 0h-50v131h-329v41l325 438h54v-434h97v-45h-97v-131zM391 176v368l-269 -368h269z" />
    <glyph glyph-name="five.tab" horiz-adv-x="600" 
d="M92 19v48q84 -32 172 -32q100 0 145 35t45 113q0 140 -190 140q-78 0 -158 -16l13 303h348v-45h-304l-9 -207q62 10 123 10q110 0 168.5 -49t58.5 -136q0 -193 -239 -193q-93 0 -173 29z" />
    <glyph glyph-name="six.tab" horiz-adv-x="600" 
d="M456 592v-44q-60 29 -116 29q-96 0 -154.5 -73.5t-58.5 -205.5q27 40 82 68t118 28q105 0 154 -55.5t49 -141.5q0 -97 -59 -152t-153 -55q-110 0 -174 77t-64 230q0 157 71 240t186 83q61 0 119 -28zM127 244q6 -95 56 -152.5t136 -57.5q70 0 116.5 40t46.5 120
q0 69 -36 112.5t-121 43.5q-124 0 -198 -106z" />
    <glyph glyph-name="seven.tab" horiz-adv-x="600" 
d="M240 0h-50l242 565h-346v45h400v-37z" />
    <glyph glyph-name="eight.tab" horiz-adv-x="600" 
d="M258 307v2q-163 32 -163 159q0 69 54.5 110.5t146.5 41.5q98 0 151.5 -40t53.5 -111q0 -108 -152 -160v-2q81 -12 126 -52t45 -102q0 -78 -56.5 -120.5t-163.5 -42.5q-99 0 -159.5 39.5t-60.5 113.5q0 65 43 105.5t135 58.5zM297 286q-168 -38 -168 -137q0 -118 171 -118
q66 0 118.5 29.5t52.5 92.5q0 59 -44.5 89.5t-129.5 43.5zM310 331q67 22 104.5 52t37.5 86q0 50 -40.5 80t-114.5 30q-71 0 -112 -30.5t-41 -80.5q0 -60 41.5 -92t124.5 -45z" />
    <glyph glyph-name="nine.tab" horiz-adv-x="600" 
d="M144 18v44q60 -29 116 -29q96 0 154 73t58 206q-30 -41 -83 -68.5t-116 -27.5q-105 0 -154 55.5t-49 141.5q0 97 59 152t153 55q110 0 174 -77t64 -230q0 -157 -71 -240t-186 -83q-61 0 -119 28zM472 366q-6 96 -55 153t-136 57q-70 0 -116.5 -40t-46.5 -120
q0 -69 36 -112.5t121 -43.5q123 0 197 106z" />
    </font>
</defs>
</svg>
